<?xml version="1.0" encoding="utf-8" standalone="no"?>
<!DOCTYPE svg PUBLIC "-//W3C//DTD SVG 1.1//EN"
  "http://www.w3.org/Graphics/SVG/1.1/DTD/svg11.dtd">
<!-- Created with matplotlib (https://matplotlib.org/) -->
<svg height="312.65575pt" version="1.1" viewBox="0 0 414.0825 312.65575" width="414.0825pt" xmlns="http://www.w3.org/2000/svg" xmlns:xlink="http://www.w3.org/1999/xlink">
 <defs>
  <style type="text/css">
*{stroke-linecap:butt;stroke-linejoin:round;}
  </style>
 </defs>
 <g id="figure_1">
  <g id="patch_1">
   <path d="M 0 312.65575 
L 414.0825 312.65575 
L 414.0825 0 
L 0 0 
z
" style="fill:#ffffff;"/>
  </g>
  <g id="axes_1">
   <g id="patch_2">
    <path d="M 49.7625 273.312 
L 406.8825 273.312 
L 406.8825 7.2 
L 49.7625 7.2 
z
" style="fill:#ffffff;"/>
   </g>
   <g id="matplotlib.axis_1">
    <g id="xtick_1">
     <g id="line2d_1">
      <defs>
       <path d="M 0 0 
L 0 6 
" id="m032255fa98" style="stroke:#262626;stroke-width:0.8;"/>
      </defs>
      <g>
       <use style="fill:#262626;stroke:#262626;stroke-width:0.8;" x="65.995227" xlink:href="#m032255fa98" y="273.312"/>
      </g>
     </g>
     <g id="text_1">
      <!-- 0 -->
      <defs>
       <path d="M 51.703125 34.421875 
Q 51.703125 17.1875 45.625 8.09375 
Q 39.546875 -0.984375 27.6875 -0.984375 
Q 15.828125 -0.984375 9.859375 8.046875 
Q 3.90625 17.09375 3.90625 34.421875 
Q 3.90625 52.15625 9.6875 60.984375 
Q 15.484375 69.828125 27.984375 69.828125 
Q 40.140625 69.828125 45.921875 60.890625 
Q 51.703125 51.953125 51.703125 34.421875 
z
M 42.78125 34.421875 
Q 42.78125 49.3125 39.328125 56 
Q 35.890625 62.703125 27.984375 62.703125 
Q 19.875 62.703125 16.328125 56.109375 
Q 12.796875 49.515625 12.796875 34.421875 
Q 12.796875 19.78125 16.375 12.984375 
Q 19.96875 6.203125 27.78125 6.203125 
Q 35.546875 6.203125 39.15625 13.125 
Q 42.78125 20.0625 42.78125 34.421875 
z
" id="LiberationSans-48"/>
      </defs>
      <g style="fill:#262626;" transform="translate(63.214759 290.058875)scale(0.1 -0.1)">
       <use xlink:href="#LiberationSans-48"/>
      </g>
     </g>
    </g>
    <g id="xtick_2">
     <g id="line2d_2">
      <g>
       <use style="fill:#262626;stroke:#262626;stroke-width:0.8;" x="130.991132" xlink:href="#m032255fa98" y="273.312"/>
      </g>
     </g>
     <g id="text_2">
      <!-- 200 -->
      <defs>
       <path d="M 5.03125 0 
L 5.03125 6.203125 
Q 7.515625 11.921875 11.109375 16.28125 
Q 14.703125 20.65625 18.65625 24.1875 
Q 22.609375 27.734375 26.484375 30.765625 
Q 30.375 33.796875 33.5 36.8125 
Q 36.625 39.84375 38.546875 43.15625 
Q 40.484375 46.484375 40.484375 50.6875 
Q 40.484375 56.34375 37.15625 59.46875 
Q 33.84375 62.59375 27.9375 62.59375 
Q 22.3125 62.59375 18.671875 59.546875 
Q 15.046875 56.5 14.40625 50.984375 
L 5.421875 51.8125 
Q 6.390625 60.0625 12.421875 64.9375 
Q 18.453125 69.828125 27.9375 69.828125 
Q 38.328125 69.828125 43.921875 64.921875 
Q 49.515625 60.015625 49.515625 50.984375 
Q 49.515625 46.96875 47.671875 43.015625 
Q 45.84375 39.0625 42.234375 35.109375 
Q 38.625 31.15625 28.421875 22.859375 
Q 22.796875 18.265625 19.46875 14.578125 
Q 16.15625 10.890625 14.703125 7.46875 
L 50.59375 7.46875 
L 50.59375 0 
z
" id="LiberationSans-50"/>
      </defs>
      <g style="fill:#262626;" transform="translate(122.649726 290.058875)scale(0.1 -0.1)">
       <use xlink:href="#LiberationSans-50"/>
       <use x="55.615234" xlink:href="#LiberationSans-48"/>
       <use x="111.230469" xlink:href="#LiberationSans-48"/>
      </g>
     </g>
    </g>
    <g id="xtick_3">
     <g id="line2d_3">
      <g>
       <use style="fill:#262626;stroke:#262626;stroke-width:0.8;" x="195.987037" xlink:href="#m032255fa98" y="273.312"/>
      </g>
     </g>
     <g id="text_3">
      <!-- 400 -->
      <defs>
       <path d="M 43.015625 15.578125 
L 43.015625 0 
L 34.71875 0 
L 34.71875 15.578125 
L 2.296875 15.578125 
L 2.296875 22.40625 
L 33.796875 68.796875 
L 43.015625 68.796875 
L 43.015625 22.515625 
L 52.6875 22.515625 
L 52.6875 15.578125 
z
M 34.71875 58.890625 
Q 34.625 58.59375 33.34375 56.296875 
Q 32.078125 54 31.453125 53.078125 
L 13.8125 27.09375 
L 11.1875 23.484375 
L 10.40625 22.515625 
L 34.71875 22.515625 
z
" id="LiberationSans-52"/>
      </defs>
      <g style="fill:#262626;" transform="translate(187.645631 290.058875)scale(0.1 -0.1)">
       <use xlink:href="#LiberationSans-52"/>
       <use x="55.615234" xlink:href="#LiberationSans-48"/>
       <use x="111.230469" xlink:href="#LiberationSans-48"/>
      </g>
     </g>
    </g>
    <g id="xtick_4">
     <g id="line2d_4">
      <g>
       <use style="fill:#262626;stroke:#262626;stroke-width:0.8;" x="260.982942" xlink:href="#m032255fa98" y="273.312"/>
      </g>
     </g>
     <g id="text_4">
      <!-- 600 -->
      <defs>
       <path d="M 51.21875 22.515625 
Q 51.21875 11.625 45.3125 5.3125 
Q 39.40625 -0.984375 29 -0.984375 
Q 17.390625 -0.984375 11.234375 7.65625 
Q 5.078125 16.3125 5.078125 32.8125 
Q 5.078125 50.6875 11.46875 60.25 
Q 17.875 69.828125 29.6875 69.828125 
Q 45.265625 69.828125 49.3125 55.8125 
L 40.921875 54.296875 
Q 38.328125 62.703125 29.59375 62.703125 
Q 22.078125 62.703125 17.9375 55.6875 
Q 13.8125 48.6875 13.8125 35.40625 
Q 16.21875 39.84375 20.5625 42.15625 
Q 24.90625 44.484375 30.515625 44.484375 
Q 40.046875 44.484375 45.625 38.515625 
Q 51.21875 32.5625 51.21875 22.515625 
z
M 42.28125 22.125 
Q 42.28125 29.59375 38.625 33.640625 
Q 34.96875 37.703125 28.421875 37.703125 
Q 22.265625 37.703125 18.484375 34.109375 
Q 14.703125 30.515625 14.703125 24.21875 
Q 14.703125 16.265625 18.625 11.1875 
Q 22.5625 6.109375 28.71875 6.109375 
Q 35.0625 6.109375 38.671875 10.375 
Q 42.28125 14.65625 42.28125 22.125 
z
" id="LiberationSans-54"/>
      </defs>
      <g style="fill:#262626;" transform="translate(252.641536 290.058875)scale(0.1 -0.1)">
       <use xlink:href="#LiberationSans-54"/>
       <use x="55.615234" xlink:href="#LiberationSans-48"/>
       <use x="111.230469" xlink:href="#LiberationSans-48"/>
      </g>
     </g>
    </g>
    <g id="xtick_5">
     <g id="line2d_5">
      <g>
       <use style="fill:#262626;stroke:#262626;stroke-width:0.8;" x="325.978847" xlink:href="#m032255fa98" y="273.312"/>
      </g>
     </g>
     <g id="text_5">
      <!-- 800 -->
      <defs>
       <path d="M 51.265625 19.1875 
Q 51.265625 9.671875 45.203125 4.34375 
Q 39.15625 -0.984375 27.828125 -0.984375 
Q 16.796875 -0.984375 10.5625 4.234375 
Q 4.34375 9.46875 4.34375 19.09375 
Q 4.34375 25.828125 8.203125 30.421875 
Q 12.0625 35.015625 18.0625 35.984375 
L 18.0625 36.1875 
Q 12.453125 37.5 9.203125 41.890625 
Q 5.953125 46.296875 5.953125 52.203125 
Q 5.953125 60.0625 11.828125 64.9375 
Q 17.71875 69.828125 27.640625 69.828125 
Q 37.796875 69.828125 43.671875 65.03125 
Q 49.5625 60.25 49.5625 52.09375 
Q 49.5625 46.1875 46.28125 41.796875 
Q 43.015625 37.40625 37.359375 36.28125 
L 37.359375 36.078125 
Q 43.953125 35.015625 47.609375 30.5 
Q 51.265625 25.984375 51.265625 19.1875 
z
M 40.4375 51.609375 
Q 40.4375 63.28125 27.640625 63.28125 
Q 21.4375 63.28125 18.1875 60.34375 
Q 14.9375 57.421875 14.9375 51.609375 
Q 14.9375 45.703125 18.28125 42.59375 
Q 21.625 39.5 27.734375 39.5 
Q 33.9375 39.5 37.1875 42.359375 
Q 40.4375 45.21875 40.4375 51.609375 
z
M 42.140625 20.015625 
Q 42.140625 26.421875 38.328125 29.65625 
Q 34.515625 32.90625 27.640625 32.90625 
Q 20.953125 32.90625 17.1875 29.40625 
Q 13.421875 25.921875 13.421875 19.828125 
Q 13.421875 5.609375 27.9375 5.609375 
Q 35.109375 5.609375 38.625 9.046875 
Q 42.140625 12.5 42.140625 20.015625 
z
" id="LiberationSans-56"/>
      </defs>
      <g style="fill:#262626;" transform="translate(317.637441 290.058875)scale(0.1 -0.1)">
       <use xlink:href="#LiberationSans-56"/>
       <use x="55.615234" xlink:href="#LiberationSans-48"/>
       <use x="111.230469" xlink:href="#LiberationSans-48"/>
      </g>
     </g>
    </g>
    <g id="xtick_6">
     <g id="line2d_6">
      <g>
       <use style="fill:#262626;stroke:#262626;stroke-width:0.8;" x="390.974752" xlink:href="#m032255fa98" y="273.312"/>
      </g>
     </g>
     <g id="text_6">
      <!-- 1000 -->
      <defs>
       <path d="M 7.625 0 
L 7.625 7.46875 
L 25.140625 7.46875 
L 25.140625 60.40625 
L 9.625 49.3125 
L 9.625 57.625 
L 25.875 68.796875 
L 33.984375 68.796875 
L 33.984375 7.46875 
L 50.734375 7.46875 
L 50.734375 0 
z
" id="LiberationSans-49"/>
      </defs>
      <g style="fill:#262626;" transform="translate(379.852877 290.058875)scale(0.1 -0.1)">
       <use xlink:href="#LiberationSans-49"/>
       <use x="55.615234" xlink:href="#LiberationSans-48"/>
       <use x="111.230469" xlink:href="#LiberationSans-48"/>
       <use x="166.845703" xlink:href="#LiberationSans-48"/>
      </g>
     </g>
    </g>
    <g id="text_7">
     <!-- time_frame -->
     <defs>
      <path d="M 27.046875 0.390625 
Q 22.703125 -0.78125 18.171875 -0.78125 
Q 7.625 -0.78125 7.625 11.1875 
L 7.625 46.4375 
L 1.515625 46.4375 
L 1.515625 52.828125 
L 7.953125 52.828125 
L 10.546875 64.65625 
L 16.40625 64.65625 
L 16.40625 52.828125 
L 26.171875 52.828125 
L 26.171875 46.4375 
L 16.40625 46.4375 
L 16.40625 13.09375 
Q 16.40625 9.28125 17.640625 7.734375 
Q 18.890625 6.203125 21.96875 6.203125 
Q 23.734375 6.203125 27.046875 6.890625 
z
" id="LiberationSans-116"/>
      <path d="M 6.6875 64.0625 
L 6.6875 72.46875 
L 15.484375 72.46875 
L 15.484375 64.0625 
z
M 6.6875 0 
L 6.6875 52.828125 
L 15.484375 52.828125 
L 15.484375 0 
z
" id="LiberationSans-105"/>
      <path d="M 37.5 0 
L 37.5 33.5 
Q 37.5 41.15625 35.390625 44.078125 
Q 33.296875 47.015625 27.828125 47.015625 
Q 22.21875 47.015625 18.9375 42.71875 
Q 15.671875 38.421875 15.671875 30.609375 
L 15.671875 0 
L 6.9375 0 
L 6.9375 41.546875 
Q 6.9375 50.78125 6.640625 52.828125 
L 14.9375 52.828125 
Q 14.984375 52.59375 15.03125 51.515625 
Q 15.09375 50.4375 15.15625 49.046875 
Q 15.234375 47.65625 15.328125 43.796875 
L 15.484375 43.796875 
Q 18.3125 49.421875 21.96875 51.609375 
Q 25.640625 53.8125 30.90625 53.8125 
Q 36.921875 53.8125 40.40625 51.421875 
Q 43.890625 49.03125 45.265625 43.796875 
L 45.40625 43.796875 
Q 48.140625 49.125 52.015625 51.46875 
Q 55.90625 53.8125 61.421875 53.8125 
Q 69.4375 53.8125 73.0625 49.46875 
Q 76.703125 45.125 76.703125 35.203125 
L 76.703125 0 
L 68.015625 0 
L 68.015625 33.5 
Q 68.015625 41.15625 65.90625 44.078125 
Q 63.8125 47.015625 58.34375 47.015625 
Q 52.59375 47.015625 49.390625 42.75 
Q 46.1875 38.484375 46.1875 30.609375 
L 46.1875 0 
z
" id="LiberationSans-109"/>
      <path d="M 13.484375 24.5625 
Q 13.484375 15.484375 17.234375 10.546875 
Q 21 5.609375 28.21875 5.609375 
Q 33.9375 5.609375 37.375 7.90625 
Q 40.828125 10.203125 42.046875 13.71875 
L 49.75 11.53125 
Q 45.015625 -0.984375 28.21875 -0.984375 
Q 16.5 -0.984375 10.375 6 
Q 4.25 12.984375 4.25 26.765625 
Q 4.25 39.84375 10.375 46.828125 
Q 16.5 53.8125 27.875 53.8125 
Q 51.171875 53.8125 51.171875 25.734375 
L 51.171875 24.5625 
z
M 42.09375 31.296875 
Q 41.359375 39.65625 37.84375 43.484375 
Q 34.328125 47.3125 27.734375 47.3125 
Q 21.34375 47.3125 17.609375 43.03125 
Q 13.875 38.765625 13.578125 31.296875 
z
" id="LiberationSans-101"/>
      <path d="M -1.515625 -19.875 
L -1.515625 -13.53125 
L 56.734375 -13.53125 
L 56.734375 -19.875 
z
" id="LiberationSans-95"/>
      <path d="M 17.625 46.4375 
L 17.625 0 
L 8.84375 0 
L 8.84375 46.4375 
L 1.421875 46.4375 
L 1.421875 52.828125 
L 8.84375 52.828125 
L 8.84375 58.796875 
Q 8.84375 66.015625 12.015625 69.1875 
Q 15.1875 72.359375 21.734375 72.359375 
Q 25.390625 72.359375 27.9375 71.78125 
L 27.9375 65.09375 
Q 25.734375 65.484375 24.03125 65.484375 
Q 20.65625 65.484375 19.140625 63.765625 
Q 17.625 62.0625 17.625 57.5625 
L 17.625 52.828125 
L 27.9375 52.828125 
L 27.9375 46.4375 
z
" id="LiberationSans-102"/>
      <path d="M 6.9375 0 
L 6.9375 40.53125 
Q 6.9375 46.09375 6.640625 52.828125 
L 14.9375 52.828125 
Q 15.328125 43.84375 15.328125 42.046875 
L 15.53125 42.046875 
Q 17.625 48.828125 20.359375 51.3125 
Q 23.09375 53.8125 28.078125 53.8125 
Q 29.828125 53.8125 31.640625 53.328125 
L 31.640625 45.265625 
Q 29.890625 45.75 26.953125 45.75 
Q 21.484375 45.75 18.59375 41.03125 
Q 15.71875 36.328125 15.71875 27.546875 
L 15.71875 0 
z
" id="LiberationSans-114"/>
      <path d="M 20.21875 -0.984375 
Q 12.25 -0.984375 8.25 3.21875 
Q 4.25 7.421875 4.25 14.75 
Q 4.25 22.953125 9.640625 27.34375 
Q 15.046875 31.734375 27.046875 32.03125 
L 38.921875 32.234375 
L 38.921875 35.109375 
Q 38.921875 41.546875 36.1875 44.328125 
Q 33.453125 47.125 27.59375 47.125 
Q 21.6875 47.125 19 45.109375 
Q 16.3125 43.109375 15.765625 38.71875 
L 6.59375 39.546875 
Q 8.84375 53.8125 27.78125 53.8125 
Q 37.75 53.8125 42.765625 49.234375 
Q 47.796875 44.671875 47.796875 36.03125 
L 47.796875 13.28125 
Q 47.796875 9.375 48.828125 7.390625 
Q 49.859375 5.421875 52.734375 5.421875 
Q 54 5.421875 55.609375 5.765625 
L 55.609375 0.296875 
Q 52.296875 -0.484375 48.828125 -0.484375 
Q 43.953125 -0.484375 41.71875 2.078125 
Q 39.5 4.640625 39.203125 10.109375 
L 38.921875 10.109375 
Q 35.546875 4.046875 31.078125 1.53125 
Q 26.609375 -0.984375 20.21875 -0.984375 
z
M 22.21875 5.609375 
Q 27.046875 5.609375 30.8125 7.8125 
Q 34.578125 10.015625 36.75 13.84375 
Q 38.921875 17.671875 38.921875 21.734375 
L 38.921875 26.078125 
L 29.296875 25.875 
Q 23.09375 25.78125 19.890625 24.609375 
Q 16.703125 23.4375 14.984375 21 
Q 13.28125 18.5625 13.28125 14.59375 
Q 13.28125 10.296875 15.59375 7.953125 
Q 17.921875 5.609375 22.21875 5.609375 
z
" id="LiberationSans-97"/>
     </defs>
     <g style="fill:#262626;" transform="translate(203.317031 303.38075)scale(0.1 -0.1)">
      <use xlink:href="#LiberationSans-116"/>
      <use x="27.783203" xlink:href="#LiberationSans-105"/>
      <use x="50" xlink:href="#LiberationSans-109"/>
      <use x="133.300781" xlink:href="#LiberationSans-101"/>
      <use x="188.916016" xlink:href="#LiberationSans-95"/>
      <use x="244.53125" xlink:href="#LiberationSans-102"/>
      <use x="272.314453" xlink:href="#LiberationSans-114"/>
      <use x="305.615234" xlink:href="#LiberationSans-97"/>
      <use x="361.230469" xlink:href="#LiberationSans-109"/>
      <use x="444.53125" xlink:href="#LiberationSans-101"/>
     </g>
    </g>
   </g>
   <g id="matplotlib.axis_2">
    <g id="ytick_1">
     <g id="line2d_7">
      <defs>
       <path d="M 0 0 
L -6 0 
" id="m3711d01d31" style="stroke:#262626;stroke-width:0.8;"/>
      </defs>
      <g>
       <use style="fill:#262626;stroke:#262626;stroke-width:0.8;" x="49.7625" xlink:href="#m3711d01d31" y="261.247965"/>
      </g>
     </g>
     <g id="text_8">
      <!-- −1.0 -->
      <defs>
       <path d="M 4.9375 29.6875 
L 4.9375 36.8125 
L 53.515625 36.8125 
L 53.515625 29.6875 
z
" id="LiberationSans-8722"/>
       <path d="M 9.125 0 
L 9.125 10.6875 
L 18.65625 10.6875 
L 18.65625 0 
z
" id="LiberationSans-46"/>
      </defs>
      <g style="fill:#262626;" transform="translate(20.521875 264.871402)scale(0.1 -0.1)">
       <use xlink:href="#LiberationSans-8722"/>
       <use x="58.398438" xlink:href="#LiberationSans-49"/>
       <use x="114.013672" xlink:href="#LiberationSans-46"/>
       <use x="141.796875" xlink:href="#LiberationSans-48"/>
      </g>
     </g>
    </g>
    <g id="ytick_2">
     <g id="line2d_8">
      <g>
       <use style="fill:#262626;stroke:#262626;stroke-width:0.8;" x="49.7625" xlink:href="#m3711d01d31" y="216.862005"/>
      </g>
     </g>
     <g id="text_9">
      <!-- −0.5 -->
      <defs>
       <path d="M 51.421875 22.40625 
Q 51.421875 11.53125 44.953125 5.265625 
Q 38.484375 -0.984375 27 -0.984375 
Q 17.390625 -0.984375 11.46875 3.21875 
Q 5.5625 7.421875 4 15.375 
L 12.890625 16.40625 
Q 15.671875 6.203125 27.203125 6.203125 
Q 34.28125 6.203125 38.28125 10.46875 
Q 42.28125 14.75 42.28125 22.21875 
Q 42.28125 28.71875 38.25 32.71875 
Q 34.234375 36.71875 27.390625 36.71875 
Q 23.828125 36.71875 20.75 35.59375 
Q 17.671875 34.46875 14.59375 31.78125 
L 6 31.78125 
L 8.296875 68.796875 
L 47.40625 68.796875 
L 47.40625 61.328125 
L 16.3125 61.328125 
L 14.984375 39.5 
Q 20.703125 43.890625 29.203125 43.890625 
Q 39.359375 43.890625 45.390625 37.9375 
Q 51.421875 31.984375 51.421875 22.40625 
z
" id="LiberationSans-53"/>
      </defs>
      <g style="fill:#262626;" transform="translate(20.521875 220.485443)scale(0.1 -0.1)">
       <use xlink:href="#LiberationSans-8722"/>
       <use x="58.398438" xlink:href="#LiberationSans-48"/>
       <use x="114.013672" xlink:href="#LiberationSans-46"/>
       <use x="141.796875" xlink:href="#LiberationSans-53"/>
      </g>
     </g>
    </g>
    <g id="ytick_3">
     <g id="line2d_9">
      <g>
       <use style="fill:#262626;stroke:#262626;stroke-width:0.8;" x="49.7625" xlink:href="#m3711d01d31" y="172.476045"/>
      </g>
     </g>
     <g id="text_10">
      <!-- 0.0 -->
      <g style="fill:#262626;" transform="translate(26.3625 176.099483)scale(0.1 -0.1)">
       <use xlink:href="#LiberationSans-48"/>
       <use x="55.615234" xlink:href="#LiberationSans-46"/>
       <use x="83.398438" xlink:href="#LiberationSans-48"/>
      </g>
     </g>
    </g>
    <g id="ytick_4">
     <g id="line2d_10">
      <g>
       <use style="fill:#262626;stroke:#262626;stroke-width:0.8;" x="49.7625" xlink:href="#m3711d01d31" y="128.090085"/>
      </g>
     </g>
     <g id="text_11">
      <!-- 0.5 -->
      <g style="fill:#262626;" transform="translate(26.3625 131.713523)scale(0.1 -0.1)">
       <use xlink:href="#LiberationSans-48"/>
       <use x="55.615234" xlink:href="#LiberationSans-46"/>
       <use x="83.398438" xlink:href="#LiberationSans-53"/>
      </g>
     </g>
    </g>
    <g id="ytick_5">
     <g id="line2d_11">
      <g>
       <use style="fill:#262626;stroke:#262626;stroke-width:0.8;" x="49.7625" xlink:href="#m3711d01d31" y="83.704126"/>
      </g>
     </g>
     <g id="text_12">
      <!-- 1.0 -->
      <g style="fill:#262626;" transform="translate(26.3625 87.327563)scale(0.1 -0.1)">
       <use xlink:href="#LiberationSans-49"/>
       <use x="55.615234" xlink:href="#LiberationSans-46"/>
       <use x="83.398438" xlink:href="#LiberationSans-48"/>
      </g>
     </g>
    </g>
    <g id="ytick_6">
     <g id="line2d_12">
      <g>
       <use style="fill:#262626;stroke:#262626;stroke-width:0.8;" x="49.7625" xlink:href="#m3711d01d31" y="39.318166"/>
      </g>
     </g>
     <g id="text_13">
      <!-- 1.5 -->
      <g style="fill:#262626;" transform="translate(26.3625 42.941603)scale(0.1 -0.1)">
       <use xlink:href="#LiberationSans-49"/>
       <use x="55.615234" xlink:href="#LiberationSans-46"/>
       <use x="83.398438" xlink:href="#LiberationSans-53"/>
      </g>
     </g>
    </g>
    <g id="text_14">
     <!-- analogs -->
     <defs>
      <path d="M 40.28125 0 
L 40.28125 33.5 
Q 40.28125 38.71875 39.25 41.59375 
Q 38.234375 44.484375 35.984375 45.75 
Q 33.734375 47.015625 29.390625 47.015625 
Q 23.046875 47.015625 19.375 42.671875 
Q 15.71875 38.328125 15.71875 30.609375 
L 15.71875 0 
L 6.9375 0 
L 6.9375 41.546875 
Q 6.9375 50.78125 6.640625 52.828125 
L 14.9375 52.828125 
Q 14.984375 52.59375 15.03125 51.515625 
Q 15.09375 50.4375 15.15625 49.046875 
Q 15.234375 47.65625 15.328125 43.796875 
L 15.484375 43.796875 
Q 18.5 49.265625 22.484375 51.53125 
Q 26.46875 53.8125 32.375 53.8125 
Q 41.0625 53.8125 45.09375 49.484375 
Q 49.125 45.171875 49.125 35.203125 
L 49.125 0 
z
" id="LiberationSans-110"/>
      <path d="M 6.734375 0 
L 6.734375 72.46875 
L 15.53125 72.46875 
L 15.53125 0 
z
" id="LiberationSans-108"/>
      <path d="M 51.421875 26.46875 
Q 51.421875 12.59375 45.3125 5.796875 
Q 39.203125 -0.984375 27.59375 -0.984375 
Q 16.015625 -0.984375 10.109375 6.078125 
Q 4.203125 13.140625 4.203125 26.46875 
Q 4.203125 53.8125 27.875 53.8125 
Q 39.984375 53.8125 45.703125 47.140625 
Q 51.421875 40.484375 51.421875 26.46875 
z
M 42.1875 26.46875 
Q 42.1875 37.40625 38.9375 42.359375 
Q 35.6875 47.3125 28.03125 47.3125 
Q 20.3125 47.3125 16.859375 42.25 
Q 13.421875 37.203125 13.421875 26.46875 
Q 13.421875 16.015625 16.8125 10.765625 
Q 20.21875 5.515625 27.484375 5.515625 
Q 35.40625 5.515625 38.796875 10.59375 
Q 42.1875 15.671875 42.1875 26.46875 
z
" id="LiberationSans-111"/>
      <path d="M 26.765625 -20.75 
Q 18.109375 -20.75 12.984375 -17.359375 
Q 7.859375 -13.96875 6.390625 -7.71875 
L 15.234375 -6.453125 
Q 16.109375 -10.109375 19.109375 -12.078125 
Q 22.125 -14.0625 27 -14.0625 
Q 40.140625 -14.0625 40.140625 1.3125 
L 40.140625 9.8125 
L 40.046875 9.8125 
Q 37.546875 4.734375 33.203125 2.171875 
Q 28.859375 -0.390625 23.046875 -0.390625 
Q 13.328125 -0.390625 8.765625 6.046875 
Q 4.203125 12.5 4.203125 26.3125 
Q 4.203125 40.328125 9.109375 46.984375 
Q 14.015625 53.65625 24.03125 53.65625 
Q 29.640625 53.65625 33.765625 51.09375 
Q 37.890625 48.53125 40.140625 43.796875 
L 40.234375 43.796875 
Q 40.234375 45.265625 40.421875 48.875 
Q 40.625 52.484375 40.828125 52.828125 
L 49.171875 52.828125 
Q 48.875 50.203125 48.875 41.890625 
L 48.875 1.515625 
Q 48.875 -20.75 26.765625 -20.75 
z
M 40.140625 26.421875 
Q 40.140625 32.859375 38.375 37.515625 
Q 36.625 42.1875 33.421875 44.65625 
Q 30.21875 47.125 26.171875 47.125 
Q 19.4375 47.125 16.359375 42.234375 
Q 13.28125 37.359375 13.28125 26.421875 
Q 13.28125 15.578125 16.15625 10.84375 
Q 19.046875 6.109375 26.03125 6.109375 
Q 30.171875 6.109375 33.390625 8.546875 
Q 36.625 10.984375 38.375 15.546875 
Q 40.140625 20.125 40.140625 26.421875 
z
" id="LiberationSans-103"/>
      <path d="M 46.390625 14.59375 
Q 46.390625 7.125 40.75 3.0625 
Q 35.109375 -0.984375 24.953125 -0.984375 
Q 15.09375 -0.984375 9.734375 2.265625 
Q 4.390625 5.515625 2.78125 12.40625 
L 10.546875 13.921875 
Q 11.671875 9.671875 15.1875 7.6875 
Q 18.703125 5.71875 24.953125 5.71875 
Q 31.640625 5.71875 34.734375 7.765625 
Q 37.84375 9.8125 37.84375 13.921875 
Q 37.84375 17.046875 35.6875 19 
Q 33.546875 20.953125 28.765625 22.21875 
L 22.46875 23.875 
Q 14.890625 25.828125 11.6875 27.703125 
Q 8.5 29.59375 6.6875 32.28125 
Q 4.890625 34.96875 4.890625 38.875 
Q 4.890625 46.09375 10.03125 49.875 
Q 15.1875 53.65625 25.046875 53.65625 
Q 33.796875 53.65625 38.9375 50.578125 
Q 44.09375 47.515625 45.453125 40.71875 
L 37.546875 39.75 
Q 36.8125 43.265625 33.609375 45.140625 
Q 30.421875 47.015625 25.046875 47.015625 
Q 19.09375 47.015625 16.25 45.203125 
Q 13.421875 43.40625 13.421875 39.75 
Q 13.421875 37.5 14.59375 36.03125 
Q 15.765625 34.578125 18.0625 33.546875 
Q 20.359375 32.515625 27.734375 30.71875 
Q 34.71875 28.953125 37.796875 27.46875 
Q 40.875 25.984375 42.65625 24.171875 
Q 44.4375 22.359375 45.40625 19.984375 
Q 46.390625 17.625 46.390625 14.59375 
z
" id="LiberationSans-115"/>
     </defs>
     <g style="fill:#262626;" transform="translate(14.446875 157.769281)rotate(-90)scale(0.1 -0.1)">
      <use xlink:href="#LiberationSans-97"/>
      <use x="55.615234" xlink:href="#LiberationSans-110"/>
      <use x="111.230469" xlink:href="#LiberationSans-97"/>
      <use x="166.845703" xlink:href="#LiberationSans-108"/>
      <use x="189.0625" xlink:href="#LiberationSans-111"/>
      <use x="244.677734" xlink:href="#LiberationSans-103"/>
      <use x="300.292969" xlink:href="#LiberationSans-115"/>
     </g>
    </g>
   </g>
   <g id="line2d_13">
    <path clip-path="url(#pd5bd878e80)" d="M 65.995227 245.067995 
L 66.320207 155.789715 
L 66.645186 98.054657 
L 66.970166 92.637533 
L 67.295145 111.044549 
L 67.620125 109.28208 
L 67.945104 145.456899 
L 68.270084 222.1132 
L 68.595063 131.520491 
L 68.920043 87.541831 
L 69.245023 167.87171 
L 69.570002 214.962755 
L 69.894982 159.43171 
L 70.219961 138.634351 
L 70.544941 224.269079 
L 70.86992 133.560327 
L 71.1949 156.95288 
L 71.519879 152.529011 
L 71.844859 206.921693 
L 72.169838 233.681299 
L 72.494818 150.558277 
L 72.819797 157.165909 
L 73.144777 201.235983 
L 73.469756 208.713867 
L 73.794736 199.59685 
L 74.119715 174.272196 
L 74.444695 88.174727 
L 74.769674 125.68177 
L 75.094654 110.026822 
L 75.419633 171.472999 
L 75.744613 167.837959 
L 76.069593 224.97138 
L 76.394572 133.230719 
L 76.719552 186.398322 
L 77.044531 129.431099 
L 77.69449 241.981407 
L 78.01947 230.523349 
L 78.344449 117.158697 
L 78.669429 215.3322 
L 78.994408 214.313466 
L 79.319388 96.244386 
L 79.644367 144.488812 
L 79.969347 240.953363 
L 80.294326 235.755285 
L 80.619306 212.890805 
L 80.944285 155.78769 
L 81.269265 127.588441 
L 81.594244 212.512812 
L 81.919224 106.670835 
L 82.244204 241.863697 
L 82.569183 224.390012 
L 82.894163 88.947897 
L 83.219142 237.324844 
L 83.544122 103.569274 
L 83.869101 136.268629 
L 84.194081 248.271802 
L 84.51906 175.368797 
L 84.84404 169.106378 
L 85.169019 95.752316 
L 85.493999 186.483439 
L 85.818978 181.927837 
L 86.143958 241.277167 
L 86.468937 147.766814 
L 86.793917 223.804506 
L 87.118896 247.482412 
L 87.443876 84.251138 
L 87.768855 213.376886 
L 88.093835 236.204844 
L 88.418814 137.057758 
L 88.743794 115.36336 
L 89.068774 249.871401 
L 89.393753 242.536032 
L 89.718733 245.238158 
L 90.043712 252.91063 
L 90.368692 144.16553 
L 90.693671 156.796583 
L 91.018651 143.570726 
L 91.34363 171.469875 
L 91.66861 116.104512 
L 91.993589 164.190376 
L 92.318569 98.130107 
L 92.643548 175.02406 
L 92.968528 120.871391 
L 93.293507 188.923644 
L 93.618487 183.976644 
L 93.943466 110.514658 
L 94.268446 242.133624 
L 94.593425 160.950298 
L 94.918405 132.2914 
L 95.243385 128.015408 
L 96.218323 214.947649 
L 96.543303 99.78494 
L 96.868282 195.594393 
L 97.193262 119.391842 
L 97.518241 255.62593 
L 97.843221 220.027751 
L 98.1682 199.891514 
L 98.49318 142.014127 
L 99.143139 253.904077 
L 99.468118 230.378859 
L 99.793098 215.234753 
L 100.118077 229.991819 
L 100.443057 225.077924 
L 100.768036 124.724397 
L 101.093016 188.09393 
L 101.417995 189.310886 
L 101.742975 89.632965 
L 102.067955 181.938806 
L 102.392934 96.547979 
L 102.717914 208.151154 
L 103.042893 190.119241 
L 103.367873 190.890296 
L 103.692852 164.295032 
L 104.017832 157.518458 
L 104.342811 217.194895 
L 104.667791 120.35197 
L 104.99277 173.092841 
L 105.31775 259.997425 
L 105.642729 156.259079 
L 105.967709 119.557428 
L 106.292688 216.779139 
L 106.617668 254.5242 
L 106.942647 117.938367 
L 107.267627 87.916049 
L 107.592606 247.654567 
L 107.917586 94.705309 
L 108.242566 197.461006 
L 108.567545 94.101162 
L 108.892525 146.05054 
L 109.217504 103.190572 
L 109.542484 121.728153 
L 109.867463 256.277138 
L 110.192443 249.629052 
L 110.517422 167.905249 
L 110.842402 238.234906 
L 111.167381 179.394176 
L 111.492361 91.759237 
L 111.81734 208.915624 
L 112.14232 174.444525 
L 112.467299 193.025035 
L 112.792279 149.426068 
L 113.117258 226.831992 
L 113.442238 215.097345 
L 113.767217 108.779024 
L 114.092197 117.200217 
L 114.742156 124.375938 
L 115.067136 179.677668 
L 115.392115 131.837899 
L 116.042074 243.367599 
L 116.367054 191.406721 
L 116.692033 233.078319 
L 117.017013 191.854657 
L 117.341992 208.44195 
L 117.666972 154.87068 
L 117.991951 197.058691 
L 118.316931 135.974867 
L 118.64191 170.319477 
L 118.96689 97.997776 
L 119.291869 245.08696 
L 119.616849 139.149435 
L 119.941828 141.868042 
L 120.266808 92.470078 
L 120.591787 195.28122 
L 120.916767 207.019335 
L 121.241747 230.640571 
L 121.566726 214.147623 
L 121.891706 172.14035 
L 122.216685 112.517189 
L 122.541665 210.77463 
L 122.866644 233.241824 
L 123.191624 212.933231 
L 123.516603 243.329002 
L 123.841583 96.718903 
L 124.166562 106.318923 
L 124.491542 206.477161 
L 124.816521 217.3968 
L 125.141501 100.50025 
L 125.46648 260.933366 
L 125.79146 154.619125 
L 126.116439 98.61714 
L 126.766398 260.721199 
L 127.091378 222.388691 
L 127.416357 97.474143 
L 127.741337 258.225738 
L 128.391296 121.033654 
L 128.716276 112.450072 
L 129.366235 219.971907 
L 129.691214 154.774087 
L 130.016194 214.4158 
L 130.341173 215.927368 
L 130.666153 117.863602 
L 130.991132 233.859016 
L 131.316112 260.26766 
L 131.641091 201.4556 
L 131.966071 174.078564 
L 132.29105 136.065285 
L 132.61603 122.565763 
L 132.941009 143.444217 
L 133.265989 150.015173 
L 133.590968 143.048381 
L 133.915948 213.040104 
L 134.240928 193.362068 
L 134.565907 151.803462 
L 134.890887 249.606298 
L 135.215866 208.814768 
L 135.865825 166.538858 
L 136.190805 174.876064 
L 136.515784 133.748074 
L 136.840764 177.193975 
L 137.165743 100.725256 
L 137.490723 193.724786 
L 137.815702 167.971455 
L 138.140682 260.67798 
L 138.465661 206.124516 
L 138.790641 107.393272 
L 139.11562 202.023531 
L 139.4406 216.296291 
L 139.765579 164.746326 
L 140.090559 247.269921 
L 140.415538 166.864749 
L 140.740518 207.333973 
L 141.065498 193.230407 
L 141.390477 120.745984 
L 141.715457 143.720332 
L 142.040436 182.044576 
L 142.365416 158.713501 
L 142.690395 125.096917 
L 143.015375 128.838656 
L 143.340354 228.345237 
L 143.665334 207.821611 
L 143.990313 199.420643 
L 144.640272 259.088774 
L 144.965252 230.361148 
L 145.290231 117.749164 
L 145.94019 200.588687 
L 146.26517 153.240156 
L 146.590149 129.894974 
L 146.915129 198.321496 
L 147.240109 178.499248 
L 147.565088 249.847304 
L 147.890068 155.238219 
L 148.215047 197.970081 
L 148.540027 184.278512 
L 148.865006 186.217829 
L 149.189986 148.967592 
L 149.514965 159.610269 
L 149.839945 186.305637 
L 150.164924 258.237705 
L 150.489904 150.999878 
L 150.814883 105.084403 
L 151.139863 124.618824 
L 151.464842 86.968157 
L 151.789822 236.555995 
L 152.114801 221.7409 
L 152.439781 165.504349 
L 153.08974 255.113864 
L 153.414719 189.82416 
L 153.739699 210.178414 
L 154.064679 214.418852 
L 154.389658 92.018004 
L 154.714638 218.911906 
L 155.039617 238.268009 
L 155.364597 238.998303 
L 155.689576 118.090093 
L 156.014556 134.331093 
L 156.339535 238.258489 
L 156.664515 222.232152 
L 156.989494 128.561818 
L 157.314474 212.491515 
L 157.639453 86.981217 
L 158.289412 227.158133 
L 158.614392 108.771815 
L 158.939371 204.52705 
L 159.264351 209.971998 
L 159.58933 203.112791 
L 159.91431 124.859276 
L 160.23929 230.495073 
L 160.564269 193.464252 
L 160.889249 255.773796 
L 161.214228 114.485502 
L 161.539208 200.755447 
L 161.864187 217.186392 
L 162.189167 158.291492 
L 162.839126 116.923282 
L 163.164105 199.50089 
L 163.489085 117.028953 
L 164.139044 243.290778 
L 164.464023 110.991285 
L 164.789003 164.018783 
L 165.113982 154.283204 
L 165.438962 94.802166 
L 165.763941 161.974064 
L 166.088921 260.256643 
L 166.4139 106.675486 
L 166.73888 210.692165 
L 167.06386 172.162339 
L 167.388839 224.871611 
L 167.713819 208.520362 
L 168.038798 139.337692 
L 168.363778 184.979863 
L 169.013737 115.027175 
L 169.338716 200.737115 
L 169.988675 123.192025 
L 170.313655 134.282248 
L 170.963614 193.180584 
L 171.613573 184.347476 
L 171.938552 199.31259 
L 172.263532 137.131393 
L 172.588511 238.981259 
L 172.913491 89.482446 
L 173.238471 122.943888 
L 173.56345 208.310952 
L 173.88843 253.693906 
L 174.213409 134.960469 
L 174.538389 130.867041 
L 174.863368 90.162707 
L 175.188348 216.204106 
L 175.513327 246.560635 
L 175.838307 98.771427 
L 176.163286 215.326422 
L 176.488266 133.144502 
L 176.813245 250.47822 
L 177.138225 126.210819 
L 177.463204 238.695299 
L 177.788184 137.750894 
L 178.113163 166.733736 
L 178.438143 91.606934 
L 178.763122 254.693465 
L 179.088102 209.396509 
L 179.413081 248.907085 
L 179.738061 105.151841 
L 180.063041 155.804474 
L 180.38802 166.267406 
L 180.713 237.908426 
L 181.037979 174.4233 
L 181.687938 205.188166 
L 182.012918 124.150573 
L 182.337897 250.368781 
L 182.662877 146.432898 
L 182.987856 115.130623 
L 183.312836 100.161147 
L 183.637815 128.815069 
L 183.962795 211.099699 
L 184.287774 154.631565 
L 184.612754 236.142625 
L 184.937733 240.464572 
L 185.262713 147.864183 
L 185.587692 110.139044 
L 185.912672 249.308474 
L 186.237652 242.427655 
L 186.562631 160.827872 
L 186.887611 222.505793 
L 187.21259 152.623426 
L 187.53757 223.15703 
L 187.862549 240.567308 
L 188.512508 108.17053 
L 188.837488 139.60878 
L 189.162467 115.888361 
L 189.487447 213.961795 
L 189.812426 103.947914 
L 190.137406 194.306982 
L 190.462385 109.901133 
L 190.787365 177.593642 
L 191.112344 213.69149 
L 191.437324 215.040613 
L 191.762303 160.462029 
L 192.087283 247.220178 
L 192.412262 96.122217 
L 192.737242 213.051294 
L 193.062222 201.659846 
L 193.387201 219.826711 
L 193.712181 260.71392 
L 194.03716 138.289937 
L 194.36214 156.398936 
L 194.687119 117.500565 
L 195.012099 253.966755 
L 195.337078 96.370876 
L 195.662058 202.501027 
L 195.987037 99.138036 
L 196.312017 242.22743 
L 196.636996 129.169449 
L 196.961976 158.38648 
L 197.611935 247.19672 
L 197.936914 153.880723 
L 198.261894 256.553726 
L 198.586873 172.248416 
L 199.236833 131.192886 
L 199.561812 85.242608 
L 199.886792 215.069928 
L 200.211771 204.009638 
L 200.536751 200.67971 
L 200.86173 131.359962 
L 201.18671 95.809195 
L 201.511689 88.262786 
L 201.836669 93.324984 
L 202.161648 105.11893 
L 202.486628 85.306037 
L 202.811607 194.501117 
L 203.136587 92.879357 
L 203.461566 126.133559 
L 203.786546 231.338955 
L 204.111525 253.175901 
L 204.436505 223.16766 
L 204.761484 122.985501 
L 205.086464 149.094075 
L 205.411443 221.414894 
L 205.736423 129.524381 
L 206.061403 236.157072 
L 206.386382 115.335089 
L 206.711362 120.249576 
L 207.036341 88.573093 
L 207.361321 234.566754 
L 207.6863 100.284413 
L 208.01128 200.687288 
L 208.661239 178.07843 
L 208.986218 149.945012 
L 209.311198 84.633857 
L 209.636177 154.728976 
L 209.961157 96.715272 
L 210.286136 215.969279 
L 210.936095 171.677182 
L 211.261075 203.918706 
L 211.586054 87.811229 
L 212.236014 176.225531 
L 212.560993 127.858444 
L 212.885973 178.256429 
L 213.210952 258.189714 
L 213.535932 164.807322 
L 213.860911 150.250181 
L 214.185891 87.040633 
L 214.51087 254.005446 
L 214.83585 170.328305 
L 215.160829 243.821192 
L 215.485809 234.79466 
L 215.810788 152.86396 
L 216.135768 220.134544 
L 216.460747 128.236717 
L 217.110706 222.505611 
L 217.435686 173.578295 
L 217.760665 261.09142 
L 218.085645 108.073785 
L 218.410624 258.996997 
L 218.735604 260.003402 
L 219.060584 152.679207 
L 219.385563 88.405322 
L 219.710543 109.282248 
L 220.035522 216.50356 
L 220.360502 226.330984 
L 220.685481 150.085605 
L 221.010461 115.193701 
L 221.33544 196.963128 
L 221.66042 184.486071 
L 221.985399 240.743513 
L 222.310379 234.114575 
L 222.635358 160.340641 
L 222.960338 243.021999 
L 223.285317 225.37592 
L 223.610297 219.582505 
L 223.935276 182.431899 
L 224.260256 253.149842 
L 224.910215 96.367545 
L 225.235195 256.904592 
L 225.560174 149.220489 
L 225.885154 112.849302 
L 226.210133 205.772467 
L 226.535113 237.897657 
L 226.860092 253.553253 
L 227.185072 146.926944 
L 227.510051 163.202153 
L 227.835031 220.538052 
L 228.16001 113.599435 
L 228.48499 130.663343 
L 228.809969 212.169737 
L 229.134949 127.493002 
L 229.459928 217.750752 
L 229.784908 141.358387 
L 230.109887 240.201023 
L 230.434867 138.345113 
L 230.759846 218.855038 
L 231.084826 159.609558 
L 231.409805 230.628068 
L 231.734785 132.357006 
L 232.059765 250.439171 
L 232.384744 231.879056 
L 232.709724 228.555667 
L 233.034703 253.907666 
L 233.359683 128.975583 
L 233.684662 87.085891 
L 234.009642 123.048233 
L 234.334621 108.448062 
L 234.659601 260.181342 
L 234.98458 240.320879 
L 235.634539 87.633369 
L 236.284498 194.8223 
L 236.609478 235.300056 
L 236.934457 234.112929 
L 237.259437 196.843369 
L 237.584416 134.515362 
L 237.909396 255.598646 
L 238.234376 109.949084 
L 238.559355 94.081308 
L 238.884335 103.444078 
L 239.209314 99.145662 
L 239.534294 258.52457 
L 239.859273 87.646963 
L 240.184253 196.203516 
L 240.509232 106.912458 
L 240.834212 228.081201 
L 241.159191 181.97007 
L 241.484171 253.40685 
L 241.80915 254.132718 
L 242.13413 93.775105 
L 242.459109 117.329755 
L 242.784089 167.180615 
L 243.109068 167.956103 
L 243.434048 128.311195 
L 243.759027 200.586778 
L 244.084007 125.982769 
L 244.408986 175.137715 
L 244.733966 147.98966 
L 245.058946 89.94844 
L 245.383925 177.568791 
L 245.708905 186.962795 
L 246.033884 100.437779 
L 246.358864 101.000359 
L 246.683843 85.050138 
L 247.008823 163.445633 
L 247.333802 200.126449 
L 247.658782 218.56819 
L 247.983761 255.194367 
L 248.308741 132.221775 
L 248.63372 219.795709 
L 249.283679 98.512637 
L 249.608659 92.543393 
L 249.933638 260.464973 
L 250.258618 204.953246 
L 250.583597 112.576655 
L 250.908577 166.005424 
L 251.233557 117.879764 
L 251.558536 109.745673 
L 251.883516 182.662406 
L 252.208495 197.512756 
L 252.533475 180.388594 
L 252.858454 145.348198 
L 253.183434 196.061119 
L 253.508413 123.653569 
L 253.833393 100.749614 
L 254.158372 211.12535 
L 254.483352 89.919999 
L 254.808331 150.686934 
L 255.133311 105.33451 
L 255.45829 242.798242 
L 255.78327 216.595842 
L 256.108249 204.253005 
L 256.433229 207.483758 
L 256.758208 230.735075 
L 257.083188 107.104235 
L 257.408167 186.925958 
L 257.733147 90.250129 
L 258.383106 236.67685 
L 259.033065 84.850145 
L 259.683024 260.916074 
L 260.008004 95.585377 
L 260.332983 219.54391 
L 260.657963 139.003873 
L 261.307922 203.469206 
L 261.632901 211.067059 
L 261.957881 96.352373 
L 262.28286 99.34114 
L 262.60784 170.144035 
L 262.932819 215.353735 
L 263.257799 243.077768 
L 263.582778 233.448793 
L 263.907758 168.525388 
L 264.557717 253.779025 
L 265.207676 128.766653 
L 265.532656 102.932991 
L 265.857635 157.334388 
L 266.182615 132.831904 
L 266.507594 196.609496 
L 266.832574 173.143933 
L 267.157553 131.707212 
L 267.482533 132.05673 
L 267.807512 185.875942 
L 268.132492 164.723178 
L 268.457471 97.223141 
L 268.782451 149.040684 
L 269.10743 147.162799 
L 269.43241 121.943466 
L 269.757389 240.790849 
L 270.407348 90.906771 
L 270.732328 197.03739 
L 271.057308 208.885645 
L 271.382287 154.507195 
L 271.707267 221.989573 
L 272.032246 162.543327 
L 272.357226 233.612909 
L 272.682205 158.309208 
L 273.007185 154.299252 
L 273.332164 186.963537 
L 273.657144 193.293695 
L 273.982123 217.66836 
L 274.307103 202.494748 
L 274.632082 172.769709 
L 274.957062 217.277653 
L 275.282041 122.260529 
L 275.607021 135.363126 
L 275.932 213.434367 
L 276.25698 243.948952 
L 276.581959 261.216 
L 276.906939 155.304209 
L 277.231919 223.721634 
L 277.556898 259.014025 
L 277.881878 197.494587 
L 278.206857 90.451065 
L 278.531837 138.75287 
L 278.856816 108.957304 
L 279.181796 235.55043 
L 279.831755 259.200926 
L 280.156734 91.576013 
L 280.481714 207.948819 
L 280.806693 179.665693 
L 281.131673 191.202726 
L 281.456652 131.559836 
L 281.781632 206.21561 
L 282.106611 166.181604 
L 282.431591 84.488467 
L 282.75657 182.407217 
L 283.08155 163.373099 
L 283.406529 172.027203 
L 283.731509 118.647211 
L 284.056489 213.872228 
L 284.381468 230.987745 
L 284.706448 127.36337 
L 285.031427 187.457516 
L 285.356407 99.021541 
L 285.681386 146.881452 
L 286.006366 161.052322 
L 286.331345 248.738749 
L 286.656325 131.567831 
L 287.306284 147.607138 
L 287.631263 213.682279 
L 287.956243 93.160231 
L 288.281222 204.140079 
L 288.606202 234.220296 
L 288.931181 85.976482 
L 289.256161 128.756536 
L 289.58114 187.605109 
L 289.90612 95.081769 
L 290.2311 245.070636 
L 290.556079 245.684256 
L 290.881059 140.082991 
L 291.206038 229.650124 
L 291.531018 98.415494 
L 291.855997 112.047371 
L 292.180977 206.854352 
L 292.505956 103.439973 
L 292.830936 253.63352 
L 293.480895 95.144558 
L 293.805874 109.379987 
L 294.130854 198.02934 
L 294.455833 228.780446 
L 294.780813 223.86778 
L 295.105792 169.900261 
L 295.430772 155.294605 
L 295.755751 255.421985 
L 296.40571 113.817848 
L 297.05567 231.211916 
L 297.380649 91.718403 
L 297.705629 213.972383 
L 298.030608 119.491945 
L 298.355588 226.841005 
L 298.680567 186.116254 
L 299.005547 174.176464 
L 299.330526 172.363252 
L 299.655506 169.551211 
L 299.980485 221.309915 
L 300.305465 169.650342 
L 300.630444 175.722833 
L 300.955424 224.191104 
L 301.280403 85.800642 
L 301.605383 107.572517 
L 301.930362 103.664252 
L 302.255342 139.529049 
L 302.580321 232.859232 
L 302.905301 160.386719 
L 303.230281 115.406419 
L 303.55526 254.37054 
L 303.88024 173.214077 
L 304.205219 190.918788 
L 304.530199 223.586526 
L 304.855178 194.092007 
L 305.180158 86.634041 
L 305.505137 132.840568 
L 305.830117 208.067002 
L 306.155096 153.770905 
L 306.480076 217.455669 
L 307.130035 102.13909 
L 307.455014 162.37792 
L 307.779994 131.04797 
L 308.104973 180.760419 
L 308.429953 168.192992 
L 309.079912 117.010461 
L 309.404891 144.166434 
L 309.729871 87.700284 
L 310.054851 115.693515 
L 310.37983 123.267958 
L 310.70481 111.205386 
L 311.029789 211.320696 
L 311.679748 161.031051 
L 312.004728 179.154123 
L 312.329707 110.78705 
L 312.654687 256.442116 
L 312.979666 224.110158 
L 313.304646 104.706401 
L 313.629625 250.755099 
L 314.279584 198.885633 
L 314.604564 127.958603 
L 314.929543 161.791333 
L 315.254523 91.763781 
L 315.579502 220.79016 
L 315.904482 106.40836 
L 316.229462 211.018418 
L 316.554441 217.661261 
L 316.879421 172.764519 
L 317.2044 248.606044 
L 317.52938 193.016622 
L 317.854359 198.099888 
L 318.179339 232.82292 
L 318.504318 108.419143 
L 318.829298 192.735636 
L 319.154277 86.914086 
L 319.479257 101.510361 
L 319.804236 226.660525 
L 320.129216 171.566635 
L 320.454195 154.401348 
L 320.779175 115.846573 
L 321.104154 104.007551 
L 321.429134 150.45741 
L 321.754113 255.010104 
L 322.404072 104.156548 
L 322.729052 134.465755 
L 323.054032 106.759624 
L 323.379011 141.569251 
L 323.703991 253.42982 
L 324.02897 89.384347 
L 324.35395 98.259429 
L 324.678929 238.774547 
L 325.003909 241.240342 
L 325.328888 165.537898 
L 325.653868 126.838253 
L 325.978847 193.395466 
L 326.303827 237.034152 
L 326.628806 170.601875 
L 326.953786 201.315177 
L 327.278765 198.793021 
L 327.928724 104.013703 
L 328.253704 162.073444 
L 328.578683 139.168375 
L 328.903663 144.078442 
L 329.228643 163.395354 
L 329.553622 206.074771 
L 329.878602 194.172935 
L 330.203581 205.1967 
L 330.528561 98.35183 
L 330.85354 114.486913 
L 331.17852 158.388408 
L 331.503499 99.284757 
L 331.828479 103.871562 
L 332.153458 96.54154 
L 332.478438 221.873383 
L 332.803417 133.859721 
L 333.128397 153.083908 
L 333.453376 130.960856 
L 333.778356 214.486581 
L 334.103335 137.888895 
L 334.428315 188.485437 
L 334.753294 113.160105 
L 335.078274 120.03568 
L 335.403253 223.722723 
L 335.728233 228.605593 
L 336.053213 133.81912 
L 336.378192 163.514539 
L 336.703172 162.319488 
L 337.028151 127.643505 
L 337.353131 109.453168 
L 337.67811 218.821396 
L 338.328069 114.072163 
L 338.653049 106.288737 
L 338.978028 210.220199 
L 339.303008 242.756089 
L 339.627987 219.91163 
L 339.952967 93.380351 
L 340.277946 179.137541 
L 340.602926 186.932767 
L 340.927905 258.924919 
L 341.252885 252.190622 
L 341.577864 142.525122 
L 341.902844 156.527803 
L 342.227824 159.066461 
L 342.552803 241.660818 
L 342.877783 198.741673 
L 343.202762 117.018782 
L 343.527742 230.193555 
L 343.852721 104.532282 
L 344.177701 239.680241 
L 344.50268 231.216543 
L 344.82766 176.426403 
L 345.152639 93.415791 
L 345.477619 202.738805 
L 345.802598 144.385415 
L 346.127578 156.73301 
L 346.452557 234.683388 
L 346.777537 217.18746 
L 347.102516 96.105071 
L 347.427496 228.432604 
L 347.752475 137.853241 
L 348.077455 89.972403 
L 348.402434 240.030412 
L 348.727414 190.375662 
L 349.052394 221.490192 
L 349.377373 221.911082 
L 349.702353 240.122761 
L 350.027332 145.924154 
L 350.352312 128.739273 
L 350.677291 141.087376 
L 351.002271 97.080907 
L 351.32725 235.38359 
L 351.65223 204.461389 
L 351.977209 200.071185 
L 352.627168 236.000353 
L 353.277127 113.09835 
L 353.602107 91.775317 
L 353.927086 238.284332 
L 354.252066 115.10147 
L 354.577045 114.848667 
L 354.902025 192.187296 
L 355.227005 241.712883 
L 355.551984 85.478143 
L 355.876964 144.851461 
L 356.201943 86.86517 
L 356.526923 175.377908 
L 356.851902 191.083882 
L 357.176882 217.361706 
L 357.501861 86.620816 
L 357.826841 216.283697 
L 358.15182 257.029034 
L 358.4768 170.262355 
L 359.126759 214.841112 
L 359.451738 148.577203 
L 359.776718 196.574316 
L 360.101697 189.830798 
L 360.426677 257.15636 
L 360.751656 156.662051 
L 361.076636 239.575006 
L 361.401615 223.288229 
L 361.726595 133.928114 
L 362.051575 205.633649 
L 362.376554 232.271 
L 362.701534 158.729865 
L 363.026513 223.092996 
L 363.351493 213.137452 
L 363.676472 150.932998 
L 364.001452 129.890064 
L 364.326431 129.925945 
L 364.651411 175.628618 
L 364.97639 180.590347 
L 365.30137 121.406415 
L 365.626349 226.975839 
L 365.951329 234.225358 
L 366.276308 143.235451 
L 366.601288 188.542532 
L 366.926267 135.192112 
L 367.251247 215.690176 
L 367.576226 203.568964 
L 367.901206 102.048373 
L 368.226186 186.385446 
L 368.551165 156.327817 
L 368.876145 242.307199 
L 369.201124 229.497947 
L 369.526104 254.87632 
L 369.851083 185.903542 
L 370.176063 85.671311 
L 370.501042 106.09717 
L 370.826022 148.878886 
L 371.151001 108.365588 
L 371.80096 195.775322 
L 372.12594 230.43587 
L 372.450919 145.303184 
L 372.775899 226.9729 
L 373.100878 187.136121 
L 373.425858 114.631935 
L 373.750837 238.304098 
L 374.075817 238.341007 
L 374.400796 221.406698 
L 374.725776 163.258447 
L 375.050756 216.556012 
L 375.375735 171.908271 
L 375.700715 207.632813 
L 376.025694 171.36778 
L 376.350674 211.956212 
L 376.675653 87.252805 
L 377.000633 173.768937 
L 377.325612 129.218655 
L 377.650592 136.870239 
L 378.300551 218.839477 
L 378.62553 170.573081 
L 378.95051 140.345648 
L 379.275489 179.592132 
L 379.600469 246.702667 
L 379.925448 258.055153 
L 380.250428 203.035457 
L 380.575407 234.576632 
L 380.900387 100.35947 
L 381.225367 230.029958 
L 381.550346 191.245498 
L 381.875326 134.82299 
L 382.200305 116.474873 
L 382.850264 229.08856 
L 383.175244 213.152187 
L 383.500223 186.862698 
L 383.825203 196.516442 
L 384.150182 199.343265 
L 384.475162 237.838135 
L 384.800141 99.095356 
L 385.125121 255.964863 
L 385.77508 87.197923 
L 386.425039 198.146991 
L 386.750018 235.309239 
L 387.074998 90.118322 
L 387.399977 258.764772 
L 387.724957 140.2718 
L 388.049937 104.984979 
L 388.374916 256.780875 
L 388.699896 132.497635 
L 389.024875 83.910474 
L 389.349855 147.683385 
L 389.674834 187.624272 
L 389.999814 106.003504 
L 390.324793 162.856854 
L 390.649773 128.18936 
L 390.649773 128.18936 
" style="fill:none;stroke:#1f77b4;stroke-linecap:round;stroke-width:1.5;"/>
   </g>
   <g id="line2d_14">
    <path clip-path="url(#pd5bd878e80)" d="M 65.995227 164.72806 
L 66.320207 84.892982 
L 66.645186 33.399938 
L 66.970166 19.296 
L 67.295145 33.774013 
L 67.945104 101.200882 
L 68.270084 112.646633 
L 68.595063 95.482988 
L 68.920043 86.662447 
L 69.570002 134.491723 
L 69.894982 140.587065 
L 70.544941 136.783765 
L 70.86992 129.249338 
L 71.1949 128.062588 
L 71.844859 173.309386 
L 72.169838 177.554185 
L 72.494818 161.829245 
L 72.819797 157.303116 
L 73.469756 193.298684 
L 73.794736 184.638729 
L 74.444695 112.708092 
L 74.769674 101.355275 
L 75.094654 119.998352 
L 75.744613 180.777785 
L 76.069593 185.011239 
L 76.719552 155.095779 
L 77.044531 162.63104 
L 77.69449 214.590236 
L 78.01947 208.954633 
L 78.344449 192.412686 
L 78.669429 183.109274 
L 79.319388 151.741801 
L 79.644367 168.319681 
L 79.969347 210.706056 
L 80.294326 231.57835 
L 80.619306 210.220129 
L 80.944285 173.12217 
L 81.269265 153.883508 
L 81.594244 159.558838 
L 82.244204 199.235353 
L 82.569183 195.541916 
L 83.219142 154.524798 
L 83.544122 150.522805 
L 84.194081 193.078861 
L 84.51906 188.04296 
L 84.84404 158.110975 
L 85.169019 142.646102 
L 85.493999 160.371168 
L 85.818978 189.471364 
L 86.143958 203.904881 
L 86.468937 205.653631 
L 86.793917 202.693958 
L 87.443876 178.46688 
L 87.768855 182.845598 
L 88.093835 180.768711 
L 88.418814 162.373601 
L 88.743794 165.048174 
L 89.393753 244.434565 
L 89.718733 250.643119 
L 90.043712 220.525338 
L 90.368692 177.247669 
L 90.693671 150.00245 
L 91.018651 144.833337 
L 91.34363 145.200589 
L 91.66861 139.948338 
L 91.993589 132.559147 
L 92.318569 130.822254 
L 92.643548 137.99636 
L 93.293507 161.328442 
L 93.618487 165.890109 
L 94.268446 177.173 
L 94.593425 164.209364 
L 94.918405 140.274743 
L 95.243385 134.281942 
L 95.893344 173.804701 
L 96.218323 170.527051 
L 96.543303 152.271477 
L 96.868282 149.062908 
L 97.518241 205.691071 
L 97.843221 211.691942 
L 98.1682 190.055619 
L 98.49318 176.921729 
L 98.818159 194.584826 
L 99.143139 222.321873 
L 99.468118 233.708661 
L 99.793098 229.275219 
L 100.118077 216.082598 
L 100.768036 173.529077 
L 101.417995 152.503862 
L 101.742975 136.902513 
L 102.067955 131.346119 
L 102.392934 145.917238 
L 102.717914 171.953306 
L 103.042893 188.224346 
L 103.367873 184.593143 
L 103.692852 173.635207 
L 104.017832 167.914604 
L 104.342811 165.343276 
L 104.667791 168.706804 
L 104.99277 183.383445 
L 105.31775 190.051418 
L 105.642729 177.053419 
L 105.967709 173.968476 
L 106.292688 191.00179 
L 106.617668 189.402728 
L 106.942647 160.162983 
L 107.267627 144.573597 
L 107.592606 154.130904 
L 107.917586 160.007282 
L 108.242566 148.926744 
L 108.892525 113.148813 
L 109.217504 119.411348 
L 110.192443 232.997822 
L 110.517422 222.732486 
L 111.492361 152.933528 
L 111.81734 162.778733 
L 112.14232 177.273017 
L 112.467299 183.645306 
L 113.117258 199.828215 
L 113.442238 183.069482 
L 114.092197 115.954076 
L 114.417176 115.150422 
L 115.392115 165.743341 
L 116.042074 211.972103 
L 116.367054 218.869128 
L 116.692033 213.938042 
L 117.341992 190.652371 
L 118.316931 151.732171 
L 118.64191 146.593992 
L 119.291869 169.646318 
L 119.616849 156.342947 
L 119.941828 130.536474 
L 120.266808 130.3935 
L 120.916767 207.066278 
L 121.241747 221.031841 
L 121.566726 199.018495 
L 121.891706 163.834949 
L 122.216685 154.61384 
L 122.866644 219.515321 
L 123.191624 222.989573 
L 123.841583 140.063125 
L 124.166562 132.373073 
L 124.816521 180.561814 
L 125.141501 183.904083 
L 125.46648 174.558622 
L 125.79146 152.670386 
L 126.116439 143.726848 
L 126.766398 201.597635 
L 127.091378 200.608666 
L 127.416357 188.314976 
L 127.741337 184.793654 
L 128.066317 168.69512 
L 128.391296 138.813152 
L 128.716276 131.274013 
L 129.366235 181.626444 
L 129.691214 191.255466 
L 130.016194 187.359268 
L 130.341173 177.358551 
L 130.666153 179.948292 
L 131.316112 224.301778 
L 131.641091 208.184893 
L 132.29105 134.183009 
L 132.61603 120.90298 
L 132.941009 125.874105 
L 133.590968 159.658835 
L 133.915948 175.578745 
L 134.565907 190.921079 
L 134.890887 203.252408 
L 135.215866 203.731452 
L 136.515784 142.639391 
L 136.840764 133.835034 
L 137.165743 136.678311 
L 137.490723 160.393597 
L 137.815702 193.740811 
L 138.140682 206.548993 
L 138.790641 162.858576 
L 139.11562 166.04743 
L 139.765579 195.672218 
L 140.090559 198.467972 
L 140.415538 194.529391 
L 140.740518 183.066336 
L 141.390477 143.909036 
L 141.715457 141.901415 
L 142.040436 147.101928 
L 142.690395 132.959779 
L 143.015375 147.340195 
L 143.665334 199.359992 
L 144.315293 225.929412 
L 144.640272 225.346862 
L 145.290231 161.820051 
L 145.615211 151.099563 
L 145.94019 153.778616 
L 146.26517 149.795674 
L 146.590149 149.497499 
L 147.565088 195.624288 
L 149.189986 151.767476 
L 149.514965 163.51051 
L 149.839945 189.818607 
L 150.164924 194.649928 
L 151.139863 97.813399 
L 151.464842 127.921509 
L 151.789822 173.796437 
L 152.114801 197.521265 
L 152.439781 200.6253 
L 153.08974 215.273915 
L 153.414719 210.225993 
L 154.064679 165.499594 
L 154.389658 160.303412 
L 155.039617 211.201272 
L 155.364597 193.75329 
L 155.689576 159.509098 
L 156.014556 158.422129 
L 156.339535 185.231062 
L 156.664515 194.55955 
L 157.639453 138.838292 
L 158.939371 181.613396 
L 159.264351 188.89789 
L 159.58933 181.506724 
L 159.91431 177.303775 
L 160.564269 205.630073 
L 160.889249 198.144952 
L 161.214228 183.449463 
L 161.539208 183.067956 
L 161.864187 183.723681 
L 162.514146 142.570164 
L 162.839126 136.949158 
L 163.164105 146.616143 
L 163.814064 181.082273 
L 164.139044 185.099025 
L 165.113982 132.177265 
L 165.438962 139.674432 
L 166.088921 184.452352 
L 166.4139 182.1463 
L 166.73888 181.988386 
L 167.388839 205.746794 
L 167.713819 197.126065 
L 168.363778 159.194859 
L 168.688757 150.979334 
L 169.013737 155.153139 
L 169.338716 163.146671 
L 169.663696 157.16109 
L 169.988675 142.417648 
L 170.313655 142.668986 
L 170.963614 184.133071 
L 171.288593 193.651894 
L 171.613573 192.529182 
L 171.938552 187.63445 
L 172.263532 179.231681 
L 172.913491 141.178478 
L 173.238471 153.462624 
L 173.56345 191.06298 
L 173.88843 201.548598 
L 174.538389 130.06373 
L 174.863368 139.519657 
L 175.188348 177.301591 
L 175.513327 192.641807 
L 176.163286 167.982247 
L 176.488266 176.212022 
L 176.813245 187.990001 
L 177.138225 190.963999 
L 177.463204 180.920084 
L 178.113163 141.19243 
L 178.438143 157.063813 
L 178.763122 198.786487 
L 179.088102 221.381472 
L 179.413081 198.364955 
L 179.738061 158.065672 
L 180.063041 146.82338 
L 180.713 194.109678 
L 181.037979 196.636339 
L 181.687938 179.209081 
L 182.012918 181.551129 
L 182.337897 179.713724 
L 182.662877 154.452556 
L 182.987856 118.555981 
L 183.312836 106.926626 
L 183.637815 129.808426 
L 184.287774 198.459606 
L 184.612754 212.603868 
L 184.937733 196.499819 
L 185.262713 165.652081 
L 185.587692 163.635646 
L 185.912672 193.627601 
L 186.237652 211.356918 
L 186.887611 185.302029 
L 187.21259 190.244993 
L 187.53757 206.481579 
L 187.862549 203.12465 
L 188.512508 130.13969 
L 188.837488 121.423779 
L 189.487447 153.852116 
L 189.812426 153.032892 
L 190.137406 144.983181 
L 190.462385 148.087179 
L 191.112344 196.101712 
L 191.437324 205.522196 
L 191.762303 196.227125 
L 192.087283 177.825127 
L 192.412262 166.991049 
L 192.737242 180.242845 
L 193.062222 210.028693 
L 193.387201 228.389666 
L 193.712181 214.30388 
L 194.03716 177.121505 
L 194.36214 152.875382 
L 194.687119 158.757663 
L 195.012099 170.913019 
L 195.337078 167.805389 
L 195.662058 160.989298 
L 195.987037 164.911038 
L 196.312017 170.642792 
L 196.636996 169.854992 
L 196.961976 176.541539 
L 197.611935 215.898896 
L 197.936914 222.066506 
L 198.261894 216.253823 
L 198.586873 192.569379 
L 199.236833 131.237633 
L 199.561812 144.342798 
L 200.211771 213.236533 
L 200.536751 198.151532 
L 201.18671 113.696042 
L 201.511689 96.206933 
L 201.836669 98.717639 
L 202.811607 137.544495 
L 203.136587 142.507404 
L 203.461566 170.500225 
L 203.786546 219.362027 
L 204.111525 243.152461 
L 204.436505 217.943162 
L 204.761484 179.048151 
L 205.086464 169.186943 
L 205.736423 196.063265 
L 206.061403 184.698025 
L 206.711362 131.215442 
L 207.036341 138.548861 
L 207.6863 176.835202 
L 208.01128 189.352437 
L 208.336259 194.797472 
L 208.661239 179.88853 
L 209.311198 123.962287 
L 209.636177 124.209358 
L 210.611116 201.242235 
L 210.936095 192.978407 
L 211.586054 137.348739 
L 211.911034 130.134327 
L 212.236014 142.129771 
L 213.210952 204.934432 
L 213.535932 179.558824 
L 213.860911 145.061978 
L 214.185891 144.199185 
L 214.83585 210.264758 
L 215.160829 223.066271 
L 215.485809 212.758715 
L 216.135768 166.313398 
L 216.460747 156.817907 
L 216.785727 166.70428 
L 217.110706 185.650531 
L 217.435686 194.026614 
L 217.760665 190.228339 
L 218.085645 195.26649 
L 218.410624 212.390643 
L 218.735604 203.519461 
L 219.385563 109.879144 
L 219.710543 123.490168 
L 220.035522 167.669555 
L 220.360502 182.005806 
L 221.010461 138.316178 
L 221.33544 154.251993 
L 221.66042 187.268945 
L 221.985399 206.999299 
L 222.310379 203.934089 
L 222.635358 196.235078 
L 222.960338 200.241617 
L 223.285317 206.742447 
L 223.610297 205.658919 
L 223.935276 200.342251 
L 224.260256 187.055992 
L 224.585235 165.481795 
L 224.910215 154.349195 
L 225.235195 153.824631 
L 225.560174 146.344322 
L 225.885154 147.599207 
L 226.535113 210.224154 
L 226.860092 207.541667 
L 227.510051 161.272341 
L 228.16001 138.388045 
L 228.48499 137.985287 
L 229.134949 161.093012 
L 229.784908 174.599114 
L 230.109887 177.467268 
L 230.434867 176.759646 
L 230.759846 176.653067 
L 231.084826 176.799927 
L 231.409805 176.063444 
L 231.734785 184.296869 
L 232.384744 233.443349 
L 232.709724 236.904458 
L 233.034703 203.508553 
L 233.684662 97.55275 
L 234.009642 102.012152 
L 234.659601 210.82315 
L 234.98458 214.896347 
L 235.634539 125.762355 
L 235.959519 137.876066 
L 236.609478 223.850876 
L 236.934457 225.430357 
L 237.584416 191.587355 
L 237.909396 175.790754 
L 238.559355 106.951748 
L 238.884335 108.090852 
L 239.534294 169.893655 
L 239.859273 167.917887 
L 240.184253 156.287759 
L 240.509232 163.41053 
L 241.159191 228.899145 
L 241.484171 242.097309 
L 241.80915 212.059186 
L 242.13413 161.00792 
L 242.459109 137.305897 
L 242.784089 148.924465 
L 243.109068 165.730689 
L 243.434048 172.994524 
L 243.759027 174.203177 
L 244.084007 170.416153 
L 244.733966 149.219275 
L 245.058946 151.391271 
L 245.383925 166.208796 
L 245.708905 164.772508 
L 246.358864 109.269379 
L 246.683843 118.21586 
L 247.658782 236.197666 
L 247.983761 231.928253 
L 248.63372 184.079937 
L 248.9587 151.979297 
L 249.283679 134.076649 
L 249.608659 158.167929 
L 249.933638 199.682599 
L 250.258618 206.199723 
L 250.908577 144.692258 
L 251.233557 133.077016 
L 251.558536 146.28694 
L 252.208495 195.934699 
L 252.533475 194.574524 
L 253.508413 151.855656 
L 253.833393 148.683597 
L 254.158372 149.008824 
L 254.483352 140.513078 
L 254.808331 138.160327 
L 255.133311 162.835056 
L 255.45829 202.488379 
L 255.78327 227.378015 
L 256.108249 230.245974 
L 256.433229 220.045941 
L 256.758208 196.929612 
L 257.408167 142.135819 
L 257.733147 145.246056 
L 258.058127 171.135618 
L 258.383106 185.901238 
L 259.033065 150.946934 
L 259.358045 165.155919 
L 259.683024 184.378722 
L 260.008004 182.001949 
L 260.332983 171.363719 
L 260.657963 171.491146 
L 260.982942 185.254017 
L 261.307922 194.183707 
L 261.632901 172.640432 
L 261.957881 133.487527 
L 262.28286 123.93678 
L 262.60784 161.062051 
L 262.932819 210.994873 
L 263.257799 233.489562 
L 263.907758 210.02572 
L 264.232738 214.028997 
L 264.557717 214.246856 
L 264.882697 184.725911 
L 265.207676 141.87426 
L 265.532656 121.489618 
L 265.857635 132.783 
L 266.182615 157.454204 
L 266.507594 171.94775 
L 266.832574 165.031719 
L 267.157553 150.678108 
L 267.482533 149.998103 
L 267.807512 156.224587 
L 268.132492 148.640987 
L 268.457471 132.301876 
L 268.782451 127.553067 
L 269.10743 140.784531 
L 269.43241 164.135051 
L 269.757389 176.247397 
L 270.407348 150.620042 
L 270.732328 161.756659 
L 271.057308 180.045524 
L 271.382287 187.643848 
L 272.032246 192.493009 
L 272.357226 186.248725 
L 272.682205 170.976075 
L 273.007185 162.593913 
L 273.332164 172.636646 
L 273.657144 191.446998 
L 273.982123 202.682544 
L 274.307103 200.532641 
L 274.632082 187.24969 
L 275.282041 144.367858 
L 275.607021 153.757351 
L 276.25698 225.112077 
L 276.581959 224.036024 
L 276.906939 212.541592 
L 277.231919 216.819515 
L 277.556898 215.252081 
L 277.881878 177.873153 
L 278.206857 126.602853 
L 278.531837 109.896232 
L 278.856816 145.538405 
L 279.181796 204.60022 
L 279.506775 234.552364 
L 279.831755 212.793545 
L 280.156734 175.775673 
L 280.481714 165.011997 
L 280.806693 172.618985 
L 281.131673 174.976281 
L 281.456652 172.01899 
L 281.781632 165.223332 
L 282.431591 139.582247 
L 283.08155 156.728497 
L 283.406529 158.52023 
L 283.731509 168.418919 
L 284.056489 189.594354 
L 284.381468 195.901089 
L 284.706448 175.018497 
L 285.031427 145.489321 
L 285.356407 131.576638 
L 285.681386 146.572132 
L 286.006366 177.387991 
L 286.331345 188.939526 
L 286.981304 152.125577 
L 287.306284 152.590161 
L 287.956243 171.20795 
L 288.281222 183.769058 
L 288.606202 177.126424 
L 288.931181 149.221134 
L 289.256161 131.664573 
L 289.58114 140.517166 
L 290.556079 220.895877 
L 290.881059 202.956628 
L 291.531018 138.869888 
L 291.855997 134.074316 
L 292.505956 181.637458 
L 292.830936 188.910958 
L 293.480895 128.542484 
L 293.805874 135.257986 
L 294.455833 216.087008 
L 294.780813 214.297075 
L 295.105792 196.503906 
L 295.430772 194.332812 
L 295.755751 198.912075 
L 296.40571 171.520316 
L 297.05567 175.842883 
L 297.380649 167.225521 
L 297.705629 163.83321 
L 298.355588 190.997903 
L 298.680567 193.692911 
L 299.005547 184.189626 
L 299.330526 178.933517 
L 299.655506 185.66475 
L 299.980485 195.276217 
L 300.305465 199.475637 
L 300.630444 194.910919 
L 300.955424 171.466031 
L 301.280403 131.746686 
L 301.605383 106.6353 
L 301.930362 120.155174 
L 302.580321 183.518483 
L 303.230281 179.801453 
L 303.88024 207.857022 
L 304.205219 214.448624 
L 304.530199 205.548811 
L 305.180158 142.899989 
L 305.505137 146.332046 
L 306.155096 196.424463 
L 306.480076 190.656531 
L 307.130035 142.095725 
L 307.455014 142.709758 
L 308.104973 173.048123 
L 308.429953 170.400645 
L 309.404891 125.443449 
L 309.729871 115.767408 
L 310.054851 113.578457 
L 310.37983 125.78196 
L 311.029789 183.22388 
L 311.354769 191.769297 
L 312.004728 168.701037 
L 312.329707 181.240527 
L 312.654687 201.91722 
L 312.979666 204.134047 
L 313.304646 200.406708 
L 313.629625 212.669647 
L 313.954605 219.846108 
L 314.279584 198.120381 
L 314.604564 163.049341 
L 314.929543 142.310162 
L 315.254523 144.284751 
L 315.904482 174.531935 
L 316.554441 208.261498 
L 316.879421 216.535821 
L 317.2044 220.437011 
L 317.52938 220.528978 
L 317.854359 214.720468 
L 318.179339 198.130387 
L 318.829298 140.554577 
L 319.154277 127.467828 
L 319.479257 146.670198 
L 319.804236 180.292166 
L 320.129216 186.817909 
L 320.779175 128.349541 
L 321.104154 134.565779 
L 321.754113 205.972048 
L 322.079093 188.852878 
L 322.404072 146.422677 
L 322.729052 123.928879 
L 323.054032 137.832126 
L 323.379011 166.682575 
L 323.703991 172.09605 
L 324.02897 154.713806 
L 324.35395 162.054094 
L 324.678929 200.529968 
L 325.003909 217.127006 
L 325.653868 176.648816 
L 325.978847 190.128777 
L 326.303827 211.103914 
L 326.628806 216.5338 
L 326.953786 208.630355 
L 327.278765 189.365215 
L 327.603745 162.270133 
L 327.928724 144.611091 
L 328.253704 144.218836 
L 328.578683 151.260365 
L 328.903663 162.953741 
L 329.553622 206.734429 
L 329.878602 209.490088 
L 330.85354 133.812322 
L 331.17852 129.243699 
L 331.503499 121.374675 
L 331.828479 121.261359 
L 332.478438 167.206744 
L 332.803417 170.171198 
L 333.128397 163.274876 
L 333.453376 168.67126 
L 333.778356 180.150929 
L 334.103335 177.65923 
L 334.753294 145.995132 
L 335.078274 162.781691 
L 335.403253 196.015364 
L 335.728233 205.993276 
L 336.703172 147.122706 
L 337.028151 143.133647 
L 337.67811 170.251658 
L 338.00309 158.185003 
L 338.328069 136.354836 
L 338.653049 148.361311 
L 338.978028 193.43699 
L 339.303008 218.988748 
L 339.627987 194.935726 
L 339.952967 158.658665 
L 340.277946 162.039679 
L 340.927905 235.234142 
L 341.252885 221.758339 
L 341.577864 180.435724 
L 341.902844 159.846312 
L 342.552803 196.533775 
L 342.877783 190.045346 
L 343.202762 169.224143 
L 343.527742 161.498315 
L 343.852721 176.806647 
L 344.177701 201.654133 
L 344.50268 203.874067 
L 345.152639 146.138538 
L 345.477619 143.176854 
L 345.802598 157.831838 
L 346.452557 196.628015 
L 346.777537 189.660821 
L 347.427496 152.425954 
L 347.752475 140.191437 
L 348.077455 145.808787 
L 348.727414 204.744221 
L 349.052394 222.051818 
L 349.377373 224.203351 
L 349.702353 203.292935 
L 350.352312 126.628739 
L 350.677291 117.609899 
L 351.002271 140.996744 
L 351.65223 205.323063 
L 351.977209 216.134499 
L 352.302189 218.842168 
L 352.627168 203.386414 
L 353.277127 130.584536 
L 353.602107 129.249346 
L 353.927086 141.85968 
L 354.252066 143.526949 
L 354.577045 151.181987 
L 354.902025 172.527113 
L 355.227005 172.820092 
L 355.876964 111.050906 
L 356.201943 117.957838 
L 356.851902 174.971604 
L 357.501861 164.781378 
L 358.15182 204.584635 
L 358.4768 202.745998 
L 359.126759 177.538378 
L 359.451738 171.563681 
L 359.776718 178.985318 
L 360.101697 195.478898 
L 360.426677 205.586414 
L 360.751656 206.359845 
L 361.076636 201.879707 
L 361.726595 177.850419 
L 362.051575 181.205187 
L 362.376554 191.123586 
L 362.701534 196.99519 
L 363.026513 197.745276 
L 363.351493 183.828998 
L 364.001452 130.598392 
L 364.326431 131.219455 
L 365.30137 168.984145 
L 365.626349 188.916454 
L 365.951329 192.364002 
L 366.601288 158.396662 
L 366.926267 163.951565 
L 367.251247 174.120954 
L 367.576226 164.987892 
L 367.901206 145.231103 
L 368.226186 145.019731 
L 368.551165 173.341892 
L 368.876145 212.505541 
L 369.201124 235.222754 
L 369.526104 218.944682 
L 370.176063 113.947279 
L 370.501042 94.270389 
L 370.826022 102.578146 
L 371.151001 121.979462 
L 371.80096 178.404837 
L 372.12594 190.718499 
L 372.450919 186.658802 
L 373.100878 162.221142 
L 373.425858 165.855058 
L 374.075817 212.802329 
L 374.400796 204.9357 
L 374.725776 185.831538 
L 375.050756 177.120969 
L 375.375735 179.092709 
L 375.700715 182.181614 
L 376.025694 176.469828 
L 377.000633 122.894203 
L 377.325612 125.61712 
L 377.650592 142.096174 
L 377.975571 166.142622 
L 378.300551 176.011494 
L 378.62553 163.511631 
L 378.95051 156.247101 
L 379.275489 180.148024 
L 379.600469 218.776211 
L 379.925448 235.389646 
L 380.250428 218.201559 
L 380.575407 187.573467 
L 380.900387 172.368779 
L 381.225367 174.905578 
L 381.550346 167.519628 
L 381.875326 145.146846 
L 382.200305 140.97533 
L 382.850264 203.134333 
L 383.175244 212.628923 
L 383.500223 205.357835 
L 383.825203 201.764959 
L 384.150182 202.653449 
L 384.475162 199.221129 
L 385.125121 194.243298 
L 385.77508 151.613108 
L 386.100059 161.546425 
L 386.425039 192.503896 
L 386.750018 206.950553 
L 387.074998 202.397304 
L 387.724957 187.751969 
L 388.374916 193.732112 
L 389.024875 159.677499 
L 389.349855 167.137742 
L 389.674834 182.687444 
L 389.999814 185.577346 
L 390.324793 178.877202 
L 390.649773 169.077882 
L 390.649773 169.077882 
" style="fill:none;stroke:#ff7f0e;stroke-linecap:round;stroke-width:1.5;"/>
   </g>
   <g id="patch_3">
    <path d="M 49.7625 273.312 
L 49.7625 7.2 
" style="fill:none;stroke:#262626;stroke-linecap:square;stroke-linejoin:miter;stroke-width:1.25;"/>
   </g>
   <g id="patch_4">
    <path d="M 49.7625 273.312 
L 406.8825 273.312 
" style="fill:none;stroke:#262626;stroke-linecap:square;stroke-linejoin:miter;stroke-width:1.25;"/>
   </g>
   <g id="legend_1">
    <g id="line2d_15">
     <path d="M 264.123125 19.946875 
L 284.123125 19.946875 
" style="fill:none;stroke:#1f77b4;stroke-linecap:round;stroke-width:1.5;"/>
    </g>
    <g id="line2d_16"/>
    <g id="text_15">
     <!-- raw -->
     <defs>
      <path d="M 57.328125 0 
L 47.125 0 
L 37.890625 37.359375 
L 36.140625 45.609375 
Q 35.6875 43.40625 34.765625 39.28125 
Q 33.84375 35.15625 24.8125 0 
L 14.65625 0 
L -0.140625 52.828125 
L 8.546875 52.828125 
L 17.484375 16.9375 
Q 17.828125 15.765625 19.578125 7.28125 
L 20.40625 10.890625 
L 31.453125 52.828125 
L 40.875 52.828125 
L 50.09375 16.546875 
L 52.34375 7.28125 
L 53.859375 14.0625 
L 63.875 52.828125 
L 72.46875 52.828125 
z
" id="LiberationSans-119"/>
     </defs>
     <g style="fill:#262626;" transform="translate(292.123125 23.446875)scale(0.1 -0.1)">
      <use xlink:href="#LiberationSans-114"/>
      <use x="33.300781" xlink:href="#LiberationSans-97"/>
      <use x="88.916016" xlink:href="#LiberationSans-119"/>
     </g>
    </g>
    <g id="line2d_17">
     <path d="M 264.123125 34.26875 
L 284.123125 34.26875 
" style="fill:none;stroke:#ff7f0e;stroke-linecap:round;stroke-width:1.5;"/>
    </g>
    <g id="line2d_18"/>
    <g id="text_16">
     <!-- band-pass @ 10-200Hz -->
     <defs>
      <path d="M 51.421875 26.65625 
Q 51.421875 -0.984375 31.984375 -0.984375 
Q 25.984375 -0.984375 22 1.1875 
Q 18.015625 3.375 15.53125 8.203125 
L 15.4375 8.203125 
Q 15.4375 6.6875 15.234375 3.578125 
Q 15.046875 0.484375 14.9375 0 
L 6.453125 0 
Q 6.734375 2.640625 6.734375 10.890625 
L 6.734375 72.46875 
L 15.53125 72.46875 
L 15.53125 51.8125 
Q 15.53125 48.640625 15.328125 44.34375 
L 15.53125 44.34375 
Q 17.96875 49.421875 22 51.609375 
Q 26.03125 53.8125 31.984375 53.8125 
Q 42 53.8125 46.703125 47.0625 
Q 51.421875 40.328125 51.421875 26.65625 
z
M 42.1875 26.375 
Q 42.1875 37.453125 39.25 42.234375 
Q 36.328125 47.015625 29.734375 47.015625 
Q 22.3125 47.015625 18.921875 41.9375 
Q 15.53125 36.859375 15.53125 25.828125 
Q 15.53125 15.4375 18.84375 10.46875 
Q 22.171875 5.515625 29.640625 5.515625 
Q 36.28125 5.515625 39.234375 10.421875 
Q 42.1875 15.328125 42.1875 26.375 
z
" id="LiberationSans-98"/>
      <path d="M 40.09375 8.5 
Q 37.640625 3.421875 33.609375 1.21875 
Q 29.59375 -0.984375 23.640625 -0.984375 
Q 13.625 -0.984375 8.90625 5.75 
Q 4.203125 12.5 4.203125 26.171875 
Q 4.203125 53.8125 23.640625 53.8125 
Q 29.640625 53.8125 33.640625 51.609375 
Q 37.640625 49.421875 40.09375 44.625 
L 40.1875 44.625 
L 40.09375 50.53125 
L 40.09375 72.46875 
L 48.875 72.46875 
L 48.875 10.890625 
Q 48.875 2.640625 49.171875 0 
L 40.765625 0 
Q 40.625 0.78125 40.453125 3.609375 
Q 40.28125 6.453125 40.28125 8.5 
z
M 13.421875 26.46875 
Q 13.421875 15.375 16.34375 10.59375 
Q 19.28125 5.8125 25.875 5.8125 
Q 33.34375 5.8125 36.71875 10.984375 
Q 40.09375 16.15625 40.09375 27.046875 
Q 40.09375 37.546875 36.71875 42.421875 
Q 33.34375 47.3125 25.984375 47.3125 
Q 19.34375 47.3125 16.375 42.40625 
Q 13.421875 37.5 13.421875 26.46875 
z
" id="LiberationSans-100"/>
      <path d="M 4.4375 22.65625 
L 4.4375 30.46875 
L 28.859375 30.46875 
L 28.859375 22.65625 
z
" id="LiberationSans-45"/>
      <path d="M 51.421875 26.65625 
Q 51.421875 -0.984375 31.984375 -0.984375 
Q 19.78125 -0.984375 15.578125 8.203125 
L 15.328125 8.203125 
Q 15.53125 7.8125 15.53125 -0.09375 
L 15.53125 -20.75 
L 6.734375 -20.75 
L 6.734375 42.046875 
Q 6.734375 50.203125 6.453125 52.828125 
L 14.9375 52.828125 
Q 14.984375 52.640625 15.078125 51.4375 
Q 15.1875 50.25 15.3125 47.75 
Q 15.4375 45.265625 15.4375 44.34375 
L 15.625 44.34375 
Q 17.96875 49.21875 21.828125 51.484375 
Q 25.6875 53.765625 31.984375 53.765625 
Q 41.75 53.765625 46.578125 47.21875 
Q 51.421875 40.671875 51.421875 26.65625 
z
M 42.1875 26.46875 
Q 42.1875 37.5 39.203125 42.234375 
Q 36.234375 46.96875 29.734375 46.96875 
Q 24.515625 46.96875 21.5625 44.765625 
Q 18.609375 42.578125 17.0625 37.90625 
Q 15.53125 33.25 15.53125 25.78125 
Q 15.53125 15.375 18.84375 10.4375 
Q 22.171875 5.515625 29.640625 5.515625 
Q 36.1875 5.515625 39.1875 10.328125 
Q 42.1875 15.140625 42.1875 26.46875 
z
" id="LiberationSans-112"/>
      <path id="LiberationSans-32"/>
      <path d="M 92.875 36.859375 
Q 92.875 27.78125 90.0625 20.4375 
Q 87.25 13.09375 82.25 9.078125 
Q 77.25 5.078125 71.046875 5.078125 
Q 66.21875 5.078125 63.578125 7.21875 
Q 60.9375 9.375 60.9375 13.671875 
L 61.078125 17.09375 
L 60.796875 17.09375 
Q 57.5625 11.078125 52.796875 8.078125 
Q 48.046875 5.078125 42.53125 5.078125 
Q 34.859375 5.078125 30.640625 10.0625 
Q 26.421875 15.046875 26.421875 23.875 
Q 26.421875 31.890625 29.5625 38.765625 
Q 32.71875 45.65625 38.375 49.703125 
Q 44.046875 53.765625 50.921875 53.765625 
Q 61.625 53.765625 65.625 44.875 
L 65.921875 44.875 
L 67.828125 52.6875 
L 75.4375 52.6875 
L 69.78125 27.984375 
Q 67.96875 19.96875 67.96875 15.625 
Q 67.96875 11.03125 71.921875 11.03125 
Q 75.828125 11.03125 79.125 14.40625 
Q 82.421875 17.78125 84.328125 23.6875 
Q 86.234375 29.59375 86.234375 36.765625 
Q 86.234375 45.515625 82.46875 52.265625 
Q 78.71875 59.03125 71.625 62.671875 
Q 64.546875 66.3125 55.078125 66.3125 
Q 43.265625 66.3125 34.171875 61.078125 
Q 25.09375 55.859375 19.921875 46.015625 
Q 14.75 36.1875 14.75 23.96875 
Q 14.75 14.546875 18.578125 7.34375 
Q 22.40625 0.140625 29.65625 -3.703125 
Q 36.921875 -7.5625 46.578125 -7.5625 
Q 53.65625 -7.5625 60.9375 -5.734375 
Q 68.21875 -3.90625 76.03125 0.34375 
L 78.71875 -5.125 
Q 71.625 -9.375 63.34375 -11.59375 
Q 55.078125 -13.8125 46.578125 -13.8125 
Q 34.8125 -13.8125 26 -9.15625 
Q 17.1875 -4.5 12.515625 4.125 
Q 7.859375 12.75 7.859375 23.96875 
Q 7.859375 37.640625 13.9375 48.828125 
Q 20.015625 60.015625 30.8125 66.234375 
Q 41.609375 72.46875 54.984375 72.46875 
Q 66.75 72.46875 75.296875 68.046875 
Q 83.84375 63.625 88.359375 55.5625 
Q 92.875 47.515625 92.875 36.859375 
z
M 63.28125 36.46875 
Q 63.28125 41.453125 60.0625 44.5 
Q 56.84375 47.5625 51.46875 47.5625 
Q 46.53125 47.5625 42.703125 44.453125 
Q 38.875 41.359375 36.671875 35.859375 
Q 34.46875 30.375 34.46875 23.96875 
Q 34.46875 18.109375 36.78125 14.78125 
Q 39.109375 11.46875 43.953125 11.46875 
Q 50.046875 11.46875 55.125 16.59375 
Q 60.203125 21.734375 62.15625 29.390625 
Q 63.28125 33.890625 63.28125 36.46875 
z
" id="LiberationSans-64"/>
      <path d="M 54.734375 0 
L 54.734375 31.890625 
L 17.53125 31.890625 
L 17.53125 0 
L 8.203125 0 
L 8.203125 68.796875 
L 17.53125 68.796875 
L 17.53125 39.703125 
L 54.734375 39.703125 
L 54.734375 68.796875 
L 64.0625 68.796875 
L 64.0625 0 
z
" id="LiberationSans-72"/>
      <path d="M 4.046875 0 
L 4.046875 6.6875 
L 33.59375 46.046875 
L 5.71875 46.046875 
L 5.71875 52.828125 
L 44 52.828125 
L 44 46.140625 
L 14.40625 6.78125 
L 45.015625 6.78125 
L 45.015625 0 
z
" id="LiberationSans-122"/>
     </defs>
     <g style="fill:#262626;" transform="translate(292.123125 37.76875)scale(0.1 -0.1)">
      <use xlink:href="#LiberationSans-98"/>
      <use x="55.615234" xlink:href="#LiberationSans-97"/>
      <use x="111.230469" xlink:href="#LiberationSans-110"/>
      <use x="166.845703" xlink:href="#LiberationSans-100"/>
      <use x="222.460938" xlink:href="#LiberationSans-45"/>
      <use x="255.761719" xlink:href="#LiberationSans-112"/>
      <use x="311.376953" xlink:href="#LiberationSans-97"/>
      <use x="366.992188" xlink:href="#LiberationSans-115"/>
      <use x="416.992188" xlink:href="#LiberationSans-115"/>
      <use x="466.992188" xlink:href="#LiberationSans-32"/>
      <use x="494.775391" xlink:href="#LiberationSans-64"/>
      <use x="596.289062" xlink:href="#LiberationSans-32"/>
      <use x="624.072266" xlink:href="#LiberationSans-49"/>
      <use x="679.6875" xlink:href="#LiberationSans-48"/>
      <use x="735.302734" xlink:href="#LiberationSans-45"/>
      <use x="768.603516" xlink:href="#LiberationSans-50"/>
      <use x="824.21875" xlink:href="#LiberationSans-48"/>
      <use x="879.833984" xlink:href="#LiberationSans-48"/>
      <use x="935.449219" xlink:href="#LiberationSans-72"/>
      <use x="1007.666016" xlink:href="#LiberationSans-122"/>
     </g>
    </g>
   </g>
  </g>
 </g>
 <defs>
  <clipPath id="pd5bd878e80">
   <rect height="266.112" width="357.12" x="49.7625" y="7.2"/>
  </clipPath>
 </defs>
</svg>
