<?xml version="1.0" encoding="utf-8" standalone="no"?>
<!DOCTYPE svg PUBLIC "-//W3C//DTD SVG 1.1//EN"
  "http://www.w3.org/Graphics/SVG/1.1/DTD/svg11.dtd">
<!-- Created with matplotlib (https://matplotlib.org/) -->
<svg height="312.65575pt" version="1.1" viewBox="0 0 414.0825 312.65575" width="414.0825pt" xmlns="http://www.w3.org/2000/svg" xmlns:xlink="http://www.w3.org/1999/xlink">
 <defs>
  <style type="text/css">
*{stroke-linecap:butt;stroke-linejoin:round;}
  </style>
 </defs>
 <g id="figure_1">
  <g id="patch_1">
   <path d="M 0 312.65575 
L 414.0825 312.65575 
L 414.0825 0 
L 0 0 
z
" style="fill:#ffffff;"/>
  </g>
  <g id="axes_1">
   <g id="patch_2">
    <path d="M 49.7625 273.312 
L 406.8825 273.312 
L 406.8825 7.2 
L 49.7625 7.2 
z
" style="fill:#ffffff;"/>
   </g>
   <g id="matplotlib.axis_1">
    <g id="xtick_1">
     <g id="line2d_1">
      <defs>
       <path d="M 0 0 
L 0 6 
" id="me05b92a673" style="stroke:#262626;stroke-width:0.8;"/>
      </defs>
      <g>
       <use style="fill:#262626;stroke:#262626;stroke-width:0.8;" x="65.995227" xlink:href="#me05b92a673" y="273.312"/>
      </g>
     </g>
     <g id="text_1">
      <!-- 0 -->
      <defs>
       <path d="M 51.703125 34.421875 
Q 51.703125 17.1875 45.625 8.09375 
Q 39.546875 -0.984375 27.6875 -0.984375 
Q 15.828125 -0.984375 9.859375 8.046875 
Q 3.90625 17.09375 3.90625 34.421875 
Q 3.90625 52.15625 9.6875 60.984375 
Q 15.484375 69.828125 27.984375 69.828125 
Q 40.140625 69.828125 45.921875 60.890625 
Q 51.703125 51.953125 51.703125 34.421875 
z
M 42.78125 34.421875 
Q 42.78125 49.3125 39.328125 56 
Q 35.890625 62.703125 27.984375 62.703125 
Q 19.875 62.703125 16.328125 56.109375 
Q 12.796875 49.515625 12.796875 34.421875 
Q 12.796875 19.78125 16.375 12.984375 
Q 19.96875 6.203125 27.78125 6.203125 
Q 35.546875 6.203125 39.15625 13.125 
Q 42.78125 20.0625 42.78125 34.421875 
z
" id="LiberationSans-48"/>
      </defs>
      <g style="fill:#262626;" transform="translate(63.214759 290.058875)scale(0.1 -0.1)">
       <use xlink:href="#LiberationSans-48"/>
      </g>
     </g>
    </g>
    <g id="xtick_2">
     <g id="line2d_2">
      <g>
       <use style="fill:#262626;stroke:#262626;stroke-width:0.8;" x="130.991132" xlink:href="#me05b92a673" y="273.312"/>
      </g>
     </g>
     <g id="text_2">
      <!-- 200 -->
      <defs>
       <path d="M 5.03125 0 
L 5.03125 6.203125 
Q 7.515625 11.921875 11.109375 16.28125 
Q 14.703125 20.65625 18.65625 24.1875 
Q 22.609375 27.734375 26.484375 30.765625 
Q 30.375 33.796875 33.5 36.8125 
Q 36.625 39.84375 38.546875 43.15625 
Q 40.484375 46.484375 40.484375 50.6875 
Q 40.484375 56.34375 37.15625 59.46875 
Q 33.84375 62.59375 27.9375 62.59375 
Q 22.3125 62.59375 18.671875 59.546875 
Q 15.046875 56.5 14.40625 50.984375 
L 5.421875 51.8125 
Q 6.390625 60.0625 12.421875 64.9375 
Q 18.453125 69.828125 27.9375 69.828125 
Q 38.328125 69.828125 43.921875 64.921875 
Q 49.515625 60.015625 49.515625 50.984375 
Q 49.515625 46.96875 47.671875 43.015625 
Q 45.84375 39.0625 42.234375 35.109375 
Q 38.625 31.15625 28.421875 22.859375 
Q 22.796875 18.265625 19.46875 14.578125 
Q 16.15625 10.890625 14.703125 7.46875 
L 50.59375 7.46875 
L 50.59375 0 
z
" id="LiberationSans-50"/>
      </defs>
      <g style="fill:#262626;" transform="translate(122.649726 290.058875)scale(0.1 -0.1)">
       <use xlink:href="#LiberationSans-50"/>
       <use x="55.615234" xlink:href="#LiberationSans-48"/>
       <use x="111.230469" xlink:href="#LiberationSans-48"/>
      </g>
     </g>
    </g>
    <g id="xtick_3">
     <g id="line2d_3">
      <g>
       <use style="fill:#262626;stroke:#262626;stroke-width:0.8;" x="195.987037" xlink:href="#me05b92a673" y="273.312"/>
      </g>
     </g>
     <g id="text_3">
      <!-- 400 -->
      <defs>
       <path d="M 43.015625 15.578125 
L 43.015625 0 
L 34.71875 0 
L 34.71875 15.578125 
L 2.296875 15.578125 
L 2.296875 22.40625 
L 33.796875 68.796875 
L 43.015625 68.796875 
L 43.015625 22.515625 
L 52.6875 22.515625 
L 52.6875 15.578125 
z
M 34.71875 58.890625 
Q 34.625 58.59375 33.34375 56.296875 
Q 32.078125 54 31.453125 53.078125 
L 13.8125 27.09375 
L 11.1875 23.484375 
L 10.40625 22.515625 
L 34.71875 22.515625 
z
" id="LiberationSans-52"/>
      </defs>
      <g style="fill:#262626;" transform="translate(187.645631 290.058875)scale(0.1 -0.1)">
       <use xlink:href="#LiberationSans-52"/>
       <use x="55.615234" xlink:href="#LiberationSans-48"/>
       <use x="111.230469" xlink:href="#LiberationSans-48"/>
      </g>
     </g>
    </g>
    <g id="xtick_4">
     <g id="line2d_4">
      <g>
       <use style="fill:#262626;stroke:#262626;stroke-width:0.8;" x="260.982942" xlink:href="#me05b92a673" y="273.312"/>
      </g>
     </g>
     <g id="text_4">
      <!-- 600 -->
      <defs>
       <path d="M 51.21875 22.515625 
Q 51.21875 11.625 45.3125 5.3125 
Q 39.40625 -0.984375 29 -0.984375 
Q 17.390625 -0.984375 11.234375 7.65625 
Q 5.078125 16.3125 5.078125 32.8125 
Q 5.078125 50.6875 11.46875 60.25 
Q 17.875 69.828125 29.6875 69.828125 
Q 45.265625 69.828125 49.3125 55.8125 
L 40.921875 54.296875 
Q 38.328125 62.703125 29.59375 62.703125 
Q 22.078125 62.703125 17.9375 55.6875 
Q 13.8125 48.6875 13.8125 35.40625 
Q 16.21875 39.84375 20.5625 42.15625 
Q 24.90625 44.484375 30.515625 44.484375 
Q 40.046875 44.484375 45.625 38.515625 
Q 51.21875 32.5625 51.21875 22.515625 
z
M 42.28125 22.125 
Q 42.28125 29.59375 38.625 33.640625 
Q 34.96875 37.703125 28.421875 37.703125 
Q 22.265625 37.703125 18.484375 34.109375 
Q 14.703125 30.515625 14.703125 24.21875 
Q 14.703125 16.265625 18.625 11.1875 
Q 22.5625 6.109375 28.71875 6.109375 
Q 35.0625 6.109375 38.671875 10.375 
Q 42.28125 14.65625 42.28125 22.125 
z
" id="LiberationSans-54"/>
      </defs>
      <g style="fill:#262626;" transform="translate(252.641536 290.058875)scale(0.1 -0.1)">
       <use xlink:href="#LiberationSans-54"/>
       <use x="55.615234" xlink:href="#LiberationSans-48"/>
       <use x="111.230469" xlink:href="#LiberationSans-48"/>
      </g>
     </g>
    </g>
    <g id="xtick_5">
     <g id="line2d_5">
      <g>
       <use style="fill:#262626;stroke:#262626;stroke-width:0.8;" x="325.978847" xlink:href="#me05b92a673" y="273.312"/>
      </g>
     </g>
     <g id="text_5">
      <!-- 800 -->
      <defs>
       <path d="M 51.265625 19.1875 
Q 51.265625 9.671875 45.203125 4.34375 
Q 39.15625 -0.984375 27.828125 -0.984375 
Q 16.796875 -0.984375 10.5625 4.234375 
Q 4.34375 9.46875 4.34375 19.09375 
Q 4.34375 25.828125 8.203125 30.421875 
Q 12.0625 35.015625 18.0625 35.984375 
L 18.0625 36.1875 
Q 12.453125 37.5 9.203125 41.890625 
Q 5.953125 46.296875 5.953125 52.203125 
Q 5.953125 60.0625 11.828125 64.9375 
Q 17.71875 69.828125 27.640625 69.828125 
Q 37.796875 69.828125 43.671875 65.03125 
Q 49.5625 60.25 49.5625 52.09375 
Q 49.5625 46.1875 46.28125 41.796875 
Q 43.015625 37.40625 37.359375 36.28125 
L 37.359375 36.078125 
Q 43.953125 35.015625 47.609375 30.5 
Q 51.265625 25.984375 51.265625 19.1875 
z
M 40.4375 51.609375 
Q 40.4375 63.28125 27.640625 63.28125 
Q 21.4375 63.28125 18.1875 60.34375 
Q 14.9375 57.421875 14.9375 51.609375 
Q 14.9375 45.703125 18.28125 42.59375 
Q 21.625 39.5 27.734375 39.5 
Q 33.9375 39.5 37.1875 42.359375 
Q 40.4375 45.21875 40.4375 51.609375 
z
M 42.140625 20.015625 
Q 42.140625 26.421875 38.328125 29.65625 
Q 34.515625 32.90625 27.640625 32.90625 
Q 20.953125 32.90625 17.1875 29.40625 
Q 13.421875 25.921875 13.421875 19.828125 
Q 13.421875 5.609375 27.9375 5.609375 
Q 35.109375 5.609375 38.625 9.046875 
Q 42.140625 12.5 42.140625 20.015625 
z
" id="LiberationSans-56"/>
      </defs>
      <g style="fill:#262626;" transform="translate(317.637441 290.058875)scale(0.1 -0.1)">
       <use xlink:href="#LiberationSans-56"/>
       <use x="55.615234" xlink:href="#LiberationSans-48"/>
       <use x="111.230469" xlink:href="#LiberationSans-48"/>
      </g>
     </g>
    </g>
    <g id="xtick_6">
     <g id="line2d_6">
      <g>
       <use style="fill:#262626;stroke:#262626;stroke-width:0.8;" x="390.974752" xlink:href="#me05b92a673" y="273.312"/>
      </g>
     </g>
     <g id="text_6">
      <!-- 1000 -->
      <defs>
       <path d="M 7.625 0 
L 7.625 7.46875 
L 25.140625 7.46875 
L 25.140625 60.40625 
L 9.625 49.3125 
L 9.625 57.625 
L 25.875 68.796875 
L 33.984375 68.796875 
L 33.984375 7.46875 
L 50.734375 7.46875 
L 50.734375 0 
z
" id="LiberationSans-49"/>
      </defs>
      <g style="fill:#262626;" transform="translate(379.852877 290.058875)scale(0.1 -0.1)">
       <use xlink:href="#LiberationSans-49"/>
       <use x="55.615234" xlink:href="#LiberationSans-48"/>
       <use x="111.230469" xlink:href="#LiberationSans-48"/>
       <use x="166.845703" xlink:href="#LiberationSans-48"/>
      </g>
     </g>
    </g>
    <g id="text_7">
     <!-- time_frame -->
     <defs>
      <path d="M 27.046875 0.390625 
Q 22.703125 -0.78125 18.171875 -0.78125 
Q 7.625 -0.78125 7.625 11.1875 
L 7.625 46.4375 
L 1.515625 46.4375 
L 1.515625 52.828125 
L 7.953125 52.828125 
L 10.546875 64.65625 
L 16.40625 64.65625 
L 16.40625 52.828125 
L 26.171875 52.828125 
L 26.171875 46.4375 
L 16.40625 46.4375 
L 16.40625 13.09375 
Q 16.40625 9.28125 17.640625 7.734375 
Q 18.890625 6.203125 21.96875 6.203125 
Q 23.734375 6.203125 27.046875 6.890625 
z
" id="LiberationSans-116"/>
      <path d="M 6.6875 64.0625 
L 6.6875 72.46875 
L 15.484375 72.46875 
L 15.484375 64.0625 
z
M 6.6875 0 
L 6.6875 52.828125 
L 15.484375 52.828125 
L 15.484375 0 
z
" id="LiberationSans-105"/>
      <path d="M 37.5 0 
L 37.5 33.5 
Q 37.5 41.15625 35.390625 44.078125 
Q 33.296875 47.015625 27.828125 47.015625 
Q 22.21875 47.015625 18.9375 42.71875 
Q 15.671875 38.421875 15.671875 30.609375 
L 15.671875 0 
L 6.9375 0 
L 6.9375 41.546875 
Q 6.9375 50.78125 6.640625 52.828125 
L 14.9375 52.828125 
Q 14.984375 52.59375 15.03125 51.515625 
Q 15.09375 50.4375 15.15625 49.046875 
Q 15.234375 47.65625 15.328125 43.796875 
L 15.484375 43.796875 
Q 18.3125 49.421875 21.96875 51.609375 
Q 25.640625 53.8125 30.90625 53.8125 
Q 36.921875 53.8125 40.40625 51.421875 
Q 43.890625 49.03125 45.265625 43.796875 
L 45.40625 43.796875 
Q 48.140625 49.125 52.015625 51.46875 
Q 55.90625 53.8125 61.421875 53.8125 
Q 69.4375 53.8125 73.0625 49.46875 
Q 76.703125 45.125 76.703125 35.203125 
L 76.703125 0 
L 68.015625 0 
L 68.015625 33.5 
Q 68.015625 41.15625 65.90625 44.078125 
Q 63.8125 47.015625 58.34375 47.015625 
Q 52.59375 47.015625 49.390625 42.75 
Q 46.1875 38.484375 46.1875 30.609375 
L 46.1875 0 
z
" id="LiberationSans-109"/>
      <path d="M 13.484375 24.5625 
Q 13.484375 15.484375 17.234375 10.546875 
Q 21 5.609375 28.21875 5.609375 
Q 33.9375 5.609375 37.375 7.90625 
Q 40.828125 10.203125 42.046875 13.71875 
L 49.75 11.53125 
Q 45.015625 -0.984375 28.21875 -0.984375 
Q 16.5 -0.984375 10.375 6 
Q 4.25 12.984375 4.25 26.765625 
Q 4.25 39.84375 10.375 46.828125 
Q 16.5 53.8125 27.875 53.8125 
Q 51.171875 53.8125 51.171875 25.734375 
L 51.171875 24.5625 
z
M 42.09375 31.296875 
Q 41.359375 39.65625 37.84375 43.484375 
Q 34.328125 47.3125 27.734375 47.3125 
Q 21.34375 47.3125 17.609375 43.03125 
Q 13.875 38.765625 13.578125 31.296875 
z
" id="LiberationSans-101"/>
      <path d="M -1.515625 -19.875 
L -1.515625 -13.53125 
L 56.734375 -13.53125 
L 56.734375 -19.875 
z
" id="LiberationSans-95"/>
      <path d="M 17.625 46.4375 
L 17.625 0 
L 8.84375 0 
L 8.84375 46.4375 
L 1.421875 46.4375 
L 1.421875 52.828125 
L 8.84375 52.828125 
L 8.84375 58.796875 
Q 8.84375 66.015625 12.015625 69.1875 
Q 15.1875 72.359375 21.734375 72.359375 
Q 25.390625 72.359375 27.9375 71.78125 
L 27.9375 65.09375 
Q 25.734375 65.484375 24.03125 65.484375 
Q 20.65625 65.484375 19.140625 63.765625 
Q 17.625 62.0625 17.625 57.5625 
L 17.625 52.828125 
L 27.9375 52.828125 
L 27.9375 46.4375 
z
" id="LiberationSans-102"/>
      <path d="M 6.9375 0 
L 6.9375 40.53125 
Q 6.9375 46.09375 6.640625 52.828125 
L 14.9375 52.828125 
Q 15.328125 43.84375 15.328125 42.046875 
L 15.53125 42.046875 
Q 17.625 48.828125 20.359375 51.3125 
Q 23.09375 53.8125 28.078125 53.8125 
Q 29.828125 53.8125 31.640625 53.328125 
L 31.640625 45.265625 
Q 29.890625 45.75 26.953125 45.75 
Q 21.484375 45.75 18.59375 41.03125 
Q 15.71875 36.328125 15.71875 27.546875 
L 15.71875 0 
z
" id="LiberationSans-114"/>
      <path d="M 20.21875 -0.984375 
Q 12.25 -0.984375 8.25 3.21875 
Q 4.25 7.421875 4.25 14.75 
Q 4.25 22.953125 9.640625 27.34375 
Q 15.046875 31.734375 27.046875 32.03125 
L 38.921875 32.234375 
L 38.921875 35.109375 
Q 38.921875 41.546875 36.1875 44.328125 
Q 33.453125 47.125 27.59375 47.125 
Q 21.6875 47.125 19 45.109375 
Q 16.3125 43.109375 15.765625 38.71875 
L 6.59375 39.546875 
Q 8.84375 53.8125 27.78125 53.8125 
Q 37.75 53.8125 42.765625 49.234375 
Q 47.796875 44.671875 47.796875 36.03125 
L 47.796875 13.28125 
Q 47.796875 9.375 48.828125 7.390625 
Q 49.859375 5.421875 52.734375 5.421875 
Q 54 5.421875 55.609375 5.765625 
L 55.609375 0.296875 
Q 52.296875 -0.484375 48.828125 -0.484375 
Q 43.953125 -0.484375 41.71875 2.078125 
Q 39.5 4.640625 39.203125 10.109375 
L 38.921875 10.109375 
Q 35.546875 4.046875 31.078125 1.53125 
Q 26.609375 -0.984375 20.21875 -0.984375 
z
M 22.21875 5.609375 
Q 27.046875 5.609375 30.8125 7.8125 
Q 34.578125 10.015625 36.75 13.84375 
Q 38.921875 17.671875 38.921875 21.734375 
L 38.921875 26.078125 
L 29.296875 25.875 
Q 23.09375 25.78125 19.890625 24.609375 
Q 16.703125 23.4375 14.984375 21 
Q 13.28125 18.5625 13.28125 14.59375 
Q 13.28125 10.296875 15.59375 7.953125 
Q 17.921875 5.609375 22.21875 5.609375 
z
" id="LiberationSans-97"/>
     </defs>
     <g style="fill:#262626;" transform="translate(203.317031 303.38075)scale(0.1 -0.1)">
      <use xlink:href="#LiberationSans-116"/>
      <use x="27.783203" xlink:href="#LiberationSans-105"/>
      <use x="50" xlink:href="#LiberationSans-109"/>
      <use x="133.300781" xlink:href="#LiberationSans-101"/>
      <use x="188.916016" xlink:href="#LiberationSans-95"/>
      <use x="244.53125" xlink:href="#LiberationSans-102"/>
      <use x="272.314453" xlink:href="#LiberationSans-114"/>
      <use x="305.615234" xlink:href="#LiberationSans-97"/>
      <use x="361.230469" xlink:href="#LiberationSans-109"/>
      <use x="444.53125" xlink:href="#LiberationSans-101"/>
     </g>
    </g>
   </g>
   <g id="matplotlib.axis_2">
    <g id="ytick_1">
     <g id="line2d_7">
      <defs>
       <path d="M 0 0 
L -6 0 
" id="mffee385d9b" style="stroke:#262626;stroke-width:0.8;"/>
      </defs>
      <g>
       <use style="fill:#262626;stroke:#262626;stroke-width:0.8;" x="49.7625" xlink:href="#mffee385d9b" y="232.402103"/>
      </g>
     </g>
     <g id="text_8">
      <!-- −1.0 -->
      <defs>
       <path d="M 4.9375 29.6875 
L 4.9375 36.8125 
L 53.515625 36.8125 
L 53.515625 29.6875 
z
" id="LiberationSans-8722"/>
       <path d="M 9.125 0 
L 9.125 10.6875 
L 18.65625 10.6875 
L 18.65625 0 
z
" id="LiberationSans-46"/>
      </defs>
      <g style="fill:#262626;" transform="translate(20.521875 236.025541)scale(0.1 -0.1)">
       <use xlink:href="#LiberationSans-8722"/>
       <use x="58.398438" xlink:href="#LiberationSans-49"/>
       <use x="114.013672" xlink:href="#LiberationSans-46"/>
       <use x="141.796875" xlink:href="#LiberationSans-48"/>
      </g>
     </g>
    </g>
    <g id="ytick_2">
     <g id="line2d_8">
      <g>
       <use style="fill:#262626;stroke:#262626;stroke-width:0.8;" x="49.7625" xlink:href="#mffee385d9b" y="184.549404"/>
      </g>
     </g>
     <g id="text_9">
      <!-- −0.5 -->
      <defs>
       <path d="M 51.421875 22.40625 
Q 51.421875 11.53125 44.953125 5.265625 
Q 38.484375 -0.984375 27 -0.984375 
Q 17.390625 -0.984375 11.46875 3.21875 
Q 5.5625 7.421875 4 15.375 
L 12.890625 16.40625 
Q 15.671875 6.203125 27.203125 6.203125 
Q 34.28125 6.203125 38.28125 10.46875 
Q 42.28125 14.75 42.28125 22.21875 
Q 42.28125 28.71875 38.25 32.71875 
Q 34.234375 36.71875 27.390625 36.71875 
Q 23.828125 36.71875 20.75 35.59375 
Q 17.671875 34.46875 14.59375 31.78125 
L 6 31.78125 
L 8.296875 68.796875 
L 47.40625 68.796875 
L 47.40625 61.328125 
L 16.3125 61.328125 
L 14.984375 39.5 
Q 20.703125 43.890625 29.203125 43.890625 
Q 39.359375 43.890625 45.390625 37.9375 
Q 51.421875 31.984375 51.421875 22.40625 
z
" id="LiberationSans-53"/>
      </defs>
      <g style="fill:#262626;" transform="translate(20.521875 188.172841)scale(0.1 -0.1)">
       <use xlink:href="#LiberationSans-8722"/>
       <use x="58.398438" xlink:href="#LiberationSans-48"/>
       <use x="114.013672" xlink:href="#LiberationSans-46"/>
       <use x="141.796875" xlink:href="#LiberationSans-53"/>
      </g>
     </g>
    </g>
    <g id="ytick_3">
     <g id="line2d_9">
      <g>
       <use style="fill:#262626;stroke:#262626;stroke-width:0.8;" x="49.7625" xlink:href="#mffee385d9b" y="136.696705"/>
      </g>
     </g>
     <g id="text_10">
      <!-- 0.0 -->
      <g style="fill:#262626;" transform="translate(26.3625 140.320142)scale(0.1 -0.1)">
       <use xlink:href="#LiberationSans-48"/>
       <use x="55.615234" xlink:href="#LiberationSans-46"/>
       <use x="83.398438" xlink:href="#LiberationSans-48"/>
      </g>
     </g>
    </g>
    <g id="ytick_4">
     <g id="line2d_10">
      <g>
       <use style="fill:#262626;stroke:#262626;stroke-width:0.8;" x="49.7625" xlink:href="#mffee385d9b" y="88.844005"/>
      </g>
     </g>
     <g id="text_11">
      <!-- 0.5 -->
      <g style="fill:#262626;" transform="translate(26.3625 92.467443)scale(0.1 -0.1)">
       <use xlink:href="#LiberationSans-48"/>
       <use x="55.615234" xlink:href="#LiberationSans-46"/>
       <use x="83.398438" xlink:href="#LiberationSans-53"/>
      </g>
     </g>
    </g>
    <g id="ytick_5">
     <g id="line2d_11">
      <g>
       <use style="fill:#262626;stroke:#262626;stroke-width:0.8;" x="49.7625" xlink:href="#mffee385d9b" y="40.991306"/>
      </g>
     </g>
     <g id="text_12">
      <!-- 1.0 -->
      <g style="fill:#262626;" transform="translate(26.3625 44.614744)scale(0.1 -0.1)">
       <use xlink:href="#LiberationSans-49"/>
       <use x="55.615234" xlink:href="#LiberationSans-46"/>
       <use x="83.398438" xlink:href="#LiberationSans-48"/>
      </g>
     </g>
    </g>
    <g id="text_13">
     <!-- analogs -->
     <defs>
      <path d="M 40.28125 0 
L 40.28125 33.5 
Q 40.28125 38.71875 39.25 41.59375 
Q 38.234375 44.484375 35.984375 45.75 
Q 33.734375 47.015625 29.390625 47.015625 
Q 23.046875 47.015625 19.375 42.671875 
Q 15.71875 38.328125 15.71875 30.609375 
L 15.71875 0 
L 6.9375 0 
L 6.9375 41.546875 
Q 6.9375 50.78125 6.640625 52.828125 
L 14.9375 52.828125 
Q 14.984375 52.59375 15.03125 51.515625 
Q 15.09375 50.4375 15.15625 49.046875 
Q 15.234375 47.65625 15.328125 43.796875 
L 15.484375 43.796875 
Q 18.5 49.265625 22.484375 51.53125 
Q 26.46875 53.8125 32.375 53.8125 
Q 41.0625 53.8125 45.09375 49.484375 
Q 49.125 45.171875 49.125 35.203125 
L 49.125 0 
z
" id="LiberationSans-110"/>
      <path d="M 6.734375 0 
L 6.734375 72.46875 
L 15.53125 72.46875 
L 15.53125 0 
z
" id="LiberationSans-108"/>
      <path d="M 51.421875 26.46875 
Q 51.421875 12.59375 45.3125 5.796875 
Q 39.203125 -0.984375 27.59375 -0.984375 
Q 16.015625 -0.984375 10.109375 6.078125 
Q 4.203125 13.140625 4.203125 26.46875 
Q 4.203125 53.8125 27.875 53.8125 
Q 39.984375 53.8125 45.703125 47.140625 
Q 51.421875 40.484375 51.421875 26.46875 
z
M 42.1875 26.46875 
Q 42.1875 37.40625 38.9375 42.359375 
Q 35.6875 47.3125 28.03125 47.3125 
Q 20.3125 47.3125 16.859375 42.25 
Q 13.421875 37.203125 13.421875 26.46875 
Q 13.421875 16.015625 16.8125 10.765625 
Q 20.21875 5.515625 27.484375 5.515625 
Q 35.40625 5.515625 38.796875 10.59375 
Q 42.1875 15.671875 42.1875 26.46875 
z
" id="LiberationSans-111"/>
      <path d="M 26.765625 -20.75 
Q 18.109375 -20.75 12.984375 -17.359375 
Q 7.859375 -13.96875 6.390625 -7.71875 
L 15.234375 -6.453125 
Q 16.109375 -10.109375 19.109375 -12.078125 
Q 22.125 -14.0625 27 -14.0625 
Q 40.140625 -14.0625 40.140625 1.3125 
L 40.140625 9.8125 
L 40.046875 9.8125 
Q 37.546875 4.734375 33.203125 2.171875 
Q 28.859375 -0.390625 23.046875 -0.390625 
Q 13.328125 -0.390625 8.765625 6.046875 
Q 4.203125 12.5 4.203125 26.3125 
Q 4.203125 40.328125 9.109375 46.984375 
Q 14.015625 53.65625 24.03125 53.65625 
Q 29.640625 53.65625 33.765625 51.09375 
Q 37.890625 48.53125 40.140625 43.796875 
L 40.234375 43.796875 
Q 40.234375 45.265625 40.421875 48.875 
Q 40.625 52.484375 40.828125 52.828125 
L 49.171875 52.828125 
Q 48.875 50.203125 48.875 41.890625 
L 48.875 1.515625 
Q 48.875 -20.75 26.765625 -20.75 
z
M 40.140625 26.421875 
Q 40.140625 32.859375 38.375 37.515625 
Q 36.625 42.1875 33.421875 44.65625 
Q 30.21875 47.125 26.171875 47.125 
Q 19.4375 47.125 16.359375 42.234375 
Q 13.28125 37.359375 13.28125 26.421875 
Q 13.28125 15.578125 16.15625 10.84375 
Q 19.046875 6.109375 26.03125 6.109375 
Q 30.171875 6.109375 33.390625 8.546875 
Q 36.625 10.984375 38.375 15.546875 
Q 40.140625 20.125 40.140625 26.421875 
z
" id="LiberationSans-103"/>
      <path d="M 46.390625 14.59375 
Q 46.390625 7.125 40.75 3.0625 
Q 35.109375 -0.984375 24.953125 -0.984375 
Q 15.09375 -0.984375 9.734375 2.265625 
Q 4.390625 5.515625 2.78125 12.40625 
L 10.546875 13.921875 
Q 11.671875 9.671875 15.1875 7.6875 
Q 18.703125 5.71875 24.953125 5.71875 
Q 31.640625 5.71875 34.734375 7.765625 
Q 37.84375 9.8125 37.84375 13.921875 
Q 37.84375 17.046875 35.6875 19 
Q 33.546875 20.953125 28.765625 22.21875 
L 22.46875 23.875 
Q 14.890625 25.828125 11.6875 27.703125 
Q 8.5 29.59375 6.6875 32.28125 
Q 4.890625 34.96875 4.890625 38.875 
Q 4.890625 46.09375 10.03125 49.875 
Q 15.1875 53.65625 25.046875 53.65625 
Q 33.796875 53.65625 38.9375 50.578125 
Q 44.09375 47.515625 45.453125 40.71875 
L 37.546875 39.75 
Q 36.8125 43.265625 33.609375 45.140625 
Q 30.421875 47.015625 25.046875 47.015625 
Q 19.09375 47.015625 16.25 45.203125 
Q 13.421875 43.40625 13.421875 39.75 
Q 13.421875 37.5 14.59375 36.03125 
Q 15.765625 34.578125 18.0625 33.546875 
Q 20.359375 32.515625 27.734375 30.71875 
Q 34.71875 28.953125 37.796875 27.46875 
Q 40.875 25.984375 42.65625 24.171875 
Q 44.4375 22.359375 45.40625 19.984375 
Q 46.390625 17.625 46.390625 14.59375 
z
" id="LiberationSans-115"/>
     </defs>
     <g style="fill:#262626;" transform="translate(14.446875 157.769281)rotate(-90)scale(0.1 -0.1)">
      <use xlink:href="#LiberationSans-97"/>
      <use x="55.615234" xlink:href="#LiberationSans-110"/>
      <use x="111.230469" xlink:href="#LiberationSans-97"/>
      <use x="166.845703" xlink:href="#LiberationSans-108"/>
      <use x="189.0625" xlink:href="#LiberationSans-111"/>
      <use x="244.677734" xlink:href="#LiberationSans-103"/>
      <use x="300.292969" xlink:href="#LiberationSans-115"/>
     </g>
    </g>
   </g>
   <g id="line2d_12">
    <path clip-path="url(#p9e4bddafe6)" d="M 65.995227 119.894858 
L 66.320207 225.072775 
L 66.645186 191.603851 
L 66.970166 217.325905 
L 67.295145 211.980914 
L 67.620125 229.453325 
L 67.945104 151.786579 
L 68.270084 198.206252 
L 68.595063 68.61255 
L 68.920043 88.83682 
L 69.245023 122.689838 
L 69.570002 138.798138 
L 69.894982 183.426083 
L 70.544941 109.663896 
L 70.86992 82.675054 
L 71.1949 216.767274 
L 71.519879 96.794312 
L 71.844859 90.235585 
L 72.169838 125.408789 
L 72.494818 191.379095 
L 72.819797 129.196352 
L 73.469756 141.346054 
L 73.794736 144.23065 
L 74.119715 211.188893 
L 74.444695 197.394507 
L 74.769674 213.771691 
L 75.094654 185.989229 
L 75.419633 181.969802 
L 75.744613 185.491937 
L 76.069593 192.028002 
L 76.394572 91.634383 
L 76.719552 75.719848 
L 77.044531 169.789867 
L 77.369511 173.997139 
L 77.69449 70.845198 
L 78.01947 112.976332 
L 78.344449 176.23484 
L 78.669429 95.809005 
L 78.994408 166.443319 
L 79.319388 120.129026 
L 79.644367 42.401232 
L 79.969347 174.673683 
L 80.294326 54.28938 
L 80.619306 171.025769 
L 80.944285 128.985394 
L 81.269265 144.356239 
L 81.594244 82.496907 
L 81.919224 220.708301 
L 82.244204 112.364123 
L 82.569183 86.802237 
L 83.219142 212.247962 
L 83.544122 185.54378 
L 83.869101 102.305473 
L 84.194081 61.005719 
L 84.51906 151.701664 
L 84.84404 125.133189 
L 85.169019 188.686741 
L 85.493999 153.500024 
L 85.818978 167.936898 
L 86.468937 43.920092 
L 86.793917 76.727041 
L 87.118896 195.619727 
L 87.443876 121.828183 
L 87.768855 219.690184 
L 88.093835 185.139813 
L 88.418814 199.437781 
L 88.743794 168.175064 
L 89.068774 102.46978 
L 89.393753 136.81283 
L 89.718733 53.833198 
L 90.043712 191.679678 
L 90.368692 162.68854 
L 90.693671 169.264759 
L 91.018651 187.236118 
L 91.34363 42.298495 
L 91.66861 158.282953 
L 91.993589 52.37853 
L 92.318569 157.661264 
L 92.643548 193.336752 
L 92.968528 209.584725 
L 93.293507 68.63807 
L 93.618487 226.258268 
L 93.943466 47.806566 
L 94.268446 152.35579 
L 94.593425 185.051982 
L 94.918405 114.216247 
L 95.243385 206.961122 
L 95.568364 218.592662 
L 95.893344 73.955432 
L 96.218323 151.115532 
L 96.543303 133.202517 
L 96.868282 198.580579 
L 97.193262 220.64484 
L 97.518241 162.005781 
L 97.843221 135.520246 
L 98.1682 85.890418 
L 98.49318 136.49534 
L 98.818159 82.621811 
L 99.143139 210.307023 
L 99.468118 220.158938 
L 99.793098 201.994399 
L 100.118077 84.630647 
L 100.443057 87.058098 
L 100.768036 205.342779 
L 101.093016 226.47054 
L 101.417995 101.231742 
L 101.742975 68.691935 
L 102.067955 88.057748 
L 102.392934 193.584189 
L 102.717914 120.662625 
L 103.042893 87.434127 
L 103.367873 183.433727 
L 103.692852 131.390644 
L 104.017832 172.210987 
L 104.342811 189.224533 
L 104.667791 46.812237 
L 104.99277 57.724063 
L 105.642729 206.221306 
L 105.967709 93.072786 
L 106.292688 183.458146 
L 106.617668 200.145976 
L 107.267627 130.983129 
L 107.592606 213.750972 
L 107.917586 122.963655 
L 108.242566 229.464259 
L 108.567545 61.688735 
L 108.892525 56.162203 
L 109.217504 92.084442 
L 109.867463 183.612205 
L 110.192443 89.971015 
L 110.517422 54.046058 
L 110.842402 202.05704 
L 111.167381 143.238745 
L 111.492361 172.057622 
L 112.14232 154.735683 
L 112.467299 50.218006 
L 112.792279 182.896157 
L 113.117258 138.098628 
L 113.442238 50.277128 
L 113.767217 141.279674 
L 114.092197 67.09983 
L 114.417176 221.153891 
L 114.742156 49.981791 
L 115.067136 196.506617 
L 115.392115 44.831957 
L 115.717095 198.794796 
L 116.042074 147.345663 
L 116.367054 173.329957 
L 116.692033 149.476932 
L 117.017013 184.448963 
L 117.341992 47.629928 
L 117.666972 173.88304 
L 117.991951 107.358232 
L 118.316931 206.09317 
L 118.64191 74.605438 
L 118.96689 128.560225 
L 119.291869 44.92554 
L 119.616849 151.358347 
L 119.941828 194.99127 
L 120.266808 166.170331 
L 120.591787 91.338929 
L 120.916767 106.241999 
L 121.241747 83.418005 
L 121.566726 218.339096 
L 122.216685 53.974954 
L 122.541665 211.748511 
L 122.866644 214.345316 
L 123.191624 95.236291 
L 123.516603 172.072778 
L 123.841583 106.342932 
L 124.166562 128.009619 
L 124.491542 43.658298 
L 124.816521 62.227106 
L 125.141501 102.611652 
L 125.46648 182.314754 
L 125.79146 182.270053 
L 126.116439 63.531114 
L 126.441419 120.361503 
L 126.766398 81.325048 
L 127.416357 212.672696 
L 127.741337 168.722323 
L 128.066317 201.556408 
L 128.391296 82.750861 
L 128.716276 98.316545 
L 129.041255 215.478915 
L 129.366235 113.462229 
L 129.691214 65.083129 
L 130.666153 172.708103 
L 130.991132 62.602207 
L 131.316112 151.472684 
L 131.641091 68.670536 
L 131.966071 82.52748 
L 132.29105 76.167449 
L 132.61603 42.944171 
L 132.941009 89.081639 
L 133.265989 225.886301 
L 133.590968 193.07983 
L 133.915948 225.665372 
L 134.240928 196.050595 
L 134.565907 220.641918 
L 134.890887 136.387186 
L 135.215866 227.00313 
L 135.865825 60.354249 
L 136.190805 89.116572 
L 136.515784 51.718747 
L 136.840764 189.019464 
L 137.165743 130.746544 
L 137.490723 171.422556 
L 137.815702 137.879663 
L 138.140682 125.771775 
L 138.465661 225.475687 
L 138.790641 187.75436 
L 139.11562 97.500984 
L 139.4406 84.455334 
L 139.765579 123.402963 
L 140.090559 180.562503 
L 140.415538 154.86463 
L 140.740518 214.019621 
L 141.065498 49.953233 
L 141.390477 66.127856 
L 141.715457 219.845106 
L 142.040436 200.533992 
L 142.365416 121.174353 
L 142.690395 187.912478 
L 143.015375 53.547721 
L 143.340354 87.773908 
L 143.665334 180.091157 
L 143.990313 231.234227 
L 144.315293 79.379241 
L 144.640272 151.226754 
L 144.965252 109.444073 
L 145.290231 177.472023 
L 145.615211 205.054619 
L 145.94019 103.140173 
L 146.590149 187.388083 
L 146.915129 206.058618 
L 147.240109 121.292041 
L 147.565088 93.524011 
L 147.890068 178.063074 
L 148.215047 91.687885 
L 148.540027 197.350537 
L 148.865006 167.625686 
L 149.189986 89.823591 
L 149.514965 106.043506 
L 149.839945 180.62096 
L 150.164924 209.024145 
L 150.489904 224.272231 
L 150.814883 72.016091 
L 151.139863 218.019123 
L 151.464842 210.419501 
L 151.789822 186.901722 
L 152.114801 147.09611 
L 152.439781 81.228329 
L 152.76476 185.031697 
L 153.08974 128.368756 
L 153.414719 215.103827 
L 153.739699 143.489681 
L 154.064679 198.400082 
L 154.389658 191.977759 
L 154.714638 162.18718 
L 155.039617 86.671933 
L 155.364597 89.995068 
L 156.014556 209.687163 
L 156.339535 178.674697 
L 156.664515 135.671551 
L 156.989494 65.987302 
L 157.314474 47.067716 
L 157.964433 165.276923 
L 158.289412 99.667625 
L 158.614392 168.044025 
L 158.939371 112.679731 
L 159.264351 185.742549 
L 159.58933 181.297583 
L 159.91431 218.003113 
L 160.23929 151.98255 
L 160.889249 81.418234 
L 161.214228 77.292642 
L 161.539208 42.43752 
L 161.864187 215.60471 
L 162.189167 138.010401 
L 162.514146 132.60538 
L 162.839126 78.405719 
L 163.164105 181.418207 
L 163.489085 219.123492 
L 163.814064 172.345279 
L 164.139044 44.067693 
L 164.464023 60.239347 
L 164.789003 156.747567 
L 165.113982 64.674181 
L 165.438962 226.132541 
L 165.763941 172.26005 
L 166.088921 93.282468 
L 166.4139 190.013751 
L 166.73888 194.427933 
L 167.06386 67.442834 
L 167.388839 114.501865 
L 167.713819 43.092476 
L 168.038798 206.624873 
L 168.363778 164.235281 
L 168.688757 172.832504 
L 169.013737 63.93529 
L 169.338716 183.535593 
L 169.663696 164.745852 
L 169.988675 205.062157 
L 170.313655 83.981983 
L 170.638634 186.903128 
L 170.963614 219.324866 
L 171.288593 149.117594 
L 171.613573 157.472792 
L 171.938552 198.405784 
L 172.263532 206.830088 
L 172.588511 60.791372 
L 172.913491 219.415936 
L 173.238471 213.392914 
L 173.56345 185.497408 
L 173.88843 50.018394 
L 174.213409 216.058636 
L 174.538389 76.208055 
L 174.863368 61.653689 
L 175.188348 160.074138 
L 175.513327 176.147542 
L 175.838307 102.744692 
L 176.163286 97.910254 
L 176.488266 83.106053 
L 176.813245 73.422654 
L 177.138225 181.028315 
L 177.463204 100.910235 
L 177.788184 206.579691 
L 178.113163 134.642612 
L 178.438143 115.08893 
L 178.763122 201.444864 
L 179.088102 217.757926 
L 179.413081 195.125561 
L 179.738061 151.896876 
L 180.063041 62.459754 
L 180.38802 130.587939 
L 180.713 89.132482 
L 181.037979 199.06896 
L 181.362959 212.116732 
L 181.687938 186.536754 
L 182.012918 172.322003 
L 182.337897 127.489459 
L 182.662877 63.722617 
L 182.987856 150.843376 
L 183.312836 133.098529 
L 183.637815 231.519023 
L 183.962795 226.025815 
L 184.287774 216.367774 
L 184.612754 98.607088 
L 184.937733 139.339826 
L 185.262713 195.467246 
L 185.587692 118.972172 
L 185.912672 128.157457 
L 186.237652 215.404958 
L 186.562631 109.820184 
L 186.887611 85.560378 
L 187.21259 177.552496 
L 187.53757 100.809312 
L 187.862549 194.173631 
L 188.187529 87.556038 
L 188.512508 57.878683 
L 188.837488 147.823965 
L 189.162467 185.578796 
L 189.487447 155.995372 
L 189.812426 184.534575 
L 190.137406 232.164873 
L 190.462385 107.897685 
L 190.787365 224.262045 
L 191.112344 192.131044 
L 191.437324 94.117458 
L 191.762303 104.975148 
L 192.087283 218.366158 
L 192.412262 106.060499 
L 192.737242 54.280022 
L 193.062222 218.141526 
L 193.712181 92.780581 
L 194.03716 104.592711 
L 194.36214 189.04554 
L 194.687119 201.189266 
L 195.012099 82.288759 
L 195.337078 49.366551 
L 195.662058 85.47834 
L 195.987037 48.034365 
L 196.312017 116.599447 
L 196.636996 54.56255 
L 196.961976 100.245257 
L 197.286955 58.431749 
L 197.611935 201.47223 
L 197.936914 76.294115 
L 198.261894 194.742833 
L 198.586873 227.151877 
L 198.911853 133.330529 
L 199.236833 171.485276 
L 199.561812 224.069731 
L 199.886792 44.761261 
L 200.211771 104.833297 
L 200.536751 59.785516 
L 200.86173 41.166909 
L 201.18671 157.375438 
L 201.511689 183.642686 
L 201.836669 197.204645 
L 202.161648 133.789728 
L 202.486628 116.391698 
L 202.811607 141.975291 
L 203.136587 158.277886 
L 203.461566 200.192918 
L 203.786546 147.8254 
L 204.111525 216.085646 
L 204.436505 66.822622 
L 204.761484 223.424429 
L 205.086464 159.542337 
L 205.411443 213.234634 
L 205.736423 84.062468 
L 206.061403 172.540869 
L 206.386382 210.752468 
L 207.036341 57.016791 
L 207.361321 58.477664 
L 207.6863 184.616198 
L 208.01128 94.651471 
L 208.336259 226.605382 
L 208.661239 207.164246 
L 208.986218 136.797699 
L 209.311198 188.615652 
L 209.636177 79.606165 
L 209.961157 54.184837 
L 210.286136 231.57266 
L 210.936095 148.266847 
L 211.261075 124.622648 
L 211.586054 57.088422 
L 211.911034 61.685973 
L 212.236014 110.440867 
L 212.560993 183.135258 
L 212.885973 82.472359 
L 213.210952 193.612366 
L 213.535932 47.657699 
L 213.860911 231.28428 
L 214.185891 123.341877 
L 214.51087 215.481916 
L 215.160829 110.868968 
L 215.485809 100.405505 
L 215.810788 82.035625 
L 216.135768 118.832775 
L 216.460747 184.296866 
L 216.785727 62.189431 
L 217.110706 77.147387 
L 217.435686 201.766362 
L 217.760665 74.198939 
L 218.085645 46.227441 
L 218.735604 178.461541 
L 219.060584 116.293494 
L 219.385563 166.837193 
L 219.710543 103.01865 
L 220.035522 128.121509 
L 220.360502 54.487564 
L 221.010461 191.443699 
L 221.33544 93.608244 
L 221.66042 174.810745 
L 221.985399 180.263534 
L 222.310379 157.411827 
L 222.635358 230.105809 
L 222.960338 46.898117 
L 223.285317 130.508181 
L 223.610297 84.34702 
L 223.935276 183.046404 
L 224.260256 89.491331 
L 224.910215 151.216329 
L 225.235195 46.605533 
L 225.560174 137.875084 
L 225.885154 106.557432 
L 226.210133 229.465442 
L 226.535113 174.700322 
L 226.860092 62.296942 
L 227.185072 87.129144 
L 227.510051 129.661585 
L 227.835031 60.101816 
L 228.16001 139.334247 
L 228.48499 123.966535 
L 228.809969 159.253922 
L 229.134949 113.719746 
L 229.459928 171.341766 
L 229.784908 158.614738 
L 230.109887 47.436823 
L 230.434867 211.09642 
L 230.759846 212.255094 
L 231.084826 224.110949 
L 231.409805 171.142127 
L 231.734785 156.176727 
L 232.059765 214.310789 
L 232.384744 127.292502 
L 232.709724 120.751893 
L 233.359683 45.591268 
L 233.684662 113.851396 
L 234.009642 211.030933 
L 234.334621 215.457607 
L 234.659601 83.571238 
L 234.98458 107.921129 
L 235.30956 201.40994 
L 235.634539 183.906269 
L 235.959519 88.797993 
L 236.284498 124.033774 
L 236.609478 120.426775 
L 236.934457 192.204176 
L 237.259437 111.993614 
L 237.909396 62.955269 
L 238.559355 122.07758 
L 238.884335 103.533003 
L 239.209314 139.546532 
L 239.534294 188.97133 
L 239.859273 63.538163 
L 240.184253 130.45238 
L 240.509232 118.643162 
L 240.834212 42.884567 
L 241.159191 43.859467 
L 241.484171 120.17585 
L 241.80915 225.902317 
L 242.13413 156.575187 
L 242.459109 52.994049 
L 242.784089 177.217109 
L 243.109068 41.131288 
L 243.434048 216.262818 
L 243.759027 123.658915 
L 244.084007 133.73953 
L 244.408986 183.524799 
L 244.733966 50.828456 
L 245.383925 188.333924 
L 245.708905 158.891132 
L 246.033884 94.351004 
L 246.358864 175.419738 
L 246.683843 64.035979 
L 247.008823 200.69033 
L 247.333802 181.772973 
L 247.658782 204.666944 
L 247.983761 212.461149 
L 248.308741 174.918489 
L 248.63372 41.148503 
L 248.9587 214.346435 
L 249.283679 191.631184 
L 249.608659 180.411715 
L 249.933638 113.893997 
L 250.258618 89.734889 
L 250.583597 88.473879 
L 250.908577 230.749083 
L 251.233557 107.630887 
L 251.558536 111.672254 
L 252.208495 159.81749 
L 252.533475 79.762674 
L 252.858454 166.579606 
L 253.183434 188.375271 
L 253.508413 173.046539 
L 253.833393 148.248745 
L 254.158372 191.429208 
L 254.808331 63.154915 
L 255.133311 118.424606 
L 255.45829 146.904966 
L 255.78327 79.872817 
L 256.108249 89.219434 
L 256.433229 162.143216 
L 256.758208 116.760606 
L 257.083188 92.7023 
L 257.408167 185.417785 
L 257.733147 162.293328 
L 258.058127 212.155421 
L 258.383106 43.349434 
L 258.708086 215.964194 
L 259.033065 200.12907 
L 259.683024 66.779732 
L 260.008004 164.282442 
L 260.332983 85.284502 
L 260.657963 103.001882 
L 260.982942 110.154903 
L 261.307922 70.656678 
L 261.632901 229.689757 
L 261.957881 54.552179 
L 262.28286 73.679259 
L 262.60784 52.884191 
L 262.932819 80.500814 
L 263.257799 64.230222 
L 263.582778 193.530772 
L 263.907758 171.298213 
L 264.232738 172.065398 
L 264.557717 211.506409 
L 264.882697 92.752756 
L 265.207676 206.337524 
L 265.532656 222.351282 
L 265.857635 83.9732 
L 266.182615 59.239805 
L 266.507594 86.140644 
L 266.832574 74.420778 
L 267.157553 118.393683 
L 267.482533 62.477869 
L 267.807512 137.327694 
L 268.132492 43.226483 
L 268.457471 212.607348 
L 268.782451 77.516179 
L 269.10743 109.633244 
L 269.43241 121.260176 
L 270.082369 71.561231 
L 270.407348 67.236776 
L 270.732328 198.832293 
L 271.057308 194.687299 
L 271.382287 229.307659 
L 272.032246 181.892145 
L 272.357226 94.388062 
L 272.682205 141.335065 
L 273.007185 87.331183 
L 273.332164 139.273889 
L 273.657144 126.054752 
L 273.982123 211.142759 
L 274.307103 83.760463 
L 274.632082 87.288499 
L 274.957062 173.531494 
L 275.282041 169.508711 
L 275.607021 190.352702 
L 275.932 76.624402 
L 276.25698 89.416936 
L 276.581959 115.804649 
L 276.906939 186.688974 
L 277.231919 199.50752 
L 277.556898 222.780102 
L 277.881878 223.671573 
L 278.206857 196.582226 
L 278.531837 213.159091 
L 278.856816 125.95709 
L 279.181796 163.859786 
L 279.506775 147.234676 
L 279.831755 118.69123 
L 280.156734 106.242913 
L 280.481714 108.329295 
L 280.806693 182.471336 
L 281.131673 77.43075 
L 281.456652 56.742564 
L 281.781632 171.928092 
L 282.106611 229.135598 
L 282.431591 60.294284 
L 282.75657 55.624904 
L 283.08155 222.650405 
L 283.406529 231.453358 
L 283.731509 76.133413 
L 284.056489 174.698762 
L 284.381468 57.341202 
L 284.706448 190.915043 
L 285.031427 67.567812 
L 285.356407 219.262849 
L 285.681386 182.513397 
L 286.006366 46.134729 
L 286.331345 188.148567 
L 286.656325 206.941982 
L 286.981304 68.352589 
L 287.306284 209.85376 
L 287.631263 213.747952 
L 287.956243 170.495041 
L 288.281222 110.793367 
L 288.606202 96.357573 
L 288.931181 63.723485 
L 289.256161 128.865797 
L 289.58114 157.097691 
L 289.90612 163.717447 
L 290.2311 70.295777 
L 290.556079 93.856038 
L 290.881059 59.093214 
L 291.206038 47.875308 
L 291.531018 174.969134 
L 291.855997 131.016758 
L 292.180977 111.464779 
L 292.505956 201.039646 
L 292.830936 222.190905 
L 293.155915 66.302721 
L 293.480895 129.897121 
L 293.805874 123.149756 
L 294.130854 126.185506 
L 294.455833 87.894473 
L 294.780813 204.55146 
L 295.105792 114.866602 
L 295.430772 142.538656 
L 295.755751 60.714627 
L 296.080731 132.941045 
L 296.40571 51.914168 
L 296.73069 164.785666 
L 297.05567 47.328017 
L 297.380649 64.887423 
L 298.030608 164.698203 
L 298.355588 160.446314 
L 298.680567 84.48901 
L 299.330526 155.533903 
L 299.655506 110.654316 
L 299.980485 92.053314 
L 300.305465 228.018698 
L 300.630444 215.201393 
L 300.955424 214.31657 
L 301.280403 188.007469 
L 301.605383 150.671523 
L 301.930362 78.574835 
L 302.580321 229.056666 
L 303.230281 41.636629 
L 303.55526 165.595716 
L 303.88024 48.40761 
L 304.205219 213.003551 
L 304.530199 199.26896 
L 304.855178 93.797321 
L 305.180158 136.464629 
L 305.505137 85.949529 
L 305.830117 67.107712 
L 306.155096 184.341747 
L 306.480076 101.701227 
L 306.805055 116.100666 
L 307.130035 67.494997 
L 307.779994 222.473543 
L 308.429953 48.86244 
L 308.754932 229.601538 
L 309.079912 186.41413 
L 309.404891 171.903316 
L 309.729871 85.812271 
L 310.054851 170.52341 
L 310.37983 186.63887 
L 310.70481 108.261097 
L 311.029789 223.51963 
L 311.354769 199.748022 
L 311.679748 154.300712 
L 312.004728 164.336431 
L 312.329707 165.950817 
L 312.654687 211.623502 
L 312.979666 163.333428 
L 313.304646 79.657671 
L 313.629625 153.187855 
L 313.954605 120.20261 
L 314.279584 201.091238 
L 314.604564 219.058596 
L 314.929543 63.969016 
L 315.254523 168.97381 
L 315.579502 165.343774 
L 315.904482 64.403172 
L 316.229462 96.927025 
L 316.554441 87.645255 
L 316.879421 101.859273 
L 317.2044 212.152325 
L 317.52938 49.031359 
L 317.854359 58.383602 
L 318.179339 187.18702 
L 318.504318 78.508934 
L 318.829298 154.039206 
L 319.154277 101.521723 
L 319.479257 200.703901 
L 319.804236 129.317005 
L 320.129216 208.166376 
L 320.454195 129.773919 
L 320.779175 185.77559 
L 321.754113 64.520558 
L 322.079093 200.764003 
L 322.404072 61.42075 
L 322.729052 157.744686 
L 323.054032 70.890329 
L 323.379011 134.294898 
L 323.703991 67.366073 
L 324.678929 172.578834 
L 325.003909 46.942442 
L 325.328888 79.101644 
L 325.653868 159.43876 
L 325.978847 200.489407 
L 326.303827 83.190607 
L 326.628806 42.916078 
L 326.953786 179.003285 
L 327.278765 57.096022 
L 327.603745 208.404797 
L 327.928724 50.139545 
L 328.253704 89.736188 
L 328.578683 166.059843 
L 328.903663 174.092283 
L 329.228643 109.241629 
L 329.553622 118.798428 
L 329.878602 56.507697 
L 330.203581 85.734894 
L 330.528561 128.970432 
L 330.85354 54.855986 
L 331.17852 118.947061 
L 331.503499 69.763252 
L 331.828479 71.4366 
L 332.153458 56.458283 
L 332.478438 219.462345 
L 332.803417 120.652715 
L 333.128397 142.746704 
L 333.453376 138.506995 
L 333.778356 144.370248 
L 334.103335 72.101937 
L 334.428315 171.450609 
L 334.753294 143.82655 
L 335.078274 193.989298 
L 335.403253 184.220825 
L 335.728233 105.990569 
L 336.053213 210.019302 
L 336.378192 196.450981 
L 336.703172 131.330587 
L 337.028151 224.023473 
L 337.353131 208.106905 
L 337.67811 67.147029 
L 338.00309 70.440476 
L 338.328069 165.834002 
L 338.653049 165.792808 
L 338.978028 53.142935 
L 339.303008 227.45583 
L 339.627987 121.327277 
L 339.952967 118.055096 
L 340.602926 50.226778 
L 340.927905 164.292861 
L 341.252885 148.596049 
L 341.902844 47.255871 
L 342.227824 61.894829 
L 342.552803 104.720956 
L 342.877783 68.415961 
L 343.202762 216.093055 
L 343.527742 160.215935 
L 343.852721 229.896058 
L 344.177701 198.432001 
L 344.50268 111.719018 
L 344.82766 62.896047 
L 345.152639 111.28112 
L 345.477619 105.278899 
L 345.802598 212.529527 
L 346.127578 105.140627 
L 346.452557 145.435236 
L 346.777537 107.709409 
L 347.102516 169.969048 
L 347.427496 121.099416 
L 347.752475 151.230661 
L 348.077455 125.472939 
L 348.402434 204.247581 
L 348.727414 156.636953 
L 349.052394 160.761127 
L 349.377373 91.448241 
L 349.702353 97.187695 
L 350.027332 58.436738 
L 350.677291 172.194386 
L 351.002271 82.484446 
L 351.65223 195.365414 
L 351.977209 89.339478 
L 352.302189 207.034163 
L 352.627168 198.301632 
L 352.952148 87.168026 
L 353.277127 84.988093 
L 353.602107 81.03803 
L 353.927086 176.256507 
L 354.252066 66.527907 
L 354.577045 94.075619 
L 354.902025 72.771737 
L 355.551984 121.461083 
L 355.876964 211.462763 
L 356.201943 96.321236 
L 356.526923 100.240456 
L 356.851902 172.587926 
L 357.176882 91.558255 
L 357.501861 127.039158 
L 357.826841 125.325709 
L 358.4768 210.048185 
L 358.801779 190.879654 
L 359.126759 85.239424 
L 359.451738 180.44526 
L 359.776718 231.970844 
L 360.101697 41.562204 
L 360.426677 192.075249 
L 360.751656 106.954692 
L 361.076636 54.979223 
L 361.401615 117.610611 
L 362.051575 45.514015 
L 362.376554 67.719254 
L 362.701534 125.613237 
L 363.026513 162.785435 
L 363.351493 140.053198 
L 363.676472 71.267485 
L 364.001452 69.060817 
L 364.326431 70.496338 
L 364.651411 118.086904 
L 364.97639 141.107591 
L 365.30137 172.808638 
L 365.626349 231.758799 
L 365.951329 86.071368 
L 366.276308 179.381642 
L 366.601288 169.298195 
L 366.926267 70.95069 
L 367.251247 222.400668 
L 367.576226 54.845556 
L 367.901206 232.141417 
L 368.226186 52.634994 
L 368.876145 212.85473 
L 369.201124 103.360339 
L 369.526104 60.925511 
L 369.851083 148.550236 
L 370.501042 44.941504 
L 370.826022 186.329367 
L 371.151001 75.359219 
L 371.475981 175.890533 
L 371.80096 150.796483 
L 372.12594 178.469074 
L 372.450919 147.030639 
L 372.775899 231.428008 
L 373.100878 174.320632 
L 373.750837 111.384506 
L 374.075817 110.404251 
L 374.400796 120.659233 
L 374.725776 176.312647 
L 375.050756 51.058688 
L 375.375735 157.374847 
L 375.700715 190.886261 
L 376.025694 126.262339 
L 376.350674 89.04907 
L 376.675653 230.060465 
L 377.000633 179.506877 
L 377.325612 74.492435 
L 377.650592 135.352792 
L 377.975571 154.213031 
L 378.300551 54.217547 
L 378.62553 215.264119 
L 378.95051 114.57532 
L 379.600469 218.84574 
L 379.925448 191.489096 
L 380.250428 112.208906 
L 380.575407 226.989593 
L 380.900387 119.039285 
L 381.225367 49.250601 
L 381.550346 80.212132 
L 381.875326 166.251091 
L 382.200305 205.947668 
L 382.525285 143.383749 
L 382.850264 157.187147 
L 383.175244 46.401923 
L 383.500223 42.93067 
L 383.825203 153.811767 
L 384.150182 203.923242 
L 384.475162 58.101603 
L 384.800141 80.509544 
L 385.125121 134.5387 
L 385.4501 162.46928 
L 385.77508 146.618325 
L 386.100059 59.772309 
L 386.425039 197.059354 
L 386.750018 77.975026 
L 387.074998 228.92022 
L 387.399977 56.194684 
L 387.724957 136.639802 
L 388.374916 231.855338 
L 388.699896 125.298868 
L 389.024875 185.604485 
L 389.349855 111.571293 
L 389.674834 178.583267 
L 389.999814 215.553354 
L 390.324793 135.729768 
L 390.649773 124.353438 
L 390.649773 124.353438 
" style="fill:none;stroke:#1f77b4;stroke-linecap:round;stroke-width:1.5;"/>
   </g>
   <g id="line2d_13">
    <path clip-path="url(#p9e4bddafe6)" d="M 65.995227 117.512499 
L 66.320207 211.17038 
L 66.645186 167.439666 
L 66.970166 185.21543 
L 67.295145 175.03112 
L 67.620125 191.213914 
L 67.945104 115.863224 
L 68.270084 167.88484 
L 68.595063 46.539385 
L 68.920043 76.789387 
L 69.245023 121.456635 
L 69.570002 148.164565 
L 69.894982 202.249781 
L 70.544941 141.054205 
L 70.86992 116.262139 
L 71.1949 249.643393 
L 71.519879 126.231553 
L 71.844859 113.905032 
L 72.169838 141.558068 
L 72.494818 198.956512 
L 72.819797 127.907164 
L 73.144777 126.472754 
L 73.794736 121.615213 
L 74.119715 185.033175 
L 74.444695 169.981887 
L 74.769674 187.389753 
L 75.094654 162.730832 
L 75.419633 163.560761 
L 75.744613 173.161951 
L 76.069593 186.433903 
L 76.394572 92.839593 
L 76.719552 83.232552 
L 77.044531 182.654173 
L 77.369511 190.915611 
L 77.69449 90.309735 
L 78.01947 133.398845 
L 78.344449 196.071808 
L 78.669429 113.666469 
L 78.994408 181.15457 
L 79.319388 130.806995 
L 79.644367 48.470475 
L 79.969347 175.887793 
L 80.294326 50.734535 
L 80.619306 163.107125 
L 80.944285 117.395472 
L 81.269265 130.02565 
L 81.594244 66.53116 
L 81.919224 204.315938 
L 82.244204 96.776181 
L 82.569183 73.18593 
L 83.219142 205.421833 
L 83.544122 183.030224 
L 83.869101 104.274294 
L 84.194081 67.251451 
L 84.51906 161.656484 
L 84.84404 137.916522 
L 85.169019 203.178537 
L 85.493999 168.429959 
L 85.818978 181.986175 
L 86.468937 52.623592 
L 86.793917 81.447316 
L 87.118896 195.981876 
L 87.443876 117.909262 
L 87.768855 212.012247 
L 88.093835 174.604626 
L 88.418814 187.213608 
L 88.743794 155.55319 
L 89.068774 90.714488 
L 89.393753 127.027721 
L 89.718733 46.859439 
L 90.043712 188.032023 
L 90.368692 162.525883 
L 90.693671 172.3897 
L 91.018651 193.12366 
L 91.34363 50.157279 
L 91.66861 167.149284 
L 91.993589 61.234221 
L 92.318569 165.556853 
L 92.643548 199.499285 
L 92.968528 213.49181 
L 93.293507 70.052142 
L 93.618487 225.229256 
L 93.943466 44.649792 
L 94.268446 147.60778 
L 94.593425 179.40759 
L 94.918405 108.448454 
L 95.243385 201.829289 
L 95.568364 214.749878 
L 95.893344 71.86557 
L 96.218323 150.996069 
L 96.543303 135.005153 
L 96.868282 202.00552 
L 97.193262 225.178523 
L 97.518241 166.976534 
L 97.843221 140.172639 
L 98.1682 89.479678 
L 98.49318 138.394002 
L 98.818159 82.420578 
L 99.143139 207.889058 
L 99.468118 215.729019 
L 99.793098 196.053022 
L 100.118077 77.901987 
L 100.443057 80.394995 
L 100.768036 199.625247 
L 101.093016 222.498472 
L 101.417995 99.615359 
L 101.742975 69.762646 
L 102.067955 91.823869 
L 102.392934 199.733809 
L 102.717914 128.599939 
L 103.042893 96.341625 
L 103.367873 192.359882 
L 103.692852 139.354308 
L 104.017832 178.307381 
L 104.342811 192.722106 
L 104.667791 47.233973 
L 104.99277 54.911852 
L 105.31775 141.254374 
L 105.642729 197.91952 
L 105.967709 83.196901 
L 106.292688 173.109712 
L 106.617668 190.511019 
L 107.267627 125.921826 
L 107.592606 211.998421 
L 107.917586 124.672524 
L 108.242566 234.344068 
L 108.567545 69.038194 
L 108.892525 64.963794 
L 109.217504 101.154607 
L 109.867463 189.892259 
L 110.192443 93.690429 
L 110.517422 54.929047 
L 110.842402 200.252434 
L 111.167381 139.285529 
L 111.492361 166.785346 
L 112.14232 149.723055 
L 112.467299 46.583899 
L 112.792279 181.117897 
L 113.117258 138.292673 
L 113.442238 52.191025 
L 113.767217 144.344994 
L 114.092197 70.540359 
L 114.417176 224.126824 
L 114.742156 51.725212 
L 115.067136 196.472318 
L 115.392115 42.787413 
L 115.717095 194.879232 
L 116.042074 142.067475 
L 116.367054 167.500497 
L 116.692033 144.089958 
L 117.017013 180.526087 
L 117.341992 46.056702 
L 117.666972 175.262711 
L 117.991951 111.903906 
L 118.316931 213.568315 
L 118.64191 84.320064 
L 118.96689 139.430539 
L 119.291869 55.59751 
L 119.616849 160.380952 
L 119.941828 201.010887 
L 120.266808 168.113542 
L 120.591787 88.56236 
L 120.916767 98.640571 
L 121.241747 71.481859 
L 121.566726 203.143262 
L 122.216685 37.301772 
L 122.541665 197.309086 
L 122.866644 204.039483 
L 123.191624 90.592557 
L 123.516603 174.027178 
L 123.841583 115.085439 
L 124.166562 142.920433 
L 124.491542 63.345027 
L 124.816521 84.664527 
L 125.141501 125.368937 
L 125.46648 202.83636 
L 125.79146 198.168283 
L 126.116439 72.857188 
L 126.441419 121.835398 
L 126.766398 74.504549 
L 127.416357 191.597034 
L 127.741337 143.344845 
L 128.066317 174.541607 
L 128.391296 56.990445 
L 128.716276 76.606991 
L 129.041255 200.213717 
L 129.366235 106.364661 
L 129.691214 67.006059 
L 130.666153 197.233472 
L 130.991132 90.426449 
L 131.316112 179.631074 
L 131.641091 94.14012 
L 131.966071 102.563888 
L 132.29105 88.620057 
L 132.61603 46.512791 
L 132.941009 83.481164 
L 133.265989 211.891677 
L 133.590968 172.433381 
L 133.915948 200.85257 
L 134.240928 169.979293 
L 134.565907 196.273916 
L 134.890887 116.373307 
L 135.215866 213.370454 
L 135.865825 62.073958 
L 136.190805 97.927519 
L 136.515784 66.143341 
L 136.840764 207.041264 
L 137.165743 150.093949 
L 137.490723 189.853433 
L 137.815702 153.435244 
L 138.140682 136.976901 
L 138.465661 231.46733 
L 138.790641 188.325713 
L 139.11562 93.062415 
L 139.4406 75.933038 
L 139.765579 112.099732 
L 140.090559 167.993455 
L 140.415538 142.577075 
L 140.740518 203.414102 
L 141.065498 42.129521 
L 141.390477 61.780636 
L 141.715457 219.22158 
L 142.040436 203.4421 
L 142.365416 127.026585 
L 142.690395 195.805237 
L 143.015375 62.376337 
L 143.340354 96.373356 
L 143.665334 187.384768 
L 143.990313 236.362877 
L 144.315293 81.788491 
L 144.640272 150.711396 
L 144.965252 106.157139 
L 145.290231 171.896871 
L 145.615211 197.937413 
L 145.94019 95.389217 
L 146.590149 181.166566 
L 146.915129 201.766051 
L 147.240109 119.398426 
L 147.565088 94.200553 
L 147.890068 181.178603 
L 148.215047 96.845181 
L 148.540027 203.94992 
L 148.865006 174.943777 
L 149.189986 97.096852 
L 149.514965 112.552014 
L 149.839945 185.766368 
L 150.164924 212.385972 
L 150.489904 225.62935 
L 150.814883 71.33755 
L 151.139863 215.440167 
L 151.464842 206.210967 
L 151.789822 181.431066 
L 152.114801 140.785841 
L 152.439781 74.525513 
L 152.76476 178.39406 
L 153.08974 122.258975 
L 153.414719 209.979064 
L 153.739699 139.779487 
L 154.064679 196.472911 
L 154.389658 192.099579 
L 154.714638 164.477294 
L 155.039617 91.066078 
L 155.364597 96.229324 
L 156.014556 218.080609 
L 156.339535 187.10359 
L 156.664515 143.32447 
L 156.989494 72.046944 
L 157.314474 50.803575 
L 157.964433 163.042478 
L 158.289412 94.424469 
L 158.614392 160.253926 
L 158.939371 103.130207 
L 159.264351 175.46643 
L 159.58933 171.454169 
L 159.91431 209.733093 
L 160.23929 146.256368 
L 160.889249 82.399642 
L 161.214228 81.638679 
L 161.539208 49.638975 
L 161.864187 224.85247 
L 162.189167 148.298081 
L 162.514146 142.837542 
L 162.839126 87.507552 
L 163.164105 188.443035 
L 163.489085 223.343218 
L 163.814064 173.308776 
L 164.139044 41.628939 
L 164.464023 54.569754 
L 164.789003 148.33625 
L 165.113982 54.303417 
L 165.438962 214.818245 
L 165.763941 161.157235 
L 166.088921 83.564372 
L 166.4139 182.744051 
L 166.73888 190.443023 
L 167.06386 67.253902 
L 167.388839 118.232393 
L 167.713819 50.465304 
L 168.038798 216.996051 
L 168.363778 176.65937 
L 168.688757 186.146199 
L 169.013737 76.857995 
L 169.338716 194.788363 
L 169.663696 173.177546 
L 169.988675 209.763351 
L 170.313655 84.375329 
L 170.638634 182.80842 
L 170.963614 210.99258 
L 171.288593 137.219539 
L 171.613573 143.049099 
L 171.938552 182.777028 
L 172.263532 191.479454 
L 172.588511 47.224251 
L 172.913491 209.014118 
L 173.238471 207.27594 
L 173.56345 184.396061 
L 173.88843 54.176715 
L 174.213409 225.188019 
L 174.538389 89.501138 
L 174.863368 77.854381 
L 175.188348 177.599988 
L 175.513327 193.249227 
L 175.838307 117.679272 
L 176.163286 109.115428 
L 176.813245 74.016862 
L 177.138225 175.822224 
L 177.463204 90.394039 
L 177.788184 191.826733 
L 178.113163 117.1992 
L 178.438143 96.808621 
L 178.763122 184.288442 
L 179.088102 203.578485 
L 179.413081 185.456899 
L 179.738061 147.77229 
L 180.063041 64.292672 
L 180.38802 138.134915 
L 180.713 101.538902 
L 181.037979 214.980984 
L 181.362959 229.836093 
L 181.687938 204.196618 
L 182.012918 188.070186 
L 182.337897 139.670416 
L 182.662877 71.047441 
L 182.987856 152.532531 
L 183.312836 128.976109 
L 183.637815 222.037496 
L 184.287774 199.694009 
L 184.612754 80.817281 
L 184.937733 122.254445 
L 185.262713 180.797964 
L 185.587692 108.155043 
L 185.912672 122.217589 
L 186.237652 214.867047 
L 186.562631 114.669853 
L 186.887611 95.258519 
L 187.21259 191.10477 
L 187.53757 116.880239 
L 187.862549 211.226386 
L 188.187529 104.002903 
L 188.512508 72.231915 
L 188.837488 158.837075 
L 189.162467 192.35999 
L 189.487447 158.073205 
L 189.812426 181.871384 
L 190.137406 225.125458 
L 190.462385 97.183136 
L 190.787365 210.823249 
L 191.112344 177.075171 
L 191.437324 78.615571 
L 191.762303 90.182421 
L 192.087283 205.360979 
L 192.412262 95.793465 
L 192.737242 47.52693 
L 193.062222 215.463816 
L 193.712181 98.889752 
L 194.03716 114.794114 
L 194.36214 202.690633 
L 194.687119 217.299393 
L 195.012099 99.588224 
L 195.337078 66.355561 
L 195.662058 100.557239 
L 195.987037 59.668769 
L 196.312017 123.501165 
L 196.636996 55.859613 
L 196.961976 95.616987 
L 197.286955 48.188755 
L 197.611935 186.564084 
L 197.936914 58.233134 
L 198.261894 175.447443 
L 198.586873 208.726873 
L 198.911853 117.809 
L 199.236833 160.569027 
L 199.561812 218.909079 
L 199.886792 45.804844 
L 200.211771 111.772949 
L 200.536751 71.610092 
L 200.86173 56.31454 
L 201.18671 173.955619 
L 201.511689 199.688748 
L 201.836669 210.914908 
L 202.161648 143.72927 
L 202.486628 121.642103 
L 202.811607 142.223678 
L 203.136587 153.834691 
L 203.461566 191.931601 
L 203.786546 137.049759 
L 204.111525 204.344253 
L 204.436505 55.698497 
L 204.761484 214.330261 
L 205.086464 153.545155 
L 205.411443 210.925696 
L 205.736423 85.488739 
L 206.061403 177.213069 
L 206.386382 217.728659 
L 207.036341 64.711821 
L 207.361321 64.536567 
L 207.6863 188.019138 
L 208.01128 94.82537 
L 208.336259 223.511258 
L 208.661239 201.296517 
L 208.986218 129.097921 
L 209.311198 180.320587 
L 209.636177 72.059886 
L 209.961157 48.645176 
L 210.286136 229.037806 
L 210.936095 153.034795 
L 211.261075 132.653687 
L 211.586054 67.455007 
L 211.911034 73.09514 
L 212.236014 121.418847 
L 212.560993 192.236849 
L 212.885973 88.477608 
L 213.210952 195.685168 
L 213.535932 45.451279 
L 213.860911 224.982648 
L 214.185891 113.630583 
L 214.51087 203.450405 
L 215.160829 98.302968 
L 215.485809 89.605154 
L 215.810788 74.081919 
L 216.135768 114.46154 
L 216.460747 183.840296 
L 216.785727 65.560881 
L 217.110706 83.871736 
L 217.435686 211.054693 
L 217.760665 85.051606 
L 218.085645 57.550228 
L 218.735604 187.66915 
L 219.060584 123.283338 
L 219.385563 171.179104 
L 219.710543 104.559202 
L 220.035522 126.965668 
L 220.360502 50.9616 
L 221.010461 184.791672 
L 221.33544 86.364807 
L 221.66042 167.616741 
L 221.985399 173.671935 
L 222.310379 151.83592 
L 222.635358 225.785289 
L 222.960338 43.890226 
L 223.285317 128.711071 
L 223.610297 83.554665 
L 223.935276 183.019282 
L 224.260256 90.022117 
L 224.910215 152.590803 
L 225.235195 48.479096 
L 225.560174 140.413456 
L 225.885154 109.955891 
L 226.210133 233.880739 
L 226.535113 180.170508 
L 226.860092 68.668305 
L 227.185072 94.018698 
L 227.510051 136.472119 
L 227.835031 66.084776 
L 228.16001 143.688062 
L 228.48499 125.956 
L 228.809969 158.330765 
L 229.134949 109.625342 
L 229.459928 164.178053 
L 229.784908 148.871239 
L 230.109887 35.967022 
L 230.434867 199.045889 
L 230.759846 200.943555 
L 231.084826 214.871187 
L 231.409805 165.136049 
L 231.734785 154.223707 
L 232.059765 216.758957 
L 232.384744 133.951157 
L 232.709724 130.896467 
L 233.034703 101.10271 
L 233.359683 58.884548 
L 233.684662 126.413317 
L 234.009642 221.407318 
L 234.334621 222.492593 
L 234.659601 86.535894 
L 234.98458 106.585527 
L 235.30956 196.060145 
L 235.634539 175.298136 
L 235.959519 78.048626 
L 236.284498 112.472953 
L 236.609478 109.434035 
L 236.934457 183.04672 
L 237.259437 105.677856 
L 237.909396 63.775692 
L 238.559355 129.103635 
L 238.884335 112.421805 
L 239.534294 198.223601 
L 239.859273 71.308097 
L 240.184253 135.837029 
L 240.509232 121.020728 
L 240.834212 41.986147 
L 241.159191 39.807304 
L 241.484171 113.483867 
L 241.80915 217.427874 
L 242.13413 147.414181 
L 242.459109 44.334483 
L 242.784089 170.183207 
L 243.109068 36.642253 
L 243.434048 214.918228 
L 243.759027 125.659722 
L 244.084007 138.853584 
L 244.408986 191.105718 
L 244.733966 59.890507 
L 245.383925 196.708588 
L 245.708905 165.163645 
L 246.033884 97.657885 
L 246.358864 175.286565 
L 246.683843 60.452518 
L 247.008823 194.127484 
L 247.333802 173.1325 
L 247.658782 195.163157 
L 247.983761 203.448772 
L 248.308741 167.694034 
L 248.63372 36.759323 
L 248.9587 213.440604 
L 249.283679 194.364402 
L 249.608659 186.413339 
L 249.933638 122.299391 
L 250.258618 99.292524 
L 250.583597 97.719973 
L 250.908577 238.222089 
L 251.233557 112.086751 
L 251.558536 112.269648 
L 252.208495 152.405028 
L 252.533475 69.407415 
L 252.858454 154.688688 
L 253.183434 176.681836 
L 253.508413 163.375765 
L 253.833393 142.253579 
L 254.158372 190.33693 
L 254.808331 72.908972 
L 255.133311 132.602463 
L 255.45829 163.909695 
L 255.78327 97.617794 
L 256.108249 105.383678 
L 256.433229 174.469227 
L 256.758208 123.354248 
L 257.083188 92.294088 
L 257.408167 177.55455 
L 257.733147 147.433072 
L 258.058127 191.646407 
L 258.383106 19.296 
L 258.708086 191.000996 
L 259.033065 177.127845 
L 259.683024 55.588459 
L 260.008004 161.783942 
L 260.332983 92.170685 
L 260.657963 118.933537 
L 260.982942 133.770322 
L 261.307922 99.69521 
L 261.632901 261.216 
L 261.957881 85.254837 
L 262.28286 100.217685 
L 262.60784 72.25618 
L 262.932819 90.393086 
L 263.257799 63.304534 
L 263.582778 181.604791 
L 263.907758 149.391442 
L 264.232738 142.299741 
L 264.557717 176.876212 
L 264.882697 56.796723 
L 265.207676 172.754305 
L 265.532656 194.601059 
L 265.857635 64.905114 
L 266.182615 50.791369 
L 266.507594 89.150289 
L 266.832574 88.567677 
L 267.157553 142.256988 
L 267.482533 93.700106 
L 267.807512 172.862305 
L 268.132492 79.643664 
L 268.457471 246.427185 
L 268.782451 105.535421 
L 269.10743 129.217599 
L 269.43241 130.583185 
L 270.082369 58.862906 
L 270.407348 44.875796 
L 270.732328 168.988125 
L 271.057308 160.267351 
L 271.382287 193.656043 
L 272.032246 153.819208 
L 272.357226 74.27648 
L 272.682205 130.940826 
L 273.007185 87.432363 
L 273.332164 149.628221 
L 273.657144 145.457538 
L 273.982123 237.571221 
L 274.307103 114.585448 
L 274.632082 119.536693 
L 274.957062 204.178487 
L 275.282041 195.770046 
L 275.607021 209.937549 
L 275.932 87.931669 
L 276.25698 91.667176 
L 276.581959 109.101518 
L 276.906939 171.997844 
L 277.231919 178.541976 
L 277.556898 197.803321 
L 277.881878 197.236804 
L 278.206857 171.246753 
L 278.531837 191.209137 
L 278.856816 109.178567 
L 279.181796 153.382769 
L 279.506775 143.466699 
L 279.831755 121.339373 
L 280.156734 114.415196 
L 280.481714 120.698498 
L 280.806693 197.473922 
L 281.131673 93.468834 
L 281.456652 72.365133 
L 281.781632 185.975242 
L 282.106611 240.824852 
L 282.431591 69.234615 
L 282.75657 61.771987 
L 283.08155 226.2275 
L 283.406529 232.845699 
L 283.731509 75.764798 
L 284.056489 172.92104 
L 284.381468 54.366788 
L 284.706448 186.801234 
L 285.031427 62.247779 
L 285.356407 212.612288 
L 285.681386 174.435682 
L 286.006366 36.64716 
L 286.331345 177.459386 
L 286.656325 195.503342 
L 286.981304 56.869102 
L 287.306284 199.241656 
L 287.631263 205.049715 
L 287.956243 164.753531 
L 288.281222 108.903709 
L 288.606202 98.928186 
L 288.931181 70.971282 
L 289.256161 140.557512 
L 289.58114 172.538953 
L 289.90612 181.786291 
L 290.2311 89.520735 
L 290.556079 112.542026 
L 290.881059 75.489616 
L 291.206038 60.367009 
L 291.531018 182.263245 
L 291.855997 132.294562 
L 292.180977 106.476409 
L 292.505956 190.13459 
L 292.830936 206.282326 
L 293.155915 46.769158 
L 293.480895 108.441922 
L 293.805874 101.641576 
L 294.130854 106.491075 
L 294.455833 71.713501 
L 294.780813 193.267578 
L 295.105792 109.424407 
L 295.430772 143.356564 
L 295.755751 67.647091 
L 296.080731 145.298309 
L 296.40571 68.536118 
L 296.73069 184.158563 
L 297.05567 67.729775 
L 297.380649 84.548612 
L 298.030608 178.18653 
L 298.355588 169.144648 
L 298.680567 87.831576 
L 299.330526 148.353845 
L 299.655506 99.197733 
L 299.980485 77.463117 
L 300.305465 211.678233 
L 300.630444 198.605885 
L 300.955424 198.925847 
L 301.280403 175.098897 
L 301.605383 141.217731 
L 301.930362 73.165093 
L 302.580321 231.8843 
L 303.230281 50.569961 
L 303.55526 176.184892 
L 303.88024 59.610393 
L 304.205219 223.829873 
L 304.530199 208.862877 
L 304.855178 101.485844 
L 305.180158 141.780957 
L 305.505137 88.643207 
L 305.830117 67.145925 
L 306.155096 181.900874 
L 306.480076 97.144936 
L 306.805055 109.94388 
L 307.130035 60.361423 
L 307.779994 215.470415 
L 308.429953 44.579469 
L 308.754932 227.363406 
L 309.079912 186.438793 
L 309.404891 174.192391 
L 309.729871 90.137185 
L 310.054851 176.439947 
L 310.37983 193.528868 
L 310.70481 115.390763 
L 311.029789 230.108644 
L 311.354769 205.043719 
L 311.679748 157.648667 
L 312.004728 165.244901 
L 312.329707 164.1482 
L 312.654687 207.100671 
L 312.979666 156.361259 
L 313.304646 70.778179 
L 313.629625 143.183665 
L 313.954605 110.044349 
L 314.279584 191.856875 
L 314.604564 211.823667 
L 314.929543 59.678667 
L 315.254523 168.319967 
L 315.579502 168.667918 
L 315.904482 71.633864 
L 316.229462 107.562817 
L 316.554441 100.791987 
L 316.879421 116.316397 
L 317.2044 226.532964 
L 317.52938 61.900011 
L 317.854359 68.402778 
L 318.179339 193.264931 
L 318.504318 79.926934 
L 318.829298 150.537471 
L 319.154277 93.335303 
L 319.479257 188.545657 
L 319.804236 114.305747 
L 320.129216 191.707153 
L 320.454195 113.406066 
L 320.779175 171.00853 
L 321.754113 61.146214 
L 322.079093 202.094398 
L 322.404072 67.196774 
L 322.729052 167.328072 
L 323.054032 83.343761 
L 323.379011 148.485596 
L 323.703991 82.080163 
L 324.678929 182.374747 
L 325.003909 53.593839 
L 325.328888 82.284683 
L 325.653868 159.101116 
L 325.978847 196.831063 
L 326.303827 76.620381 
L 326.628806 33.998576 
L 326.953786 168.412819 
L 327.278765 45.57661 
L 327.603745 196.72877 
L 327.928724 39.064161 
L 328.253704 79.962868 
L 328.578683 158.199491 
L 328.903663 168.631466 
L 329.228643 106.504967 
L 329.553622 118.916259 
L 329.878602 59.401978 
L 330.203581 91.128514 
L 330.528561 136.416727 
L 330.85354 63.780745 
L 331.17852 128.697922 
L 331.503499 79.663781 
L 331.828479 80.840485 
L 332.153458 64.799363 
L 332.478438 226.293747 
L 332.803417 125.664336 
L 333.128397 145.759616 
L 333.453376 139.456701 
L 333.778356 143.289051 
L 334.103335 69.104893 
L 334.428315 166.728581 
L 334.753294 137.644066 
L 335.078274 186.679683 
L 335.403253 176.174559 
L 335.728233 97.638734 
L 336.053213 201.816287 
L 336.378192 188.855313 
L 336.703172 124.779675 
L 337.028151 218.905012 
L 337.353131 204.730629 
L 337.67811 65.718789 
L 338.00309 71.048825 
L 338.328069 168.455736 
L 338.653049 170.305284 
L 338.978028 59.330629 
L 339.303008 235.013588 
L 339.627987 129.863095 
L 339.952967 127.092807 
L 340.602926 58.577755 
L 340.927905 171.412621 
L 341.252885 153.94331 
L 341.902844 47.851013 
L 342.227824 59.821397 
L 342.552803 100.056909 
L 342.877783 61.471983 
L 343.202762 207.400606 
L 343.527742 150.479104 
L 343.852721 219.910412 
L 344.177701 188.985321 
L 344.50268 103.49577 
L 344.82766 56.409223 
L 345.152639 106.846853 
L 345.477619 103.029861 
L 345.802598 212.449726 
L 346.127578 107.105054 
L 346.452557 149.24692 
L 346.777537 113.132272 
L 347.102516 176.751583 
L 347.427496 128.981982 
L 347.752475 159.935139 
L 348.077455 134.680338 
L 348.402434 213.570931 
L 348.727414 165.596392 
L 349.052394 168.771387 
L 349.377373 97.832506 
L 349.702353 101.22809 
L 350.027332 59.460639 
L 350.677291 165.894485 
L 351.002271 72.489833 
L 351.65223 179.844096 
L 351.977209 72.721275 
L 352.302189 190.77916 
L 352.627168 183.960693 
L 352.952148 76.213418 
L 353.277127 78.645794 
L 353.602107 80.149941 
L 353.927086 181.184668 
L 354.252066 77.102008 
L 354.577045 109.589256 
L 354.902025 92.034222 
L 355.551984 143.266329 
L 355.876964 231.740792 
L 356.201943 113.259237 
L 356.526923 112.259671 
L 356.851902 178.486986 
L 357.176882 90.632555 
L 357.501861 119.161783 
L 357.826841 110.98222 
L 358.15182 142.308667 
L 358.4768 186.527854 
L 358.801779 165.545717 
L 359.126759 60.270433 
L 359.451738 158.02383 
L 359.776718 214.086025 
L 360.101697 29.82386 
L 360.426677 187.561 
L 360.751656 110.109289 
L 361.076636 65.573692 
L 361.401615 134.76516 
L 362.051575 71.016226 
L 362.376554 94.311915 
L 362.701534 151.078707 
L 363.026513 185.018377 
L 363.351493 157.224111 
L 363.676472 81.956985 
L 364.001452 72.3672 
L 364.326431 66.115128 
L 364.651411 106.351863 
L 364.97639 122.979977 
L 365.30137 149.807357 
L 365.626349 205.833029 
L 365.951329 59.427534 
L 366.276308 154.287355 
L 366.601288 147.885352 
L 366.926267 55.032369 
L 367.251247 213.316457 
L 367.576226 53.348106 
L 367.901206 238.331307 
L 368.226186 65.949045 
L 368.876145 236.353317 
L 369.201124 129.024104 
L 369.526104 86.477091 
L 369.851083 171.716145 
L 370.501042 57.585823 
L 370.826022 191.831485 
L 371.151001 73.341821 
L 371.475981 166.695598 
L 371.80096 135.444015 
L 372.12594 158.543535 
L 372.450919 124.507814 
L 372.775899 208.463511 
L 373.100878 153.023314 
L 373.750837 98.525085 
L 374.075817 103.331401 
L 374.400796 119.647393 
L 374.725776 181.071744 
L 375.050756 60.809732 
L 375.375735 170.966358 
L 375.700715 206.935614 
L 376.025694 143.299349 
L 376.350674 105.64799 
L 376.675653 244.95535 
L 377.000633 191.678665 
L 377.325612 83.219656 
L 377.650592 140.234547 
L 377.975571 155.172034 
L 378.300551 51.480735 
L 378.62553 209.32127 
L 378.95051 106.11848 
L 379.600469 207.854018 
L 379.925448 180.472856 
L 380.250428 101.863357 
L 380.575407 217.841633 
L 380.900387 111.429217 
L 381.225367 43.344962 
L 381.550346 76.048358 
L 381.875326 163.802812 
L 382.200305 205.183647 
L 382.525285 144.29943 
L 382.850264 159.807555 
L 383.175244 50.76568 
L 383.500223 49.065108 
L 383.825203 161.702984 
L 384.150182 213.474685 
L 384.475162 69.078871 
L 384.800141 92.489921 
L 385.125121 146.888211 
L 385.4501 174.351991 
L 385.77508 157.034175 
L 386.100059 67.627135 
L 386.425039 201.271292 
L 386.750018 77.608151 
L 387.074998 223.326075 
L 387.399977 45.142598 
L 387.724957 120.420288 
L 388.374916 208.490428 
L 388.699896 101.019788 
L 389.024875 162.677211 
L 389.349855 92.381315 
L 389.674834 165.390374 
L 389.999814 210.232396 
L 390.324793 139.521921 
L 390.649773 137.661564 
L 390.649773 137.661564 
" style="fill:none;stroke:#ff7f0e;stroke-linecap:round;stroke-width:1.5;"/>
   </g>
   <g id="patch_3">
    <path d="M 49.7625 273.312 
L 49.7625 7.2 
" style="fill:none;stroke:#262626;stroke-linecap:square;stroke-linejoin:miter;stroke-width:1.25;"/>
   </g>
   <g id="patch_4">
    <path d="M 49.7625 273.312 
L 406.8825 273.312 
" style="fill:none;stroke:#262626;stroke-linecap:square;stroke-linejoin:miter;stroke-width:1.25;"/>
   </g>
   <g id="legend_1">
    <g id="line2d_14">
     <path d="M 58.7625 244.415125 
L 78.7625 244.415125 
" style="fill:none;stroke:#1f77b4;stroke-linecap:round;stroke-width:1.5;"/>
    </g>
    <g id="line2d_15"/>
    <g id="text_14">
     <!-- raw -->
     <defs>
      <path d="M 57.328125 0 
L 47.125 0 
L 37.890625 37.359375 
L 36.140625 45.609375 
Q 35.6875 43.40625 34.765625 39.28125 
Q 33.84375 35.15625 24.8125 0 
L 14.65625 0 
L -0.140625 52.828125 
L 8.546875 52.828125 
L 17.484375 16.9375 
Q 17.828125 15.765625 19.578125 7.28125 
L 20.40625 10.890625 
L 31.453125 52.828125 
L 40.875 52.828125 
L 50.09375 16.546875 
L 52.34375 7.28125 
L 53.859375 14.0625 
L 63.875 52.828125 
L 72.46875 52.828125 
z
" id="LiberationSans-119"/>
     </defs>
     <g style="fill:#262626;" transform="translate(86.7625 247.915125)scale(0.1 -0.1)">
      <use xlink:href="#LiberationSans-114"/>
      <use x="33.300781" xlink:href="#LiberationSans-97"/>
      <use x="88.916016" xlink:href="#LiberationSans-119"/>
     </g>
    </g>
    <g id="line2d_16">
     <path d="M 58.7625 258.737 
L 78.7625 258.737 
" style="fill:none;stroke:#ff7f0e;stroke-linecap:round;stroke-width:1.5;"/>
    </g>
    <g id="line2d_17"/>
    <g id="text_15">
     <!-- band-stop @ 40-60Hz -->
     <defs>
      <path d="M 51.421875 26.65625 
Q 51.421875 -0.984375 31.984375 -0.984375 
Q 25.984375 -0.984375 22 1.1875 
Q 18.015625 3.375 15.53125 8.203125 
L 15.4375 8.203125 
Q 15.4375 6.6875 15.234375 3.578125 
Q 15.046875 0.484375 14.9375 0 
L 6.453125 0 
Q 6.734375 2.640625 6.734375 10.890625 
L 6.734375 72.46875 
L 15.53125 72.46875 
L 15.53125 51.8125 
Q 15.53125 48.640625 15.328125 44.34375 
L 15.53125 44.34375 
Q 17.96875 49.421875 22 51.609375 
Q 26.03125 53.8125 31.984375 53.8125 
Q 42 53.8125 46.703125 47.0625 
Q 51.421875 40.328125 51.421875 26.65625 
z
M 42.1875 26.375 
Q 42.1875 37.453125 39.25 42.234375 
Q 36.328125 47.015625 29.734375 47.015625 
Q 22.3125 47.015625 18.921875 41.9375 
Q 15.53125 36.859375 15.53125 25.828125 
Q 15.53125 15.4375 18.84375 10.46875 
Q 22.171875 5.515625 29.640625 5.515625 
Q 36.28125 5.515625 39.234375 10.421875 
Q 42.1875 15.328125 42.1875 26.375 
z
" id="LiberationSans-98"/>
      <path d="M 40.09375 8.5 
Q 37.640625 3.421875 33.609375 1.21875 
Q 29.59375 -0.984375 23.640625 -0.984375 
Q 13.625 -0.984375 8.90625 5.75 
Q 4.203125 12.5 4.203125 26.171875 
Q 4.203125 53.8125 23.640625 53.8125 
Q 29.640625 53.8125 33.640625 51.609375 
Q 37.640625 49.421875 40.09375 44.625 
L 40.1875 44.625 
L 40.09375 50.53125 
L 40.09375 72.46875 
L 48.875 72.46875 
L 48.875 10.890625 
Q 48.875 2.640625 49.171875 0 
L 40.765625 0 
Q 40.625 0.78125 40.453125 3.609375 
Q 40.28125 6.453125 40.28125 8.5 
z
M 13.421875 26.46875 
Q 13.421875 15.375 16.34375 10.59375 
Q 19.28125 5.8125 25.875 5.8125 
Q 33.34375 5.8125 36.71875 10.984375 
Q 40.09375 16.15625 40.09375 27.046875 
Q 40.09375 37.546875 36.71875 42.421875 
Q 33.34375 47.3125 25.984375 47.3125 
Q 19.34375 47.3125 16.375 42.40625 
Q 13.421875 37.5 13.421875 26.46875 
z
" id="LiberationSans-100"/>
      <path d="M 4.4375 22.65625 
L 4.4375 30.46875 
L 28.859375 30.46875 
L 28.859375 22.65625 
z
" id="LiberationSans-45"/>
      <path d="M 51.421875 26.65625 
Q 51.421875 -0.984375 31.984375 -0.984375 
Q 19.78125 -0.984375 15.578125 8.203125 
L 15.328125 8.203125 
Q 15.53125 7.8125 15.53125 -0.09375 
L 15.53125 -20.75 
L 6.734375 -20.75 
L 6.734375 42.046875 
Q 6.734375 50.203125 6.453125 52.828125 
L 14.9375 52.828125 
Q 14.984375 52.640625 15.078125 51.4375 
Q 15.1875 50.25 15.3125 47.75 
Q 15.4375 45.265625 15.4375 44.34375 
L 15.625 44.34375 
Q 17.96875 49.21875 21.828125 51.484375 
Q 25.6875 53.765625 31.984375 53.765625 
Q 41.75 53.765625 46.578125 47.21875 
Q 51.421875 40.671875 51.421875 26.65625 
z
M 42.1875 26.46875 
Q 42.1875 37.5 39.203125 42.234375 
Q 36.234375 46.96875 29.734375 46.96875 
Q 24.515625 46.96875 21.5625 44.765625 
Q 18.609375 42.578125 17.0625 37.90625 
Q 15.53125 33.25 15.53125 25.78125 
Q 15.53125 15.375 18.84375 10.4375 
Q 22.171875 5.515625 29.640625 5.515625 
Q 36.1875 5.515625 39.1875 10.328125 
Q 42.1875 15.140625 42.1875 26.46875 
z
" id="LiberationSans-112"/>
      <path id="LiberationSans-32"/>
      <path d="M 92.875 36.859375 
Q 92.875 27.78125 90.0625 20.4375 
Q 87.25 13.09375 82.25 9.078125 
Q 77.25 5.078125 71.046875 5.078125 
Q 66.21875 5.078125 63.578125 7.21875 
Q 60.9375 9.375 60.9375 13.671875 
L 61.078125 17.09375 
L 60.796875 17.09375 
Q 57.5625 11.078125 52.796875 8.078125 
Q 48.046875 5.078125 42.53125 5.078125 
Q 34.859375 5.078125 30.640625 10.0625 
Q 26.421875 15.046875 26.421875 23.875 
Q 26.421875 31.890625 29.5625 38.765625 
Q 32.71875 45.65625 38.375 49.703125 
Q 44.046875 53.765625 50.921875 53.765625 
Q 61.625 53.765625 65.625 44.875 
L 65.921875 44.875 
L 67.828125 52.6875 
L 75.4375 52.6875 
L 69.78125 27.984375 
Q 67.96875 19.96875 67.96875 15.625 
Q 67.96875 11.03125 71.921875 11.03125 
Q 75.828125 11.03125 79.125 14.40625 
Q 82.421875 17.78125 84.328125 23.6875 
Q 86.234375 29.59375 86.234375 36.765625 
Q 86.234375 45.515625 82.46875 52.265625 
Q 78.71875 59.03125 71.625 62.671875 
Q 64.546875 66.3125 55.078125 66.3125 
Q 43.265625 66.3125 34.171875 61.078125 
Q 25.09375 55.859375 19.921875 46.015625 
Q 14.75 36.1875 14.75 23.96875 
Q 14.75 14.546875 18.578125 7.34375 
Q 22.40625 0.140625 29.65625 -3.703125 
Q 36.921875 -7.5625 46.578125 -7.5625 
Q 53.65625 -7.5625 60.9375 -5.734375 
Q 68.21875 -3.90625 76.03125 0.34375 
L 78.71875 -5.125 
Q 71.625 -9.375 63.34375 -11.59375 
Q 55.078125 -13.8125 46.578125 -13.8125 
Q 34.8125 -13.8125 26 -9.15625 
Q 17.1875 -4.5 12.515625 4.125 
Q 7.859375 12.75 7.859375 23.96875 
Q 7.859375 37.640625 13.9375 48.828125 
Q 20.015625 60.015625 30.8125 66.234375 
Q 41.609375 72.46875 54.984375 72.46875 
Q 66.75 72.46875 75.296875 68.046875 
Q 83.84375 63.625 88.359375 55.5625 
Q 92.875 47.515625 92.875 36.859375 
z
M 63.28125 36.46875 
Q 63.28125 41.453125 60.0625 44.5 
Q 56.84375 47.5625 51.46875 47.5625 
Q 46.53125 47.5625 42.703125 44.453125 
Q 38.875 41.359375 36.671875 35.859375 
Q 34.46875 30.375 34.46875 23.96875 
Q 34.46875 18.109375 36.78125 14.78125 
Q 39.109375 11.46875 43.953125 11.46875 
Q 50.046875 11.46875 55.125 16.59375 
Q 60.203125 21.734375 62.15625 29.390625 
Q 63.28125 33.890625 63.28125 36.46875 
z
" id="LiberationSans-64"/>
      <path d="M 54.734375 0 
L 54.734375 31.890625 
L 17.53125 31.890625 
L 17.53125 0 
L 8.203125 0 
L 8.203125 68.796875 
L 17.53125 68.796875 
L 17.53125 39.703125 
L 54.734375 39.703125 
L 54.734375 68.796875 
L 64.0625 68.796875 
L 64.0625 0 
z
" id="LiberationSans-72"/>
      <path d="M 4.046875 0 
L 4.046875 6.6875 
L 33.59375 46.046875 
L 5.71875 46.046875 
L 5.71875 52.828125 
L 44 52.828125 
L 44 46.140625 
L 14.40625 6.78125 
L 45.015625 6.78125 
L 45.015625 0 
z
" id="LiberationSans-122"/>
     </defs>
     <g style="fill:#262626;" transform="translate(86.7625 262.237)scale(0.1 -0.1)">
      <use xlink:href="#LiberationSans-98"/>
      <use x="55.615234" xlink:href="#LiberationSans-97"/>
      <use x="111.230469" xlink:href="#LiberationSans-110"/>
      <use x="166.845703" xlink:href="#LiberationSans-100"/>
      <use x="222.460938" xlink:href="#LiberationSans-45"/>
      <use x="255.761719" xlink:href="#LiberationSans-115"/>
      <use x="305.761719" xlink:href="#LiberationSans-116"/>
      <use x="333.544922" xlink:href="#LiberationSans-111"/>
      <use x="389.160156" xlink:href="#LiberationSans-112"/>
      <use x="444.775391" xlink:href="#LiberationSans-32"/>
      <use x="472.558594" xlink:href="#LiberationSans-64"/>
      <use x="574.072266" xlink:href="#LiberationSans-32"/>
      <use x="601.855469" xlink:href="#LiberationSans-52"/>
      <use x="657.470703" xlink:href="#LiberationSans-48"/>
      <use x="713.085938" xlink:href="#LiberationSans-45"/>
      <use x="746.386719" xlink:href="#LiberationSans-54"/>
      <use x="802.001953" xlink:href="#LiberationSans-48"/>
      <use x="857.617188" xlink:href="#LiberationSans-72"/>
      <use x="929.833984" xlink:href="#LiberationSans-122"/>
     </g>
    </g>
   </g>
  </g>
 </g>
 <defs>
  <clipPath id="p9e4bddafe6">
   <rect height="266.112" width="357.12" x="49.7625" y="7.2"/>
  </clipPath>
 </defs>
</svg>
