<?xml version="1.0" encoding="utf-8" standalone="no"?>
<!DOCTYPE svg PUBLIC "-//W3C//DTD SVG 1.1//EN"
  "http://www.w3.org/Graphics/SVG/1.1/DTD/svg11.dtd">
<!-- Created with matplotlib (https://matplotlib.org/) -->
<svg height="312.65575pt" version="1.1" viewBox="0 0 414.0825 312.65575" width="414.0825pt" xmlns="http://www.w3.org/2000/svg" xmlns:xlink="http://www.w3.org/1999/xlink">
 <defs>
  <style type="text/css">
*{stroke-linecap:butt;stroke-linejoin:round;}
  </style>
 </defs>
 <g id="figure_1">
  <g id="patch_1">
   <path d="M 0 312.65575 
L 414.0825 312.65575 
L 414.0825 0 
L 0 0 
z
" style="fill:#ffffff;"/>
  </g>
  <g id="axes_1">
   <g id="patch_2">
    <path d="M 49.7625 273.312 
L 406.8825 273.312 
L 406.8825 7.2 
L 49.7625 7.2 
z
" style="fill:#ffffff;"/>
   </g>
   <g id="matplotlib.axis_1">
    <g id="xtick_1">
     <g id="line2d_1">
      <defs>
       <path d="M 0 0 
L 0 6 
" id="mec39cf9ac6" style="stroke:#262626;stroke-width:0.8;"/>
      </defs>
      <g>
       <use style="fill:#262626;stroke:#262626;stroke-width:0.8;" x="65.995227" xlink:href="#mec39cf9ac6" y="273.312"/>
      </g>
     </g>
     <g id="text_1">
      <!-- 0 -->
      <defs>
       <path d="M 51.703125 34.421875 
Q 51.703125 17.1875 45.625 8.09375 
Q 39.546875 -0.984375 27.6875 -0.984375 
Q 15.828125 -0.984375 9.859375 8.046875 
Q 3.90625 17.09375 3.90625 34.421875 
Q 3.90625 52.15625 9.6875 60.984375 
Q 15.484375 69.828125 27.984375 69.828125 
Q 40.140625 69.828125 45.921875 60.890625 
Q 51.703125 51.953125 51.703125 34.421875 
z
M 42.78125 34.421875 
Q 42.78125 49.3125 39.328125 56 
Q 35.890625 62.703125 27.984375 62.703125 
Q 19.875 62.703125 16.328125 56.109375 
Q 12.796875 49.515625 12.796875 34.421875 
Q 12.796875 19.78125 16.375 12.984375 
Q 19.96875 6.203125 27.78125 6.203125 
Q 35.546875 6.203125 39.15625 13.125 
Q 42.78125 20.0625 42.78125 34.421875 
z
" id="LiberationSans-48"/>
      </defs>
      <g style="fill:#262626;" transform="translate(63.214759 290.058875)scale(0.1 -0.1)">
       <use xlink:href="#LiberationSans-48"/>
      </g>
     </g>
    </g>
    <g id="xtick_2">
     <g id="line2d_2">
      <g>
       <use style="fill:#262626;stroke:#262626;stroke-width:0.8;" x="109.340293" xlink:href="#mec39cf9ac6" y="273.312"/>
      </g>
     </g>
     <g id="text_2">
      <!-- 100 -->
      <defs>
       <path d="M 7.625 0 
L 7.625 7.46875 
L 25.140625 7.46875 
L 25.140625 60.40625 
L 9.625 49.3125 
L 9.625 57.625 
L 25.875 68.796875 
L 33.984375 68.796875 
L 33.984375 7.46875 
L 50.734375 7.46875 
L 50.734375 0 
z
" id="LiberationSans-49"/>
      </defs>
      <g style="fill:#262626;" transform="translate(100.998887 290.058875)scale(0.1 -0.1)">
       <use xlink:href="#LiberationSans-49"/>
       <use x="55.615234" xlink:href="#LiberationSans-48"/>
       <use x="111.230469" xlink:href="#LiberationSans-48"/>
      </g>
     </g>
    </g>
    <g id="xtick_3">
     <g id="line2d_3">
      <g>
       <use style="fill:#262626;stroke:#262626;stroke-width:0.8;" x="152.68536" xlink:href="#mec39cf9ac6" y="273.312"/>
      </g>
     </g>
     <g id="text_3">
      <!-- 200 -->
      <defs>
       <path d="M 5.03125 0 
L 5.03125 6.203125 
Q 7.515625 11.921875 11.109375 16.28125 
Q 14.703125 20.65625 18.65625 24.1875 
Q 22.609375 27.734375 26.484375 30.765625 
Q 30.375 33.796875 33.5 36.8125 
Q 36.625 39.84375 38.546875 43.15625 
Q 40.484375 46.484375 40.484375 50.6875 
Q 40.484375 56.34375 37.15625 59.46875 
Q 33.84375 62.59375 27.9375 62.59375 
Q 22.3125 62.59375 18.671875 59.546875 
Q 15.046875 56.5 14.40625 50.984375 
L 5.421875 51.8125 
Q 6.390625 60.0625 12.421875 64.9375 
Q 18.453125 69.828125 27.9375 69.828125 
Q 38.328125 69.828125 43.921875 64.921875 
Q 49.515625 60.015625 49.515625 50.984375 
Q 49.515625 46.96875 47.671875 43.015625 
Q 45.84375 39.0625 42.234375 35.109375 
Q 38.625 31.15625 28.421875 22.859375 
Q 22.796875 18.265625 19.46875 14.578125 
Q 16.15625 10.890625 14.703125 7.46875 
L 50.59375 7.46875 
L 50.59375 0 
z
" id="LiberationSans-50"/>
      </defs>
      <g style="fill:#262626;" transform="translate(144.343953 290.058875)scale(0.1 -0.1)">
       <use xlink:href="#LiberationSans-50"/>
       <use x="55.615234" xlink:href="#LiberationSans-48"/>
       <use x="111.230469" xlink:href="#LiberationSans-48"/>
      </g>
     </g>
    </g>
    <g id="xtick_4">
     <g id="line2d_4">
      <g>
       <use style="fill:#262626;stroke:#262626;stroke-width:0.8;" x="196.030426" xlink:href="#mec39cf9ac6" y="273.312"/>
      </g>
     </g>
     <g id="text_4">
      <!-- 300 -->
      <defs>
       <path d="M 51.21875 19 
Q 51.21875 9.46875 45.15625 4.234375 
Q 39.109375 -0.984375 27.875 -0.984375 
Q 17.4375 -0.984375 11.203125 3.734375 
Q 4.984375 8.453125 3.8125 17.671875 
L 12.890625 18.5 
Q 14.65625 6.296875 27.875 6.296875 
Q 34.515625 6.296875 38.296875 9.5625 
Q 42.09375 12.84375 42.09375 19.28125 
Q 42.09375 24.90625 37.765625 28.046875 
Q 33.453125 31.203125 25.296875 31.203125 
L 20.3125 31.203125 
L 20.3125 38.8125 
L 25.09375 38.8125 
Q 32.328125 38.8125 36.296875 41.96875 
Q 40.28125 45.125 40.28125 50.6875 
Q 40.28125 56.203125 37.03125 59.390625 
Q 33.796875 62.59375 27.390625 62.59375 
Q 21.578125 62.59375 17.984375 59.609375 
Q 14.40625 56.640625 13.8125 51.21875 
L 4.984375 51.90625 
Q 5.953125 60.359375 11.984375 65.09375 
Q 18.015625 69.828125 27.484375 69.828125 
Q 37.84375 69.828125 43.578125 65.015625 
Q 49.3125 60.203125 49.3125 51.609375 
Q 49.3125 45.015625 45.625 40.890625 
Q 41.9375 36.765625 34.90625 35.296875 
L 34.90625 35.109375 
Q 42.625 34.28125 46.921875 29.9375 
Q 51.21875 25.59375 51.21875 19 
z
" id="LiberationSans-51"/>
      </defs>
      <g style="fill:#262626;" transform="translate(187.689019 290.058875)scale(0.1 -0.1)">
       <use xlink:href="#LiberationSans-51"/>
       <use x="55.615234" xlink:href="#LiberationSans-48"/>
       <use x="111.230469" xlink:href="#LiberationSans-48"/>
      </g>
     </g>
    </g>
    <g id="xtick_5">
     <g id="line2d_5">
      <g>
       <use style="fill:#262626;stroke:#262626;stroke-width:0.8;" x="239.375492" xlink:href="#mec39cf9ac6" y="273.312"/>
      </g>
     </g>
     <g id="text_5">
      <!-- 400 -->
      <defs>
       <path d="M 43.015625 15.578125 
L 43.015625 0 
L 34.71875 0 
L 34.71875 15.578125 
L 2.296875 15.578125 
L 2.296875 22.40625 
L 33.796875 68.796875 
L 43.015625 68.796875 
L 43.015625 22.515625 
L 52.6875 22.515625 
L 52.6875 15.578125 
z
M 34.71875 58.890625 
Q 34.625 58.59375 33.34375 56.296875 
Q 32.078125 54 31.453125 53.078125 
L 13.8125 27.09375 
L 11.1875 23.484375 
L 10.40625 22.515625 
L 34.71875 22.515625 
z
" id="LiberationSans-52"/>
      </defs>
      <g style="fill:#262626;" transform="translate(231.034086 290.058875)scale(0.1 -0.1)">
       <use xlink:href="#LiberationSans-52"/>
       <use x="55.615234" xlink:href="#LiberationSans-48"/>
       <use x="111.230469" xlink:href="#LiberationSans-48"/>
      </g>
     </g>
    </g>
    <g id="xtick_6">
     <g id="line2d_6">
      <g>
       <use style="fill:#262626;stroke:#262626;stroke-width:0.8;" x="282.720558" xlink:href="#mec39cf9ac6" y="273.312"/>
      </g>
     </g>
     <g id="text_6">
      <!-- 500 -->
      <defs>
       <path d="M 51.421875 22.40625 
Q 51.421875 11.53125 44.953125 5.265625 
Q 38.484375 -0.984375 27 -0.984375 
Q 17.390625 -0.984375 11.46875 3.21875 
Q 5.5625 7.421875 4 15.375 
L 12.890625 16.40625 
Q 15.671875 6.203125 27.203125 6.203125 
Q 34.28125 6.203125 38.28125 10.46875 
Q 42.28125 14.75 42.28125 22.21875 
Q 42.28125 28.71875 38.25 32.71875 
Q 34.234375 36.71875 27.390625 36.71875 
Q 23.828125 36.71875 20.75 35.59375 
Q 17.671875 34.46875 14.59375 31.78125 
L 6 31.78125 
L 8.296875 68.796875 
L 47.40625 68.796875 
L 47.40625 61.328125 
L 16.3125 61.328125 
L 14.984375 39.5 
Q 20.703125 43.890625 29.203125 43.890625 
Q 39.359375 43.890625 45.390625 37.9375 
Q 51.421875 31.984375 51.421875 22.40625 
z
" id="LiberationSans-53"/>
      </defs>
      <g style="fill:#262626;" transform="translate(274.379152 290.058875)scale(0.1 -0.1)">
       <use xlink:href="#LiberationSans-53"/>
       <use x="55.615234" xlink:href="#LiberationSans-48"/>
       <use x="111.230469" xlink:href="#LiberationSans-48"/>
      </g>
     </g>
    </g>
    <g id="xtick_7">
     <g id="line2d_7">
      <g>
       <use style="fill:#262626;stroke:#262626;stroke-width:0.8;" x="326.065624" xlink:href="#mec39cf9ac6" y="273.312"/>
      </g>
     </g>
     <g id="text_7">
      <!-- 600 -->
      <defs>
       <path d="M 51.21875 22.515625 
Q 51.21875 11.625 45.3125 5.3125 
Q 39.40625 -0.984375 29 -0.984375 
Q 17.390625 -0.984375 11.234375 7.65625 
Q 5.078125 16.3125 5.078125 32.8125 
Q 5.078125 50.6875 11.46875 60.25 
Q 17.875 69.828125 29.6875 69.828125 
Q 45.265625 69.828125 49.3125 55.8125 
L 40.921875 54.296875 
Q 38.328125 62.703125 29.59375 62.703125 
Q 22.078125 62.703125 17.9375 55.6875 
Q 13.8125 48.6875 13.8125 35.40625 
Q 16.21875 39.84375 20.5625 42.15625 
Q 24.90625 44.484375 30.515625 44.484375 
Q 40.046875 44.484375 45.625 38.515625 
Q 51.21875 32.5625 51.21875 22.515625 
z
M 42.28125 22.125 
Q 42.28125 29.59375 38.625 33.640625 
Q 34.96875 37.703125 28.421875 37.703125 
Q 22.265625 37.703125 18.484375 34.109375 
Q 14.703125 30.515625 14.703125 24.21875 
Q 14.703125 16.265625 18.625 11.1875 
Q 22.5625 6.109375 28.71875 6.109375 
Q 35.0625 6.109375 38.671875 10.375 
Q 42.28125 14.65625 42.28125 22.125 
z
" id="LiberationSans-54"/>
      </defs>
      <g style="fill:#262626;" transform="translate(317.724218 290.058875)scale(0.1 -0.1)">
       <use xlink:href="#LiberationSans-54"/>
       <use x="55.615234" xlink:href="#LiberationSans-48"/>
       <use x="111.230469" xlink:href="#LiberationSans-48"/>
      </g>
     </g>
    </g>
    <g id="xtick_8">
     <g id="line2d_8">
      <g>
       <use style="fill:#262626;stroke:#262626;stroke-width:0.8;" x="369.41069" xlink:href="#mec39cf9ac6" y="273.312"/>
      </g>
     </g>
     <g id="text_8">
      <!-- 700 -->
      <defs>
       <path d="M 50.59375 61.671875 
Q 40.046875 45.5625 35.6875 36.421875 
Q 31.34375 27.296875 29.171875 18.40625 
Q 27 9.515625 27 0 
L 17.828125 0 
Q 17.828125 13.1875 23.40625 27.75 
Q 29 42.328125 42.09375 61.328125 
L 5.125 61.328125 
L 5.125 68.796875 
L 50.59375 68.796875 
z
" id="LiberationSans-55"/>
      </defs>
      <g style="fill:#262626;" transform="translate(361.069284 290.058875)scale(0.1 -0.1)">
       <use xlink:href="#LiberationSans-55"/>
       <use x="55.615234" xlink:href="#LiberationSans-48"/>
       <use x="111.230469" xlink:href="#LiberationSans-48"/>
      </g>
     </g>
    </g>
    <g id="text_9">
     <!-- time_frame -->
     <defs>
      <path d="M 27.046875 0.390625 
Q 22.703125 -0.78125 18.171875 -0.78125 
Q 7.625 -0.78125 7.625 11.1875 
L 7.625 46.4375 
L 1.515625 46.4375 
L 1.515625 52.828125 
L 7.953125 52.828125 
L 10.546875 64.65625 
L 16.40625 64.65625 
L 16.40625 52.828125 
L 26.171875 52.828125 
L 26.171875 46.4375 
L 16.40625 46.4375 
L 16.40625 13.09375 
Q 16.40625 9.28125 17.640625 7.734375 
Q 18.890625 6.203125 21.96875 6.203125 
Q 23.734375 6.203125 27.046875 6.890625 
z
" id="LiberationSans-116"/>
      <path d="M 6.6875 64.0625 
L 6.6875 72.46875 
L 15.484375 72.46875 
L 15.484375 64.0625 
z
M 6.6875 0 
L 6.6875 52.828125 
L 15.484375 52.828125 
L 15.484375 0 
z
" id="LiberationSans-105"/>
      <path d="M 37.5 0 
L 37.5 33.5 
Q 37.5 41.15625 35.390625 44.078125 
Q 33.296875 47.015625 27.828125 47.015625 
Q 22.21875 47.015625 18.9375 42.71875 
Q 15.671875 38.421875 15.671875 30.609375 
L 15.671875 0 
L 6.9375 0 
L 6.9375 41.546875 
Q 6.9375 50.78125 6.640625 52.828125 
L 14.9375 52.828125 
Q 14.984375 52.59375 15.03125 51.515625 
Q 15.09375 50.4375 15.15625 49.046875 
Q 15.234375 47.65625 15.328125 43.796875 
L 15.484375 43.796875 
Q 18.3125 49.421875 21.96875 51.609375 
Q 25.640625 53.8125 30.90625 53.8125 
Q 36.921875 53.8125 40.40625 51.421875 
Q 43.890625 49.03125 45.265625 43.796875 
L 45.40625 43.796875 
Q 48.140625 49.125 52.015625 51.46875 
Q 55.90625 53.8125 61.421875 53.8125 
Q 69.4375 53.8125 73.0625 49.46875 
Q 76.703125 45.125 76.703125 35.203125 
L 76.703125 0 
L 68.015625 0 
L 68.015625 33.5 
Q 68.015625 41.15625 65.90625 44.078125 
Q 63.8125 47.015625 58.34375 47.015625 
Q 52.59375 47.015625 49.390625 42.75 
Q 46.1875 38.484375 46.1875 30.609375 
L 46.1875 0 
z
" id="LiberationSans-109"/>
      <path d="M 13.484375 24.5625 
Q 13.484375 15.484375 17.234375 10.546875 
Q 21 5.609375 28.21875 5.609375 
Q 33.9375 5.609375 37.375 7.90625 
Q 40.828125 10.203125 42.046875 13.71875 
L 49.75 11.53125 
Q 45.015625 -0.984375 28.21875 -0.984375 
Q 16.5 -0.984375 10.375 6 
Q 4.25 12.984375 4.25 26.765625 
Q 4.25 39.84375 10.375 46.828125 
Q 16.5 53.8125 27.875 53.8125 
Q 51.171875 53.8125 51.171875 25.734375 
L 51.171875 24.5625 
z
M 42.09375 31.296875 
Q 41.359375 39.65625 37.84375 43.484375 
Q 34.328125 47.3125 27.734375 47.3125 
Q 21.34375 47.3125 17.609375 43.03125 
Q 13.875 38.765625 13.578125 31.296875 
z
" id="LiberationSans-101"/>
      <path d="M -1.515625 -19.875 
L -1.515625 -13.53125 
L 56.734375 -13.53125 
L 56.734375 -19.875 
z
" id="LiberationSans-95"/>
      <path d="M 17.625 46.4375 
L 17.625 0 
L 8.84375 0 
L 8.84375 46.4375 
L 1.421875 46.4375 
L 1.421875 52.828125 
L 8.84375 52.828125 
L 8.84375 58.796875 
Q 8.84375 66.015625 12.015625 69.1875 
Q 15.1875 72.359375 21.734375 72.359375 
Q 25.390625 72.359375 27.9375 71.78125 
L 27.9375 65.09375 
Q 25.734375 65.484375 24.03125 65.484375 
Q 20.65625 65.484375 19.140625 63.765625 
Q 17.625 62.0625 17.625 57.5625 
L 17.625 52.828125 
L 27.9375 52.828125 
L 27.9375 46.4375 
z
" id="LiberationSans-102"/>
      <path d="M 6.9375 0 
L 6.9375 40.53125 
Q 6.9375 46.09375 6.640625 52.828125 
L 14.9375 52.828125 
Q 15.328125 43.84375 15.328125 42.046875 
L 15.53125 42.046875 
Q 17.625 48.828125 20.359375 51.3125 
Q 23.09375 53.8125 28.078125 53.8125 
Q 29.828125 53.8125 31.640625 53.328125 
L 31.640625 45.265625 
Q 29.890625 45.75 26.953125 45.75 
Q 21.484375 45.75 18.59375 41.03125 
Q 15.71875 36.328125 15.71875 27.546875 
L 15.71875 0 
z
" id="LiberationSans-114"/>
      <path d="M 20.21875 -0.984375 
Q 12.25 -0.984375 8.25 3.21875 
Q 4.25 7.421875 4.25 14.75 
Q 4.25 22.953125 9.640625 27.34375 
Q 15.046875 31.734375 27.046875 32.03125 
L 38.921875 32.234375 
L 38.921875 35.109375 
Q 38.921875 41.546875 36.1875 44.328125 
Q 33.453125 47.125 27.59375 47.125 
Q 21.6875 47.125 19 45.109375 
Q 16.3125 43.109375 15.765625 38.71875 
L 6.59375 39.546875 
Q 8.84375 53.8125 27.78125 53.8125 
Q 37.75 53.8125 42.765625 49.234375 
Q 47.796875 44.671875 47.796875 36.03125 
L 47.796875 13.28125 
Q 47.796875 9.375 48.828125 7.390625 
Q 49.859375 5.421875 52.734375 5.421875 
Q 54 5.421875 55.609375 5.765625 
L 55.609375 0.296875 
Q 52.296875 -0.484375 48.828125 -0.484375 
Q 43.953125 -0.484375 41.71875 2.078125 
Q 39.5 4.640625 39.203125 10.109375 
L 38.921875 10.109375 
Q 35.546875 4.046875 31.078125 1.53125 
Q 26.609375 -0.984375 20.21875 -0.984375 
z
M 22.21875 5.609375 
Q 27.046875 5.609375 30.8125 7.8125 
Q 34.578125 10.015625 36.75 13.84375 
Q 38.921875 17.671875 38.921875 21.734375 
L 38.921875 26.078125 
L 29.296875 25.875 
Q 23.09375 25.78125 19.890625 24.609375 
Q 16.703125 23.4375 14.984375 21 
Q 13.28125 18.5625 13.28125 14.59375 
Q 13.28125 10.296875 15.59375 7.953125 
Q 17.921875 5.609375 22.21875 5.609375 
z
" id="LiberationSans-97"/>
     </defs>
     <g style="fill:#262626;" transform="translate(203.317031 303.38075)scale(0.1 -0.1)">
      <use xlink:href="#LiberationSans-116"/>
      <use x="27.783203" xlink:href="#LiberationSans-105"/>
      <use x="50" xlink:href="#LiberationSans-109"/>
      <use x="133.300781" xlink:href="#LiberationSans-101"/>
      <use x="188.916016" xlink:href="#LiberationSans-95"/>
      <use x="244.53125" xlink:href="#LiberationSans-102"/>
      <use x="272.314453" xlink:href="#LiberationSans-114"/>
      <use x="305.615234" xlink:href="#LiberationSans-97"/>
      <use x="361.230469" xlink:href="#LiberationSans-109"/>
      <use x="444.53125" xlink:href="#LiberationSans-101"/>
     </g>
    </g>
   </g>
   <g id="matplotlib.axis_2">
    <g id="ytick_1">
     <g id="line2d_9">
      <defs>
       <path d="M 0 0 
L -6 0 
" id="mf4b889e5bf" style="stroke:#262626;stroke-width:0.8;"/>
      </defs>
      <g>
       <use style="fill:#262626;stroke:#262626;stroke-width:0.8;" x="49.7625" xlink:href="#mf4b889e5bf" y="235.369175"/>
      </g>
     </g>
     <g id="text_10">
      <!-- −0.2 -->
      <defs>
       <path d="M 4.9375 29.6875 
L 4.9375 36.8125 
L 53.515625 36.8125 
L 53.515625 29.6875 
z
" id="LiberationSans-8722"/>
       <path d="M 9.125 0 
L 9.125 10.6875 
L 18.65625 10.6875 
L 18.65625 0 
z
" id="LiberationSans-46"/>
      </defs>
      <g style="fill:#262626;" transform="translate(20.521875 238.992613)scale(0.1 -0.1)">
       <use xlink:href="#LiberationSans-8722"/>
       <use x="58.398438" xlink:href="#LiberationSans-48"/>
       <use x="114.013672" xlink:href="#LiberationSans-46"/>
       <use x="141.796875" xlink:href="#LiberationSans-50"/>
      </g>
     </g>
    </g>
    <g id="ytick_2">
     <g id="line2d_10">
      <g>
       <use style="fill:#262626;stroke:#262626;stroke-width:0.8;" x="49.7625" xlink:href="#mf4b889e5bf" y="187.21242"/>
      </g>
     </g>
     <g id="text_11">
      <!-- 0.0 -->
      <g style="fill:#262626;" transform="translate(26.3625 190.835858)scale(0.1 -0.1)">
       <use xlink:href="#LiberationSans-48"/>
       <use x="55.615234" xlink:href="#LiberationSans-46"/>
       <use x="83.398438" xlink:href="#LiberationSans-48"/>
      </g>
     </g>
    </g>
    <g id="ytick_3">
     <g id="line2d_11">
      <g>
       <use style="fill:#262626;stroke:#262626;stroke-width:0.8;" x="49.7625" xlink:href="#mf4b889e5bf" y="139.055665"/>
      </g>
     </g>
     <g id="text_12">
      <!-- 0.2 -->
      <g style="fill:#262626;" transform="translate(26.3625 142.679103)scale(0.1 -0.1)">
       <use xlink:href="#LiberationSans-48"/>
       <use x="55.615234" xlink:href="#LiberationSans-46"/>
       <use x="83.398438" xlink:href="#LiberationSans-50"/>
      </g>
     </g>
    </g>
    <g id="ytick_4">
     <g id="line2d_12">
      <g>
       <use style="fill:#262626;stroke:#262626;stroke-width:0.8;" x="49.7625" xlink:href="#mf4b889e5bf" y="90.89891"/>
      </g>
     </g>
     <g id="text_13">
      <!-- 0.4 -->
      <g style="fill:#262626;" transform="translate(26.3625 94.522348)scale(0.1 -0.1)">
       <use xlink:href="#LiberationSans-48"/>
       <use x="55.615234" xlink:href="#LiberationSans-46"/>
       <use x="83.398438" xlink:href="#LiberationSans-52"/>
      </g>
     </g>
    </g>
    <g id="ytick_5">
     <g id="line2d_13">
      <g>
       <use style="fill:#262626;stroke:#262626;stroke-width:0.8;" x="49.7625" xlink:href="#mf4b889e5bf" y="42.742155"/>
      </g>
     </g>
     <g id="text_14">
      <!-- 0.6 -->
      <g style="fill:#262626;" transform="translate(26.3625 46.365593)scale(0.1 -0.1)">
       <use xlink:href="#LiberationSans-48"/>
       <use x="55.615234" xlink:href="#LiberationSans-46"/>
       <use x="83.398438" xlink:href="#LiberationSans-54"/>
      </g>
     </g>
    </g>
    <g id="text_15">
     <!-- analogs -->
     <defs>
      <path d="M 40.28125 0 
L 40.28125 33.5 
Q 40.28125 38.71875 39.25 41.59375 
Q 38.234375 44.484375 35.984375 45.75 
Q 33.734375 47.015625 29.390625 47.015625 
Q 23.046875 47.015625 19.375 42.671875 
Q 15.71875 38.328125 15.71875 30.609375 
L 15.71875 0 
L 6.9375 0 
L 6.9375 41.546875 
Q 6.9375 50.78125 6.640625 52.828125 
L 14.9375 52.828125 
Q 14.984375 52.59375 15.03125 51.515625 
Q 15.09375 50.4375 15.15625 49.046875 
Q 15.234375 47.65625 15.328125 43.796875 
L 15.484375 43.796875 
Q 18.5 49.265625 22.484375 51.53125 
Q 26.46875 53.8125 32.375 53.8125 
Q 41.0625 53.8125 45.09375 49.484375 
Q 49.125 45.171875 49.125 35.203125 
L 49.125 0 
z
" id="LiberationSans-110"/>
      <path d="M 6.734375 0 
L 6.734375 72.46875 
L 15.53125 72.46875 
L 15.53125 0 
z
" id="LiberationSans-108"/>
      <path d="M 51.421875 26.46875 
Q 51.421875 12.59375 45.3125 5.796875 
Q 39.203125 -0.984375 27.59375 -0.984375 
Q 16.015625 -0.984375 10.109375 6.078125 
Q 4.203125 13.140625 4.203125 26.46875 
Q 4.203125 53.8125 27.875 53.8125 
Q 39.984375 53.8125 45.703125 47.140625 
Q 51.421875 40.484375 51.421875 26.46875 
z
M 42.1875 26.46875 
Q 42.1875 37.40625 38.9375 42.359375 
Q 35.6875 47.3125 28.03125 47.3125 
Q 20.3125 47.3125 16.859375 42.25 
Q 13.421875 37.203125 13.421875 26.46875 
Q 13.421875 16.015625 16.8125 10.765625 
Q 20.21875 5.515625 27.484375 5.515625 
Q 35.40625 5.515625 38.796875 10.59375 
Q 42.1875 15.671875 42.1875 26.46875 
z
" id="LiberationSans-111"/>
      <path d="M 26.765625 -20.75 
Q 18.109375 -20.75 12.984375 -17.359375 
Q 7.859375 -13.96875 6.390625 -7.71875 
L 15.234375 -6.453125 
Q 16.109375 -10.109375 19.109375 -12.078125 
Q 22.125 -14.0625 27 -14.0625 
Q 40.140625 -14.0625 40.140625 1.3125 
L 40.140625 9.8125 
L 40.046875 9.8125 
Q 37.546875 4.734375 33.203125 2.171875 
Q 28.859375 -0.390625 23.046875 -0.390625 
Q 13.328125 -0.390625 8.765625 6.046875 
Q 4.203125 12.5 4.203125 26.3125 
Q 4.203125 40.328125 9.109375 46.984375 
Q 14.015625 53.65625 24.03125 53.65625 
Q 29.640625 53.65625 33.765625 51.09375 
Q 37.890625 48.53125 40.140625 43.796875 
L 40.234375 43.796875 
Q 40.234375 45.265625 40.421875 48.875 
Q 40.625 52.484375 40.828125 52.828125 
L 49.171875 52.828125 
Q 48.875 50.203125 48.875 41.890625 
L 48.875 1.515625 
Q 48.875 -20.75 26.765625 -20.75 
z
M 40.140625 26.421875 
Q 40.140625 32.859375 38.375 37.515625 
Q 36.625 42.1875 33.421875 44.65625 
Q 30.21875 47.125 26.171875 47.125 
Q 19.4375 47.125 16.359375 42.234375 
Q 13.28125 37.359375 13.28125 26.421875 
Q 13.28125 15.578125 16.15625 10.84375 
Q 19.046875 6.109375 26.03125 6.109375 
Q 30.171875 6.109375 33.390625 8.546875 
Q 36.625 10.984375 38.375 15.546875 
Q 40.140625 20.125 40.140625 26.421875 
z
" id="LiberationSans-103"/>
      <path d="M 46.390625 14.59375 
Q 46.390625 7.125 40.75 3.0625 
Q 35.109375 -0.984375 24.953125 -0.984375 
Q 15.09375 -0.984375 9.734375 2.265625 
Q 4.390625 5.515625 2.78125 12.40625 
L 10.546875 13.921875 
Q 11.671875 9.671875 15.1875 7.6875 
Q 18.703125 5.71875 24.953125 5.71875 
Q 31.640625 5.71875 34.734375 7.765625 
Q 37.84375 9.8125 37.84375 13.921875 
Q 37.84375 17.046875 35.6875 19 
Q 33.546875 20.953125 28.765625 22.21875 
L 22.46875 23.875 
Q 14.890625 25.828125 11.6875 27.703125 
Q 8.5 29.59375 6.6875 32.28125 
Q 4.890625 34.96875 4.890625 38.875 
Q 4.890625 46.09375 10.03125 49.875 
Q 15.1875 53.65625 25.046875 53.65625 
Q 33.796875 53.65625 38.9375 50.578125 
Q 44.09375 47.515625 45.453125 40.71875 
L 37.546875 39.75 
Q 36.8125 43.265625 33.609375 45.140625 
Q 30.421875 47.015625 25.046875 47.015625 
Q 19.09375 47.015625 16.25 45.203125 
Q 13.421875 43.40625 13.421875 39.75 
Q 13.421875 37.5 14.59375 36.03125 
Q 15.765625 34.578125 18.0625 33.546875 
Q 20.359375 32.515625 27.734375 30.71875 
Q 34.71875 28.953125 37.796875 27.46875 
Q 40.875 25.984375 42.65625 24.171875 
Q 44.4375 22.359375 45.40625 19.984375 
Q 46.390625 17.625 46.390625 14.59375 
z
" id="LiberationSans-115"/>
     </defs>
     <g style="fill:#262626;" transform="translate(14.446875 157.769281)rotate(-90)scale(0.1 -0.1)">
      <use xlink:href="#LiberationSans-97"/>
      <use x="55.615234" xlink:href="#LiberationSans-110"/>
      <use x="111.230469" xlink:href="#LiberationSans-97"/>
      <use x="166.845703" xlink:href="#LiberationSans-108"/>
      <use x="189.0625" xlink:href="#LiberationSans-111"/>
      <use x="244.677734" xlink:href="#LiberationSans-103"/>
      <use x="300.292969" xlink:href="#LiberationSans-115"/>
     </g>
    </g>
   </g>
   <g id="line2d_14">
    <path clip-path="url(#pb55d1bc6e9)" d="M 65.995227 180.790703 
L 66.862129 177.65016 
L 67.72903 173.515844 
L 68.595931 168.236732 
L 69.462833 161.684311 
L 70.329734 153.767652 
L 71.630086 139.270975 
L 72.930438 121.813776 
L 74.664241 95.069565 
L 77.698395 47.599482 
L 78.565296 36.559065 
L 79.432198 27.77855 
L 80.299099 21.851501 
L 80.73255 20.123978 
L 81.166 19.296 
L 81.599451 19.414006 
L 82.032902 20.51492 
L 82.466352 22.625146 
L 82.899803 25.759701 
L 83.766704 35.100743 
L 84.633606 48.407284 
L 85.500507 65.339153 
L 86.800859 96.292375 
L 88.968112 155.873222 
L 90.701915 201.824475 
L 92.002267 230.078414 
L 92.869168 244.42986 
L 93.73607 254.545077 
L 94.16952 257.914075 
L 94.602971 260.136143 
L 95.036422 261.216 
L 95.469872 261.174753 
L 95.903323 260.049482 
L 96.336774 257.892541 
L 96.770224 254.770596 
L 97.637126 245.962431 
L 98.504027 234.393104 
L 100.23783 206.633015 
L 101.971632 179.093481 
L 102.838533 167.567601 
L 103.705435 158.410402 
L 104.572336 152.031227 
L 105.005787 149.951322 
L 105.439237 148.619589 
L 105.872688 148.025389 
L 106.306139 148.145263 
L 106.739589 148.943811 
L 107.17304 150.374769 
L 108.039941 154.902234 
L 108.906843 161.191499 
L 110.640645 176.558901 
L 112.374448 191.49939 
L 113.241349 197.500965 
L 114.108251 202.05278 
L 114.975152 204.97728 
L 115.408603 205.813203 
L 115.842053 206.24014 
L 116.275504 206.274311 
L 116.708955 205.93892 
L 117.142405 205.263302 
L 118.009307 203.033707 
L 118.876208 199.905853 
L 120.610011 192.372414 
L 121.910363 186.927212 
L 122.777264 183.905062 
L 123.644165 181.576779 
L 124.511067 180.031852 
L 124.944517 179.559975 
L 125.377968 179.283207 
L 125.811419 179.192648 
L 126.244869 179.275984 
L 126.67832 179.518004 
L 127.545221 180.406047 
L 128.412123 181.698143 
L 132.313178 188.243005 
L 133.18008 189.147937 
L 134.046981 189.728097 
L 134.913882 189.990238 
L 135.780784 189.9682 
L 136.647685 189.715379 
L 137.948037 189.046289 
L 140.982192 187.242657 
L 142.282544 186.73383 
L 143.582896 186.471916 
L 144.883248 186.434183 
L 146.61705 186.623894 
L 151.385008 187.317513 
L 153.985712 187.381155 
L 165.688879 187.258279 
L 168.289583 187.279711 
L 169.589935 187.089225 
L 170.456837 186.77728 
L 171.323738 186.227033 
L 172.190639 185.337759 
L 173.057541 183.988111 
L 173.924442 182.03831 
L 174.791343 179.334717 
L 175.658245 175.717023 
L 176.525146 171.028118 
L 177.392047 165.126433 
L 178.258949 157.900294 
L 179.559301 144.449203 
L 180.859653 127.93351 
L 182.593455 102.013435 
L 186.061061 47.599482 
L 186.927962 36.559065 
L 187.794863 27.77855 
L 188.661764 21.851501 
L 189.095215 20.123978 
L 189.528666 19.296 
L 189.962116 19.414006 
L 190.395567 20.51492 
L 190.829018 22.625146 
L 191.262468 25.759701 
L 192.12937 35.100743 
L 192.996271 48.407284 
L 193.863172 65.339153 
L 195.163524 96.292375 
L 197.330778 155.873222 
L 199.06458 201.824475 
L 200.364932 230.078414 
L 201.231834 244.42986 
L 202.098735 254.545077 
L 202.532186 257.914075 
L 202.965636 260.136143 
L 203.399087 261.216 
L 203.832538 261.174753 
L 204.265988 260.049482 
L 204.699439 257.892541 
L 205.13289 254.770596 
L 205.999791 245.962431 
L 206.866692 234.393104 
L 208.600495 206.633015 
L 210.334298 179.093481 
L 211.201199 167.567601 
L 212.0681 158.410402 
L 212.935002 152.031227 
L 213.368452 149.951322 
L 213.801903 148.619589 
L 214.235354 148.025389 
L 214.668804 148.145263 
L 215.102255 148.943811 
L 215.535705 150.374769 
L 216.402607 154.902234 
L 217.269508 161.191499 
L 219.003311 176.558901 
L 220.737113 191.49939 
L 221.604015 197.500965 
L 222.470916 202.05278 
L 223.337817 204.97728 
L 223.771268 205.813203 
L 224.204719 206.24014 
L 224.638169 206.274311 
L 225.07162 205.93892 
L 225.505071 205.263302 
L 226.371972 203.033707 
L 227.238873 199.905853 
L 228.972676 192.372414 
L 230.273028 186.927212 
L 231.139929 183.905062 
L 232.006831 181.576779 
L 232.873732 180.031852 
L 233.307183 179.559975 
L 233.740633 179.283207 
L 234.174084 179.192648 
L 234.607535 179.275984 
L 235.040985 179.518004 
L 235.907887 180.406047 
L 236.774788 181.698143 
L 240.675844 188.243005 
L 241.542745 189.147937 
L 242.409646 189.728097 
L 243.276548 189.990238 
L 244.143449 189.9682 
L 245.01035 189.715379 
L 246.310702 189.046289 
L 249.344857 187.242657 
L 250.645209 186.73383 
L 251.945561 186.471916 
L 253.245913 186.434183 
L 254.979716 186.623894 
L 259.747673 187.317513 
L 262.348377 187.381155 
L 274.051545 187.258279 
L 276.652249 187.279711 
L 277.952601 187.089225 
L 278.819502 186.77728 
L 279.686403 186.227033 
L 280.553305 185.337759 
L 281.420206 183.988111 
L 282.287107 182.03831 
L 283.154009 179.334717 
L 284.02091 175.717023 
L 284.887811 171.028118 
L 285.754713 165.126433 
L 286.621614 157.900294 
L 287.921966 144.449203 
L 289.222318 127.93351 
L 290.956121 102.013435 
L 294.423726 47.599482 
L 295.290627 36.559065 
L 296.157529 27.77855 
L 297.02443 21.851501 
L 297.457881 20.123978 
L 297.891331 19.296 
L 298.324782 19.414006 
L 298.758232 20.51492 
L 299.191683 22.625146 
L 299.625134 25.759701 
L 300.492035 35.100743 
L 301.358936 48.407284 
L 302.225838 65.339153 
L 303.52619 96.292375 
L 305.693443 155.873222 
L 307.427246 201.824475 
L 308.727598 230.078414 
L 309.594499 244.42986 
L 310.4614 254.545077 
L 310.894851 257.914075 
L 311.328302 260.136143 
L 311.761752 261.216 
L 312.195203 261.174753 
L 312.628654 260.049482 
L 313.062104 257.892541 
L 313.495555 254.770596 
L 314.362456 245.962431 
L 315.229358 234.393104 
L 316.96316 206.633015 
L 318.696963 179.093481 
L 319.563864 167.567601 
L 320.430766 158.410402 
L 321.297667 152.031227 
L 321.731118 149.951322 
L 322.164568 148.619589 
L 322.598019 148.025389 
L 323.03147 148.145263 
L 323.46492 148.943811 
L 323.898371 150.374769 
L 324.765272 154.902234 
L 325.632174 161.191499 
L 327.365976 176.558901 
L 329.099779 191.49939 
L 329.96668 197.500965 
L 330.833581 202.05278 
L 331.700483 204.97728 
L 332.133933 205.813203 
L 332.567384 206.24014 
L 333.000835 206.274311 
L 333.434285 205.93892 
L 333.867736 205.263302 
L 334.734637 203.033707 
L 335.601539 199.905853 
L 337.335341 192.372414 
L 338.635693 186.927212 
L 339.502595 183.905062 
L 340.369496 181.576779 
L 341.236397 180.031852 
L 341.669848 179.559975 
L 342.103299 179.283207 
L 342.536749 179.192648 
L 342.9702 179.275984 
L 343.403651 179.518004 
L 344.270552 180.406047 
L 345.137453 181.698143 
L 349.038509 188.243005 
L 349.905411 189.147937 
L 350.772312 189.728097 
L 351.639213 189.990238 
L 352.506115 189.9682 
L 353.373016 189.715379 
L 354.673368 189.046289 
L 357.707522 187.242657 
L 359.007874 186.73383 
L 360.308226 186.471916 
L 361.608578 186.434183 
L 363.342381 186.623894 
L 368.110338 187.317513 
L 370.711042 187.381155 
L 382.41421 187.258279 
L 385.014914 187.279711 
L 386.315266 187.089225 
L 387.182167 186.77728 
L 388.049069 186.227033 
L 388.91597 185.337759 
L 389.782871 183.988111 
L 390.649773 182.03831 
L 390.649773 182.03831 
" style="fill:none;stroke:#1f77b4;stroke-linecap:round;stroke-width:1.5;"/>
   </g>
   <g id="line2d_15">
    <path clip-path="url(#pb55d1bc6e9)" d="M 68.595931 273.312 
L 68.595931 7.2 
" style="fill:none;stroke:#008000;stroke-linecap:round;stroke-width:1.5;"/>
   </g>
   <g id="line2d_16">
    <path clip-path="url(#pb55d1bc6e9)" d="M 109.773744 273.312 
L 109.773744 7.2 
" style="fill:none;stroke:#ff0000;stroke-linecap:round;stroke-width:1.5;"/>
   </g>
   <g id="line2d_17">
    <path clip-path="url(#pb55d1bc6e9)" d="M 176.958597 273.312 
L 176.958597 7.2 
" style="fill:none;stroke:#008000;stroke-linecap:round;stroke-width:1.5;"/>
   </g>
   <g id="line2d_18">
    <path clip-path="url(#pb55d1bc6e9)" d="M 218.136409 273.312 
L 218.136409 7.2 
" style="fill:none;stroke:#ff0000;stroke-linecap:round;stroke-width:1.5;"/>
   </g>
   <g id="line2d_19">
    <path clip-path="url(#pb55d1bc6e9)" d="M 285.321262 273.312 
L 285.321262 7.2 
" style="fill:none;stroke:#008000;stroke-linecap:round;stroke-width:1.5;"/>
   </g>
   <g id="line2d_20">
    <path clip-path="url(#pb55d1bc6e9)" d="M 326.499075 273.312 
L 326.499075 7.2 
" style="fill:none;stroke:#ff0000;stroke-linecap:round;stroke-width:1.5;"/>
   </g>
   <g id="patch_3">
    <path d="M 49.7625 273.312 
L 49.7625 7.2 
" style="fill:none;stroke:#262626;stroke-linecap:square;stroke-linejoin:miter;stroke-width:1.25;"/>
   </g>
   <g id="patch_4">
    <path d="M 49.7625 273.312 
L 406.8825 273.312 
" style="fill:none;stroke:#262626;stroke-linecap:square;stroke-linejoin:miter;stroke-width:1.25;"/>
   </g>
  </g>
 </g>
 <defs>
  <clipPath id="pb55d1bc6e9">
   <rect height="266.112" width="357.12" x="49.7625" y="7.2"/>
  </clipPath>
 </defs>
</svg>
