<?xml version="1.0" encoding="utf-8" standalone="no"?>
<!DOCTYPE svg PUBLIC "-//W3C//DTD SVG 1.1//EN"
  "http://www.w3.org/Graphics/SVG/1.1/DTD/svg11.dtd">
<!-- Created with matplotlib (https://matplotlib.org/) -->
<svg height="283pt" version="1.1" viewBox="0 0 614.9625 283" width="614.9625pt" xmlns="http://www.w3.org/2000/svg" xmlns:xlink="http://www.w3.org/1999/xlink">
 <defs>
  <style type="text/css">
*{stroke-linecap:butt;stroke-linejoin:round;}
  </style>
 </defs>
 <g id="figure_1">
  <g id="patch_1">
   <path d="M 0 283 
L 614.9625 283 
L 614.9625 0 
L 0 0 
z
" style="fill:#ffffff;"/>
  </g>
  <g id="axes_1">
   <g id="patch_2">
    <path d="M 49.7625 243.65625 
L 303.398864 243.65625 
L 303.398864 21.89625 
L 49.7625 21.89625 
z
" style="fill:#ffffff;"/>
   </g>
   <g id="matplotlib.axis_1">
    <g id="xtick_1">
     <g id="line2d_1">
      <defs>
       <path d="M 0 0 
L 0 6 
" id="mc7f41eaa0d" style="stroke:#262626;stroke-width:0.8;"/>
      </defs>
      <g>
       <use style="fill:#262626;stroke:#262626;stroke-width:0.8;" x="61.291426" xlink:href="#mc7f41eaa0d" y="243.65625"/>
      </g>
     </g>
     <g id="text_1">
      <!-- 0 -->
      <defs>
       <path d="M 51.703125 34.421875 
Q 51.703125 17.1875 45.625 8.09375 
Q 39.546875 -0.984375 27.6875 -0.984375 
Q 15.828125 -0.984375 9.859375 8.046875 
Q 3.90625 17.09375 3.90625 34.421875 
Q 3.90625 52.15625 9.6875 60.984375 
Q 15.484375 69.828125 27.984375 69.828125 
Q 40.140625 69.828125 45.921875 60.890625 
Q 51.703125 51.953125 51.703125 34.421875 
z
M 42.78125 34.421875 
Q 42.78125 49.3125 39.328125 56 
Q 35.890625 62.703125 27.984375 62.703125 
Q 19.875 62.703125 16.328125 56.109375 
Q 12.796875 49.515625 12.796875 34.421875 
Q 12.796875 19.78125 16.375 12.984375 
Q 19.96875 6.203125 27.78125 6.203125 
Q 35.546875 6.203125 39.15625 13.125 
Q 42.78125 20.0625 42.78125 34.421875 
z
" id="LiberationSans-48"/>
      </defs>
      <g style="fill:#262626;" transform="translate(58.510957 260.403125)scale(0.1 -0.1)">
       <use xlink:href="#LiberationSans-48"/>
      </g>
     </g>
    </g>
    <g id="xtick_2">
     <g id="line2d_2">
      <g>
       <use style="fill:#262626;stroke:#262626;stroke-width:0.8;" x="107.872943" xlink:href="#mc7f41eaa0d" y="243.65625"/>
      </g>
     </g>
     <g id="text_2">
      <!-- 20 -->
      <defs>
       <path d="M 5.03125 0 
L 5.03125 6.203125 
Q 7.515625 11.921875 11.109375 16.28125 
Q 14.703125 20.65625 18.65625 24.1875 
Q 22.609375 27.734375 26.484375 30.765625 
Q 30.375 33.796875 33.5 36.8125 
Q 36.625 39.84375 38.546875 43.15625 
Q 40.484375 46.484375 40.484375 50.6875 
Q 40.484375 56.34375 37.15625 59.46875 
Q 33.84375 62.59375 27.9375 62.59375 
Q 22.3125 62.59375 18.671875 59.546875 
Q 15.046875 56.5 14.40625 50.984375 
L 5.421875 51.8125 
Q 6.390625 60.0625 12.421875 64.9375 
Q 18.453125 69.828125 27.9375 69.828125 
Q 38.328125 69.828125 43.921875 64.921875 
Q 49.515625 60.015625 49.515625 50.984375 
Q 49.515625 46.96875 47.671875 43.015625 
Q 45.84375 39.0625 42.234375 35.109375 
Q 38.625 31.15625 28.421875 22.859375 
Q 22.796875 18.265625 19.46875 14.578125 
Q 16.15625 10.890625 14.703125 7.46875 
L 50.59375 7.46875 
L 50.59375 0 
z
" id="LiberationSans-50"/>
      </defs>
      <g style="fill:#262626;" transform="translate(102.312006 260.403125)scale(0.1 -0.1)">
       <use xlink:href="#LiberationSans-50"/>
       <use x="55.615234" xlink:href="#LiberationSans-48"/>
      </g>
     </g>
    </g>
    <g id="xtick_3">
     <g id="line2d_3">
      <g>
       <use style="fill:#262626;stroke:#262626;stroke-width:0.8;" x="154.454461" xlink:href="#mc7f41eaa0d" y="243.65625"/>
      </g>
     </g>
     <g id="text_3">
      <!-- 40 -->
      <defs>
       <path d="M 43.015625 15.578125 
L 43.015625 0 
L 34.71875 0 
L 34.71875 15.578125 
L 2.296875 15.578125 
L 2.296875 22.40625 
L 33.796875 68.796875 
L 43.015625 68.796875 
L 43.015625 22.515625 
L 52.6875 22.515625 
L 52.6875 15.578125 
z
M 34.71875 58.890625 
Q 34.625 58.59375 33.34375 56.296875 
Q 32.078125 54 31.453125 53.078125 
L 13.8125 27.09375 
L 11.1875 23.484375 
L 10.40625 22.515625 
L 34.71875 22.515625 
z
" id="LiberationSans-52"/>
      </defs>
      <g style="fill:#262626;" transform="translate(148.893523 260.403125)scale(0.1 -0.1)">
       <use xlink:href="#LiberationSans-52"/>
       <use x="55.615234" xlink:href="#LiberationSans-48"/>
      </g>
     </g>
    </g>
    <g id="xtick_4">
     <g id="line2d_4">
      <g>
       <use style="fill:#262626;stroke:#262626;stroke-width:0.8;" x="201.035979" xlink:href="#mc7f41eaa0d" y="243.65625"/>
      </g>
     </g>
     <g id="text_4">
      <!-- 60 -->
      <defs>
       <path d="M 51.21875 22.515625 
Q 51.21875 11.625 45.3125 5.3125 
Q 39.40625 -0.984375 29 -0.984375 
Q 17.390625 -0.984375 11.234375 7.65625 
Q 5.078125 16.3125 5.078125 32.8125 
Q 5.078125 50.6875 11.46875 60.25 
Q 17.875 69.828125 29.6875 69.828125 
Q 45.265625 69.828125 49.3125 55.8125 
L 40.921875 54.296875 
Q 38.328125 62.703125 29.59375 62.703125 
Q 22.078125 62.703125 17.9375 55.6875 
Q 13.8125 48.6875 13.8125 35.40625 
Q 16.21875 39.84375 20.5625 42.15625 
Q 24.90625 44.484375 30.515625 44.484375 
Q 40.046875 44.484375 45.625 38.515625 
Q 51.21875 32.5625 51.21875 22.515625 
z
M 42.28125 22.125 
Q 42.28125 29.59375 38.625 33.640625 
Q 34.96875 37.703125 28.421875 37.703125 
Q 22.265625 37.703125 18.484375 34.109375 
Q 14.703125 30.515625 14.703125 24.21875 
Q 14.703125 16.265625 18.625 11.1875 
Q 22.5625 6.109375 28.71875 6.109375 
Q 35.0625 6.109375 38.671875 10.375 
Q 42.28125 14.65625 42.28125 22.125 
z
" id="LiberationSans-54"/>
      </defs>
      <g style="fill:#262626;" transform="translate(195.475041 260.403125)scale(0.1 -0.1)">
       <use xlink:href="#LiberationSans-54"/>
       <use x="55.615234" xlink:href="#LiberationSans-48"/>
      </g>
     </g>
    </g>
    <g id="xtick_5">
     <g id="line2d_5">
      <g>
       <use style="fill:#262626;stroke:#262626;stroke-width:0.8;" x="247.617496" xlink:href="#mc7f41eaa0d" y="243.65625"/>
      </g>
     </g>
     <g id="text_5">
      <!-- 80 -->
      <defs>
       <path d="M 51.265625 19.1875 
Q 51.265625 9.671875 45.203125 4.34375 
Q 39.15625 -0.984375 27.828125 -0.984375 
Q 16.796875 -0.984375 10.5625 4.234375 
Q 4.34375 9.46875 4.34375 19.09375 
Q 4.34375 25.828125 8.203125 30.421875 
Q 12.0625 35.015625 18.0625 35.984375 
L 18.0625 36.1875 
Q 12.453125 37.5 9.203125 41.890625 
Q 5.953125 46.296875 5.953125 52.203125 
Q 5.953125 60.0625 11.828125 64.9375 
Q 17.71875 69.828125 27.640625 69.828125 
Q 37.796875 69.828125 43.671875 65.03125 
Q 49.5625 60.25 49.5625 52.09375 
Q 49.5625 46.1875 46.28125 41.796875 
Q 43.015625 37.40625 37.359375 36.28125 
L 37.359375 36.078125 
Q 43.953125 35.015625 47.609375 30.5 
Q 51.265625 25.984375 51.265625 19.1875 
z
M 40.4375 51.609375 
Q 40.4375 63.28125 27.640625 63.28125 
Q 21.4375 63.28125 18.1875 60.34375 
Q 14.9375 57.421875 14.9375 51.609375 
Q 14.9375 45.703125 18.28125 42.59375 
Q 21.625 39.5 27.734375 39.5 
Q 33.9375 39.5 37.1875 42.359375 
Q 40.4375 45.21875 40.4375 51.609375 
z
M 42.140625 20.015625 
Q 42.140625 26.421875 38.328125 29.65625 
Q 34.515625 32.90625 27.640625 32.90625 
Q 20.953125 32.90625 17.1875 29.40625 
Q 13.421875 25.921875 13.421875 19.828125 
Q 13.421875 5.609375 27.9375 5.609375 
Q 35.109375 5.609375 38.625 9.046875 
Q 42.140625 12.5 42.140625 20.015625 
z
" id="LiberationSans-56"/>
      </defs>
      <g style="fill:#262626;" transform="translate(242.056559 260.403125)scale(0.1 -0.1)">
       <use xlink:href="#LiberationSans-56"/>
       <use x="55.615234" xlink:href="#LiberationSans-48"/>
      </g>
     </g>
    </g>
    <g id="xtick_6">
     <g id="line2d_6">
      <g>
       <use style="fill:#262626;stroke:#262626;stroke-width:0.8;" x="294.199014" xlink:href="#mc7f41eaa0d" y="243.65625"/>
      </g>
     </g>
     <g id="text_6">
      <!-- 100 -->
      <defs>
       <path d="M 7.625 0 
L 7.625 7.46875 
L 25.140625 7.46875 
L 25.140625 60.40625 
L 9.625 49.3125 
L 9.625 57.625 
L 25.875 68.796875 
L 33.984375 68.796875 
L 33.984375 7.46875 
L 50.734375 7.46875 
L 50.734375 0 
z
" id="LiberationSans-49"/>
      </defs>
      <g style="fill:#262626;" transform="translate(285.857608 260.403125)scale(0.1 -0.1)">
       <use xlink:href="#LiberationSans-49"/>
       <use x="55.615234" xlink:href="#LiberationSans-48"/>
       <use x="111.230469" xlink:href="#LiberationSans-48"/>
      </g>
     </g>
    </g>
    <g id="text_7">
     <!-- time_frame -->
     <defs>
      <path d="M 27.046875 0.390625 
Q 22.703125 -0.78125 18.171875 -0.78125 
Q 7.625 -0.78125 7.625 11.1875 
L 7.625 46.4375 
L 1.515625 46.4375 
L 1.515625 52.828125 
L 7.953125 52.828125 
L 10.546875 64.65625 
L 16.40625 64.65625 
L 16.40625 52.828125 
L 26.171875 52.828125 
L 26.171875 46.4375 
L 16.40625 46.4375 
L 16.40625 13.09375 
Q 16.40625 9.28125 17.640625 7.734375 
Q 18.890625 6.203125 21.96875 6.203125 
Q 23.734375 6.203125 27.046875 6.890625 
z
" id="LiberationSans-116"/>
      <path d="M 6.6875 64.0625 
L 6.6875 72.46875 
L 15.484375 72.46875 
L 15.484375 64.0625 
z
M 6.6875 0 
L 6.6875 52.828125 
L 15.484375 52.828125 
L 15.484375 0 
z
" id="LiberationSans-105"/>
      <path d="M 37.5 0 
L 37.5 33.5 
Q 37.5 41.15625 35.390625 44.078125 
Q 33.296875 47.015625 27.828125 47.015625 
Q 22.21875 47.015625 18.9375 42.71875 
Q 15.671875 38.421875 15.671875 30.609375 
L 15.671875 0 
L 6.9375 0 
L 6.9375 41.546875 
Q 6.9375 50.78125 6.640625 52.828125 
L 14.9375 52.828125 
Q 14.984375 52.59375 15.03125 51.515625 
Q 15.09375 50.4375 15.15625 49.046875 
Q 15.234375 47.65625 15.328125 43.796875 
L 15.484375 43.796875 
Q 18.3125 49.421875 21.96875 51.609375 
Q 25.640625 53.8125 30.90625 53.8125 
Q 36.921875 53.8125 40.40625 51.421875 
Q 43.890625 49.03125 45.265625 43.796875 
L 45.40625 43.796875 
Q 48.140625 49.125 52.015625 51.46875 
Q 55.90625 53.8125 61.421875 53.8125 
Q 69.4375 53.8125 73.0625 49.46875 
Q 76.703125 45.125 76.703125 35.203125 
L 76.703125 0 
L 68.015625 0 
L 68.015625 33.5 
Q 68.015625 41.15625 65.90625 44.078125 
Q 63.8125 47.015625 58.34375 47.015625 
Q 52.59375 47.015625 49.390625 42.75 
Q 46.1875 38.484375 46.1875 30.609375 
L 46.1875 0 
z
" id="LiberationSans-109"/>
      <path d="M 13.484375 24.5625 
Q 13.484375 15.484375 17.234375 10.546875 
Q 21 5.609375 28.21875 5.609375 
Q 33.9375 5.609375 37.375 7.90625 
Q 40.828125 10.203125 42.046875 13.71875 
L 49.75 11.53125 
Q 45.015625 -0.984375 28.21875 -0.984375 
Q 16.5 -0.984375 10.375 6 
Q 4.25 12.984375 4.25 26.765625 
Q 4.25 39.84375 10.375 46.828125 
Q 16.5 53.8125 27.875 53.8125 
Q 51.171875 53.8125 51.171875 25.734375 
L 51.171875 24.5625 
z
M 42.09375 31.296875 
Q 41.359375 39.65625 37.84375 43.484375 
Q 34.328125 47.3125 27.734375 47.3125 
Q 21.34375 47.3125 17.609375 43.03125 
Q 13.875 38.765625 13.578125 31.296875 
z
" id="LiberationSans-101"/>
      <path d="M -1.515625 -19.875 
L -1.515625 -13.53125 
L 56.734375 -13.53125 
L 56.734375 -19.875 
z
" id="LiberationSans-95"/>
      <path d="M 17.625 46.4375 
L 17.625 0 
L 8.84375 0 
L 8.84375 46.4375 
L 1.421875 46.4375 
L 1.421875 52.828125 
L 8.84375 52.828125 
L 8.84375 58.796875 
Q 8.84375 66.015625 12.015625 69.1875 
Q 15.1875 72.359375 21.734375 72.359375 
Q 25.390625 72.359375 27.9375 71.78125 
L 27.9375 65.09375 
Q 25.734375 65.484375 24.03125 65.484375 
Q 20.65625 65.484375 19.140625 63.765625 
Q 17.625 62.0625 17.625 57.5625 
L 17.625 52.828125 
L 27.9375 52.828125 
L 27.9375 46.4375 
z
" id="LiberationSans-102"/>
      <path d="M 6.9375 0 
L 6.9375 40.53125 
Q 6.9375 46.09375 6.640625 52.828125 
L 14.9375 52.828125 
Q 15.328125 43.84375 15.328125 42.046875 
L 15.53125 42.046875 
Q 17.625 48.828125 20.359375 51.3125 
Q 23.09375 53.8125 28.078125 53.8125 
Q 29.828125 53.8125 31.640625 53.328125 
L 31.640625 45.265625 
Q 29.890625 45.75 26.953125 45.75 
Q 21.484375 45.75 18.59375 41.03125 
Q 15.71875 36.328125 15.71875 27.546875 
L 15.71875 0 
z
" id="LiberationSans-114"/>
      <path d="M 20.21875 -0.984375 
Q 12.25 -0.984375 8.25 3.21875 
Q 4.25 7.421875 4.25 14.75 
Q 4.25 22.953125 9.640625 27.34375 
Q 15.046875 31.734375 27.046875 32.03125 
L 38.921875 32.234375 
L 38.921875 35.109375 
Q 38.921875 41.546875 36.1875 44.328125 
Q 33.453125 47.125 27.59375 47.125 
Q 21.6875 47.125 19 45.109375 
Q 16.3125 43.109375 15.765625 38.71875 
L 6.59375 39.546875 
Q 8.84375 53.8125 27.78125 53.8125 
Q 37.75 53.8125 42.765625 49.234375 
Q 47.796875 44.671875 47.796875 36.03125 
L 47.796875 13.28125 
Q 47.796875 9.375 48.828125 7.390625 
Q 49.859375 5.421875 52.734375 5.421875 
Q 54 5.421875 55.609375 5.765625 
L 55.609375 0.296875 
Q 52.296875 -0.484375 48.828125 -0.484375 
Q 43.953125 -0.484375 41.71875 2.078125 
Q 39.5 4.640625 39.203125 10.109375 
L 38.921875 10.109375 
Q 35.546875 4.046875 31.078125 1.53125 
Q 26.609375 -0.984375 20.21875 -0.984375 
z
M 22.21875 5.609375 
Q 27.046875 5.609375 30.8125 7.8125 
Q 34.578125 10.015625 36.75 13.84375 
Q 38.921875 17.671875 38.921875 21.734375 
L 38.921875 26.078125 
L 29.296875 25.875 
Q 23.09375 25.78125 19.890625 24.609375 
Q 16.703125 23.4375 14.984375 21 
Q 13.28125 18.5625 13.28125 14.59375 
Q 13.28125 10.296875 15.59375 7.953125 
Q 17.921875 5.609375 22.21875 5.609375 
z
" id="LiberationSans-97"/>
     </defs>
     <g style="fill:#262626;" transform="translate(151.575213 273.725)scale(0.1 -0.1)">
      <use xlink:href="#LiberationSans-116"/>
      <use x="27.783203" xlink:href="#LiberationSans-105"/>
      <use x="50" xlink:href="#LiberationSans-109"/>
      <use x="133.300781" xlink:href="#LiberationSans-101"/>
      <use x="188.916016" xlink:href="#LiberationSans-95"/>
      <use x="244.53125" xlink:href="#LiberationSans-102"/>
      <use x="272.314453" xlink:href="#LiberationSans-114"/>
      <use x="305.615234" xlink:href="#LiberationSans-97"/>
      <use x="361.230469" xlink:href="#LiberationSans-109"/>
      <use x="444.53125" xlink:href="#LiberationSans-101"/>
     </g>
    </g>
   </g>
   <g id="matplotlib.axis_2">
    <g id="ytick_1">
     <g id="line2d_7">
      <defs>
       <path d="M 0 0 
L -6 0 
" id="m31ef8398b0" style="stroke:#262626;stroke-width:0.8;"/>
      </defs>
      <g>
       <use style="fill:#262626;stroke:#262626;stroke-width:0.8;" x="49.7625" xlink:href="#m31ef8398b0" y="225.489746"/>
      </g>
     </g>
     <g id="text_8">
      <!-- −1.0 -->
      <defs>
       <path d="M 4.9375 29.6875 
L 4.9375 36.8125 
L 53.515625 36.8125 
L 53.515625 29.6875 
z
" id="LiberationSans-8722"/>
       <path d="M 9.125 0 
L 9.125 10.6875 
L 18.65625 10.6875 
L 18.65625 0 
z
" id="LiberationSans-46"/>
      </defs>
      <g style="fill:#262626;" transform="translate(20.521875 229.113184)scale(0.1 -0.1)">
       <use xlink:href="#LiberationSans-8722"/>
       <use x="58.398438" xlink:href="#LiberationSans-49"/>
       <use x="114.013672" xlink:href="#LiberationSans-46"/>
       <use x="141.796875" xlink:href="#LiberationSans-48"/>
      </g>
     </g>
    </g>
    <g id="ytick_2">
     <g id="line2d_8">
      <g>
       <use style="fill:#262626;stroke:#262626;stroke-width:0.8;" x="49.7625" xlink:href="#m31ef8398b0" y="179.132998"/>
      </g>
     </g>
     <g id="text_9">
      <!-- −0.5 -->
      <defs>
       <path d="M 51.421875 22.40625 
Q 51.421875 11.53125 44.953125 5.265625 
Q 38.484375 -0.984375 27 -0.984375 
Q 17.390625 -0.984375 11.46875 3.21875 
Q 5.5625 7.421875 4 15.375 
L 12.890625 16.40625 
Q 15.671875 6.203125 27.203125 6.203125 
Q 34.28125 6.203125 38.28125 10.46875 
Q 42.28125 14.75 42.28125 22.21875 
Q 42.28125 28.71875 38.25 32.71875 
Q 34.234375 36.71875 27.390625 36.71875 
Q 23.828125 36.71875 20.75 35.59375 
Q 17.671875 34.46875 14.59375 31.78125 
L 6 31.78125 
L 8.296875 68.796875 
L 47.40625 68.796875 
L 47.40625 61.328125 
L 16.3125 61.328125 
L 14.984375 39.5 
Q 20.703125 43.890625 29.203125 43.890625 
Q 39.359375 43.890625 45.390625 37.9375 
Q 51.421875 31.984375 51.421875 22.40625 
z
" id="LiberationSans-53"/>
      </defs>
      <g style="fill:#262626;" transform="translate(20.521875 182.756436)scale(0.1 -0.1)">
       <use xlink:href="#LiberationSans-8722"/>
       <use x="58.398438" xlink:href="#LiberationSans-48"/>
       <use x="114.013672" xlink:href="#LiberationSans-46"/>
       <use x="141.796875" xlink:href="#LiberationSans-53"/>
      </g>
     </g>
    </g>
    <g id="ytick_3">
     <g id="line2d_9">
      <g>
       <use style="fill:#262626;stroke:#262626;stroke-width:0.8;" x="49.7625" xlink:href="#m31ef8398b0" y="132.77625"/>
      </g>
     </g>
     <g id="text_10">
      <!-- 0.0 -->
      <g style="fill:#262626;" transform="translate(26.3625 136.399687)scale(0.1 -0.1)">
       <use xlink:href="#LiberationSans-48"/>
       <use x="55.615234" xlink:href="#LiberationSans-46"/>
       <use x="83.398438" xlink:href="#LiberationSans-48"/>
      </g>
     </g>
    </g>
    <g id="ytick_4">
     <g id="line2d_10">
      <g>
       <use style="fill:#262626;stroke:#262626;stroke-width:0.8;" x="49.7625" xlink:href="#m31ef8398b0" y="86.419502"/>
      </g>
     </g>
     <g id="text_11">
      <!-- 0.5 -->
      <g style="fill:#262626;" transform="translate(26.3625 90.042939)scale(0.1 -0.1)">
       <use xlink:href="#LiberationSans-48"/>
       <use x="55.615234" xlink:href="#LiberationSans-46"/>
       <use x="83.398438" xlink:href="#LiberationSans-53"/>
      </g>
     </g>
    </g>
    <g id="ytick_5">
     <g id="line2d_11">
      <g>
       <use style="fill:#262626;stroke:#262626;stroke-width:0.8;" x="49.7625" xlink:href="#m31ef8398b0" y="40.062754"/>
      </g>
     </g>
     <g id="text_12">
      <!-- 1.0 -->
      <g style="fill:#262626;" transform="translate(26.3625 43.686191)scale(0.1 -0.1)">
       <use xlink:href="#LiberationSans-49"/>
       <use x="55.615234" xlink:href="#LiberationSans-46"/>
       <use x="83.398438" xlink:href="#LiberationSans-48"/>
      </g>
     </g>
    </g>
    <g id="text_13">
     <!-- analogs -->
     <defs>
      <path d="M 40.28125 0 
L 40.28125 33.5 
Q 40.28125 38.71875 39.25 41.59375 
Q 38.234375 44.484375 35.984375 45.75 
Q 33.734375 47.015625 29.390625 47.015625 
Q 23.046875 47.015625 19.375 42.671875 
Q 15.71875 38.328125 15.71875 30.609375 
L 15.71875 0 
L 6.9375 0 
L 6.9375 41.546875 
Q 6.9375 50.78125 6.640625 52.828125 
L 14.9375 52.828125 
Q 14.984375 52.59375 15.03125 51.515625 
Q 15.09375 50.4375 15.15625 49.046875 
Q 15.234375 47.65625 15.328125 43.796875 
L 15.484375 43.796875 
Q 18.5 49.265625 22.484375 51.53125 
Q 26.46875 53.8125 32.375 53.8125 
Q 41.0625 53.8125 45.09375 49.484375 
Q 49.125 45.171875 49.125 35.203125 
L 49.125 0 
z
" id="LiberationSans-110"/>
      <path d="M 6.734375 0 
L 6.734375 72.46875 
L 15.53125 72.46875 
L 15.53125 0 
z
" id="LiberationSans-108"/>
      <path d="M 51.421875 26.46875 
Q 51.421875 12.59375 45.3125 5.796875 
Q 39.203125 -0.984375 27.59375 -0.984375 
Q 16.015625 -0.984375 10.109375 6.078125 
Q 4.203125 13.140625 4.203125 26.46875 
Q 4.203125 53.8125 27.875 53.8125 
Q 39.984375 53.8125 45.703125 47.140625 
Q 51.421875 40.484375 51.421875 26.46875 
z
M 42.1875 26.46875 
Q 42.1875 37.40625 38.9375 42.359375 
Q 35.6875 47.3125 28.03125 47.3125 
Q 20.3125 47.3125 16.859375 42.25 
Q 13.421875 37.203125 13.421875 26.46875 
Q 13.421875 16.015625 16.8125 10.765625 
Q 20.21875 5.515625 27.484375 5.515625 
Q 35.40625 5.515625 38.796875 10.59375 
Q 42.1875 15.671875 42.1875 26.46875 
z
" id="LiberationSans-111"/>
      <path d="M 26.765625 -20.75 
Q 18.109375 -20.75 12.984375 -17.359375 
Q 7.859375 -13.96875 6.390625 -7.71875 
L 15.234375 -6.453125 
Q 16.109375 -10.109375 19.109375 -12.078125 
Q 22.125 -14.0625 27 -14.0625 
Q 40.140625 -14.0625 40.140625 1.3125 
L 40.140625 9.8125 
L 40.046875 9.8125 
Q 37.546875 4.734375 33.203125 2.171875 
Q 28.859375 -0.390625 23.046875 -0.390625 
Q 13.328125 -0.390625 8.765625 6.046875 
Q 4.203125 12.5 4.203125 26.3125 
Q 4.203125 40.328125 9.109375 46.984375 
Q 14.015625 53.65625 24.03125 53.65625 
Q 29.640625 53.65625 33.765625 51.09375 
Q 37.890625 48.53125 40.140625 43.796875 
L 40.234375 43.796875 
Q 40.234375 45.265625 40.421875 48.875 
Q 40.625 52.484375 40.828125 52.828125 
L 49.171875 52.828125 
Q 48.875 50.203125 48.875 41.890625 
L 48.875 1.515625 
Q 48.875 -20.75 26.765625 -20.75 
z
M 40.140625 26.421875 
Q 40.140625 32.859375 38.375 37.515625 
Q 36.625 42.1875 33.421875 44.65625 
Q 30.21875 47.125 26.171875 47.125 
Q 19.4375 47.125 16.359375 42.234375 
Q 13.28125 37.359375 13.28125 26.421875 
Q 13.28125 15.578125 16.15625 10.84375 
Q 19.046875 6.109375 26.03125 6.109375 
Q 30.171875 6.109375 33.390625 8.546875 
Q 36.625 10.984375 38.375 15.546875 
Q 40.140625 20.125 40.140625 26.421875 
z
" id="LiberationSans-103"/>
      <path d="M 46.390625 14.59375 
Q 46.390625 7.125 40.75 3.0625 
Q 35.109375 -0.984375 24.953125 -0.984375 
Q 15.09375 -0.984375 9.734375 2.265625 
Q 4.390625 5.515625 2.78125 12.40625 
L 10.546875 13.921875 
Q 11.671875 9.671875 15.1875 7.6875 
Q 18.703125 5.71875 24.953125 5.71875 
Q 31.640625 5.71875 34.734375 7.765625 
Q 37.84375 9.8125 37.84375 13.921875 
Q 37.84375 17.046875 35.6875 19 
Q 33.546875 20.953125 28.765625 22.21875 
L 22.46875 23.875 
Q 14.890625 25.828125 11.6875 27.703125 
Q 8.5 29.59375 6.6875 32.28125 
Q 4.890625 34.96875 4.890625 38.875 
Q 4.890625 46.09375 10.03125 49.875 
Q 15.1875 53.65625 25.046875 53.65625 
Q 33.796875 53.65625 38.9375 50.578125 
Q 44.09375 47.515625 45.453125 40.71875 
L 37.546875 39.75 
Q 36.8125 43.265625 33.609375 45.140625 
Q 30.421875 47.015625 25.046875 47.015625 
Q 19.09375 47.015625 16.25 45.203125 
Q 13.421875 43.40625 13.421875 39.75 
Q 13.421875 37.5 14.59375 36.03125 
Q 15.765625 34.578125 18.0625 33.546875 
Q 20.359375 32.515625 27.734375 30.71875 
Q 34.71875 28.953125 37.796875 27.46875 
Q 40.875 25.984375 42.65625 24.171875 
Q 44.4375 22.359375 45.40625 19.984375 
Q 46.390625 17.625 46.390625 14.59375 
z
" id="LiberationSans-115"/>
     </defs>
     <g style="fill:#262626;" transform="translate(14.446875 150.289531)rotate(-90)scale(0.1 -0.1)">
      <use xlink:href="#LiberationSans-97"/>
      <use x="55.615234" xlink:href="#LiberationSans-110"/>
      <use x="111.230469" xlink:href="#LiberationSans-97"/>
      <use x="166.845703" xlink:href="#LiberationSans-108"/>
      <use x="189.0625" xlink:href="#LiberationSans-111"/>
      <use x="244.677734" xlink:href="#LiberationSans-103"/>
      <use x="300.292969" xlink:href="#LiberationSans-115"/>
     </g>
    </g>
   </g>
   <g id="line2d_12">
    <path clip-path="url(#pb9d6783a6b)" d="M 61.291426 132.77625 
L 63.620502 121.505159 
L 65.949577 112.33859 
L 68.278653 106.585896 
L 70.607729 104.269779 
L 72.936805 104.126204 
L 75.265881 104.095698 
L 77.594957 102.118341 
L 79.924033 96.92876 
L 82.253109 88.547437 
L 84.582184 78.280624 
L 86.91126 68.228881 
L 89.240336 60.491917 
L 91.569412 56.373443 
L 93.898488 55.889711 
L 96.227564 57.769456 
L 98.55664 59.945219 
L 100.885716 60.348371 
L 103.214792 57.704148 
L 105.543867 52.022984 
L 107.872943 44.600475 
L 110.202019 37.525956 
L 112.531095 32.887387 
L 114.860171 31.97625 
L 117.189247 34.79614 
L 119.518323 40.062754 
L 121.847399 45.695265 
L 124.176474 49.611405 
L 126.50555 50.522542 
L 128.834626 48.425081 
L 131.163702 44.600475 
L 133.492778 41.123859 
L 135.821854 40.068993 
L 138.15093 42.713217 
L 140.480006 49.046094 
L 142.809082 57.769456 
L 145.138157 66.788836 
L 147.467233 74.008597 
L 149.796309 78.127072 
L 152.125385 79.128006 
L 154.454461 78.280624 
L 156.783537 77.648312 
L 159.112613 79.293605 
L 161.441689 84.483186 
L 163.770764 93.196573 
L 166.09984 104.126204 
L 168.428916 115.168904 
L 170.757992 124.221051 
L 173.087068 129.973745 
L 175.416144 132.404284 
L 177.74522 132.77625 
L 180.074296 133.148216 
L 182.403372 135.578755 
L 184.732447 141.331449 
L 187.061523 150.383596 
L 189.390599 161.426296 
L 191.719675 172.355927 
L 194.048751 181.069314 
L 196.377827 186.258895 
L 198.706903 187.904188 
L 201.035979 187.271876 
L 203.365054 186.424494 
L 205.69413 187.425428 
L 208.023206 191.543903 
L 210.352282 198.763664 
L 212.681358 207.783044 
L 215.010434 216.506406 
L 217.33951 222.839283 
L 219.668586 225.483507 
L 221.997662 224.428641 
L 224.326737 220.952025 
L 226.655813 217.127419 
L 228.984889 215.029958 
L 231.313965 215.941095 
L 233.643041 219.857235 
L 235.972117 225.489746 
L 238.301193 230.75636 
L 240.630269 233.57625 
L 242.959344 232.665113 
L 245.28842 228.026544 
L 247.617496 220.952025 
L 249.946572 213.529516 
L 252.275648 207.848352 
L 254.604724 205.204129 
L 256.9338 205.607281 
L 259.262876 207.783044 
L 261.591952 209.662789 
L 263.921027 209.179057 
L 266.250103 205.060583 
L 268.579179 197.323619 
L 270.908255 187.271876 
L 273.237331 177.005063 
L 275.566407 168.62374 
L 277.895483 163.434159 
L 280.224559 161.456802 
L 282.553634 161.426296 
L 284.88271 161.282721 
L 287.211786 158.966604 
L 289.540862 153.21391 
L 291.869938 144.047341 
" style="fill:none;stroke:#000000;stroke-linecap:round;stroke-width:1.5;"/>
   </g>
   <g id="line2d_13">
    <path clip-path="url(#pb9d6783a6b)" d="M 61.291426 133.846697 
L 63.620502 127.677187 
L 65.949577 121.584731 
L 68.278653 115.691291 
L 70.607729 110.041159 
L 72.936805 104.602259 
L 75.265881 99.293812 
L 77.594957 94.030161 
L 79.924033 88.764446 
L 82.253109 83.515849 
L 84.582184 78.37037 
L 86.91126 73.455131 
L 89.240336 68.896277 
L 91.569412 64.776715 
L 93.898488 61.109969 
L 96.227564 57.84021 
L 98.55664 54.868471 
L 100.885716 52.095063 
L 103.214792 49.461964 
L 105.543867 46.978969 
L 107.872943 44.723583 
L 110.202019 42.814659 
L 112.531095 41.369817 
L 114.860171 40.462879 
L 117.189247 40.097555 
L 119.518323 40.207393 
L 121.847399 40.682017 
L 124.176474 41.4096 
L 126.50555 42.319349 
L 128.834626 43.407776 
L 131.163702 44.738707 
L 133.492778 46.417042 
L 135.821854 48.546294 
L 138.15093 51.186129 
L 140.480006 54.326142 
L 142.809082 57.885904 
L 145.138157 61.741272 
L 147.467233 65.766932 
L 149.796309 69.878948 
L 152.125385 74.061084 
L 154.454461 78.364872 
L 156.783537 82.883416 
L 159.112613 87.708972 
L 161.441689 92.890536 
L 163.770764 98.407655 
L 166.09984 104.170509 
L 168.428916 110.046259 
L 170.757992 115.901618 
L 173.087068 121.645435 
L 175.416144 127.255038 
L 177.74522 132.77633 
L 180.074296 138.297613 
L 182.403372 143.907189 
L 184.732447 149.650957 
L 187.061523 155.506244 
L 189.390599 161.381893 
L 191.719675 167.144615 
L 194.048751 172.661566 
L 196.377827 177.842928 
L 198.706903 182.668253 
L 201.035979 187.186543 
L 203.365054 191.490075 
L 205.69413 195.671984 
L 208.023206 199.783842 
L 210.352282 203.809473 
L 212.681358 207.665016 
L 215.010434 211.225249 
L 217.33951 214.366134 
L 219.668586 217.007357 
L 221.997662 219.13863 
L 224.326737 220.819718 
L 226.655813 222.154199 
L 228.984889 223.246973 
L 231.313965 224.16177 
L 233.643041 224.894858 
L 235.972117 225.375013 
L 238.301193 225.489729 
L 240.630269 225.127653 
L 242.959344 224.221017 
L 245.28842 222.771843 
L 247.617496 220.851907 
L 249.946572 218.576471 
L 252.275648 216.061845 
L 254.604724 213.38302 
L 256.9338 210.547638 
L 259.262876 207.496352 
L 261.591952 204.129611 
L 263.921027 200.350846 
L 266.250103 196.109847 
L 268.579179 191.430086 
L 270.908255 186.409911 
L 273.237331 181.197538 
L 275.566407 175.949745 
L 277.895483 170.790286 
L 280.224559 165.784006 
L 282.553634 160.936311 
L 284.88271 156.217564 
L 287.211786 151.601838 
L 289.540862 147.103228 
L 291.869938 142.792865 
" style="fill:none;stroke:#ff0000;stroke-linecap:round;stroke-width:1.5;"/>
   </g>
   <g id="patch_3">
    <path d="M 49.7625 243.65625 
L 49.7625 21.89625 
" style="fill:none;stroke:#262626;stroke-linecap:square;stroke-linejoin:miter;stroke-width:1.25;"/>
   </g>
   <g id="patch_4">
    <path d="M 49.7625 243.65625 
L 303.398864 243.65625 
" style="fill:none;stroke:#262626;stroke-linecap:square;stroke-linejoin:miter;stroke-width:1.25;"/>
   </g>
   <g id="text_14">
    <!-- Signal vs. Time -->
    <defs>
     <path d="M 62.109375 19 
Q 62.109375 9.46875 54.65625 4.234375 
Q 47.21875 -0.984375 33.6875 -0.984375 
Q 8.546875 -0.984375 4.546875 16.5 
L 13.578125 18.3125 
Q 15.140625 12.109375 20.21875 9.203125 
Q 25.296875 6.296875 34.03125 6.296875 
Q 43.0625 6.296875 47.96875 9.390625 
Q 52.875 12.5 52.875 18.5 
Q 52.875 21.875 51.34375 23.96875 
Q 49.8125 26.078125 47.015625 27.4375 
Q 44.234375 28.8125 40.375 29.734375 
Q 36.53125 30.671875 31.84375 31.734375 
Q 23.6875 33.546875 19.453125 35.34375 
Q 15.234375 37.15625 12.796875 39.375 
Q 10.359375 41.609375 9.0625 44.578125 
Q 7.765625 47.5625 7.765625 51.421875 
Q 7.765625 60.25 14.53125 65.03125 
Q 21.296875 69.828125 33.890625 69.828125 
Q 45.609375 69.828125 51.8125 66.234375 
Q 58.015625 62.640625 60.5 54 
L 51.3125 52.390625 
Q 49.8125 57.859375 45.5625 60.328125 
Q 41.3125 62.796875 33.796875 62.796875 
Q 25.53125 62.796875 21.1875 60.0625 
Q 16.84375 57.328125 16.84375 51.90625 
Q 16.84375 48.734375 18.53125 46.65625 
Q 20.21875 44.578125 23.390625 43.140625 
Q 26.5625 41.703125 36.03125 39.59375 
Q 39.203125 38.875 42.359375 38.109375 
Q 45.515625 37.359375 48.390625 36.296875 
Q 51.265625 35.25 53.78125 33.828125 
Q 56.296875 32.421875 58.15625 30.375 
Q 60.015625 28.328125 61.0625 25.53125 
Q 62.109375 22.75 62.109375 19 
z
" id="LiberationSans-83"/>
     <path id="LiberationSans-32"/>
     <path d="M 29.9375 0 
L 19.53125 0 
L 0.34375 52.828125 
L 9.71875 52.828125 
L 21.34375 18.453125 
Q 21.96875 16.5 24.703125 6.890625 
L 26.421875 12.59375 
L 28.328125 18.359375 
L 40.328125 52.828125 
L 49.65625 52.828125 
z
" id="LiberationSans-118"/>
     <path d="M 35.15625 61.1875 
L 35.15625 0 
L 25.875 0 
L 25.875 61.1875 
L 2.25 61.1875 
L 2.25 68.796875 
L 58.796875 68.796875 
L 58.796875 61.1875 
z
" id="LiberationSans-84"/>
    </defs>
    <g style="fill:#262626;" transform="translate(135.899744 15.89625)scale(0.12 -0.12)">
     <use xlink:href="#LiberationSans-83"/>
     <use x="66.699219" xlink:href="#LiberationSans-105"/>
     <use x="88.916016" xlink:href="#LiberationSans-103"/>
     <use x="144.53125" xlink:href="#LiberationSans-110"/>
     <use x="200.146484" xlink:href="#LiberationSans-97"/>
     <use x="255.761719" xlink:href="#LiberationSans-108"/>
     <use x="277.978516" xlink:href="#LiberationSans-32"/>
     <use x="305.761719" xlink:href="#LiberationSans-118"/>
     <use x="355.761719" xlink:href="#LiberationSans-115"/>
     <use x="405.761719" xlink:href="#LiberationSans-46"/>
     <use x="433.544922" xlink:href="#LiberationSans-32"/>
     <use x="459.578125" xlink:href="#LiberationSans-84"/>
     <use x="516.912109" xlink:href="#LiberationSans-105"/>
     <use x="539.128906" xlink:href="#LiberationSans-109"/>
     <use x="622.429688" xlink:href="#LiberationSans-101"/>
    </g>
   </g>
  </g>
  <g id="axes_2">
   <g id="patch_5">
    <path d="M 354.126136 243.65625 
L 607.7625 243.65625 
L 607.7625 21.89625 
L 354.126136 21.89625 
z
" style="fill:#ffffff;"/>
   </g>
   <g id="matplotlib.axis_3">
    <g id="xtick_7">
     <g id="line2d_14">
      <g>
       <use style="fill:#262626;stroke:#262626;stroke-width:0.8;" x="365.655062" xlink:href="#mc7f41eaa0d" y="243.65625"/>
      </g>
     </g>
     <g id="text_15">
      <!-- 0 -->
      <g style="fill:#262626;" transform="translate(362.874593 260.403125)scale(0.1 -0.1)">
       <use xlink:href="#LiberationSans-48"/>
      </g>
     </g>
    </g>
    <g id="xtick_8">
     <g id="line2d_15">
      <g>
       <use style="fill:#262626;stroke:#262626;stroke-width:0.8;" x="412.711901" xlink:href="#mc7f41eaa0d" y="243.65625"/>
      </g>
     </g>
     <g id="text_16">
      <!-- 10 -->
      <g style="fill:#262626;" transform="translate(407.150964 260.403125)scale(0.1 -0.1)">
       <use xlink:href="#LiberationSans-49"/>
       <use x="55.615234" xlink:href="#LiberationSans-48"/>
      </g>
     </g>
    </g>
    <g id="xtick_9">
     <g id="line2d_16">
      <g>
       <use style="fill:#262626;stroke:#262626;stroke-width:0.8;" x="459.768741" xlink:href="#mc7f41eaa0d" y="243.65625"/>
      </g>
     </g>
     <g id="text_17">
      <!-- 20 -->
      <g style="fill:#262626;" transform="translate(454.207803 260.403125)scale(0.1 -0.1)">
       <use xlink:href="#LiberationSans-50"/>
       <use x="55.615234" xlink:href="#LiberationSans-48"/>
      </g>
     </g>
    </g>
    <g id="xtick_10">
     <g id="line2d_17">
      <g>
       <use style="fill:#262626;stroke:#262626;stroke-width:0.8;" x="506.82558" xlink:href="#mc7f41eaa0d" y="243.65625"/>
      </g>
     </g>
     <g id="text_18">
      <!-- 30 -->
      <defs>
       <path d="M 51.21875 19 
Q 51.21875 9.46875 45.15625 4.234375 
Q 39.109375 -0.984375 27.875 -0.984375 
Q 17.4375 -0.984375 11.203125 3.734375 
Q 4.984375 8.453125 3.8125 17.671875 
L 12.890625 18.5 
Q 14.65625 6.296875 27.875 6.296875 
Q 34.515625 6.296875 38.296875 9.5625 
Q 42.09375 12.84375 42.09375 19.28125 
Q 42.09375 24.90625 37.765625 28.046875 
Q 33.453125 31.203125 25.296875 31.203125 
L 20.3125 31.203125 
L 20.3125 38.8125 
L 25.09375 38.8125 
Q 32.328125 38.8125 36.296875 41.96875 
Q 40.28125 45.125 40.28125 50.6875 
Q 40.28125 56.203125 37.03125 59.390625 
Q 33.796875 62.59375 27.390625 62.59375 
Q 21.578125 62.59375 17.984375 59.609375 
Q 14.40625 56.640625 13.8125 51.21875 
L 4.984375 51.90625 
Q 5.953125 60.359375 11.984375 65.09375 
Q 18.015625 69.828125 27.484375 69.828125 
Q 37.84375 69.828125 43.578125 65.015625 
Q 49.3125 60.203125 49.3125 51.609375 
Q 49.3125 45.015625 45.625 40.890625 
Q 41.9375 36.765625 34.90625 35.296875 
L 34.90625 35.109375 
Q 42.625 34.28125 46.921875 29.9375 
Q 51.21875 25.59375 51.21875 19 
z
" id="LiberationSans-51"/>
      </defs>
      <g style="fill:#262626;" transform="translate(501.264642 260.403125)scale(0.1 -0.1)">
       <use xlink:href="#LiberationSans-51"/>
       <use x="55.615234" xlink:href="#LiberationSans-48"/>
      </g>
     </g>
    </g>
    <g id="xtick_11">
     <g id="line2d_18">
      <g>
       <use style="fill:#262626;stroke:#262626;stroke-width:0.8;" x="553.882419" xlink:href="#mc7f41eaa0d" y="243.65625"/>
      </g>
     </g>
     <g id="text_19">
      <!-- 40 -->
      <g style="fill:#262626;" transform="translate(548.321482 260.403125)scale(0.1 -0.1)">
       <use xlink:href="#LiberationSans-52"/>
       <use x="55.615234" xlink:href="#LiberationSans-48"/>
      </g>
     </g>
    </g>
    <g id="xtick_12">
     <g id="line2d_19">
      <g>
       <use style="fill:#262626;stroke:#262626;stroke-width:0.8;" x="600.939258" xlink:href="#mc7f41eaa0d" y="243.65625"/>
      </g>
     </g>
     <g id="text_20">
      <!-- 50 -->
      <g style="fill:#262626;" transform="translate(595.378321 260.403125)scale(0.1 -0.1)">
       <use xlink:href="#LiberationSans-53"/>
       <use x="55.615234" xlink:href="#LiberationSans-48"/>
      </g>
     </g>
    </g>
    <g id="text_21">
     <!-- freq -->
     <defs>
      <path d="M 23.640625 -0.984375 
Q 13.578125 -0.984375 8.890625 5.796875 
Q 4.203125 12.59375 4.203125 26.171875 
Q 4.203125 53.8125 23.640625 53.8125 
Q 29.640625 53.8125 33.546875 51.6875 
Q 37.453125 49.5625 40.09375 44.625 
L 40.1875 44.625 
Q 40.1875 46.09375 40.375 49.671875 
Q 40.578125 53.265625 40.765625 53.515625 
L 49.21875 53.515625 
Q 48.875 50.640625 48.875 39.109375 
L 48.875 -20.75 
L 40.09375 -20.75 
L 40.09375 0.6875 
L 40.28125 8.6875 
L 40.1875 8.6875 
Q 37.546875 3.46875 33.6875 1.234375 
Q 29.828125 -0.984375 23.640625 -0.984375 
z
M 40.09375 27.046875 
Q 40.09375 37.359375 36.71875 42.328125 
Q 33.34375 47.3125 25.984375 47.3125 
Q 19.28125 47.3125 16.34375 42.328125 
Q 13.421875 37.359375 13.421875 26.46875 
Q 13.421875 15.375 16.375 10.59375 
Q 19.34375 5.8125 25.875 5.8125 
Q 33.34375 5.8125 36.71875 11.125 
Q 40.09375 16.453125 40.09375 27.046875 
z
" id="LiberationSans-113"/>
     </defs>
     <g style="fill:#262626;" transform="translate(472.329474 273.725)scale(0.1 -0.1)">
      <use xlink:href="#LiberationSans-102"/>
      <use x="27.783203" xlink:href="#LiberationSans-114"/>
      <use x="61.083984" xlink:href="#LiberationSans-101"/>
      <use x="116.699219" xlink:href="#LiberationSans-113"/>
     </g>
    </g>
   </g>
   <g id="matplotlib.axis_4">
    <g id="ytick_6">
     <g id="line2d_20">
      <g>
       <use style="fill:#262626;stroke:#262626;stroke-width:0.8;" x="354.126136" xlink:href="#m31ef8398b0" y="233.57625"/>
      </g>
     </g>
     <g id="text_22">
      <!-- 0.0 -->
      <g style="fill:#262626;" transform="translate(330.726136 237.199688)scale(0.1 -0.1)">
       <use xlink:href="#LiberationSans-48"/>
       <use x="55.615234" xlink:href="#LiberationSans-46"/>
       <use x="83.398438" xlink:href="#LiberationSans-48"/>
      </g>
     </g>
    </g>
    <g id="ytick_7">
     <g id="line2d_21">
      <g>
       <use style="fill:#262626;stroke:#262626;stroke-width:0.8;" x="354.126136" xlink:href="#m31ef8398b0" y="193.25625"/>
      </g>
     </g>
     <g id="text_23">
      <!-- 0.2 -->
      <g style="fill:#262626;" transform="translate(330.726136 196.879687)scale(0.1 -0.1)">
       <use xlink:href="#LiberationSans-48"/>
       <use x="55.615234" xlink:href="#LiberationSans-46"/>
       <use x="83.398438" xlink:href="#LiberationSans-50"/>
      </g>
     </g>
    </g>
    <g id="ytick_8">
     <g id="line2d_22">
      <g>
       <use style="fill:#262626;stroke:#262626;stroke-width:0.8;" x="354.126136" xlink:href="#m31ef8398b0" y="152.93625"/>
      </g>
     </g>
     <g id="text_24">
      <!-- 0.4 -->
      <g style="fill:#262626;" transform="translate(330.726136 156.559687)scale(0.1 -0.1)">
       <use xlink:href="#LiberationSans-48"/>
       <use x="55.615234" xlink:href="#LiberationSans-46"/>
       <use x="83.398438" xlink:href="#LiberationSans-52"/>
      </g>
     </g>
    </g>
    <g id="ytick_9">
     <g id="line2d_23">
      <g>
       <use style="fill:#262626;stroke:#262626;stroke-width:0.8;" x="354.126136" xlink:href="#m31ef8398b0" y="112.61625"/>
      </g>
     </g>
     <g id="text_25">
      <!-- 0.6 -->
      <g style="fill:#262626;" transform="translate(330.726136 116.239687)scale(0.1 -0.1)">
       <use xlink:href="#LiberationSans-48"/>
       <use x="55.615234" xlink:href="#LiberationSans-46"/>
       <use x="83.398438" xlink:href="#LiberationSans-54"/>
      </g>
     </g>
    </g>
    <g id="ytick_10">
     <g id="line2d_24">
      <g>
       <use style="fill:#262626;stroke:#262626;stroke-width:0.8;" x="354.126136" xlink:href="#m31ef8398b0" y="72.29625"/>
      </g>
     </g>
     <g id="text_26">
      <!-- 0.8 -->
      <g style="fill:#262626;" transform="translate(330.726136 75.919687)scale(0.1 -0.1)">
       <use xlink:href="#LiberationSans-48"/>
       <use x="55.615234" xlink:href="#LiberationSans-46"/>
       <use x="83.398438" xlink:href="#LiberationSans-56"/>
      </g>
     </g>
    </g>
    <g id="ytick_11">
     <g id="line2d_25">
      <g>
       <use style="fill:#262626;stroke:#262626;stroke-width:0.8;" x="354.126136" xlink:href="#m31ef8398b0" y="31.97625"/>
      </g>
     </g>
     <g id="text_27">
      <!-- 1.0 -->
      <g style="fill:#262626;" transform="translate(330.726136 35.599687)scale(0.1 -0.1)">
       <use xlink:href="#LiberationSans-49"/>
       <use x="55.615234" xlink:href="#LiberationSans-46"/>
       <use x="83.398438" xlink:href="#LiberationSans-48"/>
      </g>
     </g>
    </g>
   </g>
   <g id="line2d_26">
    <path clip-path="url(#p9e47a3771d)" d="M 365.655062 233.57625 
L 370.360746 31.97625 
L 375.06643 233.57625 
L 379.772114 233.57625 
L 384.477798 233.57625 
L 389.183482 233.57625 
L 393.889166 233.57625 
L 398.594849 233.57625 
L 403.300533 233.57625 
L 408.006217 233.57625 
L 412.711901 213.41625 
L 417.417585 233.57625 
L 422.123269 233.57625 
L 426.828953 233.57625 
L 431.534637 233.57625 
L 436.240321 233.57625 
L 440.946005 233.57625 
L 445.651689 233.57625 
L 450.357373 233.57625 
L 455.063057 233.57625 
L 459.768741 233.57625 
L 464.474424 233.57625 
L 469.180108 233.57625 
L 473.885792 233.57625 
L 478.591476 233.57625 
L 483.29716 233.57625 
L 488.002844 233.57625 
L 492.708528 233.57625 
L 497.414212 233.57625 
L 502.119896 233.57625 
L 506.82558 233.57625 
L 511.531264 233.57625 
L 516.236948 233.57625 
L 520.942632 233.57625 
L 525.648315 233.57625 
L 530.353999 233.57625 
L 535.059683 233.57625 
L 539.765367 233.57625 
L 544.471051 233.57625 
L 549.176735 233.57625 
L 553.882419 233.57625 
L 558.588103 233.57625 
L 563.293787 233.57625 
L 567.999471 233.57625 
L 572.705155 233.57625 
L 577.410839 233.57625 
L 582.116523 233.57625 
L 586.822207 233.57625 
L 591.52789 233.57625 
L 596.233574 233.57625 
" style="fill:none;stroke:#000000;stroke-linecap:round;stroke-width:1.5;"/>
   </g>
   <g id="line2d_27">
    <path clip-path="url(#p9e47a3771d)" d="M 365.655062 233.325811 
L 370.360746 32.429894 
L 375.06643 233.105751 
L 379.772114 232.975613 
L 384.477798 232.930526 
L 389.183482 232.977665 
L 393.889166 233.06487 
L 398.594849 233.147834 
L 403.300533 233.212854 
L 408.006217 233.261354 
L 412.711901 232.265072 
L 417.417585 233.325872 
L 422.123269 233.348145 
L 426.828953 233.366266 
L 431.534637 233.381326 
L 436.240321 233.394059 
L 440.946005 233.404977 
L 445.651689 233.414446 
L 450.357373 233.422736 
L 455.063057 233.430051 
L 459.768741 233.436547 
L 464.474424 233.442349 
L 469.180108 233.447555 
L 473.885792 233.452246 
L 478.591476 233.456487 
L 483.29716 233.460332 
L 488.002844 233.463827 
L 492.708528 233.46701 
L 497.414212 233.469914 
L 502.119896 233.472567 
L 506.82558 233.474991 
L 511.531264 233.477208 
L 516.236948 233.479236 
L 520.942632 233.481089 
L 525.648315 233.482782 
L 530.353999 233.484327 
L 535.059683 233.485733 
L 539.765367 233.487009 
L 544.471051 233.488164 
L 549.176735 233.489205 
L 553.882419 233.490137 
L 558.588103 233.490966 
L 563.293787 233.491696 
L 567.999471 233.492332 
L 572.705155 233.492877 
L 577.410839 233.493333 
L 582.116523 233.493703 
L 586.822207 233.493989 
L 591.52789 233.494192 
L 596.233574 233.494314 
" style="fill:none;stroke:#ff0000;stroke-linecap:round;stroke-width:1.5;"/>
   </g>
   <g id="patch_6">
    <path d="M 354.126136 243.65625 
L 354.126136 21.89625 
" style="fill:none;stroke:#262626;stroke-linecap:square;stroke-linejoin:miter;stroke-width:1.25;"/>
   </g>
   <g id="patch_7">
    <path d="M 354.126136 243.65625 
L 607.7625 243.65625 
" style="fill:none;stroke:#262626;stroke-linecap:square;stroke-linejoin:miter;stroke-width:1.25;"/>
   </g>
   <g id="text_28">
    <!-- Amplitudes vs. Freq -->
    <defs>
     <path d="M 56.984375 0 
L 49.125 20.125 
L 17.78125 20.125 
L 9.859375 0 
L 0.203125 0 
L 28.265625 68.796875 
L 38.875 68.796875 
L 66.5 0 
z
M 33.453125 61.765625 
L 33.015625 60.40625 
Q 31.78125 56.34375 29.390625 50 
L 20.609375 27.390625 
L 46.34375 27.390625 
L 37.5 50.09375 
Q 36.140625 53.46875 34.765625 57.71875 
z
" id="LiberationSans-65"/>
     <path d="M 51.421875 26.65625 
Q 51.421875 -0.984375 31.984375 -0.984375 
Q 19.78125 -0.984375 15.578125 8.203125 
L 15.328125 8.203125 
Q 15.53125 7.8125 15.53125 -0.09375 
L 15.53125 -20.75 
L 6.734375 -20.75 
L 6.734375 42.046875 
Q 6.734375 50.203125 6.453125 52.828125 
L 14.9375 52.828125 
Q 14.984375 52.640625 15.078125 51.4375 
Q 15.1875 50.25 15.3125 47.75 
Q 15.4375 45.265625 15.4375 44.34375 
L 15.625 44.34375 
Q 17.96875 49.21875 21.828125 51.484375 
Q 25.6875 53.765625 31.984375 53.765625 
Q 41.75 53.765625 46.578125 47.21875 
Q 51.421875 40.671875 51.421875 26.65625 
z
M 42.1875 26.46875 
Q 42.1875 37.5 39.203125 42.234375 
Q 36.234375 46.96875 29.734375 46.96875 
Q 24.515625 46.96875 21.5625 44.765625 
Q 18.609375 42.578125 17.0625 37.90625 
Q 15.53125 33.25 15.53125 25.78125 
Q 15.53125 15.375 18.84375 10.4375 
Q 22.171875 5.515625 29.640625 5.515625 
Q 36.1875 5.515625 39.1875 10.328125 
Q 42.1875 15.140625 42.1875 26.46875 
z
" id="LiberationSans-112"/>
     <path d="M 15.328125 52.828125 
L 15.328125 19.34375 
Q 15.328125 14.109375 16.359375 11.21875 
Q 17.390625 8.34375 19.625 7.078125 
Q 21.875 5.8125 26.21875 5.8125 
Q 32.5625 5.8125 36.21875 10.15625 
Q 39.890625 14.5 39.890625 22.21875 
L 39.890625 52.828125 
L 48.6875 52.828125 
L 48.6875 11.28125 
Q 48.6875 2.046875 48.96875 0 
L 40.671875 0 
Q 40.625 0.25 40.578125 1.3125 
Q 40.53125 2.390625 40.453125 3.78125 
Q 40.375 5.171875 40.28125 9.03125 
L 40.140625 9.03125 
Q 37.109375 3.5625 33.125 1.28125 
Q 29.15625 -0.984375 23.25 -0.984375 
Q 14.546875 -0.984375 10.515625 3.34375 
Q 6.5 7.671875 6.5 17.625 
L 6.5 52.828125 
z
" id="LiberationSans-117"/>
     <path d="M 40.09375 8.5 
Q 37.640625 3.421875 33.609375 1.21875 
Q 29.59375 -0.984375 23.640625 -0.984375 
Q 13.625 -0.984375 8.90625 5.75 
Q 4.203125 12.5 4.203125 26.171875 
Q 4.203125 53.8125 23.640625 53.8125 
Q 29.640625 53.8125 33.640625 51.609375 
Q 37.640625 49.421875 40.09375 44.625 
L 40.1875 44.625 
L 40.09375 50.53125 
L 40.09375 72.46875 
L 48.875 72.46875 
L 48.875 10.890625 
Q 48.875 2.640625 49.171875 0 
L 40.765625 0 
Q 40.625 0.78125 40.453125 3.609375 
Q 40.28125 6.453125 40.28125 8.5 
z
M 13.421875 26.46875 
Q 13.421875 15.375 16.34375 10.59375 
Q 19.28125 5.8125 25.875 5.8125 
Q 33.34375 5.8125 36.71875 10.984375 
Q 40.09375 16.15625 40.09375 27.046875 
Q 40.09375 37.546875 36.71875 42.421875 
Q 33.34375 47.3125 25.984375 47.3125 
Q 19.34375 47.3125 16.375 42.40625 
Q 13.421875 37.5 13.421875 26.46875 
z
" id="LiberationSans-100"/>
     <path d="M 17.53125 61.1875 
L 17.53125 35.59375 
L 55.90625 35.59375 
L 55.90625 27.875 
L 17.53125 27.875 
L 17.53125 0 
L 8.203125 0 
L 8.203125 68.796875 
L 57.078125 68.796875 
L 57.078125 61.1875 
z
" id="LiberationSans-70"/>
    </defs>
    <g style="fill:#262626;" transform="translate(427.928693 15.89625)scale(0.12 -0.12)">
     <use xlink:href="#LiberationSans-65"/>
     <use x="66.699219" xlink:href="#LiberationSans-109"/>
     <use x="150" xlink:href="#LiberationSans-112"/>
     <use x="205.615234" xlink:href="#LiberationSans-108"/>
     <use x="227.832031" xlink:href="#LiberationSans-105"/>
     <use x="250.048828" xlink:href="#LiberationSans-116"/>
     <use x="277.832031" xlink:href="#LiberationSans-117"/>
     <use x="333.447266" xlink:href="#LiberationSans-100"/>
     <use x="389.0625" xlink:href="#LiberationSans-101"/>
     <use x="444.677734" xlink:href="#LiberationSans-115"/>
     <use x="494.677734" xlink:href="#LiberationSans-32"/>
     <use x="522.460938" xlink:href="#LiberationSans-118"/>
     <use x="572.460938" xlink:href="#LiberationSans-115"/>
     <use x="622.460938" xlink:href="#LiberationSans-46"/>
     <use x="650.244141" xlink:href="#LiberationSans-32"/>
     <use x="678.027344" xlink:href="#LiberationSans-70"/>
     <use x="739.111328" xlink:href="#LiberationSans-114"/>
     <use x="772.412109" xlink:href="#LiberationSans-101"/>
     <use x="828.027344" xlink:href="#LiberationSans-113"/>
    </g>
   </g>
   <g id="legend_1">
    <g id="line2d_28">
     <path d="M 497.815625 34.643125 
L 517.815625 34.643125 
" style="fill:none;stroke:#000000;stroke-linecap:round;stroke-width:1.5;"/>
    </g>
    <g id="line2d_29"/>
    <g id="text_29">
     <!-- raw -->
     <defs>
      <path d="M 57.328125 0 
L 47.125 0 
L 37.890625 37.359375 
L 36.140625 45.609375 
Q 35.6875 43.40625 34.765625 39.28125 
Q 33.84375 35.15625 24.8125 0 
L 14.65625 0 
L -0.140625 52.828125 
L 8.546875 52.828125 
L 17.484375 16.9375 
Q 17.828125 15.765625 19.578125 7.28125 
L 20.40625 10.890625 
L 31.453125 52.828125 
L 40.875 52.828125 
L 50.09375 16.546875 
L 52.34375 7.28125 
L 53.859375 14.0625 
L 63.875 52.828125 
L 72.46875 52.828125 
z
" id="LiberationSans-119"/>
     </defs>
     <g style="fill:#262626;" transform="translate(525.815625 38.143125)scale(0.1 -0.1)">
      <use xlink:href="#LiberationSans-114"/>
      <use x="33.300781" xlink:href="#LiberationSans-97"/>
      <use x="88.916016" xlink:href="#LiberationSans-119"/>
     </g>
    </g>
    <g id="line2d_30">
     <path d="M 497.815625 48.965 
L 517.815625 48.965 
" style="fill:none;stroke:#ff0000;stroke-linecap:round;stroke-width:1.5;"/>
    </g>
    <g id="line2d_31"/>
    <g id="text_30">
     <!-- low-pass @ 5Hz -->
     <defs>
      <path d="M 4.4375 22.65625 
L 4.4375 30.46875 
L 28.859375 30.46875 
L 28.859375 22.65625 
z
" id="LiberationSans-45"/>
      <path d="M 92.875 36.859375 
Q 92.875 27.78125 90.0625 20.4375 
Q 87.25 13.09375 82.25 9.078125 
Q 77.25 5.078125 71.046875 5.078125 
Q 66.21875 5.078125 63.578125 7.21875 
Q 60.9375 9.375 60.9375 13.671875 
L 61.078125 17.09375 
L 60.796875 17.09375 
Q 57.5625 11.078125 52.796875 8.078125 
Q 48.046875 5.078125 42.53125 5.078125 
Q 34.859375 5.078125 30.640625 10.0625 
Q 26.421875 15.046875 26.421875 23.875 
Q 26.421875 31.890625 29.5625 38.765625 
Q 32.71875 45.65625 38.375 49.703125 
Q 44.046875 53.765625 50.921875 53.765625 
Q 61.625 53.765625 65.625 44.875 
L 65.921875 44.875 
L 67.828125 52.6875 
L 75.4375 52.6875 
L 69.78125 27.984375 
Q 67.96875 19.96875 67.96875 15.625 
Q 67.96875 11.03125 71.921875 11.03125 
Q 75.828125 11.03125 79.125 14.40625 
Q 82.421875 17.78125 84.328125 23.6875 
Q 86.234375 29.59375 86.234375 36.765625 
Q 86.234375 45.515625 82.46875 52.265625 
Q 78.71875 59.03125 71.625 62.671875 
Q 64.546875 66.3125 55.078125 66.3125 
Q 43.265625 66.3125 34.171875 61.078125 
Q 25.09375 55.859375 19.921875 46.015625 
Q 14.75 36.1875 14.75 23.96875 
Q 14.75 14.546875 18.578125 7.34375 
Q 22.40625 0.140625 29.65625 -3.703125 
Q 36.921875 -7.5625 46.578125 -7.5625 
Q 53.65625 -7.5625 60.9375 -5.734375 
Q 68.21875 -3.90625 76.03125 0.34375 
L 78.71875 -5.125 
Q 71.625 -9.375 63.34375 -11.59375 
Q 55.078125 -13.8125 46.578125 -13.8125 
Q 34.8125 -13.8125 26 -9.15625 
Q 17.1875 -4.5 12.515625 4.125 
Q 7.859375 12.75 7.859375 23.96875 
Q 7.859375 37.640625 13.9375 48.828125 
Q 20.015625 60.015625 30.8125 66.234375 
Q 41.609375 72.46875 54.984375 72.46875 
Q 66.75 72.46875 75.296875 68.046875 
Q 83.84375 63.625 88.359375 55.5625 
Q 92.875 47.515625 92.875 36.859375 
z
M 63.28125 36.46875 
Q 63.28125 41.453125 60.0625 44.5 
Q 56.84375 47.5625 51.46875 47.5625 
Q 46.53125 47.5625 42.703125 44.453125 
Q 38.875 41.359375 36.671875 35.859375 
Q 34.46875 30.375 34.46875 23.96875 
Q 34.46875 18.109375 36.78125 14.78125 
Q 39.109375 11.46875 43.953125 11.46875 
Q 50.046875 11.46875 55.125 16.59375 
Q 60.203125 21.734375 62.15625 29.390625 
Q 63.28125 33.890625 63.28125 36.46875 
z
" id="LiberationSans-64"/>
      <path d="M 54.734375 0 
L 54.734375 31.890625 
L 17.53125 31.890625 
L 17.53125 0 
L 8.203125 0 
L 8.203125 68.796875 
L 17.53125 68.796875 
L 17.53125 39.703125 
L 54.734375 39.703125 
L 54.734375 68.796875 
L 64.0625 68.796875 
L 64.0625 0 
z
" id="LiberationSans-72"/>
      <path d="M 4.046875 0 
L 4.046875 6.6875 
L 33.59375 46.046875 
L 5.71875 46.046875 
L 5.71875 52.828125 
L 44 52.828125 
L 44 46.140625 
L 14.40625 6.78125 
L 45.015625 6.78125 
L 45.015625 0 
z
" id="LiberationSans-122"/>
     </defs>
     <g style="fill:#262626;" transform="translate(525.815625 52.465)scale(0.1 -0.1)">
      <use xlink:href="#LiberationSans-108"/>
      <use x="22.216797" xlink:href="#LiberationSans-111"/>
      <use x="77.832031" xlink:href="#LiberationSans-119"/>
      <use x="150.048828" xlink:href="#LiberationSans-45"/>
      <use x="183.349609" xlink:href="#LiberationSans-112"/>
      <use x="238.964844" xlink:href="#LiberationSans-97"/>
      <use x="294.580078" xlink:href="#LiberationSans-115"/>
      <use x="344.580078" xlink:href="#LiberationSans-115"/>
      <use x="394.580078" xlink:href="#LiberationSans-32"/>
      <use x="422.363281" xlink:href="#LiberationSans-64"/>
      <use x="523.876953" xlink:href="#LiberationSans-32"/>
      <use x="551.660156" xlink:href="#LiberationSans-53"/>
      <use x="607.275391" xlink:href="#LiberationSans-72"/>
      <use x="679.492188" xlink:href="#LiberationSans-122"/>
     </g>
    </g>
   </g>
  </g>
 </g>
 <defs>
  <clipPath id="pb9d6783a6b">
   <rect height="221.76" width="253.636364" x="49.7625" y="21.89625"/>
  </clipPath>
  <clipPath id="p9e47a3771d">
   <rect height="221.76" width="253.636364" x="354.126136" y="21.89625"/>
  </clipPath>
 </defs>
</svg>
