<?xml version="1.0" encoding="utf-8" standalone="no"?>
<!DOCTYPE svg PUBLIC "-//W3C//DTD SVG 1.1//EN"
  "http://www.w3.org/Graphics/SVG/1.1/DTD/svg11.dtd">
<!-- Created with matplotlib (https://matplotlib.org/) -->
<svg height="312.65575pt" version="1.1" viewBox="0 0 414.0825 312.65575" width="414.0825pt" xmlns="http://www.w3.org/2000/svg" xmlns:xlink="http://www.w3.org/1999/xlink">
 <defs>
  <style type="text/css">
*{stroke-linecap:butt;stroke-linejoin:round;}
  </style>
 </defs>
 <g id="figure_1">
  <g id="patch_1">
   <path d="M 0 312.65575 
L 414.0825 312.65575 
L 414.0825 0 
L 0 0 
z
" style="fill:#ffffff;"/>
  </g>
  <g id="axes_1">
   <g id="patch_2">
    <path d="M 49.7625 273.312 
L 406.8825 273.312 
L 406.8825 7.2 
L 49.7625 7.2 
z
" style="fill:#ffffff;"/>
   </g>
   <g id="matplotlib.axis_1">
    <g id="xtick_1">
     <g id="line2d_1">
      <defs>
       <path d="M 0 0 
L 0 6 
" id="mbefb862a32" style="stroke:#262626;stroke-width:0.8;"/>
      </defs>
      <g>
       <use style="fill:#262626;stroke:#262626;stroke-width:0.8;" x="65.995227" xlink:href="#mbefb862a32" y="273.312"/>
      </g>
     </g>
     <g id="text_1">
      <!-- 0 -->
      <defs>
       <path d="M 51.703125 34.421875 
Q 51.703125 17.1875 45.625 8.09375 
Q 39.546875 -0.984375 27.6875 -0.984375 
Q 15.828125 -0.984375 9.859375 8.046875 
Q 3.90625 17.09375 3.90625 34.421875 
Q 3.90625 52.15625 9.6875 60.984375 
Q 15.484375 69.828125 27.984375 69.828125 
Q 40.140625 69.828125 45.921875 60.890625 
Q 51.703125 51.953125 51.703125 34.421875 
z
M 42.78125 34.421875 
Q 42.78125 49.3125 39.328125 56 
Q 35.890625 62.703125 27.984375 62.703125 
Q 19.875 62.703125 16.328125 56.109375 
Q 12.796875 49.515625 12.796875 34.421875 
Q 12.796875 19.78125 16.375 12.984375 
Q 19.96875 6.203125 27.78125 6.203125 
Q 35.546875 6.203125 39.15625 13.125 
Q 42.78125 20.0625 42.78125 34.421875 
z
" id="LiberationSans-48"/>
      </defs>
      <g style="fill:#262626;" transform="translate(63.214759 290.058875)scale(0.1 -0.1)">
       <use xlink:href="#LiberationSans-48"/>
      </g>
     </g>
    </g>
    <g id="xtick_2">
     <g id="line2d_2">
      <g>
       <use style="fill:#262626;stroke:#262626;stroke-width:0.8;" x="130.991132" xlink:href="#mbefb862a32" y="273.312"/>
      </g>
     </g>
     <g id="text_2">
      <!-- 200 -->
      <defs>
       <path d="M 5.03125 0 
L 5.03125 6.203125 
Q 7.515625 11.921875 11.109375 16.28125 
Q 14.703125 20.65625 18.65625 24.1875 
Q 22.609375 27.734375 26.484375 30.765625 
Q 30.375 33.796875 33.5 36.8125 
Q 36.625 39.84375 38.546875 43.15625 
Q 40.484375 46.484375 40.484375 50.6875 
Q 40.484375 56.34375 37.15625 59.46875 
Q 33.84375 62.59375 27.9375 62.59375 
Q 22.3125 62.59375 18.671875 59.546875 
Q 15.046875 56.5 14.40625 50.984375 
L 5.421875 51.8125 
Q 6.390625 60.0625 12.421875 64.9375 
Q 18.453125 69.828125 27.9375 69.828125 
Q 38.328125 69.828125 43.921875 64.921875 
Q 49.515625 60.015625 49.515625 50.984375 
Q 49.515625 46.96875 47.671875 43.015625 
Q 45.84375 39.0625 42.234375 35.109375 
Q 38.625 31.15625 28.421875 22.859375 
Q 22.796875 18.265625 19.46875 14.578125 
Q 16.15625 10.890625 14.703125 7.46875 
L 50.59375 7.46875 
L 50.59375 0 
z
" id="LiberationSans-50"/>
      </defs>
      <g style="fill:#262626;" transform="translate(122.649726 290.058875)scale(0.1 -0.1)">
       <use xlink:href="#LiberationSans-50"/>
       <use x="55.615234" xlink:href="#LiberationSans-48"/>
       <use x="111.230469" xlink:href="#LiberationSans-48"/>
      </g>
     </g>
    </g>
    <g id="xtick_3">
     <g id="line2d_3">
      <g>
       <use style="fill:#262626;stroke:#262626;stroke-width:0.8;" x="195.987037" xlink:href="#mbefb862a32" y="273.312"/>
      </g>
     </g>
     <g id="text_3">
      <!-- 400 -->
      <defs>
       <path d="M 43.015625 15.578125 
L 43.015625 0 
L 34.71875 0 
L 34.71875 15.578125 
L 2.296875 15.578125 
L 2.296875 22.40625 
L 33.796875 68.796875 
L 43.015625 68.796875 
L 43.015625 22.515625 
L 52.6875 22.515625 
L 52.6875 15.578125 
z
M 34.71875 58.890625 
Q 34.625 58.59375 33.34375 56.296875 
Q 32.078125 54 31.453125 53.078125 
L 13.8125 27.09375 
L 11.1875 23.484375 
L 10.40625 22.515625 
L 34.71875 22.515625 
z
" id="LiberationSans-52"/>
      </defs>
      <g style="fill:#262626;" transform="translate(187.645631 290.058875)scale(0.1 -0.1)">
       <use xlink:href="#LiberationSans-52"/>
       <use x="55.615234" xlink:href="#LiberationSans-48"/>
       <use x="111.230469" xlink:href="#LiberationSans-48"/>
      </g>
     </g>
    </g>
    <g id="xtick_4">
     <g id="line2d_4">
      <g>
       <use style="fill:#262626;stroke:#262626;stroke-width:0.8;" x="260.982942" xlink:href="#mbefb862a32" y="273.312"/>
      </g>
     </g>
     <g id="text_4">
      <!-- 600 -->
      <defs>
       <path d="M 51.21875 22.515625 
Q 51.21875 11.625 45.3125 5.3125 
Q 39.40625 -0.984375 29 -0.984375 
Q 17.390625 -0.984375 11.234375 7.65625 
Q 5.078125 16.3125 5.078125 32.8125 
Q 5.078125 50.6875 11.46875 60.25 
Q 17.875 69.828125 29.6875 69.828125 
Q 45.265625 69.828125 49.3125 55.8125 
L 40.921875 54.296875 
Q 38.328125 62.703125 29.59375 62.703125 
Q 22.078125 62.703125 17.9375 55.6875 
Q 13.8125 48.6875 13.8125 35.40625 
Q 16.21875 39.84375 20.5625 42.15625 
Q 24.90625 44.484375 30.515625 44.484375 
Q 40.046875 44.484375 45.625 38.515625 
Q 51.21875 32.5625 51.21875 22.515625 
z
M 42.28125 22.125 
Q 42.28125 29.59375 38.625 33.640625 
Q 34.96875 37.703125 28.421875 37.703125 
Q 22.265625 37.703125 18.484375 34.109375 
Q 14.703125 30.515625 14.703125 24.21875 
Q 14.703125 16.265625 18.625 11.1875 
Q 22.5625 6.109375 28.71875 6.109375 
Q 35.0625 6.109375 38.671875 10.375 
Q 42.28125 14.65625 42.28125 22.125 
z
" id="LiberationSans-54"/>
      </defs>
      <g style="fill:#262626;" transform="translate(252.641536 290.058875)scale(0.1 -0.1)">
       <use xlink:href="#LiberationSans-54"/>
       <use x="55.615234" xlink:href="#LiberationSans-48"/>
       <use x="111.230469" xlink:href="#LiberationSans-48"/>
      </g>
     </g>
    </g>
    <g id="xtick_5">
     <g id="line2d_5">
      <g>
       <use style="fill:#262626;stroke:#262626;stroke-width:0.8;" x="325.978847" xlink:href="#mbefb862a32" y="273.312"/>
      </g>
     </g>
     <g id="text_5">
      <!-- 800 -->
      <defs>
       <path d="M 51.265625 19.1875 
Q 51.265625 9.671875 45.203125 4.34375 
Q 39.15625 -0.984375 27.828125 -0.984375 
Q 16.796875 -0.984375 10.5625 4.234375 
Q 4.34375 9.46875 4.34375 19.09375 
Q 4.34375 25.828125 8.203125 30.421875 
Q 12.0625 35.015625 18.0625 35.984375 
L 18.0625 36.1875 
Q 12.453125 37.5 9.203125 41.890625 
Q 5.953125 46.296875 5.953125 52.203125 
Q 5.953125 60.0625 11.828125 64.9375 
Q 17.71875 69.828125 27.640625 69.828125 
Q 37.796875 69.828125 43.671875 65.03125 
Q 49.5625 60.25 49.5625 52.09375 
Q 49.5625 46.1875 46.28125 41.796875 
Q 43.015625 37.40625 37.359375 36.28125 
L 37.359375 36.078125 
Q 43.953125 35.015625 47.609375 30.5 
Q 51.265625 25.984375 51.265625 19.1875 
z
M 40.4375 51.609375 
Q 40.4375 63.28125 27.640625 63.28125 
Q 21.4375 63.28125 18.1875 60.34375 
Q 14.9375 57.421875 14.9375 51.609375 
Q 14.9375 45.703125 18.28125 42.59375 
Q 21.625 39.5 27.734375 39.5 
Q 33.9375 39.5 37.1875 42.359375 
Q 40.4375 45.21875 40.4375 51.609375 
z
M 42.140625 20.015625 
Q 42.140625 26.421875 38.328125 29.65625 
Q 34.515625 32.90625 27.640625 32.90625 
Q 20.953125 32.90625 17.1875 29.40625 
Q 13.421875 25.921875 13.421875 19.828125 
Q 13.421875 5.609375 27.9375 5.609375 
Q 35.109375 5.609375 38.625 9.046875 
Q 42.140625 12.5 42.140625 20.015625 
z
" id="LiberationSans-56"/>
      </defs>
      <g style="fill:#262626;" transform="translate(317.637441 290.058875)scale(0.1 -0.1)">
       <use xlink:href="#LiberationSans-56"/>
       <use x="55.615234" xlink:href="#LiberationSans-48"/>
       <use x="111.230469" xlink:href="#LiberationSans-48"/>
      </g>
     </g>
    </g>
    <g id="xtick_6">
     <g id="line2d_6">
      <g>
       <use style="fill:#262626;stroke:#262626;stroke-width:0.8;" x="390.974752" xlink:href="#mbefb862a32" y="273.312"/>
      </g>
     </g>
     <g id="text_6">
      <!-- 1000 -->
      <defs>
       <path d="M 7.625 0 
L 7.625 7.46875 
L 25.140625 7.46875 
L 25.140625 60.40625 
L 9.625 49.3125 
L 9.625 57.625 
L 25.875 68.796875 
L 33.984375 68.796875 
L 33.984375 7.46875 
L 50.734375 7.46875 
L 50.734375 0 
z
" id="LiberationSans-49"/>
      </defs>
      <g style="fill:#262626;" transform="translate(379.852877 290.058875)scale(0.1 -0.1)">
       <use xlink:href="#LiberationSans-49"/>
       <use x="55.615234" xlink:href="#LiberationSans-48"/>
       <use x="111.230469" xlink:href="#LiberationSans-48"/>
       <use x="166.845703" xlink:href="#LiberationSans-48"/>
      </g>
     </g>
    </g>
    <g id="text_7">
     <!-- time_frame -->
     <defs>
      <path d="M 27.046875 0.390625 
Q 22.703125 -0.78125 18.171875 -0.78125 
Q 7.625 -0.78125 7.625 11.1875 
L 7.625 46.4375 
L 1.515625 46.4375 
L 1.515625 52.828125 
L 7.953125 52.828125 
L 10.546875 64.65625 
L 16.40625 64.65625 
L 16.40625 52.828125 
L 26.171875 52.828125 
L 26.171875 46.4375 
L 16.40625 46.4375 
L 16.40625 13.09375 
Q 16.40625 9.28125 17.640625 7.734375 
Q 18.890625 6.203125 21.96875 6.203125 
Q 23.734375 6.203125 27.046875 6.890625 
z
" id="LiberationSans-116"/>
      <path d="M 6.6875 64.0625 
L 6.6875 72.46875 
L 15.484375 72.46875 
L 15.484375 64.0625 
z
M 6.6875 0 
L 6.6875 52.828125 
L 15.484375 52.828125 
L 15.484375 0 
z
" id="LiberationSans-105"/>
      <path d="M 37.5 0 
L 37.5 33.5 
Q 37.5 41.15625 35.390625 44.078125 
Q 33.296875 47.015625 27.828125 47.015625 
Q 22.21875 47.015625 18.9375 42.71875 
Q 15.671875 38.421875 15.671875 30.609375 
L 15.671875 0 
L 6.9375 0 
L 6.9375 41.546875 
Q 6.9375 50.78125 6.640625 52.828125 
L 14.9375 52.828125 
Q 14.984375 52.59375 15.03125 51.515625 
Q 15.09375 50.4375 15.15625 49.046875 
Q 15.234375 47.65625 15.328125 43.796875 
L 15.484375 43.796875 
Q 18.3125 49.421875 21.96875 51.609375 
Q 25.640625 53.8125 30.90625 53.8125 
Q 36.921875 53.8125 40.40625 51.421875 
Q 43.890625 49.03125 45.265625 43.796875 
L 45.40625 43.796875 
Q 48.140625 49.125 52.015625 51.46875 
Q 55.90625 53.8125 61.421875 53.8125 
Q 69.4375 53.8125 73.0625 49.46875 
Q 76.703125 45.125 76.703125 35.203125 
L 76.703125 0 
L 68.015625 0 
L 68.015625 33.5 
Q 68.015625 41.15625 65.90625 44.078125 
Q 63.8125 47.015625 58.34375 47.015625 
Q 52.59375 47.015625 49.390625 42.75 
Q 46.1875 38.484375 46.1875 30.609375 
L 46.1875 0 
z
" id="LiberationSans-109"/>
      <path d="M 13.484375 24.5625 
Q 13.484375 15.484375 17.234375 10.546875 
Q 21 5.609375 28.21875 5.609375 
Q 33.9375 5.609375 37.375 7.90625 
Q 40.828125 10.203125 42.046875 13.71875 
L 49.75 11.53125 
Q 45.015625 -0.984375 28.21875 -0.984375 
Q 16.5 -0.984375 10.375 6 
Q 4.25 12.984375 4.25 26.765625 
Q 4.25 39.84375 10.375 46.828125 
Q 16.5 53.8125 27.875 53.8125 
Q 51.171875 53.8125 51.171875 25.734375 
L 51.171875 24.5625 
z
M 42.09375 31.296875 
Q 41.359375 39.65625 37.84375 43.484375 
Q 34.328125 47.3125 27.734375 47.3125 
Q 21.34375 47.3125 17.609375 43.03125 
Q 13.875 38.765625 13.578125 31.296875 
z
" id="LiberationSans-101"/>
      <path d="M -1.515625 -19.875 
L -1.515625 -13.53125 
L 56.734375 -13.53125 
L 56.734375 -19.875 
z
" id="LiberationSans-95"/>
      <path d="M 17.625 46.4375 
L 17.625 0 
L 8.84375 0 
L 8.84375 46.4375 
L 1.421875 46.4375 
L 1.421875 52.828125 
L 8.84375 52.828125 
L 8.84375 58.796875 
Q 8.84375 66.015625 12.015625 69.1875 
Q 15.1875 72.359375 21.734375 72.359375 
Q 25.390625 72.359375 27.9375 71.78125 
L 27.9375 65.09375 
Q 25.734375 65.484375 24.03125 65.484375 
Q 20.65625 65.484375 19.140625 63.765625 
Q 17.625 62.0625 17.625 57.5625 
L 17.625 52.828125 
L 27.9375 52.828125 
L 27.9375 46.4375 
z
" id="LiberationSans-102"/>
      <path d="M 6.9375 0 
L 6.9375 40.53125 
Q 6.9375 46.09375 6.640625 52.828125 
L 14.9375 52.828125 
Q 15.328125 43.84375 15.328125 42.046875 
L 15.53125 42.046875 
Q 17.625 48.828125 20.359375 51.3125 
Q 23.09375 53.8125 28.078125 53.8125 
Q 29.828125 53.8125 31.640625 53.328125 
L 31.640625 45.265625 
Q 29.890625 45.75 26.953125 45.75 
Q 21.484375 45.75 18.59375 41.03125 
Q 15.71875 36.328125 15.71875 27.546875 
L 15.71875 0 
z
" id="LiberationSans-114"/>
      <path d="M 20.21875 -0.984375 
Q 12.25 -0.984375 8.25 3.21875 
Q 4.25 7.421875 4.25 14.75 
Q 4.25 22.953125 9.640625 27.34375 
Q 15.046875 31.734375 27.046875 32.03125 
L 38.921875 32.234375 
L 38.921875 35.109375 
Q 38.921875 41.546875 36.1875 44.328125 
Q 33.453125 47.125 27.59375 47.125 
Q 21.6875 47.125 19 45.109375 
Q 16.3125 43.109375 15.765625 38.71875 
L 6.59375 39.546875 
Q 8.84375 53.8125 27.78125 53.8125 
Q 37.75 53.8125 42.765625 49.234375 
Q 47.796875 44.671875 47.796875 36.03125 
L 47.796875 13.28125 
Q 47.796875 9.375 48.828125 7.390625 
Q 49.859375 5.421875 52.734375 5.421875 
Q 54 5.421875 55.609375 5.765625 
L 55.609375 0.296875 
Q 52.296875 -0.484375 48.828125 -0.484375 
Q 43.953125 -0.484375 41.71875 2.078125 
Q 39.5 4.640625 39.203125 10.109375 
L 38.921875 10.109375 
Q 35.546875 4.046875 31.078125 1.53125 
Q 26.609375 -0.984375 20.21875 -0.984375 
z
M 22.21875 5.609375 
Q 27.046875 5.609375 30.8125 7.8125 
Q 34.578125 10.015625 36.75 13.84375 
Q 38.921875 17.671875 38.921875 21.734375 
L 38.921875 26.078125 
L 29.296875 25.875 
Q 23.09375 25.78125 19.890625 24.609375 
Q 16.703125 23.4375 14.984375 21 
Q 13.28125 18.5625 13.28125 14.59375 
Q 13.28125 10.296875 15.59375 7.953125 
Q 17.921875 5.609375 22.21875 5.609375 
z
" id="LiberationSans-97"/>
     </defs>
     <g style="fill:#262626;" transform="translate(203.317031 303.38075)scale(0.1 -0.1)">
      <use xlink:href="#LiberationSans-116"/>
      <use x="27.783203" xlink:href="#LiberationSans-105"/>
      <use x="50" xlink:href="#LiberationSans-109"/>
      <use x="133.300781" xlink:href="#LiberationSans-101"/>
      <use x="188.916016" xlink:href="#LiberationSans-95"/>
      <use x="244.53125" xlink:href="#LiberationSans-102"/>
      <use x="272.314453" xlink:href="#LiberationSans-114"/>
      <use x="305.615234" xlink:href="#LiberationSans-97"/>
      <use x="361.230469" xlink:href="#LiberationSans-109"/>
      <use x="444.53125" xlink:href="#LiberationSans-101"/>
     </g>
    </g>
   </g>
   <g id="matplotlib.axis_2">
    <g id="ytick_1">
     <g id="line2d_7">
      <defs>
       <path d="M 0 0 
L -6 0 
" id="mff4f7a95af" style="stroke:#262626;stroke-width:0.8;"/>
      </defs>
      <g>
       <use style="fill:#262626;stroke:#262626;stroke-width:0.8;" x="49.7625" xlink:href="#mff4f7a95af" y="238.655229"/>
      </g>
     </g>
     <g id="text_8">
      <!-- −1.0 -->
      <defs>
       <path d="M 4.9375 29.6875 
L 4.9375 36.8125 
L 53.515625 36.8125 
L 53.515625 29.6875 
z
" id="LiberationSans-8722"/>
       <path d="M 9.125 0 
L 9.125 10.6875 
L 18.65625 10.6875 
L 18.65625 0 
z
" id="LiberationSans-46"/>
      </defs>
      <g style="fill:#262626;" transform="translate(20.521875 242.278667)scale(0.1 -0.1)">
       <use xlink:href="#LiberationSans-8722"/>
       <use x="58.398438" xlink:href="#LiberationSans-49"/>
       <use x="114.013672" xlink:href="#LiberationSans-46"/>
       <use x="141.796875" xlink:href="#LiberationSans-48"/>
      </g>
     </g>
    </g>
    <g id="ytick_2">
     <g id="line2d_8">
      <g>
       <use style="fill:#262626;stroke:#262626;stroke-width:0.8;" x="49.7625" xlink:href="#mff4f7a95af" y="189.060897"/>
      </g>
     </g>
     <g id="text_9">
      <!-- −0.5 -->
      <defs>
       <path d="M 51.421875 22.40625 
Q 51.421875 11.53125 44.953125 5.265625 
Q 38.484375 -0.984375 27 -0.984375 
Q 17.390625 -0.984375 11.46875 3.21875 
Q 5.5625 7.421875 4 15.375 
L 12.890625 16.40625 
Q 15.671875 6.203125 27.203125 6.203125 
Q 34.28125 6.203125 38.28125 10.46875 
Q 42.28125 14.75 42.28125 22.21875 
Q 42.28125 28.71875 38.25 32.71875 
Q 34.234375 36.71875 27.390625 36.71875 
Q 23.828125 36.71875 20.75 35.59375 
Q 17.671875 34.46875 14.59375 31.78125 
L 6 31.78125 
L 8.296875 68.796875 
L 47.40625 68.796875 
L 47.40625 61.328125 
L 16.3125 61.328125 
L 14.984375 39.5 
Q 20.703125 43.890625 29.203125 43.890625 
Q 39.359375 43.890625 45.390625 37.9375 
Q 51.421875 31.984375 51.421875 22.40625 
z
" id="LiberationSans-53"/>
      </defs>
      <g style="fill:#262626;" transform="translate(20.521875 192.684335)scale(0.1 -0.1)">
       <use xlink:href="#LiberationSans-8722"/>
       <use x="58.398438" xlink:href="#LiberationSans-48"/>
       <use x="114.013672" xlink:href="#LiberationSans-46"/>
       <use x="141.796875" xlink:href="#LiberationSans-53"/>
      </g>
     </g>
    </g>
    <g id="ytick_3">
     <g id="line2d_9">
      <g>
       <use style="fill:#262626;stroke:#262626;stroke-width:0.8;" x="49.7625" xlink:href="#mff4f7a95af" y="139.466565"/>
      </g>
     </g>
     <g id="text_10">
      <!-- 0.0 -->
      <g style="fill:#262626;" transform="translate(26.3625 143.090003)scale(0.1 -0.1)">
       <use xlink:href="#LiberationSans-48"/>
       <use x="55.615234" xlink:href="#LiberationSans-46"/>
       <use x="83.398438" xlink:href="#LiberationSans-48"/>
      </g>
     </g>
    </g>
    <g id="ytick_4">
     <g id="line2d_10">
      <g>
       <use style="fill:#262626;stroke:#262626;stroke-width:0.8;" x="49.7625" xlink:href="#mff4f7a95af" y="89.872233"/>
      </g>
     </g>
     <g id="text_11">
      <!-- 0.5 -->
      <g style="fill:#262626;" transform="translate(26.3625 93.495671)scale(0.1 -0.1)">
       <use xlink:href="#LiberationSans-48"/>
       <use x="55.615234" xlink:href="#LiberationSans-46"/>
       <use x="83.398438" xlink:href="#LiberationSans-53"/>
      </g>
     </g>
    </g>
    <g id="ytick_5">
     <g id="line2d_11">
      <g>
       <use style="fill:#262626;stroke:#262626;stroke-width:0.8;" x="49.7625" xlink:href="#mff4f7a95af" y="40.277901"/>
      </g>
     </g>
     <g id="text_12">
      <!-- 1.0 -->
      <g style="fill:#262626;" transform="translate(26.3625 43.901339)scale(0.1 -0.1)">
       <use xlink:href="#LiberationSans-49"/>
       <use x="55.615234" xlink:href="#LiberationSans-46"/>
       <use x="83.398438" xlink:href="#LiberationSans-48"/>
      </g>
     </g>
    </g>
    <g id="text_13">
     <!-- analogs -->
     <defs>
      <path d="M 40.28125 0 
L 40.28125 33.5 
Q 40.28125 38.71875 39.25 41.59375 
Q 38.234375 44.484375 35.984375 45.75 
Q 33.734375 47.015625 29.390625 47.015625 
Q 23.046875 47.015625 19.375 42.671875 
Q 15.71875 38.328125 15.71875 30.609375 
L 15.71875 0 
L 6.9375 0 
L 6.9375 41.546875 
Q 6.9375 50.78125 6.640625 52.828125 
L 14.9375 52.828125 
Q 14.984375 52.59375 15.03125 51.515625 
Q 15.09375 50.4375 15.15625 49.046875 
Q 15.234375 47.65625 15.328125 43.796875 
L 15.484375 43.796875 
Q 18.5 49.265625 22.484375 51.53125 
Q 26.46875 53.8125 32.375 53.8125 
Q 41.0625 53.8125 45.09375 49.484375 
Q 49.125 45.171875 49.125 35.203125 
L 49.125 0 
z
" id="LiberationSans-110"/>
      <path d="M 6.734375 0 
L 6.734375 72.46875 
L 15.53125 72.46875 
L 15.53125 0 
z
" id="LiberationSans-108"/>
      <path d="M 51.421875 26.46875 
Q 51.421875 12.59375 45.3125 5.796875 
Q 39.203125 -0.984375 27.59375 -0.984375 
Q 16.015625 -0.984375 10.109375 6.078125 
Q 4.203125 13.140625 4.203125 26.46875 
Q 4.203125 53.8125 27.875 53.8125 
Q 39.984375 53.8125 45.703125 47.140625 
Q 51.421875 40.484375 51.421875 26.46875 
z
M 42.1875 26.46875 
Q 42.1875 37.40625 38.9375 42.359375 
Q 35.6875 47.3125 28.03125 47.3125 
Q 20.3125 47.3125 16.859375 42.25 
Q 13.421875 37.203125 13.421875 26.46875 
Q 13.421875 16.015625 16.8125 10.765625 
Q 20.21875 5.515625 27.484375 5.515625 
Q 35.40625 5.515625 38.796875 10.59375 
Q 42.1875 15.671875 42.1875 26.46875 
z
" id="LiberationSans-111"/>
      <path d="M 26.765625 -20.75 
Q 18.109375 -20.75 12.984375 -17.359375 
Q 7.859375 -13.96875 6.390625 -7.71875 
L 15.234375 -6.453125 
Q 16.109375 -10.109375 19.109375 -12.078125 
Q 22.125 -14.0625 27 -14.0625 
Q 40.140625 -14.0625 40.140625 1.3125 
L 40.140625 9.8125 
L 40.046875 9.8125 
Q 37.546875 4.734375 33.203125 2.171875 
Q 28.859375 -0.390625 23.046875 -0.390625 
Q 13.328125 -0.390625 8.765625 6.046875 
Q 4.203125 12.5 4.203125 26.3125 
Q 4.203125 40.328125 9.109375 46.984375 
Q 14.015625 53.65625 24.03125 53.65625 
Q 29.640625 53.65625 33.765625 51.09375 
Q 37.890625 48.53125 40.140625 43.796875 
L 40.234375 43.796875 
Q 40.234375 45.265625 40.421875 48.875 
Q 40.625 52.484375 40.828125 52.828125 
L 49.171875 52.828125 
Q 48.875 50.203125 48.875 41.890625 
L 48.875 1.515625 
Q 48.875 -20.75 26.765625 -20.75 
z
M 40.140625 26.421875 
Q 40.140625 32.859375 38.375 37.515625 
Q 36.625 42.1875 33.421875 44.65625 
Q 30.21875 47.125 26.171875 47.125 
Q 19.4375 47.125 16.359375 42.234375 
Q 13.28125 37.359375 13.28125 26.421875 
Q 13.28125 15.578125 16.15625 10.84375 
Q 19.046875 6.109375 26.03125 6.109375 
Q 30.171875 6.109375 33.390625 8.546875 
Q 36.625 10.984375 38.375 15.546875 
Q 40.140625 20.125 40.140625 26.421875 
z
" id="LiberationSans-103"/>
      <path d="M 46.390625 14.59375 
Q 46.390625 7.125 40.75 3.0625 
Q 35.109375 -0.984375 24.953125 -0.984375 
Q 15.09375 -0.984375 9.734375 2.265625 
Q 4.390625 5.515625 2.78125 12.40625 
L 10.546875 13.921875 
Q 11.671875 9.671875 15.1875 7.6875 
Q 18.703125 5.71875 24.953125 5.71875 
Q 31.640625 5.71875 34.734375 7.765625 
Q 37.84375 9.8125 37.84375 13.921875 
Q 37.84375 17.046875 35.6875 19 
Q 33.546875 20.953125 28.765625 22.21875 
L 22.46875 23.875 
Q 14.890625 25.828125 11.6875 27.703125 
Q 8.5 29.59375 6.6875 32.28125 
Q 4.890625 34.96875 4.890625 38.875 
Q 4.890625 46.09375 10.03125 49.875 
Q 15.1875 53.65625 25.046875 53.65625 
Q 33.796875 53.65625 38.9375 50.578125 
Q 44.09375 47.515625 45.453125 40.71875 
L 37.546875 39.75 
Q 36.8125 43.265625 33.609375 45.140625 
Q 30.421875 47.015625 25.046875 47.015625 
Q 19.09375 47.015625 16.25 45.203125 
Q 13.421875 43.40625 13.421875 39.75 
Q 13.421875 37.5 14.59375 36.03125 
Q 15.765625 34.578125 18.0625 33.546875 
Q 20.359375 32.515625 27.734375 30.71875 
Q 34.71875 28.953125 37.796875 27.46875 
Q 40.875 25.984375 42.65625 24.171875 
Q 44.4375 22.359375 45.40625 19.984375 
Q 46.390625 17.625 46.390625 14.59375 
z
" id="LiberationSans-115"/>
     </defs>
     <g style="fill:#262626;" transform="translate(14.446875 157.769281)rotate(-90)scale(0.1 -0.1)">
      <use xlink:href="#LiberationSans-97"/>
      <use x="55.615234" xlink:href="#LiberationSans-110"/>
      <use x="111.230469" xlink:href="#LiberationSans-97"/>
      <use x="166.845703" xlink:href="#LiberationSans-108"/>
      <use x="189.0625" xlink:href="#LiberationSans-111"/>
      <use x="244.677734" xlink:href="#LiberationSans-103"/>
      <use x="300.292969" xlink:href="#LiberationSans-115"/>
     </g>
    </g>
   </g>
   <g id="line2d_12">
    <path clip-path="url(#p98248a12a1)" d="M 65.995227 51.045475 
L 66.320207 62.783714 
L 66.645186 221.83358 
L 67.295145 48.133283 
L 67.945104 141.09084 
L 68.270084 190.825862 
L 68.595063 183.3006 
L 68.920043 92.602311 
L 69.245023 83.806792 
L 69.570002 133.77446 
L 69.894982 214.661749 
L 70.219961 53.396917 
L 70.544941 71.073455 
L 70.86992 210.775522 
L 71.1949 227.401763 
L 71.519879 132.35123 
L 71.844859 182.287776 
L 72.169838 182.464909 
L 72.494818 221.352443 
L 72.819797 49.525095 
L 73.144777 73.969025 
L 73.469756 216.073027 
L 73.794736 64.757908 
L 74.119715 103.172232 
L 74.444695 174.095087 
L 74.769674 65.818872 
L 75.094654 120.021186 
L 75.419633 70.298373 
L 75.744613 145.563112 
L 76.069593 139.337414 
L 76.394572 180.925437 
L 76.719552 161.745789 
L 77.044531 126.026091 
L 77.369511 50.780151 
L 78.344449 237.267345 
L 78.669429 69.838532 
L 78.994408 166.381325 
L 79.319388 176.173128 
L 79.644367 79.808329 
L 79.969347 51.116386 
L 80.294326 90.260043 
L 80.619306 204.167864 
L 80.944285 161.014649 
L 81.269265 88.007774 
L 81.594244 58.74171 
L 81.919224 40.555617 
L 82.244204 137.173143 
L 82.569183 75.484954 
L 82.894163 229.404568 
L 83.219142 181.954079 
L 83.544122 164.955393 
L 83.869101 45.133416 
L 84.194081 237.982006 
L 84.51906 177.550898 
L 84.84404 54.082531 
L 85.169019 177.81722 
L 85.493999 194.007086 
L 85.818978 93.822221 
L 86.143958 90.796891 
L 86.468937 144.985843 
L 86.793917 50.808272 
L 87.118896 198.44274 
L 87.443876 57.454237 
L 87.768855 88.779556 
L 88.093835 165.611042 
L 88.418814 78.582853 
L 88.743794 212.230937 
L 89.068774 212.671272 
L 89.393753 54.176772 
L 89.718733 219.852925 
L 90.043712 237.845928 
L 90.368692 161.4804 
L 90.693671 218.05355 
L 91.018651 67.448356 
L 91.34363 55.613756 
L 91.66861 142.952776 
L 91.993589 154.251323 
L 92.318569 131.722058 
L 92.643548 193.783344 
L 92.968528 179.545558 
L 93.293507 218.623648 
L 93.618487 150.089653 
L 93.943466 117.30948 
L 94.268446 54.119931 
L 94.593425 92.039869 
L 94.918405 95.215778 
L 95.243385 177.555218 
L 95.568364 62.437979 
L 95.893344 50.800689 
L 96.218323 53.715399 
L 96.543303 230.957588 
L 96.868282 118.765765 
L 97.193262 111.053952 
L 97.518241 180.120991 
L 97.843221 41.783152 
L 98.1682 180.890239 
L 98.49318 195.684387 
L 98.818159 142.611709 
L 99.143139 174.550115 
L 99.468118 55.348734 
L 99.793098 151.353983 
L 100.118077 157.290856 
L 100.443057 114.498372 
L 100.768036 222.563917 
L 101.093016 88.536569 
L 101.417995 86.222324 
L 101.742975 144.619251 
L 102.067955 49.066425 
L 102.392934 123.727484 
L 102.717914 100.736079 
L 103.042893 55.286147 
L 103.692852 152.99074 
L 104.017832 233.741189 
L 104.342811 94.177157 
L 104.667791 47.247688 
L 104.99277 145.371242 
L 105.31775 171.252835 
L 105.967709 94.149803 
L 106.292688 238.518255 
L 106.617668 62.652538 
L 106.942647 62.820934 
L 107.592606 214.378056 
L 107.917586 105.384191 
L 108.242566 211.309775 
L 108.567545 137.969382 
L 108.892525 220.081165 
L 109.217504 121.798021 
L 109.542484 175.557486 
L 109.867463 73.805373 
L 110.192443 79.964054 
L 110.517422 40.58065 
L 110.842402 187.572437 
L 111.167381 226.395293 
L 111.492361 150.773425 
L 111.81734 222.109898 
L 112.14232 203.244933 
L 112.467299 120.164423 
L 112.792279 121.189893 
L 113.117258 230.06004 
L 113.442238 150.792968 
L 113.767217 133.471862 
L 114.092197 185.485297 
L 114.417176 65.661633 
L 114.742156 206.69691 
L 115.067136 188.286868 
L 115.392115 207.511097 
L 115.717095 215.535019 
L 116.042074 64.285687 
L 116.367054 183.53427 
L 116.692033 95.322845 
L 117.017013 153.753232 
L 117.341992 112.512347 
L 117.666972 54.526116 
L 117.991951 71.104177 
L 118.316931 224.969893 
L 118.64191 70.986209 
L 118.96689 149.023688 
L 119.291869 169.194255 
L 119.941828 50.15553 
L 120.266808 219.980881 
L 120.591787 86.28616 
L 120.916767 198.28385 
L 121.241747 163.244841 
L 121.566726 65.308554 
L 121.891706 130.381046 
L 122.216685 225.27336 
L 122.541665 137.869915 
L 122.866644 82.008179 
L 123.191624 133.737311 
L 123.516603 205.548188 
L 123.841583 150.36917 
L 124.166562 55.286065 
L 124.491542 108.08248 
L 125.141501 82.743245 
L 125.46648 220.66371 
L 125.79146 123.291561 
L 126.441419 211.049206 
L 126.766398 198.442249 
L 127.091378 83.690702 
L 127.416357 206.619452 
L 127.741337 176.678461 
L 128.066317 182.142818 
L 128.391296 229.008067 
L 129.041255 86.712114 
L 129.366235 234.260649 
L 129.691214 216.327573 
L 130.016194 95.78652 
L 130.341173 120.902218 
L 130.666153 96.766319 
L 130.991132 193.007821 
L 131.316112 79.205726 
L 131.641091 143.459691 
L 131.966071 117.585154 
L 132.29105 220.37408 
L 132.61603 197.981611 
L 132.941009 85.238559 
L 133.265989 194.236871 
L 133.590968 220.299409 
L 133.915948 120.183638 
L 134.240928 129.957047 
L 134.565907 118.062856 
L 134.890887 115.997437 
L 135.215866 139.427416 
L 135.540846 140.701678 
L 135.865825 55.321734 
L 136.190805 132.745199 
L 136.515784 116.196865 
L 136.840764 185.694555 
L 137.165743 65.850088 
L 137.490723 233.821152 
L 137.815702 128.114073 
L 138.140682 162.508033 
L 138.465661 118.854329 
L 138.790641 167.20526 
L 139.11562 96.282219 
L 139.4406 234.621932 
L 140.090559 73.751378 
L 140.415538 189.021079 
L 140.740518 228.190651 
L 141.390477 44.933131 
L 141.715457 225.927625 
L 142.040436 224.757609 
L 142.365416 120.597595 
L 142.690395 189.047464 
L 143.015375 157.274653 
L 143.340354 73.901439 
L 143.665334 199.208159 
L 143.990313 95.96243 
L 144.315293 138.576741 
L 144.640272 59.13214 
L 144.965252 45.641628 
L 145.290231 142.450004 
L 145.615211 122.674508 
L 145.94019 90.696979 
L 146.26517 175.437504 
L 146.590149 193.675084 
L 146.915129 47.283563 
L 147.565088 238.339645 
L 147.890068 72.470912 
L 148.215047 119.695455 
L 148.540027 205.217032 
L 148.865006 232.676197 
L 149.189986 180.831723 
L 149.514965 54.583467 
L 149.839945 53.471745 
L 150.164924 176.959189 
L 150.489904 72.825473 
L 150.814883 151.003135 
L 151.139863 108.848066 
L 151.464842 172.309147 
L 151.789822 136.297964 
L 152.439781 226.531525 
L 152.76476 211.005757 
L 153.08974 180.992 
L 153.414719 44.988612 
L 153.739699 47.087768 
L 154.064679 74.465587 
L 154.389658 192.5313 
L 154.714638 151.051377 
L 155.039617 151.412285 
L 155.364597 161.888511 
L 155.689576 229.751994 
L 156.014556 132.617117 
L 156.339535 224.210981 
L 156.664515 79.572744 
L 156.989494 101.515565 
L 157.314474 168.680204 
L 157.639453 110.278043 
L 157.964433 192.42597 
L 158.289412 186.03563 
L 158.614392 176.338261 
L 158.939371 80.546198 
L 159.264351 196.858843 
L 159.58933 127.012193 
L 159.91431 198.887099 
L 160.23929 182.110266 
L 160.564269 191.941079 
L 160.889249 110.700926 
L 161.214228 134.164149 
L 161.539208 95.565832 
L 161.864187 195.023438 
L 162.189167 236.840367 
L 162.514146 103.65756 
L 162.839126 215.870808 
L 163.164105 189.793857 
L 163.489085 178.014027 
L 163.814064 90.506626 
L 164.139044 114.492484 
L 164.464023 202.101144 
L 164.789003 120.047843 
L 165.113982 98.174722 
L 165.438962 161.506841 
L 165.763941 189.863747 
L 166.088921 103.960441 
L 166.4139 117.468265 
L 166.73888 223.199223 
L 167.06386 106.401104 
L 167.388839 141.744347 
L 167.713819 89.203909 
L 168.038798 200.821193 
L 168.363778 187.430946 
L 168.688757 130.8743 
L 169.013737 143.090219 
L 169.338716 162.009099 
L 169.663696 90.659134 
L 169.988675 126.621323 
L 170.313655 97.753397 
L 170.638634 208.252919 
L 170.963614 94.040479 
L 171.288593 147.098516 
L 171.613573 231.956436 
L 171.938552 192.137421 
L 172.263532 233.545745 
L 172.588511 148.021682 
L 172.913491 174.008073 
L 173.238471 42.767624 
L 173.56345 66.363703 
L 173.88843 74.86085 
L 174.213409 139.245067 
L 174.538389 78.547368 
L 174.863368 185.714342 
L 175.188348 127.435086 
L 176.163286 224.250371 
L 176.488266 127.917358 
L 176.813245 219.285838 
L 177.138225 96.219693 
L 177.463204 55.856775 
L 177.788184 206.497052 
L 178.438143 92.0991 
L 178.763122 181.752744 
L 179.088102 55.996424 
L 179.413081 62.403806 
L 179.738061 218.072717 
L 180.063041 233.219736 
L 180.38802 44.948005 
L 180.713 48.91227 
L 181.362959 228.624612 
L 181.687938 115.884351 
L 182.012918 180.449316 
L 182.337897 52.830626 
L 182.987856 109.79055 
L 183.312836 182.216116 
L 183.637815 99.539442 
L 183.962795 181.290801 
L 184.287774 231.190095 
L 184.612754 137.793334 
L 184.937733 141.711295 
L 185.262713 87.292143 
L 185.587692 66.925158 
L 185.912672 168.336718 
L 186.237652 149.489974 
L 186.562631 145.338451 
L 186.887611 174.336522 
L 187.21259 91.184118 
L 187.53757 135.082191 
L 187.862549 57.347125 
L 188.187529 109.648316 
L 188.512508 196.619756 
L 188.837488 205.96093 
L 189.162467 164.782619 
L 189.487447 169.832869 
L 189.812426 157.889506 
L 190.137406 202.234923 
L 190.462385 44.59803 
L 190.787365 209.749714 
L 191.112344 109.184509 
L 191.437324 236.062589 
L 191.762303 157.923386 
L 192.087283 177.320253 
L 192.412262 162.870202 
L 193.062222 119.554441 
L 193.387201 122.899808 
L 193.712181 113.535937 
L 194.03716 71.116117 
L 194.36214 62.750649 
L 194.687119 92.401485 
L 195.012099 222.994878 
L 195.337078 47.956613 
L 195.662058 50.712928 
L 196.636996 188.938229 
L 196.961976 88.612311 
L 197.286955 64.507673 
L 197.611935 106.69709 
L 197.936914 113.861481 
L 198.261894 200.367472 
L 198.586873 167.676511 
L 198.911853 95.201398 
L 199.236833 235.302902 
L 199.561812 111.442935 
L 199.886792 86.565224 
L 200.211771 172.257448 
L 200.536751 223.545271 
L 200.86173 76.160516 
L 201.18671 210.518018 
L 201.511689 165.096697 
L 201.836669 98.35205 
L 202.161648 76.583732 
L 202.486628 67.578209 
L 202.811607 133.432484 
L 203.136587 144.253074 
L 203.461566 70.368315 
L 203.786546 126.9535 
L 204.111525 123.864044 
L 204.436505 152.564752 
L 204.761484 164.69739 
L 205.086464 143.326818 
L 205.411443 166.277758 
L 205.736423 170.503402 
L 206.061403 41.534752 
L 206.386382 171.958095 
L 206.711362 187.794506 
L 207.036341 168.444714 
L 207.361321 121.457605 
L 207.6863 57.935371 
L 208.01128 82.360825 
L 208.336259 71.573683 
L 208.661239 68.247396 
L 208.986218 56.043266 
L 209.311198 192.022426 
L 209.636177 147.725801 
L 209.961157 162.240745 
L 210.286136 162.899491 
L 210.611116 109.256941 
L 210.936095 158.946612 
L 211.261075 116.38927 
L 211.586054 162.81967 
L 211.911034 176.934452 
L 212.236014 168.612722 
L 212.560993 79.208052 
L 212.885973 119.420331 
L 213.210952 45.436162 
L 213.535932 73.475112 
L 214.185891 190.573259 
L 214.51087 104.96694 
L 214.83585 94.505132 
L 215.485809 193.043891 
L 215.810788 128.111781 
L 216.135768 188.30126 
L 216.460747 52.180875 
L 217.110706 180.742745 
L 217.435686 195.859152 
L 217.760665 96.473579 
L 218.085645 98.24509 
L 218.410624 120.197733 
L 218.735604 116.791833 
L 219.060584 118.86131 
L 219.385563 167.21887 
L 219.710543 52.693463 
L 220.360502 234.622635 
L 220.685481 169.548237 
L 221.010461 212.810119 
L 221.66042 117.989743 
L 221.985399 234.159111 
L 222.310379 66.027173 
L 222.960338 180.060146 
L 223.285317 176.919178 
L 223.610297 146.277221 
L 224.260256 237.793889 
L 224.585235 233.386833 
L 224.910215 167.687591 
L 225.235195 214.012465 
L 225.560174 234.218783 
L 225.885154 68.195688 
L 226.210133 184.272601 
L 226.535113 138.847117 
L 226.860092 203.064534 
L 227.185072 229.386054 
L 227.510051 90.890643 
L 227.835031 213.866622 
L 228.16001 233.553579 
L 228.48499 122.162046 
L 228.809969 235.983568 
L 229.134949 152.105989 
L 229.459928 181.356706 
L 229.784908 175.289943 
L 230.109887 237.881747 
L 230.434867 47.350831 
L 230.759846 136.10147 
L 231.084826 125.081802 
L 231.409805 106.511631 
L 231.734785 80.444987 
L 232.059765 118.059843 
L 232.384744 87.452406 
L 232.709724 149.636321 
L 233.034703 165.002659 
L 233.359683 75.364124 
L 233.684662 66.99724 
L 234.009642 211.31751 
L 234.334621 131.003751 
L 234.659601 103.036071 
L 234.98458 222.071135 
L 235.30956 54.244297 
L 235.634539 135.477242 
L 235.959519 110.611112 
L 236.284498 203.295909 
L 236.609478 186.197382 
L 236.934457 214.651331 
L 237.259437 186.283868 
L 237.584416 140.974875 
L 237.909396 73.282017 
L 238.559355 190.159194 
L 238.884335 229.803419 
L 239.209314 115.270515 
L 239.534294 155.305031 
L 239.859273 43.381739 
L 240.184253 83.968547 
L 240.509232 78.294373 
L 240.834212 236.228078 
L 241.159191 84.358269 
L 241.484171 200.048361 
L 241.80915 122.446609 
L 242.13413 149.896933 
L 242.459109 125.261985 
L 242.784089 212.183058 
L 243.109068 148.018278 
L 243.434048 231.326241 
L 243.759027 230.521888 
L 244.084007 108.174896 
L 244.408986 49.859849 
L 244.733966 84.438099 
L 245.383925 227.571741 
L 245.708905 229.724252 
L 246.033884 207.332984 
L 246.358864 45.076549 
L 246.683843 159.569912 
L 247.008823 71.342344 
L 247.658782 118.55191 
L 247.983761 50.628018 
L 248.308741 192.946797 
L 248.63372 148.415433 
L 248.9587 67.113798 
L 249.608659 189.766101 
L 249.933638 197.210949 
L 250.258618 89.300708 
L 250.583597 236.118202 
L 250.908577 57.300248 
L 251.233557 235.001518 
L 251.558536 113.481308 
L 252.208495 123.911571 
L 252.533475 144.556322 
L 252.858454 69.552378 
L 253.183434 107.858536 
L 253.508413 83.551479 
L 253.833393 215.738322 
L 254.158372 228.756471 
L 254.483352 232.99582 
L 254.808331 209.452899 
L 255.133311 106.335986 
L 255.45829 140.652513 
L 255.78327 89.425437 
L 256.108249 200.620277 
L 256.433229 165.858081 
L 256.758208 62.39746 
L 257.083188 53.030678 
L 257.408167 55.805062 
L 258.058127 102.124835 
L 258.383106 57.40225 
L 258.708086 96.977793 
L 259.033065 49.415905 
L 259.358045 233.737786 
L 259.683024 55.822335 
L 260.332983 216.47709 
L 260.657963 196.021706 
L 260.982942 69.606148 
L 261.307922 138.2531 
L 261.632901 43.686475 
L 261.957881 215.339722 
L 262.28286 156.823894 
L 262.60784 172.818864 
L 262.932819 136.265661 
L 263.257799 112.995527 
L 263.582778 107.402943 
L 263.907758 238.398156 
L 264.232738 221.007496 
L 264.557717 231.699359 
L 264.882697 67.138361 
L 265.207676 176.505149 
L 265.532656 165.838164 
L 265.857635 149.311784 
L 266.182615 70.172492 
L 266.507594 235.844964 
L 266.832574 215.124053 
L 267.157553 102.7344 
L 267.482533 47.440806 
L 268.132492 186.854253 
L 268.457471 135.525913 
L 268.782451 45.241208 
L 269.10743 133.896815 
L 269.43241 164.559784 
L 269.757389 162.592292 
L 270.082369 46.817706 
L 270.407348 96.03849 
L 270.732328 102.335714 
L 271.057308 192.620913 
L 271.382287 127.666162 
L 271.707267 167.88507 
L 272.032246 191.004692 
L 272.357226 60.99796 
L 272.682205 162.645804 
L 273.007185 182.556667 
L 273.332164 53.823027 
L 273.657144 199.506178 
L 273.982123 90.763982 
L 274.307103 109.164995 
L 274.632082 56.051988 
L 274.957062 73.595941 
L 275.282041 98.740649 
L 275.607021 176.251344 
L 275.932 140.345573 
L 276.25698 51.288684 
L 276.581959 234.052353 
L 276.906939 81.077805 
L 277.231919 188.701765 
L 277.556898 201.952062 
L 277.881878 192.587131 
L 278.206857 226.801987 
L 278.531837 41.868922 
L 278.856816 66.092913 
L 279.181796 135.289538 
L 279.506775 96.794972 
L 279.831755 128.239328 
L 280.156734 77.656367 
L 280.481714 71.072968 
L 280.806693 192.474886 
L 281.781632 44.554752 
L 282.106611 103.225134 
L 282.431591 60.584794 
L 282.75657 70.805781 
L 283.08155 123.187114 
L 283.406529 61.374267 
L 283.731509 163.783315 
L 284.056489 163.413976 
L 284.381468 83.729352 
L 284.706448 211.964816 
L 285.031427 177.98644 
L 285.356407 117.928253 
L 285.681386 155.323738 
L 286.006366 52.036973 
L 286.331345 48.509356 
L 286.656325 138.954492 
L 286.981304 131.717572 
L 287.306284 94.905643 
L 287.956243 200.944003 
L 288.281222 90.473482 
L 288.606202 92.295236 
L 288.931181 190.056532 
L 289.256161 73.423476 
L 289.58114 116.921141 
L 289.90612 191.778347 
L 290.2311 109.305446 
L 290.556079 192.312396 
L 290.881059 186.039024 
L 291.206038 70.429409 
L 291.531018 54.265175 
L 291.855997 187.695534 
L 292.180977 54.550944 
L 292.505956 191.282952 
L 292.830936 215.392042 
L 293.155915 227.104932 
L 293.805874 162.23105 
L 294.130854 54.65066 
L 294.455833 190.616572 
L 294.780813 166.155191 
L 295.105792 93.015349 
L 295.430772 178.730579 
L 295.755751 102.892104 
L 296.40571 199.685004 
L 296.73069 93.034586 
L 297.05567 233.291338 
L 297.380649 180.662628 
L 297.705629 167.996887 
L 298.030608 147.755116 
L 298.355588 103.784588 
L 298.680567 147.519694 
L 299.005547 120.7548 
L 299.330526 120.466168 
L 299.655506 164.606597 
L 299.980485 53.376505 
L 300.305465 49.0355 
L 300.630444 123.229206 
L 300.955424 224.433384 
L 301.280403 141.226655 
L 301.605383 202.070616 
L 301.930362 142.796424 
L 302.255342 201.264445 
L 302.580321 99.026306 
L 302.905301 222.699915 
L 303.230281 49.541314 
L 303.55526 199.897082 
L 303.88024 107.595991 
L 304.205219 56.750688 
L 304.530199 189.480205 
L 304.855178 53.311907 
L 305.180158 161.550988 
L 305.505137 48.107692 
L 305.830117 45.958663 
L 306.155096 201.34444 
L 306.480076 73.786344 
L 306.805055 200.284885 
L 307.130035 193.734544 
L 307.455014 221.966438 
L 307.779994 207.601848 
L 308.104973 113.23732 
L 308.429953 149.533673 
L 308.754932 81.749825 
L 309.079912 172.794588 
L 309.404891 46.502076 
L 309.729871 228.761648 
L 310.054851 226.170163 
L 310.37983 99.518351 
L 310.70481 62.587637 
L 311.029789 80.846027 
L 311.679748 185.164496 
L 312.004728 235.986751 
L 312.329707 137.591611 
L 312.654687 144.299791 
L 312.979666 170.364647 
L 313.304646 123.978694 
L 313.629625 94.074917 
L 313.954605 99.614894 
L 314.279584 186.431834 
L 314.604564 122.544247 
L 314.929543 209.141746 
L 315.254523 214.53218 
L 315.579502 82.759248 
L 315.904482 101.031771 
L 316.229462 86.315546 
L 316.554441 208.410171 
L 316.879421 57.215637 
L 317.2044 212.248903 
L 317.52938 66.05962 
L 317.854359 168.751167 
L 318.179339 217.739495 
L 318.504318 181.766769 
L 318.829298 202.660057 
L 319.154277 141.317482 
L 319.479257 50.247285 
L 319.804236 173.613024 
L 320.454195 61.758025 
L 321.104154 166.803131 
L 321.429134 42.095211 
L 321.754113 201.47662 
L 322.404072 80.606921 
L 322.729052 238.526508 
L 323.054032 99.385765 
L 323.379011 185.78789 
L 323.703991 204.985295 
L 324.02897 184.261264 
L 324.35395 46.86077 
L 324.678929 61.715496 
L 325.003909 196.251191 
L 325.328888 215.439771 
L 326.303827 66.633395 
L 326.628806 47.004852 
L 327.278765 119.825779 
L 327.603745 210.419782 
L 327.928724 223.969678 
L 328.253704 120.41701 
L 328.578683 131.717132 
L 328.903663 70.810531 
L 329.228643 174.657542 
L 329.553622 230.781463 
L 329.878602 154.601115 
L 330.203581 46.391434 
L 330.528561 80.831205 
L 330.85354 231.955596 
L 331.17852 65.138766 
L 331.503499 145.082729 
L 331.828479 166.293522 
L 332.153458 169.869966 
L 332.478438 120.592103 
L 332.803417 133.396334 
L 333.128397 108.395271 
L 333.453376 124.857768 
L 333.778356 210.099889 
L 334.103335 187.625437 
L 334.428315 71.81403 
L 335.078274 149.702711 
L 335.403253 202.431245 
L 335.728233 237.129502 
L 336.053213 176.78384 
L 336.378192 227.774836 
L 337.028151 75.628453 
L 337.353131 182.038605 
L 337.67811 70.480024 
L 338.00309 98.885627 
L 338.328069 213.806023 
L 338.653049 110.788764 
L 338.978028 208.565394 
L 339.303008 108.759556 
L 339.627987 210.343911 
L 340.277946 126.255772 
L 340.602926 228.662136 
L 340.927905 208.242329 
L 341.577864 146.941406 
L 341.902844 68.350814 
L 342.227824 201.504494 
L 342.877783 144.272011 
L 343.202762 179.97947 
L 343.527742 114.521057 
L 343.852721 187.751124 
L 344.177701 85.438417 
L 344.50268 138.44411 
L 344.82766 221.534297 
L 345.152639 114.272864 
L 345.477619 125.730224 
L 345.802598 171.485191 
L 346.127578 236.441918 
L 346.777537 158.171657 
L 347.102516 198.996817 
L 347.427496 124.094084 
L 348.077455 68.840734 
L 348.402434 110.308546 
L 348.727414 101.971421 
L 349.052394 117.954158 
L 349.377373 43.157139 
L 349.702353 186.878634 
L 350.027332 185.835544 
L 350.352312 213.593499 
L 350.677291 142.30647 
L 351.002271 219.578927 
L 351.65223 142.902276 
L 351.977209 48.68997 
L 352.302189 47.456583 
L 352.627168 91.114029 
L 352.952148 161.436822 
L 353.277127 67.026848 
L 353.602107 64.984647 
L 353.927086 58.092705 
L 354.252066 111.68877 
L 354.577045 198.624114 
L 354.902025 220.586869 
L 355.227005 57.184509 
L 355.551984 227.636141 
L 356.201943 142.053055 
L 356.526923 234.295551 
L 356.851902 58.744399 
L 357.176882 181.696933 
L 357.501861 233.000523 
L 357.826841 41.549501 
L 358.15182 176.881882 
L 358.4768 64.72495 
L 358.801779 148.696179 
L 359.126759 107.106085 
L 359.451738 190.828409 
L 359.776718 138.896166 
L 360.101697 187.543074 
L 360.426677 49.98175 
L 360.751656 226.565041 
L 361.076636 184.166149 
L 361.401615 61.482677 
L 361.726595 143.426979 
L 362.051575 119.612147 
L 362.376554 109.37404 
L 362.701534 224.584819 
L 363.026513 235.136265 
L 363.351493 52.608827 
L 363.676472 184.79522 
L 364.001452 163.209731 
L 364.326431 103.343409 
L 364.651411 191.777897 
L 364.97639 93.23049 
L 365.30137 147.75037 
L 365.626349 68.723265 
L 365.951329 183.399082 
L 366.276308 198.22147 
L 366.601288 73.667116 
L 366.926267 173.919536 
L 367.251247 156.949828 
L 367.576226 81.20159 
L 368.226186 151.026827 
L 368.551165 189.082618 
L 368.876145 87.055083 
L 369.201124 202.861803 
L 369.526104 54.505603 
L 369.851083 208.835929 
L 370.176063 78.974634 
L 370.501042 154.493873 
L 370.826022 201.75581 
L 371.151001 158.832371 
L 371.475981 194.704372 
L 371.80096 211.677172 
L 372.12594 191.21222 
L 372.450919 66.583038 
L 372.775899 217.638661 
L 373.100878 45.725425 
L 373.425858 237.663649 
L 373.750837 108.075703 
L 374.075817 68.74267 
L 374.400796 53.379207 
L 374.725776 210.091752 
L 375.050756 100.146493 
L 375.375735 217.359578 
L 375.700715 168.705103 
L 376.025694 93.457634 
L 376.350674 170.021985 
L 376.675653 176.488788 
L 377.000633 215.632624 
L 377.325612 225.475417 
L 377.650592 215.786689 
L 377.975571 64.980883 
L 378.300551 236.433696 
L 378.62553 101.206349 
L 378.95051 86.177608 
L 379.275489 125.999065 
L 379.600469 93.685966 
L 379.925448 109.259715 
L 380.250428 148.282753 
L 380.575407 162.734157 
L 380.900387 51.916305 
L 381.225367 45.844767 
L 381.550346 109.457748 
L 381.875326 199.515612 
L 382.200305 149.80219 
L 382.525285 140.153449 
L 382.850264 88.291156 
L 383.175244 106.183386 
L 383.500223 136.527718 
L 383.825203 103.686326 
L 384.150182 233.882896 
L 384.475162 84.588389 
L 384.800141 196.672192 
L 385.125121 108.438538 
L 385.4501 216.04552 
L 385.77508 215.948794 
L 386.100059 231.581561 
L 386.425039 58.085677 
L 387.074998 166.850187 
L 387.399977 82.377986 
L 387.724957 114.454715 
L 388.049937 115.645313 
L 388.374916 142.036981 
L 388.699896 237.082736 
L 389.024875 187.382128 
L 389.349855 217.016886 
L 389.674834 107.248133 
L 389.999814 189.334495 
L 390.324793 149.352369 
L 390.649773 168.542671 
L 390.649773 168.542671 
" style="fill:none;stroke:#1f77b4;stroke-linecap:round;stroke-width:1.5;"/>
   </g>
   <g id="line2d_13">
    <path clip-path="url(#p98248a12a1)" d="M 65.995227 139.410343 
L 66.320207 121.497478 
L 66.645186 258.136744 
L 67.295145 65.694562 
L 67.945104 145.162813 
L 68.270084 190.372614 
L 68.595063 184.161645 
L 68.920043 98.946633 
L 69.245023 95.111749 
L 69.570002 146.870436 
L 69.894982 226.704245 
L 70.219961 60.788148 
L 70.544941 68.095864 
L 70.86992 193.461584 
L 71.1949 197.784942 
L 71.519879 96.789618 
L 71.844859 147.762544 
L 72.169838 155.681903 
L 72.494818 207.9538 
L 72.819797 51.042874 
L 73.144777 86.957224 
L 73.469756 236.051242 
L 73.794736 89.156397 
L 74.119715 130.541895 
L 74.444695 203.436064 
L 74.769674 95.976626 
L 75.094654 148.208702 
L 75.419633 92.387028 
L 75.744613 158.609526 
L 76.069593 143.923692 
L 76.394572 181.216459 
L 76.719552 162.7417 
L 77.044531 129.432441 
L 77.369511 52.952009 
L 78.344449 221.265721 
L 78.669429 58.136788 
L 78.994408 163.961954 
L 79.319388 185.254136 
L 79.644367 99.325392 
L 79.969347 75.972544 
L 80.294326 114.801378 
L 80.619306 227.823682 
L 80.944285 188.73673 
L 81.269265 124.143119 
L 81.919224 80.944567 
L 82.244204 165.907561 
L 82.569183 86.917728 
L 82.894163 224.505911 
L 83.219142 167.198759 
L 83.544122 147.359557 
L 83.869101 28.083996 
L 84.194081 222.564234 
L 84.51906 165.342786 
L 84.84404 46.359665 
L 85.169019 175.112691 
L 85.493999 198.016323 
L 85.818978 106.637346 
L 86.143958 112.207244 
L 86.468937 172.512774 
L 86.793917 81.511769 
L 87.118896 229.868873 
L 87.443876 86.896912 
L 87.768855 112.09914 
L 88.093835 178.154382 
L 88.418814 77.31742 
L 88.743794 197.092154 
L 89.068774 186.208818 
L 89.393753 19.296 
L 89.718733 179.721471 
L 90.043712 198.748404 
L 90.368692 132.398776 
L 90.693671 205.822987 
L 91.018651 71.932626 
L 91.34363 68.721446 
L 91.66861 153.274068 
L 91.993589 153.290579 
L 92.318569 116.520601 
L 92.643548 166.88531 
L 92.968528 148.439768 
L 93.293507 193.773591 
L 93.618487 140.929323 
L 93.943466 127.968951 
L 94.268446 81.959925 
L 94.593425 130.414818 
L 94.918405 138.233095 
L 95.243385 222.502064 
L 95.568364 107.561914 
L 95.893344 91.865594 
L 96.218323 85.174167 
L 96.543303 250.81176 
L 96.868282 129.817531 
L 97.193262 117.090692 
L 97.518241 182.717132 
L 97.843221 40.164263 
L 98.1682 174.185994 
L 98.49318 185.825873 
L 98.818159 133.949375 
L 99.143139 170.215716 
L 99.468118 54.743913 
L 99.793098 151.466628 
L 100.118077 156.328508 
L 100.443057 114.051678 
L 100.768036 227.045248 
L 101.093016 102.50163 
L 101.417995 111.419163 
L 101.742975 179.641675 
L 102.067955 90.654441 
L 102.392934 167.605595 
L 102.717914 142.115009 
L 103.042893 89.152178 
L 103.692852 164.892358 
L 104.017832 240.562944 
L 104.342811 101.772473 
L 104.667791 56.544839 
L 104.99277 153.642438 
L 105.31775 177.161095 
L 105.967709 100.927629 
L 106.292688 249.123119 
L 106.617668 76.703435 
L 106.942647 75.317154 
L 107.592606 206.174884 
L 107.917586 86.170604 
L 108.242566 185.349943 
L 108.567545 111.535616 
L 108.892525 200.582148 
L 109.217504 115.734894 
L 109.542484 185.713226 
L 109.867463 96.831839 
L 110.192443 105.94058 
L 110.517422 56.487422 
L 110.842402 184.119548 
L 111.167381 202.844595 
L 111.492361 113.489487 
L 111.81734 179.962565 
L 112.14232 163.945033 
L 112.467299 87.495329 
L 112.792279 94.670954 
L 113.117258 208.111437 
L 113.442238 132.789602 
L 113.767217 118.263168 
L 114.092197 169.886922 
L 114.417176 45.10151 
L 114.742156 177.978447 
L 115.067136 152.912776 
L 115.717095 187.920812 
L 116.042074 49.670645 
L 116.367054 182.822766 
L 116.692033 107.117285 
L 117.017013 175.95348 
L 117.341992 141.893218 
L 117.666972 85.746896 
L 117.991951 98.135833 
L 118.316931 244.84081 
L 118.64191 84.825213 
L 118.96689 159.665556 
L 119.291869 179.252639 
L 119.941828 58.633765 
L 120.266808 224.12001 
L 120.591787 85.851832 
L 120.916767 195.330507 
L 121.241747 160.107406 
L 121.566726 62.253724 
L 121.891706 125.927224 
L 122.216685 219.522651 
L 122.541665 133.127389 
L 122.866644 79.839623 
L 123.191624 134.686553 
L 123.516603 211.92047 
L 123.841583 165.756589 
L 124.166562 80.089709 
L 124.491542 137.249301 
L 125.141501 96.805547 
L 125.46648 219.866263 
L 125.79146 108.458102 
L 126.116439 138.586985 
L 126.441419 179.376209 
L 126.766398 164.670002 
L 127.091378 49.091952 
L 127.416357 169.896187 
L 127.741337 137.106823 
L 128.066317 141.370359 
L 128.391296 190.211746 
L 129.041255 56.891617 
L 129.366235 209.606504 
L 129.691214 200.036222 
L 130.016194 90.834002 
L 130.341173 126.104083 
L 130.666153 107.499789 
L 130.991132 204.301004 
L 131.316112 86.710639 
L 131.641091 143.003207 
L 131.966071 106.373962 
L 132.29105 199.197157 
L 132.61603 170.840954 
L 132.941009 56.318693 
L 133.265989 166.913653 
L 133.590968 198.751525 
L 133.915948 108.615153 
L 134.240928 129.818839 
L 134.565907 127.727731 
L 134.890887 132.718536 
L 135.215866 160.95851 
L 135.540846 165.135058 
L 135.865825 79.605467 
L 136.190805 152.605938 
L 136.515784 128.297774 
L 136.840764 189.084209 
L 137.165743 61.448257 
L 137.490723 223.988374 
L 137.815702 116.271764 
L 138.140682 151.313468 
L 138.465661 108.668238 
L 138.790641 156.574011 
L 139.11562 83.587878 
L 139.4406 219.775371 
L 140.090559 56.994422 
L 140.415538 170.606008 
L 140.740518 208.837929 
L 141.390477 23.501975 
L 141.715457 200.009854 
L 142.040436 195.851895 
L 142.365416 93.50104 
L 142.690395 168.404953 
L 143.015375 146.100069 
L 143.340354 73.502723 
L 143.665334 210.119235 
L 143.990313 118.816467 
L 144.315293 172.797382 
L 144.640272 100.844287 
L 144.965252 87.872574 
L 145.290231 178.323542 
L 145.615211 148.379907 
L 145.94019 105.601207 
L 146.26517 181.374575 
L 146.590149 193.905179 
L 146.915129 43.740862 
L 147.565088 226.323151 
L 147.890068 56.147664 
L 148.215047 98.676454 
L 148.540027 181.633701 
L 148.865006 213.944642 
L 149.189986 175.854044 
L 149.514965 66.532501 
L 149.839945 77.509441 
L 150.164924 204.696793 
L 150.489904 96.879394 
L 150.814883 165.812847 
L 151.139863 110.455264 
L 151.464842 158.844891 
L 151.789822 108.701815 
L 152.439781 189.630434 
L 152.76476 186.305554 
L 153.08974 177.696414 
L 153.414719 63.085889 
L 153.739699 76.256548 
L 154.064679 100.211909 
L 154.389658 204.420947 
L 154.714638 146.03531 
L 155.039617 131.730856 
L 155.364597 132.595336 
L 155.689576 197.869859 
L 156.014556 105.642373 
L 156.339535 207.351799 
L 156.664515 73.196021 
L 156.989494 100.84913 
L 157.314474 167.009749 
L 157.639453 102.907035 
L 157.964433 178.489005 
L 158.614392 157.587632 
L 158.939371 61.671206 
L 159.264351 176.142176 
L 159.58933 103.186386 
L 159.91431 173.189832 
L 160.23929 158.229951 
L 160.564269 173.751694 
L 160.889249 98.832515 
L 161.214228 124.476306 
L 161.539208 81.442425 
L 161.864187 172.028434 
L 162.189167 205.531297 
L 162.514146 68.012986 
L 162.839126 180.792333 
L 163.164105 160.499409 
L 163.489085 158.572852 
L 163.814064 81.184512 
L 164.139044 111.980469 
L 164.464023 202.845815 
L 164.789003 121.845637 
L 165.113982 99.044618 
L 165.438962 159.923588 
L 165.763941 186.108335 
L 166.088921 99.120845 
L 166.4139 111.964084 
L 166.73888 217.528417 
L 167.06386 101.204312 
L 167.388839 136.004822 
L 167.713819 80.444759 
L 168.038798 188.260169 
L 168.363778 173.948572 
L 168.688757 121.088328 
L 169.013737 140.34178 
L 169.338716 167.162881 
L 169.663696 101.666413 
L 169.988675 138.529301 
L 170.313655 104.420896 
L 170.638634 204.625782 
L 170.963614 76.75232 
L 171.288593 114.757507 
L 171.613573 187.392315 
L 171.938552 143.937121 
L 172.263532 193.843625 
L 172.588511 128.042381 
L 172.913491 179.7569 
L 173.238471 72.273117 
L 173.56345 110.208266 
L 173.88843 120.520886 
L 174.213409 176.031287 
L 174.538389 99.737732 
L 174.863368 188.504248 
L 175.188348 112.291853 
L 175.513327 130.764905 
L 175.838307 165.883743 
L 176.163286 184.990462 
L 176.488266 96.3063 
L 176.813245 200.341397 
L 177.138225 90.246698 
L 177.463204 58.885461 
L 177.788184 214.102317 
L 178.438143 106.123397 
L 178.763122 198.371571 
L 179.088102 72.287814 
L 179.413081 74.343184 
L 179.738061 224.724008 
L 180.063041 238.523825 
L 180.38802 52.229463 
L 180.713 55.999415 
L 181.362959 229.282788 
L 181.687938 120.009437 
L 182.012918 193.100487 
L 182.337897 73.544569 
L 182.987856 125.626968 
L 183.312836 186.146872 
L 183.637815 90.902465 
L 184.287774 212.682573 
L 184.612754 126.623911 
L 184.937733 142.182308 
L 185.262713 97.242786 
L 185.587692 79.853253 
L 185.912672 178.467466 
L 186.237652 155.695055 
L 186.562631 150.80631 
L 186.887611 183.417372 
L 187.21259 105.888228 
L 187.53757 152.802668 
L 187.862549 71.186069 
L 188.187529 111.883675 
L 188.512508 183.786926 
L 188.837488 181.152273 
L 189.162467 134.867153 
L 189.487447 141.185993 
L 189.812426 134.328759 
L 190.137406 184.373976 
L 190.462385 29.389668 
L 190.787365 192.014424 
L 191.112344 85.288052 
L 191.437324 206.477442 
L 191.762303 126.888701 
L 192.087283 150.626688 
L 192.412262 145.749819 
L 192.737242 135.802508 
L 193.062222 129.848307 
L 193.387201 146.748277 
L 193.712181 148.417263 
L 194.03716 112.654024 
L 194.36214 105.472585 
L 194.687119 132.643055 
L 195.012099 261.216 
L 195.337078 86.178244 
L 195.662058 88.00759 
L 196.636996 214.353253 
L 196.961976 114.425212 
L 197.286955 89.329447 
L 197.611935 125.353568 
L 197.936914 121.853428 
L 198.261894 197.467496 
L 198.586873 157.508014 
L 198.911853 82.137012 
L 199.236833 222.498925 
L 199.561812 99.960905 
L 199.886792 74.657645 
L 200.211771 157.633723 
L 200.536751 206.979122 
L 200.86173 61.464243 
L 201.18671 202.712701 
L 201.511689 169.264356 
L 201.836669 117.052568 
L 202.161648 107.270003 
L 202.486628 103.893552 
L 202.811607 169.284502 
L 203.136587 176.139666 
L 203.461566 96.175949 
L 203.786546 144.446374 
L 204.111525 131.478788 
L 204.436505 150.82815 
L 204.761484 156.326599 
L 205.086464 132.100625 
L 205.411443 155.639719 
L 205.736423 162.2017 
L 206.061403 34.833724 
L 206.386382 165.849643 
L 206.711362 185.116418 
L 207.036341 176.084408 
L 207.361321 145.588583 
L 207.6863 99.4127 
L 208.01128 135.994819 
L 208.661239 118.228336 
L 208.986218 90.864493 
L 209.311198 208.464673 
L 209.636177 148.799617 
L 209.961157 154.393395 
L 210.286136 152.050677 
L 210.611116 98.510922 
L 210.936095 148.704102 
L 211.261075 106.316543 
L 211.586054 154.229821 
L 211.911034 174.00576 
L 212.236014 176.82016 
L 212.560993 101.482854 
L 212.885973 153.484794 
L 213.210952 84.283564 
L 213.535932 108.514516 
L 213.860911 167.895359 
L 214.185891 206.453732 
L 214.51087 113.547369 
L 214.83585 97.161497 
L 215.485809 187.347705 
L 215.810788 123.354814 
L 216.135768 187.344739 
L 216.460747 54.494329 
L 217.110706 182.80694 
L 217.435686 200.375552 
L 217.760665 107.301949 
L 218.085645 115.974943 
L 218.410624 142.118533 
L 218.735604 139.10487 
L 219.060584 137.941291 
L 219.385563 179.40457 
L 219.710543 53.553315 
L 220.360502 205.536498 
L 220.685481 131.603276 
L 221.010461 174.352938 
L 221.66042 96.071287 
L 221.985399 222.396752 
L 222.310379 60.904517 
L 222.960338 167.197142 
L 223.285317 151.883735 
L 223.610297 107.065783 
L 224.260256 174.764266 
L 224.585235 167.183875 
L 224.910215 105.47852 
L 225.235195 161.17196 
L 225.560174 193.403918 
L 225.885154 37.828909 
L 226.210133 158.663176 
L 226.535113 111.794033 
L 226.860092 171.380852 
L 227.185072 193.006893 
L 227.510051 50.364843 
L 227.835031 169.301753 
L 228.16001 185.983257 
L 228.48499 73.586822 
L 228.809969 188.315776 
L 229.134949 107.349157 
L 229.459928 142.159316 
L 229.784908 145.462812 
L 230.109887 221.919058 
L 230.434867 47.614868 
L 230.759846 150.978053 
L 231.084826 150.741103 
L 231.409805 138.818927 
L 231.734785 115.018582 
L 232.059765 150.648746 
L 232.384744 115.245899 
L 232.709724 172.326901 
L 233.034703 184.215968 
L 233.359683 91.951192 
L 233.684662 79.632126 
L 234.009642 219.093624 
L 234.334621 135.548492 
L 234.659601 106.920451 
L 234.98458 226.66779 
L 235.30956 58.209169 
L 235.634539 134.095288 
L 235.959519 98.402533 
L 236.284498 178.422644 
L 236.609478 152.472616 
L 236.934457 179.795628 
L 237.259437 157.774315 
L 237.584416 121.715733 
L 237.909396 60.113303 
L 238.884335 219.900092 
L 239.209314 116.361695 
L 239.534294 170.847488 
L 239.859273 69.997395 
L 240.184253 112.873016 
L 240.509232 100.421888 
L 240.834212 247.296124 
L 241.159191 85.235662 
L 241.484171 193.398038 
L 241.80915 109.905206 
L 242.13413 131.095322 
L 242.459109 98.828344 
L 242.784089 178.397351 
L 243.109068 110.816264 
L 243.434048 198.223506 
L 243.759027 209.843183 
L 244.084007 103.234501 
L 244.408986 54.517149 
L 244.733966 86.110062 
L 245.058946 134.195848 
L 245.383925 202.839401 
L 245.708905 201.325781 
L 246.033884 188.193899 
L 246.358864 43.366564 
L 246.683843 175.858959 
L 247.008823 100.971871 
L 247.333802 134.928287 
L 247.658782 154.329823 
L 247.983761 80.631922 
L 248.308741 214.716427 
L 248.63372 162.139755 
L 248.9587 72.788443 
L 249.608659 177.017279 
L 249.933638 178.690834 
L 250.258618 69.284496 
L 250.583597 217.951083 
L 250.908577 43.494137 
L 251.233557 227.970477 
L 251.558536 115.563456 
L 252.208495 144.573672 
L 252.533475 170.02421 
L 252.858454 93.254314 
L 253.183434 120.499307 
L 253.508413 76.332795 
L 253.833393 185.646853 
L 254.158372 181.617875 
L 254.483352 181.069653 
L 254.808331 165.117968 
L 255.133311 76.472776 
L 255.45829 125.56656 
L 255.78327 86.660904 
L 256.108249 209.980311 
L 256.433229 190.544943 
L 256.758208 104.914048 
L 257.083188 111.066578 
L 257.408167 122.934483 
L 258.058127 168.028591 
L 258.383106 115.807992 
L 258.708086 143.94268 
L 259.033065 81.917495 
L 259.358045 251.428912 
L 259.683024 60.828666 
L 260.332983 208.039793 
L 260.657963 190.512401 
L 260.982942 71.156108 
L 261.307922 144.820208 
L 261.632901 49.349092 
L 261.957881 215.584458 
L 262.28286 151.566404 
L 262.60784 164.453607 
L 263.257799 96.924206 
L 263.582778 81.678058 
L 263.907758 202.330441 
L 264.232738 180.217029 
L 264.557717 194.531646 
L 264.882697 38.4516 
L 265.207676 155.791951 
L 265.532656 150.223948 
L 265.857635 135.912818 
L 266.182615 56.853763 
L 266.507594 223.542285 
L 266.832574 208.885214 
L 267.157553 107.085451 
L 267.482533 61.231851 
L 268.132492 205.926657 
L 268.457471 155.179742 
L 268.782451 65.200415 
L 269.10743 153.217631 
L 269.43241 184.045975 
L 269.757389 184.521785 
L 270.082369 70.931276 
L 270.407348 117.684277 
L 270.732328 115.781984 
L 271.057308 195.497437 
L 271.382287 121.979979 
L 271.707267 158.143613 
L 272.032246 181.846151 
L 272.357226 55.147771 
L 272.682205 160.964338 
L 273.007185 186.102178 
L 273.332164 64.457694 
L 273.657144 219.214026 
L 273.982123 120.998753 
L 274.307103 149.057884 
L 274.632082 100.92925 
L 275.282041 132.889291 
L 275.607021 199.334399 
L 275.932 152.609267 
L 276.25698 52.716156 
L 276.581959 223.816426 
L 276.906939 59.222947 
L 277.231919 157.599719 
L 277.556898 167.750731 
L 277.881878 165.08872 
L 278.206857 215.665896 
L 278.531837 51.023805 
L 278.856816 91.659242 
L 279.181796 169.606809 
L 279.506775 133.43595 
L 279.831755 163.116846 
L 280.156734 107.913016 
L 280.481714 95.331103 
L 280.806693 213.106461 
L 281.131673 171.037969 
L 281.456652 145.962221 
L 281.781632 89.653998 
L 282.106611 157.217547 
L 282.431591 117.501359 
L 282.75657 123.783514 
L 283.08155 166.104066 
L 283.406529 90.043014 
L 283.731509 176.899822 
L 284.056489 162.919697 
L 284.381468 73.89965 
L 284.706448 198.982346 
L 285.031427 169.870802 
L 285.356407 122.056242 
L 285.681386 174.855289 
L 286.006366 84.099991 
L 286.331345 85.342096 
L 286.656325 172.271825 
L 286.981304 156.749273 
L 287.306284 110.781883 
L 287.956243 207.042931 
L 288.281222 97.789678 
L 288.606202 101.68793 
L 288.931181 199.895824 
L 289.256161 81.177194 
L 289.58114 120.077288 
L 289.90612 189.773818 
L 290.2311 104.890378 
L 290.556079 190.670818 
L 290.881059 192.203778 
L 291.206038 85.093578 
L 291.531018 71.539095 
L 291.855997 198.194862 
L 292.180977 50.152727 
L 292.505956 168.490971 
L 293.155915 184.289305 
L 293.480895 153.564961 
L 293.805874 137.386478 
L 294.130854 41.850034 
L 294.455833 185.9006 
L 294.780813 165.876342 
L 295.105792 94.432332 
L 295.430772 178.829092 
L 295.755751 98.404275 
L 296.40571 179.739796 
L 296.73069 65.725595 
L 297.05567 201.679624 
L 297.380649 150.215213 
L 297.705629 144.727187 
L 298.030608 135.363613 
L 298.355588 102.726837 
L 298.680567 156.375855 
L 299.005547 138.072522 
L 299.330526 145.3105 
L 299.655506 195.424616 
L 299.980485 85.58598 
L 300.305465 74.167696 
L 300.630444 132.955945 
L 300.955424 216.147867 
L 301.280403 118.802242 
L 301.605383 172.306166 
L 301.930362 112.290938 
L 302.255342 175.101945 
L 302.580321 80.428717 
L 302.905301 213.298678 
L 303.230281 49.747998 
L 303.55526 209.421019 
L 303.88024 125.843577 
L 304.205219 82.565787 
L 304.530199 221.558202 
L 304.855178 90.716049 
L 305.180158 202.383393 
L 305.505137 87.51784 
L 305.830117 76.215341 
L 306.155096 215.025862 
L 306.480076 67.063104 
L 306.805055 174.107755 
L 307.130035 154.302965 
L 307.455014 179.687968 
L 307.779994 173.193513 
L 308.104973 93.002557 
L 308.429953 143.178462 
L 308.754932 83.990813 
L 309.079912 176.862875 
L 309.404891 47.562575 
L 309.729871 226.966201 
L 310.054851 226.879371 
L 310.37983 107.58887 
L 310.70481 75.780938 
L 311.029789 90.473184 
L 311.354769 139.300225 
L 311.679748 169.502218 
L 312.004728 212.523224 
L 312.329707 114.900062 
L 312.654687 128.842906 
L 312.979666 164.737579 
L 313.629625 100.493038 
L 313.954605 102.605263 
L 314.279584 181.313111 
L 314.604564 109.673503 
L 314.929543 193.91517 
L 315.254523 204.7674 
L 315.579502 83.627084 
L 315.904482 111.396258 
L 316.229462 100.634247 
L 316.554441 221.19333 
L 316.879421 64.686739 
L 317.2044 211.454912 
L 317.52938 54.399724 
L 317.854359 145.312947 
L 318.179339 185.834271 
L 318.504318 149.351402 
L 318.829298 179.041867 
L 319.154277 132.672224 
L 319.479257 57.234552 
L 319.804236 193.025232 
L 320.454195 93.01456 
L 321.104154 191.376748 
L 321.429134 59.089497 
L 321.754113 209.738608 
L 322.404072 71.679567 
L 322.729052 222.149749 
L 323.054032 78.108493 
L 323.379011 163.756737 
L 323.703991 187.498913 
L 324.02897 175.417791 
L 324.35395 45.392409 
L 324.678929 61.238153 
L 325.003909 192.315996 
L 325.328888 211.399961 
L 326.303827 98.580148 
L 326.628806 82.289913 
L 326.953786 116.186254 
L 327.278765 129.762325 
L 327.603745 204.373353 
L 327.928724 209.698555 
L 328.253704 106.403401 
L 328.578683 121.360792 
L 328.903663 62.450861 
L 329.228643 166.606708 
L 329.553622 225.481762 
L 329.878602 156.421621 
L 330.203581 55.701965 
L 330.528561 92.983724 
L 330.85354 242.099679 
L 331.17852 71.062314 
L 331.503499 146.327595 
L 331.828479 164.092054 
L 332.153458 167.185099 
L 332.478438 119.909303 
L 332.803417 134.621537 
L 333.128397 109.205796 
L 333.453376 123.120583 
L 333.778356 206.312939 
L 334.103335 183.938024 
L 334.428315 67.442672 
L 335.078274 125.735156 
L 335.728233 189.442235 
L 336.053213 130.059279 
L 336.378192 192.058859 
L 337.028151 73.690489 
L 337.353131 191.442979 
L 337.67811 83.459477 
L 338.00309 107.795586 
L 338.328069 213.868593 
L 338.653049 101.237368 
L 338.978028 190.837237 
L 339.303008 84.411506 
L 339.627987 180.489515 
L 340.277946 87.80491 
L 340.602926 188.541088 
L 340.927905 171.146757 
L 341.577864 126.72722 
L 341.902844 53.689049 
L 342.227824 187.856152 
L 342.877783 130.406705 
L 343.202762 168.569158 
L 343.527742 106.700622 
L 343.852721 183.086403 
L 344.177701 81.620936 
L 344.50268 132.170708 
L 344.82766 210.331422 
L 345.152639 96.397907 
L 345.477619 98.77614 
L 345.802598 134.05702 
L 346.127578 191.667536 
L 346.777537 123.532452 
L 347.102516 181.592127 
L 347.427496 127.911122 
L 347.752475 121.238476 
L 348.077455 106.777657 
L 348.402434 153.935663 
L 348.727414 143.053169 
L 349.052394 148.80274 
L 349.377373 56.6191 
L 349.702353 178.646217 
L 350.027332 157.582161 
L 350.352312 172.764373 
L 350.677291 99.049806 
L 351.002271 184.573975 
L 351.65223 150.315073 
L 351.977209 79.428206 
L 352.302189 94.178165 
L 352.627168 145.245658 
L 352.952148 217.629517 
L 353.277127 122.165842 
L 353.602107 114.261696 
L 353.927086 94.241693 
L 354.252066 128.707542 
L 354.577045 195.965302 
L 354.902025 202.948157 
L 355.227005 30.102831 
L 355.551984 195.099144 
L 356.201943 110.083816 
L 356.526923 207.723263 
L 356.851902 38.951284 
L 357.176882 169.157442 
L 357.501861 228.96637 
L 357.826841 46.82699 
L 358.15182 189.218913 
L 358.4768 79.139427 
L 358.801779 159.744974 
L 359.126759 111.145375 
L 359.451738 187.519644 
L 359.776718 130.822352 
L 360.101697 177.987937 
L 360.426677 41.060555 
L 360.751656 219.988045 
L 361.076636 182.132957 
L 361.401615 64.192112 
L 361.726595 147.002701 
L 362.376554 99.065327 
L 362.701534 206.171494 
L 363.026513 214.020468 
L 363.351493 34.1919 
L 363.676472 171.30696 
L 364.001452 155.087603 
L 364.326431 100.701357 
L 364.651411 194.233368 
L 364.97639 99.449877 
L 365.30137 154.952141 
L 365.626349 73.390525 
L 365.951329 183.868571 
L 366.276308 196.245551 
L 366.601288 72.433462 
L 366.926267 175.596827 
L 367.251247 162.279225 
L 367.576226 88.981878 
L 368.551165 191.068406 
L 368.876145 88.779 
L 369.201124 205.434639 
L 369.526104 56.993702 
L 369.851083 208.442364 
L 370.176063 71.856838 
L 370.501042 137.132781 
L 370.826022 173.051 
L 371.151001 121.20977 
L 371.475981 153.38672 
L 371.80096 173.434469 
L 372.12594 162.10377 
L 372.450919 49.264906 
L 372.775899 211.39999 
L 373.100878 48.934801 
L 373.425858 249.537082 
L 373.750837 127.752544 
L 374.075817 92.208143 
L 374.400796 73.195119 
L 374.725776 219.910226 
L 375.050756 98.252222 
L 375.375735 205.868874 
L 375.700715 150.392158 
L 376.025694 68.558026 
L 376.350674 136.198721 
L 376.675653 132.569599 
L 377.000633 164.892101 
L 377.325612 175.497131 
L 377.650592 175.10327 
L 377.975571 39.137319 
L 378.300551 227.209441 
L 378.62553 107.775772 
L 378.95051 105.113769 
L 379.275489 151.991374 
L 379.600469 121.90968 
L 379.925448 137.230753 
L 380.250428 176.542727 
L 380.575407 193.389074 
L 380.900387 84.659371 
L 381.225367 75.874573 
L 381.550346 131.252828 
L 381.875326 212.481906 
L 382.200305 158.797613 
L 382.525285 150.693094 
L 382.850264 102.007889 
L 383.175244 120.285251 
L 383.500223 146.365232 
L 383.825203 105.649433 
L 384.150182 226.747133 
L 384.475162 68.581468 
L 384.800141 171.867092 
L 385.125121 75.250814 
L 385.4501 177.690861 
L 385.77508 179.92783 
L 386.100059 207.068111 
L 386.425039 50.213484 
L 387.074998 183.630674 
L 387.399977 101.65561 
L 387.724957 128.175922 
L 388.049937 116.217258 
L 388.374916 125.468576 
L 388.699896 205.353915 
L 389.024875 147.515172 
L 389.349855 176.778788 
L 389.674834 70.93135 
L 389.999814 157.028293 
L 390.324793 119.215612 
L 390.649773 139.175091 
L 390.649773 139.175091 
" style="fill:none;stroke:#ff7f0e;stroke-linecap:round;stroke-width:1.5;"/>
   </g>
   <g id="patch_3">
    <path d="M 49.7625 273.312 
L 49.7625 7.2 
" style="fill:none;stroke:#262626;stroke-linecap:square;stroke-linejoin:miter;stroke-width:1.25;"/>
   </g>
   <g id="patch_4">
    <path d="M 49.7625 273.312 
L 406.8825 273.312 
" style="fill:none;stroke:#262626;stroke-linecap:square;stroke-linejoin:miter;stroke-width:1.25;"/>
   </g>
   <g id="legend_1">
    <g id="line2d_14">
     <path d="M 281.91375 244.415125 
L 301.91375 244.415125 
" style="fill:none;stroke:#1f77b4;stroke-linecap:round;stroke-width:1.5;"/>
    </g>
    <g id="line2d_15"/>
    <g id="text_14">
     <!-- raw -->
     <defs>
      <path d="M 57.328125 0 
L 47.125 0 
L 37.890625 37.359375 
L 36.140625 45.609375 
Q 35.6875 43.40625 34.765625 39.28125 
Q 33.84375 35.15625 24.8125 0 
L 14.65625 0 
L -0.140625 52.828125 
L 8.546875 52.828125 
L 17.484375 16.9375 
Q 17.828125 15.765625 19.578125 7.28125 
L 20.40625 10.890625 
L 31.453125 52.828125 
L 40.875 52.828125 
L 50.09375 16.546875 
L 52.34375 7.28125 
L 53.859375 14.0625 
L 63.875 52.828125 
L 72.46875 52.828125 
z
" id="LiberationSans-119"/>
     </defs>
     <g style="fill:#262626;" transform="translate(309.91375 247.915125)scale(0.1 -0.1)">
      <use xlink:href="#LiberationSans-114"/>
      <use x="33.300781" xlink:href="#LiberationSans-97"/>
      <use x="88.916016" xlink:href="#LiberationSans-119"/>
     </g>
    </g>
    <g id="line2d_16">
     <path d="M 281.91375 258.737 
L 301.91375 258.737 
" style="fill:none;stroke:#ff7f0e;stroke-linecap:round;stroke-width:1.5;"/>
    </g>
    <g id="line2d_17"/>
    <g id="text_15">
     <!-- high-pass @ 100Hz -->
     <defs>
      <path d="M 15.484375 43.796875 
Q 18.3125 48.96875 22.28125 51.390625 
Q 26.265625 53.8125 32.375 53.8125 
Q 40.96875 53.8125 45.046875 49.53125 
Q 49.125 45.265625 49.125 35.203125 
L 49.125 0 
L 40.28125 0 
L 40.28125 33.5 
Q 40.28125 39.0625 39.25 41.765625 
Q 38.234375 44.484375 35.890625 45.75 
Q 33.546875 47.015625 29.390625 47.015625 
Q 23.1875 47.015625 19.453125 42.71875 
Q 15.71875 38.421875 15.71875 31.15625 
L 15.71875 0 
L 6.9375 0 
L 6.9375 72.46875 
L 15.71875 72.46875 
L 15.71875 53.609375 
Q 15.71875 50.640625 15.546875 47.453125 
Q 15.375 44.28125 15.328125 43.796875 
z
" id="LiberationSans-104"/>
      <path d="M 4.4375 22.65625 
L 4.4375 30.46875 
L 28.859375 30.46875 
L 28.859375 22.65625 
z
" id="LiberationSans-45"/>
      <path d="M 51.421875 26.65625 
Q 51.421875 -0.984375 31.984375 -0.984375 
Q 19.78125 -0.984375 15.578125 8.203125 
L 15.328125 8.203125 
Q 15.53125 7.8125 15.53125 -0.09375 
L 15.53125 -20.75 
L 6.734375 -20.75 
L 6.734375 42.046875 
Q 6.734375 50.203125 6.453125 52.828125 
L 14.9375 52.828125 
Q 14.984375 52.640625 15.078125 51.4375 
Q 15.1875 50.25 15.3125 47.75 
Q 15.4375 45.265625 15.4375 44.34375 
L 15.625 44.34375 
Q 17.96875 49.21875 21.828125 51.484375 
Q 25.6875 53.765625 31.984375 53.765625 
Q 41.75 53.765625 46.578125 47.21875 
Q 51.421875 40.671875 51.421875 26.65625 
z
M 42.1875 26.46875 
Q 42.1875 37.5 39.203125 42.234375 
Q 36.234375 46.96875 29.734375 46.96875 
Q 24.515625 46.96875 21.5625 44.765625 
Q 18.609375 42.578125 17.0625 37.90625 
Q 15.53125 33.25 15.53125 25.78125 
Q 15.53125 15.375 18.84375 10.4375 
Q 22.171875 5.515625 29.640625 5.515625 
Q 36.1875 5.515625 39.1875 10.328125 
Q 42.1875 15.140625 42.1875 26.46875 
z
" id="LiberationSans-112"/>
      <path id="LiberationSans-32"/>
      <path d="M 92.875 36.859375 
Q 92.875 27.78125 90.0625 20.4375 
Q 87.25 13.09375 82.25 9.078125 
Q 77.25 5.078125 71.046875 5.078125 
Q 66.21875 5.078125 63.578125 7.21875 
Q 60.9375 9.375 60.9375 13.671875 
L 61.078125 17.09375 
L 60.796875 17.09375 
Q 57.5625 11.078125 52.796875 8.078125 
Q 48.046875 5.078125 42.53125 5.078125 
Q 34.859375 5.078125 30.640625 10.0625 
Q 26.421875 15.046875 26.421875 23.875 
Q 26.421875 31.890625 29.5625 38.765625 
Q 32.71875 45.65625 38.375 49.703125 
Q 44.046875 53.765625 50.921875 53.765625 
Q 61.625 53.765625 65.625 44.875 
L 65.921875 44.875 
L 67.828125 52.6875 
L 75.4375 52.6875 
L 69.78125 27.984375 
Q 67.96875 19.96875 67.96875 15.625 
Q 67.96875 11.03125 71.921875 11.03125 
Q 75.828125 11.03125 79.125 14.40625 
Q 82.421875 17.78125 84.328125 23.6875 
Q 86.234375 29.59375 86.234375 36.765625 
Q 86.234375 45.515625 82.46875 52.265625 
Q 78.71875 59.03125 71.625 62.671875 
Q 64.546875 66.3125 55.078125 66.3125 
Q 43.265625 66.3125 34.171875 61.078125 
Q 25.09375 55.859375 19.921875 46.015625 
Q 14.75 36.1875 14.75 23.96875 
Q 14.75 14.546875 18.578125 7.34375 
Q 22.40625 0.140625 29.65625 -3.703125 
Q 36.921875 -7.5625 46.578125 -7.5625 
Q 53.65625 -7.5625 60.9375 -5.734375 
Q 68.21875 -3.90625 76.03125 0.34375 
L 78.71875 -5.125 
Q 71.625 -9.375 63.34375 -11.59375 
Q 55.078125 -13.8125 46.578125 -13.8125 
Q 34.8125 -13.8125 26 -9.15625 
Q 17.1875 -4.5 12.515625 4.125 
Q 7.859375 12.75 7.859375 23.96875 
Q 7.859375 37.640625 13.9375 48.828125 
Q 20.015625 60.015625 30.8125 66.234375 
Q 41.609375 72.46875 54.984375 72.46875 
Q 66.75 72.46875 75.296875 68.046875 
Q 83.84375 63.625 88.359375 55.5625 
Q 92.875 47.515625 92.875 36.859375 
z
M 63.28125 36.46875 
Q 63.28125 41.453125 60.0625 44.5 
Q 56.84375 47.5625 51.46875 47.5625 
Q 46.53125 47.5625 42.703125 44.453125 
Q 38.875 41.359375 36.671875 35.859375 
Q 34.46875 30.375 34.46875 23.96875 
Q 34.46875 18.109375 36.78125 14.78125 
Q 39.109375 11.46875 43.953125 11.46875 
Q 50.046875 11.46875 55.125 16.59375 
Q 60.203125 21.734375 62.15625 29.390625 
Q 63.28125 33.890625 63.28125 36.46875 
z
" id="LiberationSans-64"/>
      <path d="M 54.734375 0 
L 54.734375 31.890625 
L 17.53125 31.890625 
L 17.53125 0 
L 8.203125 0 
L 8.203125 68.796875 
L 17.53125 68.796875 
L 17.53125 39.703125 
L 54.734375 39.703125 
L 54.734375 68.796875 
L 64.0625 68.796875 
L 64.0625 0 
z
" id="LiberationSans-72"/>
      <path d="M 4.046875 0 
L 4.046875 6.6875 
L 33.59375 46.046875 
L 5.71875 46.046875 
L 5.71875 52.828125 
L 44 52.828125 
L 44 46.140625 
L 14.40625 6.78125 
L 45.015625 6.78125 
L 45.015625 0 
z
" id="LiberationSans-122"/>
     </defs>
     <g style="fill:#262626;" transform="translate(309.91375 262.237)scale(0.1 -0.1)">
      <use xlink:href="#LiberationSans-104"/>
      <use x="55.615234" xlink:href="#LiberationSans-105"/>
      <use x="77.832031" xlink:href="#LiberationSans-103"/>
      <use x="133.447266" xlink:href="#LiberationSans-104"/>
      <use x="189.0625" xlink:href="#LiberationSans-45"/>
      <use x="222.363281" xlink:href="#LiberationSans-112"/>
      <use x="277.978516" xlink:href="#LiberationSans-97"/>
      <use x="333.59375" xlink:href="#LiberationSans-115"/>
      <use x="383.59375" xlink:href="#LiberationSans-115"/>
      <use x="433.59375" xlink:href="#LiberationSans-32"/>
      <use x="461.376953" xlink:href="#LiberationSans-64"/>
      <use x="562.890625" xlink:href="#LiberationSans-32"/>
      <use x="590.673828" xlink:href="#LiberationSans-49"/>
      <use x="646.289062" xlink:href="#LiberationSans-48"/>
      <use x="701.904297" xlink:href="#LiberationSans-48"/>
      <use x="757.519531" xlink:href="#LiberationSans-72"/>
      <use x="829.736328" xlink:href="#LiberationSans-122"/>
     </g>
    </g>
   </g>
  </g>
 </g>
 <defs>
  <clipPath id="p98248a12a1">
   <rect height="266.112" width="357.12" x="49.7625" y="7.2"/>
  </clipPath>
 </defs>
</svg>
