<?xml version="1.0" encoding="UTF-8" standalone="no"?>
<svg
   xmlns:dc="http://purl.org/dc/elements/1.1/"
   xmlns:cc="http://creativecommons.org/ns#"
   xmlns:rdf="http://www.w3.org/1999/02/22-rdf-syntax-ns#"
   xmlns:svg="http://www.w3.org/2000/svg"
   xmlns="http://www.w3.org/2000/svg"
   xmlns:sodipodi="http://sodipodi.sourceforge.net/DTD/sodipodi-0.dtd"
   xmlns:inkscape="http://www.inkscape.org/namespaces/inkscape"
   width="18.258667pc"
   height="17.630953pc"
   version="1.1"
   id="svg96"
   sodipodi:docname="angles.svg"
   inkscape:version="0.92.4 (5da689c313, 2019-01-14)">
  <metadata
     id="metadata102">
    <rdf:RDF>
      <cc:Work
         rdf:about="">
        <dc:format>image/svg+xml</dc:format>
        <dc:type
           rdf:resource="http://purl.org/dc/dcmitype/StillImage" />
        <dc:title></dc:title>
      </cc:Work>
    </rdf:RDF>
  </metadata>
  <defs
     id="defs100" />
  <sodipodi:namedview
     pagecolor="#ffffff"
     bordercolor="#666666"
     borderopacity="1"
     objecttolerance="10"
     gridtolerance="10"
     guidetolerance="10"
     inkscape:pageopacity="0"
     inkscape:pageshadow="2"
     inkscape:window-width="1920"
     inkscape:window-height="1043"
     id="namedview98"
     showgrid="false"
     inkscape:zoom="1.9550859"
     inkscape:cx="23.256399"
     inkscape:cy="184.91297"
     inkscape:window-x="1920"
     inkscape:window-y="0"
     inkscape:window-maximized="1"
     inkscape:current-layer="svg96"
     units="pc"
     fit-margin-top="1"
     fit-margin-left="2"
     fit-margin-right="2"
     fit-margin-bottom="1" />
  <rect
     id="rect2"
     style="fill:#eceff1;stroke:#263238;stroke-width:0.66500002;stroke-miterlimit:4;stroke-dasharray:none;stroke-opacity:1"
     height="40"
     width="40"
     y="116.47806"
     x="72.855461" />
  <rect
     id="rect4"
     style="fill:#eceff1;stroke:#263238;stroke-width:0.66500002;stroke-miterlimit:4;stroke-dasharray:none;stroke-opacity:1"
     height="40"
     width="40"
     y="116.47806"
     x="112.85547" />
  <rect
     id="rect6"
     style="fill:#eceff1;stroke:#263238;stroke-width:0.66500002;stroke-miterlimit:4;stroke-dasharray:none;stroke-opacity:1"
     height="40"
     width="40"
     y="156.47806"
     x="72.855461" />
  <rect
     id="rect8"
     style="fill:#eceff1;stroke:#263238;stroke-width:0.66500002;stroke-miterlimit:4;stroke-dasharray:none;stroke-opacity:1"
     height="40"
     width="40"
     y="156.47806"
     x="112.85547" />
  <rect
     id="rect10"
     style="fill:#eceff1;stroke:#263238;stroke-width:0.66500002;stroke-miterlimit:4;stroke-dasharray:none;stroke-opacity:1"
     height="40"
     width="40"
     y="196.47806"
     x="72.855461" />
  <rect
     id="rect12"
     style="fill:#eceff1;stroke:#263238;stroke-width:0.66500002;stroke-miterlimit:4;stroke-dasharray:none;stroke-opacity:1"
     height="40"
     width="40"
     y="196.47806"
     x="112.85547" />
  <rect
     id="rect16"
     style="fill:#cfd8dc;stroke:#263238;stroke-width:0.56011653;stroke-miterlimit:4;stroke-dasharray:none;stroke-opacity:1"
     height="28.284271"
     width="40"
     y="23.303493"
     x="189.33351"
     transform="matrix(1,0,-0.70710678,0.70710678,0,0)" />
  <rect
     id="rect18"
     style="fill:#cfd8dc;stroke:#263238;stroke-width:0.56011653;stroke-miterlimit:4;stroke-dasharray:none;stroke-opacity:1"
     height="28.284271"
     width="40"
     y="23.303493"
     x="229.33353"
     transform="matrix(1,0,-0.70710678,0.70710678,0,0)" />
  <rect
     id="rect20"
     style="fill:#cfd8dc;stroke:#263238;stroke-width:0.56011653;stroke-miterlimit:4;stroke-dasharray:none;stroke-opacity:1"
     height="28.284271"
     width="40"
     y="51.587772"
     x="189.33351"
     transform="matrix(1,0,-0.70710678,0.70710678,0,0)" />
  <rect
     id="rect22"
     style="fill:#cfd8dc;stroke:#263238;stroke-width:0.56011653;stroke-miterlimit:4;stroke-dasharray:none;stroke-opacity:1"
     height="28.284271"
     width="40"
     y="51.587772"
     x="229.33353"
     transform="matrix(1,0,-0.70710678,0.70710678,0,0)" />
  <rect
     id="rect24"
     style="fill:#cfd8dc;stroke:#263238;stroke-width:0.56011653;stroke-miterlimit:4;stroke-dasharray:none;stroke-opacity:1"
     height="28.284271"
     width="40"
     y="79.872032"
     x="189.33351"
     transform="matrix(1,0,-0.70710678,0.70710678,0,0)" />
  <rect
     id="rect26"
     style="fill:#cfd8dc;stroke:#263238;stroke-width:0.56011653;stroke-miterlimit:4;stroke-dasharray:none;stroke-opacity:1"
     height="28.284271"
     width="40"
     y="79.872032"
     x="229.33353"
     transform="matrix(1,0,-0.70710678,0.70710678,0,0)" />
  <rect
     id="rect28"
     style="fill:#cfd8dc;stroke:#263238;stroke-width:0.56011653;stroke-miterlimit:4;stroke-dasharray:none;stroke-opacity:1"
     height="28.284271"
     width="40"
     y="108.1563"
     x="189.33351"
     transform="matrix(1,0,-0.70710678,0.70710678,0,0)" />
  <rect
     id="rect30"
     style="fill:#cfd8dc;stroke:#263238;stroke-width:0.56011653;stroke-miterlimit:4;stroke-dasharray:none;stroke-opacity:1"
     height="28.284271"
     width="40"
     y="108.1563"
     x="229.33353"
     transform="matrix(1,0,-0.70710678,0.70710678,0,0)" />
  <rect
     id="rect32"
     style="fill:#cfd8dc;stroke:#263238;stroke-width:0.56011653;stroke-miterlimit:4;stroke-dasharray:none;stroke-opacity:1"
     height="28.284271"
     width="40"
     y="136.44058"
     x="189.33351"
     transform="matrix(1,0,-0.70710678,0.70710678,0,0)" />
  <rect
     id="rect34"
     style="fill:#cfd8dc;stroke:#263238;stroke-width:0.56011653;stroke-miterlimit:4;stroke-dasharray:none;stroke-opacity:1"
     height="28.284271"
     width="40"
     y="136.44058"
     x="229.33353"
     transform="matrix(1,0,-0.70710678,0.70710678,0,0)" />
  <rect
     id="rect38"
     style="fill:#b0bec5;stroke:#263238;stroke-width:0.56011653;stroke-miterlimit:4;stroke-dasharray:none;stroke-opacity:1"
     height="40"
     width="28.284271"
     y="269.33353"
     x="216.17026"
     transform="matrix(0.70710678,-0.70710678,0,1,0,0)" />
  <rect
     id="rect40"
     style="fill:#b0bec5;stroke:#263238;stroke-width:0.56011653;stroke-miterlimit:4;stroke-dasharray:none;stroke-opacity:1"
     height="40"
     width="28.284271"
     y="269.33353"
     x="244.45453"
     transform="matrix(0.70710678,-0.70710678,0,1,0,0)" />
  <rect
     id="rect42"
     style="fill:#b0bec5;stroke:#263238;stroke-width:0.56011653;stroke-miterlimit:4;stroke-dasharray:none;stroke-opacity:1"
     height="40"
     width="28.284271"
     y="269.33353"
     x="272.7388"
     transform="matrix(0.70710678,-0.70710678,0,1,0,0)" />
  <rect
     id="rect44"
     style="fill:#b0bec5;stroke:#263238;stroke-width:0.56011653;stroke-miterlimit:4;stroke-dasharray:none;stroke-opacity:1"
     height="40"
     width="28.284271"
     y="269.33353"
     x="301.02307"
     transform="matrix(0.70710678,-0.70710678,0,1,0,0)" />
  <rect
     id="rect46"
     style="fill:#b0bec5;stroke:#263238;stroke-width:0.56011653;stroke-miterlimit:4;stroke-dasharray:none;stroke-opacity:1"
     height="40"
     width="28.284271"
     y="269.33353"
     x="329.30734"
     transform="matrix(0.70710678,-0.70710678,0,1,0,0)" />
  <rect
     id="rect48"
     style="fill:#b0bec5;stroke:#263238;stroke-width:0.56011653;stroke-miterlimit:4;stroke-dasharray:none;stroke-opacity:1"
     height="40"
     width="28.284271"
     y="309.33353"
     x="216.17026"
     transform="matrix(0.70710678,-0.70710678,0,1,0,0)" />
  <rect
     id="rect50"
     style="fill:#b0bec5;stroke:#263238;stroke-width:0.56011653;stroke-miterlimit:4;stroke-dasharray:none;stroke-opacity:1"
     height="40"
     width="28.284271"
     y="309.33353"
     x="244.45453"
     transform="matrix(0.70710678,-0.70710678,0,1,0,0)" />
  <rect
     id="rect52"
     style="fill:#b0bec5;stroke:#263238;stroke-width:0.56011653;stroke-miterlimit:4;stroke-dasharray:none;stroke-opacity:1"
     height="40"
     width="28.284271"
     y="309.33353"
     x="272.7388"
     transform="matrix(0.70710678,-0.70710678,0,1,0,0)" />
  <rect
     id="rect54"
     style="fill:#b0bec5;stroke:#263238;stroke-width:0.56011653;stroke-miterlimit:4;stroke-dasharray:none;stroke-opacity:1"
     height="40"
     width="28.284271"
     y="309.33353"
     x="301.02307"
     transform="matrix(0.70710678,-0.70710678,0,1,0,0)" />
  <rect
     id="rect56"
     style="fill:#b0bec5;stroke:#263238;stroke-width:0.56011653;stroke-miterlimit:4;stroke-dasharray:none;stroke-opacity:1"
     height="40"
     width="28.284271"
     y="309.33353"
     x="329.30734"
     transform="matrix(0.70710678,-0.70710678,0,1,0,0)" />
  <rect
     id="rect58"
     style="fill:#b0bec5;stroke:#263238;stroke-width:0.56011653;stroke-miterlimit:4;stroke-dasharray:none;stroke-opacity:1"
     height="40"
     width="28.284271"
     y="349.33353"
     x="216.17026"
     transform="matrix(0.70710678,-0.70710678,0,1,0,0)" />
  <rect
     id="rect60"
     style="fill:#b0bec5;stroke:#263238;stroke-width:0.56011653;stroke-miterlimit:4;stroke-dasharray:none;stroke-opacity:1"
     height="40"
     width="28.284271"
     y="349.33353"
     x="244.45453"
     transform="matrix(0.70710678,-0.70710678,0,1,0,0)" />
  <rect
     id="rect62"
     style="fill:#b0bec5;stroke:#263238;stroke-width:0.56011653;stroke-miterlimit:4;stroke-dasharray:none;stroke-opacity:1"
     height="40"
     width="28.284271"
     y="349.33353"
     x="272.7388"
     transform="matrix(0.70710678,-0.70710678,0,1,0,0)" />
  <rect
     id="rect64"
     style="fill:#b0bec5;stroke:#263238;stroke-width:0.56011653;stroke-miterlimit:4;stroke-dasharray:none;stroke-opacity:1"
     height="40"
     width="28.284271"
     y="349.33353"
     x="301.02307"
     transform="matrix(0.70710678,-0.70710678,0,1,0,0)" />
  <rect
     id="rect66"
     style="fill:#b0bec5;stroke:#263238;stroke-width:0.56011653;stroke-miterlimit:4;stroke-dasharray:none;stroke-opacity:1"
     height="40"
     width="28.284271"
     y="349.33353"
     x="329.30734"
     transform="matrix(0.70710678,-0.70710678,0,1,0,0)" />
  <line
     id="line70"
     y2="236.47806"
     y1="116.47806"
     x2="62.855461"
     x1="62.855461"
     style="stroke:#263238;stroke-width:0.60000002;stroke-miterlimit:4;stroke-dasharray:none;stroke-opacity:1" />
  <line
     id="line72"
     y2="246.47806"
     y1="246.47806"
     x2="152.85547"
     x1="72.855461"
     style="stroke:#263238;stroke-width:0.60000002;stroke-miterlimit:4;stroke-dasharray:none;stroke-opacity:1" />
  <text
     dx="-10"
     x="52.947266"
     y="180.74368"
     style="font-style:normal;font-variant:normal;font-weight:normal;font-stretch:normal;font-family:Roboto;-inkscape-font-specification:Roboto;text-anchor:end;fill:#263238;fill-opacity:1"
     id="text80">axis</text>
  <text
     dy="10"
     x="113.04004"
     y="255.97806"
     style="font-style:normal;font-variant:normal;font-weight:normal;font-stretch:normal;font-family:Roboto;-inkscape-font-specification:Roboto;text-anchor:middle;fill:#263238;fill-opacity:1"
     id="text82">channel</text>
  <g
     id="g1057"
     transform="translate(73.871132,53.540345)"
     style="stroke-width:0.60000002;stroke-miterlimit:4;stroke-dasharray:none">
    <line
       style="stroke:#263238;stroke-width:0.60000002;stroke-miterlimit:4;stroke-dasharray:none;stroke-opacity:1"
       x1="86.055405"
       x2="186.0554"
       y1="190.00879"
       y2="90.008781"
       id="line74-3" />
    <text
       y="204.3553"
       x="-2.6079621"
       id="text84-6"
       style="font-style:normal;font-variant:normal;font-weight:normal;font-stretch:normal;font-family:Roboto;-inkscape-font-specification:Roboto;text-anchor:middle;fill:#263238;fill-opacity:1;stroke-width:0.60000002;stroke-miterlimit:4;stroke-dasharray:none"
       transform="rotate(-45)"
       dy="10">time</text>
  </g>
</svg>
