<?xml version="1.0" encoding="UTF-8" standalone="no"?>
<svg
   xmlns:dc="http://purl.org/dc/elements/1.1/"
   xmlns:cc="http://creativecommons.org/ns#"
   xmlns:rdf="http://www.w3.org/1999/02/22-rdf-syntax-ns#"
   xmlns:svg="http://www.w3.org/2000/svg"
   xmlns="http://www.w3.org/2000/svg"
   xmlns:sodipodi="http://sodipodi.sourceforge.net/DTD/sodipodi-0.dtd"
   xmlns:inkscape="http://www.inkscape.org/namespaces/inkscape"
   width="18.246168pc"
   height="20.118456pc"
   version="1.1"
   id="svg110"
   sodipodi:docname="markers.svg"
   inkscape:version="0.92.4 (5da689c313, 2019-01-14)">
  <metadata
     id="metadata116">
    <rdf:RDF>
      <cc:Work
         rdf:about="">
        <dc:format>image/svg+xml</dc:format>
        <dc:type
           rdf:resource="http://purl.org/dc/dcmitype/StillImage" />
        <dc:title></dc:title>
      </cc:Work>
    </rdf:RDF>
  </metadata>
  <defs
     id="defs114" />
  <sodipodi:namedview
     pagecolor="#ffffff"
     bordercolor="#666666"
     borderopacity="1"
     objecttolerance="10"
     gridtolerance="10"
     guidetolerance="10"
     inkscape:pageopacity="0"
     inkscape:pageshadow="2"
     inkscape:window-width="1920"
     inkscape:window-height="1043"
     id="namedview112"
     showgrid="false"
     inkscape:zoom="4.3023256"
     inkscape:cx="116.81684"
     inkscape:cy="94.139888"
     inkscape:window-x="1920"
     inkscape:window-y="0"
     inkscape:window-maximized="1"
     inkscape:current-layer="svg110"
     units="pc"
     fit-margin-top="1"
     fit-margin-left="2"
     fit-margin-right="2"
     fit-margin-bottom="1" />
  <rect
     id="rect2"
     style="fill:#eceff1;stroke:#263238;stroke-width:0.66500002;stroke-miterlimit:4;stroke-dasharray:none;stroke-opacity:1"
     height="40"
     width="40"
     y="116.47808"
     x="72.655472" />
  <rect
     id="rect4"
     style="fill:#eceff1;stroke:#263238;stroke-width:0.66500002;stroke-miterlimit:4;stroke-dasharray:none;stroke-opacity:1"
     height="40"
     width="40"
     y="116.47808"
     x="112.65547" />
  <rect
     id="rect6"
     style="fill:#eceff1;stroke:#263238;stroke-width:0.66500002;stroke-miterlimit:4;stroke-dasharray:none;stroke-opacity:1"
     height="40"
     width="40"
     y="156.47807"
     x="72.655472" />
  <rect
     id="rect8"
     style="fill:#eceff1;stroke:#263238;stroke-width:0.66500002;stroke-miterlimit:4;stroke-dasharray:none;stroke-opacity:1"
     height="40"
     width="40"
     y="156.47807"
     x="112.65547" />
  <rect
     id="rect10"
     style="fill:#eceff1;stroke:#263238;stroke-width:0.66500002;stroke-miterlimit:4;stroke-dasharray:none;stroke-opacity:1"
     height="40"
     width="40"
     y="196.47807"
     x="72.655472" />
  <rect
     id="rect12"
     style="fill:#eceff1;stroke:#263238;stroke-width:0.66500002;stroke-miterlimit:4;stroke-dasharray:none;stroke-opacity:1"
     height="40"
     width="40"
     y="196.47807"
     x="112.65547" />
  <rect
     id="rect14"
     style="fill:#eceff1;stroke:#263238;stroke-width:0.66500002;stroke-miterlimit:4;stroke-dasharray:none;stroke-opacity:1"
     height="40"
     width="40"
     y="236.47807"
     x="72.655472" />
  <rect
     id="rect16"
     style="fill:#eceff1;stroke:#263238;stroke-width:0.66500002;stroke-miterlimit:4;stroke-dasharray:none;stroke-opacity:1"
     height="40"
     width="40"
     y="236.47807"
     x="112.65547" />
  <rect
     id="rect20"
     style="fill:#cfd8dc;stroke:#263238;stroke-width:0.56011653;stroke-miterlimit:4;stroke-dasharray:none;stroke-opacity:1"
     height="28.284271"
     width="40"
     y="23.303526"
     x="189.13354"
     transform="matrix(1,0,-0.70710678,0.70710678,0,0)" />
  <rect
     id="rect22"
     style="fill:#cfd8dc;stroke:#263238;stroke-width:0.56011653;stroke-miterlimit:4;stroke-dasharray:none;stroke-opacity:1"
     height="28.284271"
     width="40"
     y="23.303526"
     x="229.13354"
     transform="matrix(1,0,-0.70710678,0.70710678,0,0)" />
  <rect
     id="rect24"
     style="fill:#cfd8dc;stroke:#263238;stroke-width:0.56011653;stroke-miterlimit:4;stroke-dasharray:none;stroke-opacity:1"
     height="28.284271"
     width="40"
     y="51.587803"
     x="189.13354"
     transform="matrix(1,0,-0.70710678,0.70710678,0,0)" />
  <rect
     id="rect26"
     style="fill:#cfd8dc;stroke:#263238;stroke-width:0.56011653;stroke-miterlimit:4;stroke-dasharray:none;stroke-opacity:1"
     height="28.284271"
     width="40"
     y="51.587803"
     x="229.13354"
     transform="matrix(1,0,-0.70710678,0.70710678,0,0)" />
  <rect
     id="rect28"
     style="fill:#cfd8dc;stroke:#263238;stroke-width:0.56011653;stroke-miterlimit:4;stroke-dasharray:none;stroke-opacity:1"
     height="28.284271"
     width="40"
     y="79.87207"
     x="189.13354"
     transform="matrix(1,0,-0.70710678,0.70710678,0,0)" />
  <rect
     id="rect30"
     style="fill:#cfd8dc;stroke:#263238;stroke-width:0.56011653;stroke-miterlimit:4;stroke-dasharray:none;stroke-opacity:1"
     height="28.284271"
     width="40"
     y="79.87207"
     x="229.13354"
     transform="matrix(1,0,-0.70710678,0.70710678,0,0)" />
  <rect
     id="rect32"
     style="fill:#cfd8dc;stroke:#263238;stroke-width:0.56011653;stroke-miterlimit:4;stroke-dasharray:none;stroke-opacity:1"
     height="28.284271"
     width="40"
     y="108.15634"
     x="189.13354"
     transform="matrix(1,0,-0.70710678,0.70710678,0,0)" />
  <rect
     id="rect34"
     style="fill:#cfd8dc;stroke:#263238;stroke-width:0.56011653;stroke-miterlimit:4;stroke-dasharray:none;stroke-opacity:1"
     height="28.284271"
     width="40"
     y="108.15634"
     x="229.13354"
     transform="matrix(1,0,-0.70710678,0.70710678,0,0)" />
  <rect
     id="rect36"
     style="fill:#cfd8dc;stroke:#263238;stroke-width:0.56011653;stroke-miterlimit:4;stroke-dasharray:none;stroke-opacity:1"
     height="28.284271"
     width="40"
     y="136.44061"
     x="189.13354"
     transform="matrix(1,0,-0.70710678,0.70710678,0,0)" />
  <rect
     id="rect38"
     style="fill:#cfd8dc;stroke:#263238;stroke-width:0.56011653;stroke-miterlimit:4;stroke-dasharray:none;stroke-opacity:1"
     height="28.284271"
     width="40"
     y="136.44061"
     x="229.13354"
     transform="matrix(1,0,-0.70710678,0.70710678,0,0)" />
  <rect
     id="rect42"
     style="fill:#b0bec5;stroke:#263238;stroke-width:0.56011653;stroke-miterlimit:4;stroke-dasharray:none;stroke-opacity:1"
     height="40"
     width="28.284271"
     y="269.13354"
     x="215.88742"
     transform="matrix(0.70710678,-0.70710678,0,1,0,0)" />
  <rect
     id="rect44"
     style="fill:#b0bec5;stroke:#263238;stroke-width:0.56011653;stroke-miterlimit:4;stroke-dasharray:none;stroke-opacity:1"
     height="40"
     width="28.284271"
     y="269.13354"
     x="244.17169"
     transform="matrix(0.70710678,-0.70710678,0,1,0,0)" />
  <rect
     id="rect46"
     style="fill:#b0bec5;stroke:#263238;stroke-width:0.56011653;stroke-miterlimit:4;stroke-dasharray:none;stroke-opacity:1"
     height="40"
     width="28.284271"
     y="269.13354"
     x="272.45596"
     transform="matrix(0.70710678,-0.70710678,0,1,0,0)" />
  <rect
     id="rect48"
     style="fill:#b0bec5;stroke:#263238;stroke-width:0.56011653;stroke-miterlimit:4;stroke-dasharray:none;stroke-opacity:1"
     height="40"
     width="28.284271"
     y="269.13354"
     x="300.74023"
     transform="matrix(0.70710678,-0.70710678,0,1,0,0)" />
  <rect
     id="rect50"
     style="fill:#b0bec5;stroke:#263238;stroke-width:0.56011653;stroke-miterlimit:4;stroke-dasharray:none;stroke-opacity:1"
     height="40"
     width="28.284271"
     y="269.13354"
     x="329.02451"
     transform="matrix(0.70710678,-0.70710678,0,1,0,0)" />
  <rect
     id="rect52"
     style="fill:#b0bec5;stroke:#263238;stroke-width:0.56011653;stroke-miterlimit:4;stroke-dasharray:none;stroke-opacity:1"
     height="40"
     width="28.284271"
     y="309.13354"
     x="215.88742"
     transform="matrix(0.70710678,-0.70710678,0,1,0,0)" />
  <rect
     id="rect54"
     style="fill:#b0bec5;stroke:#263238;stroke-width:0.56011653;stroke-miterlimit:4;stroke-dasharray:none;stroke-opacity:1"
     height="40"
     width="28.284271"
     y="309.13354"
     x="244.17169"
     transform="matrix(0.70710678,-0.70710678,0,1,0,0)" />
  <rect
     id="rect56"
     style="fill:#b0bec5;stroke:#263238;stroke-width:0.56011653;stroke-miterlimit:4;stroke-dasharray:none;stroke-opacity:1"
     height="40"
     width="28.284271"
     y="309.13354"
     x="272.45596"
     transform="matrix(0.70710678,-0.70710678,0,1,0,0)" />
  <rect
     id="rect58"
     style="fill:#b0bec5;stroke:#263238;stroke-width:0.56011653;stroke-miterlimit:4;stroke-dasharray:none;stroke-opacity:1"
     height="40"
     width="28.284271"
     y="309.13354"
     x="300.74023"
     transform="matrix(0.70710678,-0.70710678,0,1,0,0)" />
  <rect
     id="rect60"
     style="fill:#b0bec5;stroke:#263238;stroke-width:0.56011653;stroke-miterlimit:4;stroke-dasharray:none;stroke-opacity:1"
     height="40"
     width="28.284271"
     y="309.13354"
     x="329.02451"
     transform="matrix(0.70710678,-0.70710678,0,1,0,0)" />
  <rect
     id="rect62"
     style="fill:#b0bec5;stroke:#263238;stroke-width:0.56011653;stroke-miterlimit:4;stroke-dasharray:none;stroke-opacity:1"
     height="40"
     width="28.284271"
     y="349.13354"
     x="215.88742"
     transform="matrix(0.70710678,-0.70710678,0,1,0,0)" />
  <rect
     id="rect64"
     style="fill:#b0bec5;stroke:#263238;stroke-width:0.56011653;stroke-miterlimit:4;stroke-dasharray:none;stroke-opacity:1"
     height="40"
     width="28.284271"
     y="349.13354"
     x="244.17169"
     transform="matrix(0.70710678,-0.70710678,0,1,0,0)" />
  <rect
     id="rect66"
     style="fill:#b0bec5;stroke:#263238;stroke-width:0.56011653;stroke-miterlimit:4;stroke-dasharray:none;stroke-opacity:1"
     height="40"
     width="28.284271"
     y="349.13354"
     x="272.45596"
     transform="matrix(0.70710678,-0.70710678,0,1,0,0)" />
  <rect
     id="rect68"
     style="fill:#b0bec5;stroke:#263238;stroke-width:0.56011653;stroke-miterlimit:4;stroke-dasharray:none;stroke-opacity:1"
     height="40"
     width="28.284271"
     y="349.13354"
     x="300.74023"
     transform="matrix(0.70710678,-0.70710678,0,1,0,0)" />
  <rect
     id="rect70"
     style="fill:#b0bec5;stroke:#263238;stroke-width:0.56011653;stroke-miterlimit:4;stroke-dasharray:none;stroke-opacity:1"
     height="40"
     width="28.284271"
     y="349.13354"
     x="329.02451"
     transform="matrix(0.70710678,-0.70710678,0,1,0,0)" />
  <rect
     id="rect72"
     style="fill:#b0bec5;stroke:#263238;stroke-width:0.56011653;stroke-miterlimit:4;stroke-dasharray:none;stroke-opacity:1"
     height="40"
     width="28.284271"
     y="389.13354"
     x="215.88742"
     transform="matrix(0.70710678,-0.70710678,0,1,0,0)" />
  <rect
     id="rect74"
     style="fill:#b0bec5;stroke:#263238;stroke-width:0.56011653;stroke-miterlimit:4;stroke-dasharray:none;stroke-opacity:1"
     height="40"
     width="28.284271"
     y="389.13354"
     x="244.17169"
     transform="matrix(0.70710678,-0.70710678,0,1,0,0)" />
  <rect
     id="rect76"
     style="fill:#b0bec5;stroke:#263238;stroke-width:0.56011653;stroke-miterlimit:4;stroke-dasharray:none;stroke-opacity:1"
     height="40"
     width="28.284271"
     y="389.13354"
     x="272.45596"
     transform="matrix(0.70710678,-0.70710678,0,1,0,0)" />
  <rect
     id="rect78"
     style="fill:#b0bec5;stroke:#263238;stroke-width:0.56011653;stroke-miterlimit:4;stroke-dasharray:none;stroke-opacity:1"
     height="40"
     width="28.284271"
     y="389.13354"
     x="300.74023"
     transform="matrix(0.70710678,-0.70710678,0,1,0,0)" />
  <rect
     id="rect80"
     style="fill:#b0bec5;stroke:#263238;stroke-width:0.56011653;stroke-miterlimit:4;stroke-dasharray:none;stroke-opacity:1"
     height="40"
     width="28.284271"
     y="389.13354"
     x="329.02451"
     transform="matrix(0.70710678,-0.70710678,0,1,0,0)" />
  <line
     id="line84"
     y2="276.47809"
     y1="116.47808"
     x2="62.655468"
     x1="62.655468"
     style="stroke:#263238;stroke-width:0.60000002;stroke-miterlimit:4;stroke-dasharray:none;stroke-opacity:1" />
  <line
     id="line86"
     y2="286.47809"
     y1="286.47809"
     x2="152.65547"
     x1="72.655472"
     style="stroke:#263238;stroke-width:0.60000002;stroke-miterlimit:4;stroke-dasharray:none;stroke-opacity:1" />
  <text
     dx="-10"
     x="52.947266"
     y="200.7437"
     style="font-style:normal;font-variant:normal;font-weight:normal;font-stretch:normal;font-family:Roboto;-inkscape-font-specification:Roboto;text-anchor:end;fill:#263238;fill-opacity:1;stroke-width:0.66500002;stroke-miterlimit:4;stroke-dasharray:none"
     id="text94">axis</text>
  <text
     dy="10"
     x="112.84004"
     y="295.77811"
     style="font-style:normal;font-variant:normal;font-weight:normal;font-stretch:normal;font-family:Roboto;-inkscape-font-specification:Roboto;text-anchor:middle;fill:#263238;fill-opacity:1;stroke-width:0.66500002;stroke-miterlimit:4;stroke-dasharray:none"
     id="text96">channel</text>
  <g
     id="g1090"
     transform="translate(34.007626,66.224831)">
    <line
       style="stroke:#263238;stroke-width:0.60000002;stroke-miterlimit:4;stroke-dasharray:none;stroke-opacity:1"
       x1="125.71891"
       x2="225.71892"
       y1="217.32433"
       y2="117.32432"
       id="line88-3" />
    <text
       y="251.51663"
       x="6.123373"
       id="text98-6"
       style="font-style:normal;font-variant:normal;font-weight:normal;font-stretch:normal;font-family:Roboto;-inkscape-font-specification:Roboto;text-anchor:middle;fill:#263238;fill-opacity:1;stroke-width:0.66500002;stroke-miterlimit:4;stroke-dasharray:none"
       transform="rotate(-45)"
       dy="10">time</text>
  </g>
</svg>
