<?xml version="1.0" encoding="UTF-8" standalone="no"?>
<svg
   xmlns:dc="http://purl.org/dc/elements/1.1/"
   xmlns:cc="http://creativecommons.org/ns#"
   xmlns:rdf="http://www.w3.org/1999/02/22-rdf-syntax-ns#"
   xmlns:svg="http://www.w3.org/2000/svg"
   xmlns="http://www.w3.org/2000/svg"
   xmlns:sodipodi="http://sodipodi.sourceforge.net/DTD/sodipodi-0.dtd"
   xmlns:inkscape="http://www.inkscape.org/namespaces/inkscape"
   width="23.14253pc"
   height="20.118458pc"
   version="1.1"
   id="svg146"
   sodipodi:docname="rototrans.svg"
   inkscape:version="0.92.4 (5da689c313, 2019-01-14)">
  <metadata
     id="metadata152">
    <rdf:RDF>
      <cc:Work
         rdf:about="">
        <dc:format>image/svg+xml</dc:format>
        <dc:type
           rdf:resource="http://purl.org/dc/dcmitype/StillImage" />
        <dc:title></dc:title>
      </cc:Work>
    </rdf:RDF>
  </metadata>
  <defs
     id="defs150" />
  <sodipodi:namedview
     pagecolor="#ffffff"
     bordercolor="#666666"
     borderopacity="1"
     objecttolerance="10"
     gridtolerance="10"
     guidetolerance="10"
     inkscape:pageopacity="0"
     inkscape:pageshadow="2"
     inkscape:window-width="1920"
     inkscape:window-height="1043"
     id="namedview148"
     showgrid="false"
     inkscape:zoom="4.3023256"
     inkscape:cx="121.57638"
     inkscape:cy="60.179687"
     inkscape:window-x="1920"
     inkscape:window-y="0"
     inkscape:window-maximized="1"
     inkscape:current-layer="svg146"
     units="pc"
     fit-margin-top="1"
     fit-margin-left="2"
     fit-margin-right="2"
     fit-margin-bottom="1" />
  <rect
     id="rect2"
     style="fill:#eceff1;stroke:#263238;stroke-width:0.66500002;stroke-miterlimit:4;stroke-dasharray:none;stroke-opacity:1"
     height="40"
     width="40"
     y="116.47811"
     x="70.997269" />
  <rect
     id="rect4"
     style="fill:#eceff1;stroke:#263238;stroke-width:0.66500002;stroke-miterlimit:4;stroke-dasharray:none;stroke-opacity:1"
     height="40"
     width="40"
     y="116.47811"
     x="110.99727" />
  <rect
     id="rect6"
     style="fill:#eceff1;stroke:#263238;stroke-width:0.66500002;stroke-miterlimit:4;stroke-dasharray:none;stroke-opacity:1"
     height="40"
     width="40"
     y="116.47811"
     x="150.99727" />
  <rect
     id="rect8"
     style="fill:#eceff1;stroke:#263238;stroke-width:0.66500002;stroke-miterlimit:4;stroke-dasharray:none;stroke-opacity:1"
     height="40"
     width="40"
     y="116.47811"
     x="190.99727" />
  <rect
     id="rect10"
     style="fill:#eceff1;stroke:#263238;stroke-width:0.66500002;stroke-miterlimit:4;stroke-dasharray:none;stroke-opacity:1"
     height="40"
     width="40"
     y="156.4781"
     x="70.997269" />
  <rect
     id="rect12"
     style="fill:#eceff1;stroke:#263238;stroke-width:0.66500002;stroke-miterlimit:4;stroke-dasharray:none;stroke-opacity:1"
     height="40"
     width="40"
     y="156.4781"
     x="110.99727" />
  <rect
     id="rect14"
     style="fill:#eceff1;stroke:#263238;stroke-width:0.66500002;stroke-miterlimit:4;stroke-dasharray:none;stroke-opacity:1"
     height="40"
     width="40"
     y="156.4781"
     x="150.99727" />
  <rect
     id="rect16"
     style="fill:#eceff1;stroke:#263238;stroke-width:0.66500002;stroke-miterlimit:4;stroke-dasharray:none;stroke-opacity:1"
     height="40"
     width="40"
     y="156.4781"
     x="190.99727" />
  <rect
     id="rect18"
     style="fill:#eceff1;stroke:#263238;stroke-width:0.66500002;stroke-miterlimit:4;stroke-dasharray:none;stroke-opacity:1"
     height="40"
     width="40"
     y="196.4781"
     x="70.997269" />
  <rect
     id="rect20"
     style="fill:#eceff1;stroke:#263238;stroke-width:0.66500002;stroke-miterlimit:4;stroke-dasharray:none;stroke-opacity:1"
     height="40"
     width="40"
     y="196.4781"
     x="110.99727" />
  <rect
     id="rect22"
     style="fill:#eceff1;stroke:#263238;stroke-width:0.66500002;stroke-miterlimit:4;stroke-dasharray:none;stroke-opacity:1"
     height="40"
     width="40"
     y="196.4781"
     x="150.99727" />
  <rect
     id="rect24"
     style="fill:#eceff1;stroke:#263238;stroke-width:0.66500002;stroke-miterlimit:4;stroke-dasharray:none;stroke-opacity:1"
     height="40"
     width="40"
     y="196.4781"
     x="190.99727" />
  <rect
     id="rect26"
     style="fill:#eceff1;stroke:#263238;stroke-width:0.66500002;stroke-miterlimit:4;stroke-dasharray:none;stroke-opacity:1"
     height="40"
     width="40"
     y="236.4781"
     x="70.997269" />
  <rect
     id="rect28"
     style="fill:#eceff1;stroke:#263238;stroke-width:0.66500002;stroke-miterlimit:4;stroke-dasharray:none;stroke-opacity:1"
     height="40"
     width="40"
     y="236.4781"
     x="110.99727" />
  <rect
     id="rect30"
     style="fill:#eceff1;stroke:#263238;stroke-width:0.66500002;stroke-miterlimit:4;stroke-dasharray:none;stroke-opacity:1"
     height="40"
     width="40"
     y="236.4781"
     x="150.99727" />
  <rect
     id="rect32"
     style="fill:#eceff1;stroke:#263238;stroke-width:0.66500002;stroke-miterlimit:4;stroke-dasharray:none;stroke-opacity:1"
     height="40"
     width="40"
     y="236.4781"
     x="190.99727" />
  <rect
     id="rect36"
     style="fill:#cfd8dc;stroke:#263238;stroke-width:0.56011653;stroke-miterlimit:4;stroke-dasharray:none;stroke-opacity:1"
     height="28.284271"
     width="40"
     y="23.30357"
     x="187.47537"
     transform="matrix(1,0,-0.70710678,0.70710678,0,0)" />
  <rect
     id="rect38"
     style="fill:#cfd8dc;stroke:#263238;stroke-width:0.56011653;stroke-miterlimit:4;stroke-dasharray:none;stroke-opacity:1"
     height="28.284271"
     width="40"
     y="23.30357"
     x="227.47537"
     transform="matrix(1,0,-0.70710678,0.70710678,0,0)" />
  <rect
     id="rect40"
     style="fill:#cfd8dc;stroke:#263238;stroke-width:0.56011653;stroke-miterlimit:4;stroke-dasharray:none;stroke-opacity:1"
     height="28.284271"
     width="40"
     y="23.30357"
     x="267.47537"
     transform="matrix(1,0,-0.70710678,0.70710678,0,0)" />
  <rect
     id="rect42"
     style="fill:#cfd8dc;stroke:#263238;stroke-width:0.56011653;stroke-miterlimit:4;stroke-dasharray:none;stroke-opacity:1"
     height="28.284271"
     width="40"
     y="23.30357"
     x="307.47537"
     transform="matrix(1,0,-0.70710678,0.70710678,0,0)" />
  <rect
     id="rect44"
     style="fill:#cfd8dc;stroke:#263238;stroke-width:0.56011653;stroke-miterlimit:4;stroke-dasharray:none;stroke-opacity:1"
     height="28.284271"
     width="40"
     y="51.587845"
     x="187.47537"
     transform="matrix(1,0,-0.70710678,0.70710678,0,0)" />
  <rect
     id="rect46"
     style="fill:#cfd8dc;stroke:#263238;stroke-width:0.56011653;stroke-miterlimit:4;stroke-dasharray:none;stroke-opacity:1"
     height="28.284271"
     width="40"
     y="51.587845"
     x="227.47537"
     transform="matrix(1,0,-0.70710678,0.70710678,0,0)" />
  <rect
     id="rect48"
     style="fill:#cfd8dc;stroke:#263238;stroke-width:0.56011653;stroke-miterlimit:4;stroke-dasharray:none;stroke-opacity:1"
     height="28.284271"
     width="40"
     y="51.587845"
     x="267.47537"
     transform="matrix(1,0,-0.70710678,0.70710678,0,0)" />
  <rect
     id="rect50"
     style="fill:#cfd8dc;stroke:#263238;stroke-width:0.56011653;stroke-miterlimit:4;stroke-dasharray:none;stroke-opacity:1"
     height="28.284271"
     width="40"
     y="51.587845"
     x="307.47537"
     transform="matrix(1,0,-0.70710678,0.70710678,0,0)" />
  <rect
     id="rect52"
     style="fill:#cfd8dc;stroke:#263238;stroke-width:0.56011653;stroke-miterlimit:4;stroke-dasharray:none;stroke-opacity:1"
     height="28.284271"
     width="40"
     y="79.872108"
     x="187.47537"
     transform="matrix(1,0,-0.70710678,0.70710678,0,0)" />
  <rect
     id="rect54"
     style="fill:#cfd8dc;stroke:#263238;stroke-width:0.56011653;stroke-miterlimit:4;stroke-dasharray:none;stroke-opacity:1"
     height="28.284271"
     width="40"
     y="79.872108"
     x="227.47537"
     transform="matrix(1,0,-0.70710678,0.70710678,0,0)" />
  <rect
     id="rect56"
     style="fill:#cfd8dc;stroke:#263238;stroke-width:0.56011653;stroke-miterlimit:4;stroke-dasharray:none;stroke-opacity:1"
     height="28.284271"
     width="40"
     y="79.872108"
     x="267.47537"
     transform="matrix(1,0,-0.70710678,0.70710678,0,0)" />
  <rect
     id="rect58"
     style="fill:#cfd8dc;stroke:#263238;stroke-width:0.56011653;stroke-miterlimit:4;stroke-dasharray:none;stroke-opacity:1"
     height="28.284271"
     width="40"
     y="79.872108"
     x="307.47537"
     transform="matrix(1,0,-0.70710678,0.70710678,0,0)" />
  <rect
     id="rect60"
     style="fill:#cfd8dc;stroke:#263238;stroke-width:0.56011653;stroke-miterlimit:4;stroke-dasharray:none;stroke-opacity:1"
     height="28.284271"
     width="40"
     y="108.15638"
     x="187.47537"
     transform="matrix(1,0,-0.70710678,0.70710678,0,0)" />
  <rect
     id="rect62"
     style="fill:#cfd8dc;stroke:#263238;stroke-width:0.56011653;stroke-miterlimit:4;stroke-dasharray:none;stroke-opacity:1"
     height="28.284271"
     width="40"
     y="108.15638"
     x="227.47537"
     transform="matrix(1,0,-0.70710678,0.70710678,0,0)" />
  <rect
     id="rect64"
     style="fill:#cfd8dc;stroke:#263238;stroke-width:0.56011653;stroke-miterlimit:4;stroke-dasharray:none;stroke-opacity:1"
     height="28.284271"
     width="40"
     y="108.15638"
     x="267.47537"
     transform="matrix(1,0,-0.70710678,0.70710678,0,0)" />
  <rect
     id="rect66"
     style="fill:#cfd8dc;stroke:#263238;stroke-width:0.56011653;stroke-miterlimit:4;stroke-dasharray:none;stroke-opacity:1"
     height="28.284271"
     width="40"
     y="108.15638"
     x="307.47537"
     transform="matrix(1,0,-0.70710678,0.70710678,0,0)" />
  <rect
     id="rect68"
     style="fill:#cfd8dc;stroke:#263238;stroke-width:0.56011653;stroke-miterlimit:4;stroke-dasharray:none;stroke-opacity:1"
     height="28.284271"
     width="40"
     y="136.44066"
     x="187.47537"
     transform="matrix(1,0,-0.70710678,0.70710678,0,0)" />
  <rect
     id="rect70"
     style="fill:#cfd8dc;stroke:#263238;stroke-width:0.56011653;stroke-miterlimit:4;stroke-dasharray:none;stroke-opacity:1"
     height="28.284271"
     width="40"
     y="136.44066"
     x="227.47537"
     transform="matrix(1,0,-0.70710678,0.70710678,0,0)" />
  <rect
     id="rect72"
     style="fill:#cfd8dc;stroke:#263238;stroke-width:0.56011653;stroke-miterlimit:4;stroke-dasharray:none;stroke-opacity:1"
     height="28.284271"
     width="40"
     y="136.44066"
     x="267.47537"
     transform="matrix(1,0,-0.70710678,0.70710678,0,0)" />
  <rect
     id="rect74"
     style="fill:#cfd8dc;stroke:#263238;stroke-width:0.56011653;stroke-miterlimit:4;stroke-dasharray:none;stroke-opacity:1"
     height="28.284271"
     width="40"
     y="136.44066"
     x="307.47537"
     transform="matrix(1,0,-0.70710678,0.70710678,0,0)" />
  <rect
     id="rect78"
     style="fill:#b0bec5;stroke:#263238;stroke-width:0.56011653;stroke-miterlimit:4;stroke-dasharray:none;stroke-opacity:1"
     height="40"
     width="28.284271"
     y="347.47537"
     x="326.67947"
     transform="matrix(0.70710678,-0.70710678,0,1,0,0)" />
  <rect
     id="rect80"
     style="fill:#b0bec5;stroke:#263238;stroke-width:0.56011653;stroke-miterlimit:4;stroke-dasharray:none;stroke-opacity:1"
     height="40"
     width="28.284271"
     y="347.47537"
     x="354.96375"
     transform="matrix(0.70710678,-0.70710678,0,1,0,0)" />
  <rect
     id="rect82"
     style="fill:#b0bec5;stroke:#263238;stroke-width:0.56011653;stroke-miterlimit:4;stroke-dasharray:none;stroke-opacity:1"
     height="40"
     width="28.284271"
     y="347.47537"
     x="383.24802"
     transform="matrix(0.70710678,-0.70710678,0,1,0,0)" />
  <rect
     id="rect84"
     style="fill:#b0bec5;stroke:#263238;stroke-width:0.56011653;stroke-miterlimit:4;stroke-dasharray:none;stroke-opacity:1"
     height="40"
     width="28.284271"
     y="347.47537"
     x="411.53229"
     transform="matrix(0.70710678,-0.70710678,0,1,0,0)" />
  <rect
     id="rect86"
     style="fill:#b0bec5;stroke:#263238;stroke-width:0.56011653;stroke-miterlimit:4;stroke-dasharray:none;stroke-opacity:1"
     height="40"
     width="28.284271"
     y="347.47537"
     x="439.81656"
     transform="matrix(0.70710678,-0.70710678,0,1,0,0)" />
  <rect
     id="rect88"
     style="fill:#b0bec5;stroke:#263238;stroke-width:0.56011653;stroke-miterlimit:4;stroke-dasharray:none;stroke-opacity:1"
     height="40"
     width="28.284271"
     y="387.47537"
     x="326.67947"
     transform="matrix(0.70710678,-0.70710678,0,1,0,0)" />
  <rect
     id="rect90"
     style="fill:#b0bec5;stroke:#263238;stroke-width:0.56011653;stroke-miterlimit:4;stroke-dasharray:none;stroke-opacity:1"
     height="40"
     width="28.284271"
     y="387.47537"
     x="354.96375"
     transform="matrix(0.70710678,-0.70710678,0,1,0,0)" />
  <rect
     id="rect92"
     style="fill:#b0bec5;stroke:#263238;stroke-width:0.56011653;stroke-miterlimit:4;stroke-dasharray:none;stroke-opacity:1"
     height="40"
     width="28.284271"
     y="387.47537"
     x="383.24802"
     transform="matrix(0.70710678,-0.70710678,0,1,0,0)" />
  <rect
     id="rect94"
     style="fill:#b0bec5;stroke:#263238;stroke-width:0.56011653;stroke-miterlimit:4;stroke-dasharray:none;stroke-opacity:1"
     height="40"
     width="28.284271"
     y="387.47537"
     x="411.53229"
     transform="matrix(0.70710678,-0.70710678,0,1,0,0)" />
  <rect
     id="rect96"
     style="fill:#b0bec5;stroke:#263238;stroke-width:0.56011653;stroke-miterlimit:4;stroke-dasharray:none;stroke-opacity:1"
     height="40"
     width="28.284271"
     y="387.47537"
     x="439.81656"
     transform="matrix(0.70710678,-0.70710678,0,1,0,0)" />
  <rect
     id="rect98"
     style="fill:#b0bec5;stroke:#263238;stroke-width:0.56011653;stroke-miterlimit:4;stroke-dasharray:none;stroke-opacity:1"
     height="40"
     width="28.284271"
     y="427.47537"
     x="326.67947"
     transform="matrix(0.70710678,-0.70710678,0,1,0,0)" />
  <rect
     id="rect100"
     style="fill:#b0bec5;stroke:#263238;stroke-width:0.56011653;stroke-miterlimit:4;stroke-dasharray:none;stroke-opacity:1"
     height="40"
     width="28.284271"
     y="427.47537"
     x="354.96375"
     transform="matrix(0.70710678,-0.70710678,0,1,0,0)" />
  <rect
     id="rect102"
     style="fill:#b0bec5;stroke:#263238;stroke-width:0.56011653;stroke-miterlimit:4;stroke-dasharray:none;stroke-opacity:1"
     height="40"
     width="28.284271"
     y="427.47537"
     x="383.24802"
     transform="matrix(0.70710678,-0.70710678,0,1,0,0)" />
  <rect
     id="rect104"
     style="fill:#b0bec5;stroke:#263238;stroke-width:0.56011653;stroke-miterlimit:4;stroke-dasharray:none;stroke-opacity:1"
     height="40"
     width="28.284271"
     y="427.47537"
     x="411.53229"
     transform="matrix(0.70710678,-0.70710678,0,1,0,0)" />
  <rect
     id="rect106"
     style="fill:#b0bec5;stroke:#263238;stroke-width:0.56011653;stroke-miterlimit:4;stroke-dasharray:none;stroke-opacity:1"
     height="40"
     width="28.284271"
     y="427.47537"
     x="439.81656"
     transform="matrix(0.70710678,-0.70710678,0,1,0,0)" />
  <rect
     id="rect108"
     style="fill:#b0bec5;stroke:#263238;stroke-width:0.56011653;stroke-miterlimit:4;stroke-dasharray:none;stroke-opacity:1"
     height="40"
     width="28.284271"
     y="467.47537"
     x="326.67947"
     transform="matrix(0.70710678,-0.70710678,0,1,0,0)" />
  <rect
     id="rect110"
     style="fill:#b0bec5;stroke:#263238;stroke-width:0.56011653;stroke-miterlimit:4;stroke-dasharray:none;stroke-opacity:1"
     height="40"
     width="28.284271"
     y="467.47537"
     x="354.96375"
     transform="matrix(0.70710678,-0.70710678,0,1,0,0)" />
  <rect
     id="rect112"
     style="fill:#b0bec5;stroke:#263238;stroke-width:0.56011653;stroke-miterlimit:4;stroke-dasharray:none;stroke-opacity:1"
     height="40"
     width="28.284271"
     y="467.47537"
     x="383.24802"
     transform="matrix(0.70710678,-0.70710678,0,1,0,0)" />
  <rect
     id="rect114"
     style="fill:#b0bec5;stroke:#263238;stroke-width:0.56011653;stroke-miterlimit:4;stroke-dasharray:none;stroke-opacity:1"
     height="40"
     width="28.284271"
     y="467.47537"
     x="411.53229"
     transform="matrix(0.70710678,-0.70710678,0,1,0,0)" />
  <rect
     id="rect116"
     style="fill:#b0bec5;stroke:#263238;stroke-width:0.56011653;stroke-miterlimit:4;stroke-dasharray:none;stroke-opacity:1"
     height="40"
     width="28.284271"
     y="467.47537"
     x="439.81656"
     transform="matrix(0.70710678,-0.70710678,0,1,0,0)" />
  <line
     id="line120"
     y2="276.47812"
     y1="116.47811"
     x2="60.997269"
     x1="60.997269"
     style="stroke:#263238;stroke-width:0.60000002;stroke-miterlimit:4;stroke-dasharray:none;stroke-opacity:1" />
  <line
     id="line122"
     y2="286.47812"
     y1="286.47812"
     x2="230.99727"
     x1="70.997269"
     style="stroke:#263238;stroke-width:0.60000002;stroke-miterlimit:4;stroke-dasharray:none;stroke-opacity:1" />
  <text
     dx="-10"
     x="50.984375"
     y="199.64803"
     style="font-style:normal;font-variant:normal;font-weight:normal;font-stretch:normal;font-family:Roboto;-inkscape-font-specification:Roboto;text-anchor:end;fill:#263238;fill-opacity:1;stroke-width:0.66500002;stroke-miterlimit:4;stroke-dasharray:none"
     id="text130">row</text>
  <text
     dy="10"
     x="151.18184"
     y="295.77814"
     style="font-style:normal;font-variant:normal;font-weight:normal;font-stretch:normal;font-family:Roboto;-inkscape-font-specification:Roboto;text-anchor:middle;fill:#263238;fill-opacity:1;stroke-width:0.66500002;stroke-miterlimit:4;stroke-dasharray:none"
     id="text132">col</text>
  <g
     id="g1182"
     transform="rotate(-45,336.94638,143.40497)">
    <line
       style="stroke:#263238;stroke-width:0.60000002;stroke-miterlimit:4;stroke-dasharray:none;stroke-opacity:1"
       x1="167.93213"
       x2="309.35352"
       y1="172.58456"
       y2="172.58456"
       id="line124-3" />
    <text
       y="181.533"
       x="238.83032"
       id="text134-6"
       style="font-style:normal;font-variant:normal;font-weight:normal;font-stretch:normal;font-family:Roboto;-inkscape-font-specification:Roboto;text-anchor:middle;fill:#263238;fill-opacity:1;stroke-width:0.66500002;stroke-miterlimit:4;stroke-dasharray:none"
       dy="10">time</text>
  </g>
</svg>
